#VRML V2.0 utf8
# 3D model generated by easyeda2kicad.py (https://github.com/uPesy/easyeda2kicad.py)

Shape{
    appearance Appearance {
        material  Material 	{
            diffuseColor 0.25098039215686274 0.25098039215686274 0.25098039215686274
            specularColor 0.12549019607843137 0.12549019607843137 0.12549019607843137
            ambientIntensity 0.2
            transparency 0
            shininess 0.5
        }
    }
    geometry IndexedFaceSet {
        ccw TRUE
        solid FALSE
        coord DEF co Coordinate {
            point [
                0.1969 0.0433 0.097, 0.1969 0.0432 0.097, 0.1969 0.0432 0.0956, 0.1969 0.051 0.1135, 0.1969 0.0464 0.1019, 0.1969 0.0521 0.1019, 0.1969 0.0238 0.1435, 0.1969 0.025 0.1436, 0.1969 0.0186 0.1436, 0.1969 0.0279 0.1274, 0.1969 0.0269 0.1273, 0.1969 0.0322 0.1273, 0.1969 0.0582 0.0956, 0.1969 0.0582 0.0423, 0.1969 0.0783 0.0423, 0.1969 -0.0896 0.0423, 0.1969 -0.0833 0.0423, 0.1969 -0.0833 0.0956, 0.1969 0.0352 0.1416, 0.1969 0.0352 0.1365, 0.1969 0.0395 0.1365, 0.1969 0.036 0.102, 0.1969 0.0356 0.1019, 0.1969 0.0395 0.1019, 0.1969 0.0542 0.1273, 0.1969 0.0542 0.1181, 0.1969 0.0582 0.1181, 0.1969 0.0552 0.1093, 0.1969 0.0552 0.1039, 0.1969 0.0582 0.1039, 0.1969 -0.0456 0.1153, 0.1969 -0.0437 0.1135, 0.1969 -0.0391 0.1159, 0.1969 -0.0762 0.1255, 0.1969 -0.0753 0.1273, 0.1969 -0.0833 0.1273, 0.1969 -0.0086 0.1284, 0.1969 -0.0078 0.1273, 0.1969 0.0023 0.1273, 0.1969 -0.0243 0.1436, 0.1969 -0.0217 0.1419, 0.1969 0.0023 0.1436, 0.1969 -0.018 0.1375, 0.1969 -0.0156 0.1329, 0.1969 -0.015 0.1327, 0.1969 -0.0117 0.131, 0.1969 -0.0325 0.1473, 0.1969 -0.0268 0.1453, 0.1969 0.0023 0.189, 0.1969 -0.0481 0.1451, 0.1969 -0.0428 0.1471, 0.1969 -0.0833 0.189, 0.1969 -0.0372 0.1478, 0.1969 -0.0833 0.1436, 0.1969 -0.063 0.138, 0.1969 -0.0585 0.1386, 0.1969 -0.0743 0.1296, 0.1969 -0.0716 0.1331, 0.1969 -0.0504 0.1436, 0.1969 -0.0509 0.1433, 0.1969 -0.0535 0.141, 0.1969 -0.0572 0.1385, 0.1969 -0.0559 0.1383, 0.1969 -0.0708 0.1338, 0.1969 -0.0672 0.1364, 0.1969 -0.0833 0.1159, 0.1969 -0.0764 0.1159, 0.1969 -0.0769 0.1201, 0.1969 -0.0769 0.1212, 0.1969 -0.0645 0.1027, 0.1969 -0.0686 0.1047, 0.1969 -0.0833 0.1019, 0.1969 -0.0631 0.1022, 0.1969 -0.0722 0.1077, 0.1969 -0.0747 0.1114, 0.1969 -0.0764 0.1156, 0.1969 -0.0569 0.0956, 0.1969 -0.0581 0.0961, 0.1969 -0.0603 0.0978, 0.1969 -0.062 0.0999, 0.1969 -0.0629 0.1019, 0.1969 -0.0555 0.095, 0.1969 -0.0528 0.0945, 0.1969 -0.0553 0.0423, 0.1969 -0.0522 0.0945, 0.1969 0.0177 0.0956, 0.1969 0.0023 0.1019, 0.1969 0.0023 0.0956, 0.1969 -0.0416 0.1019, 0.1969 -0.0416 0.1019, 0.1969 -0.0429 0.0994, 0.1969 -0.0448 0.0973, 0.1969 -0.0471 0.0957, 0.1969 -0.0475 0.0956, 0.1969 -0.0497 0.0948, 0.1969 0.0023 0.1159, 0.1969 -0.0046 0.1159, 0.1969 -0.0048 0.1139, 0.1969 -0.027 0.1087, 0.1969 -0.0262 0.109, 0.1969 -0.0249 0.1154, 0.1969 -0.0085 0.1071, 0.1969 -0.0116 0.1045, 0.1969 -0.0277 0.1082, 0.1969 -0.0254 0.1091, 0.1969 -0.0253 0.1091, 0.1969 -0.0249 0.109, 0.1969 -0.0062 0.1103, 0.1969 -0.0151 0.1028, 0.1969 -0.0189 0.102, 0.1969 -0.0256 0.102, 0.1969 -0.0262 0.1021, 0.1969 -0.0269 0.1024, 0.1969 -0.0277 0.1029, 0.1969 -0.028 0.1032, 0.1969 -0.0137 0.1118, 0.1969 -0.0124 0.1136, 0.1969 -0.0289 0.1055, 0.1969 -0.0289 0.1059, 0.1969 -0.0409 0.107, 0.1969 -0.0287 0.1068, 0.1969 -0.0283 0.1075, 0.1969 -0.0247 0.1089, 0.1969 -0.0196 0.1089, 0.1969 -0.0175 0.1093, 0.1969 -0.0285 0.1039, 0.1969 -0.0288 0.1047, 0.1969 -0.0409 0.1047, 0.1969 -0.0409 0.1059, 0.1969 -0.0155 0.1103, 0.1969 -0.0138 0.1116, 0.1969 -0.0507 0.1173, 0.1969 -0.048 0.1166, 0.1969 -0.0213 0.1273, 0.1969 -0.0522 0.1174, 0.1969 -0.0116 0.1156, 0.1969 -0.0116 0.1159, 0.1969 -0.0252 0.1159, 0.1969 -0.0114 0.1178, 0.1969 -0.0114 0.1188, 0.1969 -0.0548 0.1171, 0.1969 -0.0673 0.1273, 0.1969 -0.0573 0.1162, 0.1969 -0.0685 0.1255, 0.1969 -0.0695 0.1229, 0.1969 -0.0698 0.1203, 0.1969 -0.0696 0.1185, 0.1969 -0.0577 0.1159, 0.1969 -0.0688 0.1159, 0.1969 -0.0597 0.1146, 0.1969 -0.0143 0.1245, 0.1969 -0.0161 0.1257, 0.1969 -0.0119 0.121, 0.1969 -0.013 0.123, 0.1969 -0.0212 0.1267, 0.1969 -0.0284 0.1215, 0.1969 -0.0202 0.1267, 0.1969 -0.0181 0.1264, 0.1969 -0.0468 0.1159, 0.1969 -0.0652 0.1112, 0.1969 -0.0629 0.1099, 0.1969 -0.0616 0.1124, 0.1969 -0.0673 0.1133, 0.1969 -0.0688 0.1157, 0.1969 -0.0236 0.1336, 0.1969 -0.0262 0.1367, 0.1969 -0.0524 0.13, 0.1969 -0.0264 0.1369, 0.1969 -0.0296 0.1391, 0.1969 -0.0506 0.1336, 0.1969 -0.0533 0.1305, 0.1969 -0.0219 0.13, 0.1969 -0.0559 0.1314, 0.1969 -0.0584 0.1317, 0.1969 -0.0595 0.1317, 0.1969 -0.048 0.1367, 0.1969 -0.0332 0.1405, 0.1969 -0.045 0.1389, 0.1969 -0.0371 0.1409, 0.1969 -0.0413 0.1404, 0.1969 -0.0623 0.131, 0.1969 -0.0649 0.1297, 0.1969 -0.067 0.1278, 0.1969 -0.0062 0.1252, 0.1969 -0.0048 0.1217, 0.1969 -0.0043 0.1179, 0.1969 0.0848 0.1181, 0.1969 0.0783 0.1273, 0.1969 0.084 0.1159, 0.1969 0.0783 0.1159, 0.1969 0.0787 0.1021, 0.1969 0.0783 0.1019, 0.1969 0.081 0.1021, 0.1969 0.0909 0.1021, 0.1969 0.0892 0.1064, 0.1969 0.0825 0.1064, 0.1969 0.0931 0.1021, 0.1969 0.1181 0.1019, 0.1969 0.0879 0.1159, 0.1969 0.1181 0.1159, 0.1969 0.087 0.1181, 0.1969 0.1181 0.1273, 0.1969 0.0774 0.1074, 0.1969 0.0766 0.1057, 0.1969 0.076 0.1154, 0.1969 0.077 0.114, 0.1969 0.061 0.1093, 0.1969 0.0648 0.1021, 0.1969 0.061 0.1111, 0.1969 0.0648 0.1159, 0.1969 0.0582 0.1111, 0.1969 0.0754 0.1043, 0.1969 0.0752 0.1041, 0.1969 0.0737 0.1031, 0.1969 0.0718 0.1024, 0.1969 0.0692 0.1021, 0.1969 0.0582 0.1019, 0.1969 0.0618 0.1021, 0.1969 0.0776 0.1125, 0.1969 0.0778 0.1103, 0.1969 0.0778 0.1093, 0.1969 0.0614 0.1181, 0.1969 0.0614 0.1162, 0.1969 0.0582 0.1159, 0.1969 0.0582 0.1162, 0.1969 0.0694 0.1181, 0.1969 0.0718 0.1178, 0.1969 0.0648 0.1181, 0.1969 0.0737 0.1171, 0.1969 0.0754 0.116, 0.1969 0.0755 0.1159, 0.1969 0.0618 0.1039, 0.1969 0.0582 0.1093, 0.1969 0.0552 0.1111, 0.1969 0.0552 0.1159, 0.1969 0.0552 0.1162, 0.1969 0.0532 0.1021, 0.1969 0.0532 0.1159, 0.1969 0.0521 0.1159, 0.1969 0.0532 0.1181, 0.1969 0.0205 0.1107, 0.1969 0.0205 0.1127, 0.1969 0.0186 0.1159, 0.1969 0.0265 0.1021, 0.1969 0.0241 0.1019, 0.1969 0.0285 0.1021, 0.1969 0.0322 0.1019, 0.1969 0.0265 0.1038, 0.1969 0.0265 0.1038, 0.1969 0.026 0.1031, 0.1969 0.0186 0.1019, 0.1969 0.0197 0.1035, 0.1969 0.0195 0.1041, 0.1969 0.0314 0.1112, 0.1969 0.0264 0.1134, 0.1969 0.0271 0.113, 0.1969 0.0253 0.1025, 0.1969 0.0249 0.1022, 0.1969 0.0209 0.1023, 0.1969 0.0203 0.1027, 0.1969 0.0201 0.1029, 0.1969 0.0209 0.1129, 0.1969 0.0223 0.1135, 0.1969 0.0244 0.1138, 0.1969 0.0316 0.1118, 0.1969 0.032 0.1124, 0.1969 0.0202 0.1075, 0.1969 0.0208 0.108, 0.1969 0.0216 0.1085, 0.1969 0.0219 0.1116, 0.1969 0.0231 0.1089, 0.1969 0.0249 0.1121, 0.1969 0.0242 0.1121, 0.1969 0.0231 0.112, 0.1969 0.0276 0.1125, 0.1969 0.0281 0.1119, 0.1969 0.0284 0.111, 0.1969 0.0193 0.1051, 0.1969 0.0194 0.1054, 0.1969 0.0195 0.1062, 0.1969 0.0198 0.1069, 0.1969 0.0265 0.1093, 0.1969 0.0265 0.1102, 0.1969 0.0263 0.1109, 0.1969 0.026 0.1113, 0.1969 0.0256 0.1137, 0.1969 0.0318 0.1086, 0.1969 0.0316 0.1091, 0.1969 0.0285 0.1094, 0.1969 0.0313 0.1097, 0.1969 0.0313 0.1104, 0.1969 0.0257 0.1117, 0.1969 0.0254 0.1119, 0.1969 0.0322 0.1083, 0.1969 0.0313 0.1045, 0.1969 0.0322 0.1082, 0.1969 0.032 0.1041, 0.1969 0.0322 0.104, 0.1969 0.0313 0.1025, 0.1969 0.0322 0.1021, 0.1969 0.0326 0.102, 0.1969 0.0331 0.1019, 0.1969 0.0344 0.1018, 0.1969 0.0322 0.0956, 0.1969 0.0395 0.0956, 0.1969 0.0395 0.1159, 0.1969 0.0384 0.1132, 0.1969 0.0384 0.1113, 0.1969 0.0322 0.1125, 0.1969 0.0322 0.1159, 0.1969 0.0326 0.1128, 0.1969 0.033 0.1131, 0.1969 0.0389 0.1059, 0.1969 0.039 0.1052, 0.1969 0.0389 0.1043, 0.1969 0.0386 0.1037, 0.1969 0.0382 0.1032, 0.1969 0.0341 0.1136, 0.1969 0.0357 0.1138, 0.1969 0.0371 0.1136, 0.1969 0.0387 0.1065, 0.1969 0.0384 0.107, 0.1969 0.0383 0.1071, 0.1969 0.0377 0.1027, 0.1969 0.0371 0.1024, 0.1969 0.0355 0.1121, 0.1969 0.0349 0.1121, 0.1969 0.0333 0.1106, 0.1969 0.0344 0.1119, 0.1969 0.0339 0.1117, 0.1969 0.0334 0.1103, 0.1969 0.0334 0.11, 0.1969 0.0336 0.1097, 0.1969 0.0338 0.1095, 0.1969 0.0345 0.1091, 0.1969 0.0369 0.112, 0.1969 0.0357 0.1085, 0.1969 0.0381 0.1115, 0.1969 0.0365 0.1082, 0.1969 0.0378 0.1075, 0.1969 0.0336 0.1114, 0.1969 0.0335 0.1112, 0.1969 0.0334 0.1109, 0.1969 0.0332 0.1036, 0.1969 0.0343 0.1071, 0.1969 0.0331 0.1076, 0.1969 0.0346 0.1034, 0.1969 0.0346 0.1034, 0.1969 0.0356 0.1065, 0.1969 0.0357 0.1035, 0.1969 0.0369 0.105, 0.1969 0.0369 0.1052, 0.1969 0.0362 0.1037, 0.1969 0.0364 0.1038, 0.1969 0.0366 0.104, 0.1969 0.0368 0.1043, 0.1969 0.0369 0.1046, 0.1969 0.0368 0.1055, 0.1969 0.0367 0.1058, 0.1969 0.0364 0.1061, 0.1969 0.0493 0.1435, 0.1969 0.0521 0.1436, 0.1969 0.0432 0.1436, 0.1969 0.0521 0.1279, 0.1969 0.0518 0.1278, 0.1969 0.0521 0.1273, 0.1969 0.0492 0.1275, 0.1969 0.0432 0.1273, 0.1969 0.0447 0.1275, 0.1969 0.0447 0.1435, 0.1969 0.0536 0.1285, 0.1969 0.0542 0.1289, 0.1969 0.0559 0.1408, 0.1969 0.0569 0.1394, 0.1969 0.0582 0.1436, 0.1969 0.0574 0.1328, 0.1969 0.0566 0.1311, 0.1969 0.0582 0.1273, 0.1969 0.0554 0.1297, 0.1969 0.0552 0.1295, 0.1969 0.0542 0.1436, 0.1969 0.0542 0.1421, 0.1969 0.0554 0.1414, 0.1969 0.0575 0.1379, 0.1969 0.0578 0.1357, 0.1969 0.0577 0.1347, 0.1969 0.0518 0.1432, 0.1969 0.0521 0.1431, 0.1969 0.0537 0.1425, 0.1969 0.0395 0.1436, 0.1969 0.0414 0.1435, 0.1969 0.0395 0.1435, 0.1969 0.0414 0.1416, 0.1969 0.0417 0.1293, 0.1969 0.0417 0.1275, 0.1969 0.0395 0.1273, 0.1969 0.0352 0.1293, 0.1969 0.0395 0.1293, 0.1969 0.0352 0.1347, 0.1969 0.0395 0.1347, 0.1969 0.0409 0.1347, 0.1969 0.0409 0.1365, 0.1969 0.0395 0.1416, 0.1969 0.0331 0.1435, 0.1969 0.0322 0.1436, 0.1969 0.0331 0.1275, 0.1969 0.0023 0.0, 0.1969 -0.0553 0.0255, 0.1969 -0.0833 0.0, 0.1969 -0.0833 0.0255, 0.1969 -0.1181 0.0, 0.1969 -0.0896 0.0255, 0.1969 -0.1181 0.0956, 0.1969 0.0582 0.0255, 0.1969 0.0553 0.0255, 0.1969 0.0542 0.0, 0.1969 0.0553 0.0423, 0.1969 0.0582 0.0, 0.1969 0.0783 0.0, 0.1969 0.0783 0.0255, 0.1969 0.0896 0.0255, 0.1969 0.1181 0.0, 0.1969 0.0896 0.0423, 0.1969 0.1181 0.0956, 0.1969 0.0783 0.0956, 0.1969 0.0283 0.1436, 0.1969 0.0299 0.1431, 0.1969 0.0395 0.1275, 0.1969 0.0299 0.1409, 0.1969 0.0296 0.128, 0.1969 0.0265 0.1291, 0.1969 0.0283 0.1294, 0.1969 0.0299 0.1301, 0.1969 0.0299 0.1281, 0.1969 0.0209 0.1318, 0.1969 0.0217 0.1307, 0.1969 0.022 0.1304, 0.1969 0.023 0.1297, 0.1969 0.0241 0.1292, 0.1969 0.0258 0.129, 0.1969 0.0281 0.1416, 0.1969 0.0216 0.1399, 0.1969 0.0297 0.141, 0.1969 0.0208 0.1387, 0.1969 0.0203 0.1373, 0.1969 0.0261 0.1419, 0.1969 0.0255 0.1419, 0.1969 0.0218 0.1401, 0.1969 0.0241 0.1416, 0.1969 0.0229 0.141, 0.1969 0.0201 0.1353, 0.1969 0.0201 0.1347, 0.1969 0.0204 0.1331, 0.1969 0.0261 0.1437, 0.1969 0.0186 0.189, 0.1969 0.0322 0.189, 0.1969 0.0262 0.1437, 0.1969 0.0278 0.1436, 0.1969 0.0191 0.1399, 0.1969 0.0202 0.1414, 0.1969 0.0206 0.1417, 0.1969 0.0221 0.1428, 0.1969 0.0177 0.1436, 0.1969 0.0183 0.1381, 0.1969 0.0186 0.1389, 0.1969 0.0186 0.1315, 0.1969 0.0182 0.1326, 0.1969 0.0177 0.1273, 0.1969 0.0179 0.1352, 0.1969 0.0179 0.136, 0.1969 0.0228 0.1276, 0.1969 0.0213 0.1283, 0.1969 0.0186 0.1273, 0.1969 0.02 0.1294, 0.1969 0.0198 0.1295, 0.1969 0.0189 0.1309, 0.1969 0.0241 0.1273, 0.1969 0.0245 0.1272, 0.1969 0.0255 0.1272, 0.1969 0.0109 0.1159, 0.1969 0.0109 0.1111, 0.1969 0.0177 0.1159, 0.1969 0.0166 0.1111, 0.1969 0.0109 0.1093, 0.1969 0.0109 0.1039, 0.1969 0.0166 0.1093, 0.1969 0.0174 0.1039, 0.1969 0.0177 0.1019, 0.1969 0.0174 0.1021, 0.1969 0.0088 0.1021, 0.1969 0.0186 0.0956, 0.1969 0.023 0.1018, 0.1969 0.0225 0.1018, 0.1969 0.0219 0.1019, 0.1969 0.0216 0.102, 0.1969 0.0489 0.1135, 0.1969 0.0542 0.1019, 0.1969 0.0542 0.1021, 0.1969 0.0582 0.1021, 0.1969 0.0453 0.1049, 0.1969 0.0455 0.104, 0.1969 0.0456 0.104, 0.1969 0.0432 0.1159, 0.1969 0.0432 0.1107, 0.1969 0.0458 0.1049, 0.1969 0.0456 0.1043, 0.1969 0.0432 0.1053, 0.1969 0.04 0.1135, 0.1969 0.0423 0.1135, 0.1969 0.0444 0.1019, 0.1969 0.0445 0.1021, 0.1969 0.0432 0.0993, 0.1969 0.0433 0.0993, 0.1969 0.0432 0.1019, 0.1969 0.0436 0.1, 0.1969 0.0404 0.0986, 0.1969 0.0404 0.0968, 0.1969 0.0409 0.0985, 0.1969 0.0416 0.0984, 0.1969 0.042 0.0984, 0.1969 0.0425 0.0967, 0.1969 0.0417 0.0967, 0.1969 0.041 0.0967, 0.1969 0.0425 0.0986, 0.1969 0.0429 0.0989, 0.1969 0.044 0.0975, 0.1969 0.0521 0.0956, 0.1969 0.0444 0.0979, 0.1969 0.0458 0.1003, 0.1969 0.0452 0.0991, 0.1969 -0.1181 0.1019, 0.1969 -0.1181 0.1159, 0.1969 -0.1181 0.1273, 0.1969 -0.1181 0.1436, 0.1969 -0.1181 0.189, 0.1969 0.0109 0.1435, 0.1969 0.0109 0.1293, 0.1969 0.0173 0.1293, 0.1969 0.0088 0.1275, 0.1969 0.0088 0.1435, 0.1969 0.0173 0.1275, 0.1969 0.0109 0.1162, 0.1969 0.0171 0.1162, 0.1969 0.0171 0.1181, 0.1969 0.0088 0.1181, 0.1969 0.0088 0.1159, 0.1969 0.0177 0.189, 0.1969 0.0542 0.189, 0.1969 0.0521 0.189, 0.1969 0.0432 0.189, 0.1969 0.0395 0.189, 0.1969 0.0542 0.0956, 0.1969 0.0521 0.0, 0.1969 0.0432 0.0, 0.1969 0.0395 0.0, 0.1969 0.0322 0.0, 0.1969 0.0186 0.0, 0.1969 0.0177 0.0, 0.1969 0.0783 0.1436, 0.1969 0.0783 0.189, 0.1969 0.0582 0.189, 0.1969 0.0692 0.1318, 0.1969 0.0625 0.1318, 0.1969 0.0708 0.1275, 0.1969 0.061 0.1275, 0.1969 0.0731 0.1275, 0.1969 0.0587 0.1275, 0.1969 0.0648 0.1435, 0.1969 0.067 0.1435, 0.1969 0.1181 0.1436, 0.1969 0.1181 0.189, -0.1615 -0.1181 0.0423, -0.0866 -0.1181 0.0423, -0.0866 -0.1181 0.0255, -0.1615 -0.1181 0.0255, -0.1969 -0.1181 0.0, -0.1969 -0.1181 0.189, 0.0867 -0.1181 0.0255, 0.0867 -0.1181 0.0423, 0.1616 -0.1181 0.0423, 0.1616 -0.1181 0.0255, 0.0787 -0.0984 0.0, -0.0787 -0.0984 0.0, 0.0787 0.0984 0.0, -0.0787 0.0984 0.0, -0.1772 -0.0984 0.0, -0.1772 0.0512 0.0, -0.1969 0.1181 0.0, -0.1299 0.0984 0.0, 0.1772 -0.0984 0.0, 0.1772 0.0984 0.0, -0.0866 0.1181 0.0423, -0.1615 0.1181 0.0423, -0.1969 0.1181 0.189, -0.0866 0.1181 0.0255, -0.1615 0.1181 0.0255, 0.1616 0.1181 0.0423, 0.0867 0.1181 0.0423, 0.0867 0.1181 0.0255, 0.1616 0.1181 0.0255, -0.1969 -0.0553 0.0423, -0.1969 -0.0896 0.0423, -0.1969 -0.0896 0.0255, -0.1969 -0.0553 0.0255, -0.1969 0.0553 0.0255, -0.1969 0.0896 0.0255, -0.1969 0.0896 0.0423, -0.1969 0.0553 0.0423, -0.1969 0.0553 0.0423
            ]
        }
        coordIndex [
            0,1,2,-1,3,4,5,-1,6,7,8,-1,9,10,11,-1,12,13,14,-1,15,16,17,-1,18,19,20,-1,21,22,23,-1,24,25,26,-1,27,28,29,-1,30,31,32,-1,33,34,35,-1,36,37,38,-1,39,40,41,-1,41,40,42,-1,42,43,41,-1,41,43,44,-1,41,44,45,-1,46,47,48,-1,49,50,51,-1,51,50,48,-1,48,50,52,-1,48,52,46,-1,53,54,55,-1,35,34,53,-1,53,34,56,-1,53,56,57,-1,49,51,58,-1,58,51,53,-1,58,53,59,-1,59,53,55,-1,59,55,60,-1,60,55,61,-1,60,61,62,-1,57,63,53,-1,53,63,64,-1,53,64,54,-1,65,66,67,-1,65,67,35,-1,35,67,68,-1,35,68,33,-1,69,70,71,-1,69,71,72,-1,70,73,71,-1,71,73,74,-1,71,74,65,-1,65,74,75,-1,65,75,66,-1,17,76,77,-1,77,78,17,-1,17,78,79,-1,17,79,71,-1,71,79,80,-1,71,80,72,-1,76,17,81,-1,81,17,16,-1,81,16,82,-1,82,16,83,-1,82,83,84,-1,85,86,87,-1,87,86,88,-1,88,89,87,-1,87,89,90,-1,87,90,91,-1,91,92,87,-1,87,92,93,-1,87,93,83,-1,83,93,94,-1,83,94,84,-1,95,96,97,-1,98,99,100,-1,101,102,86,-1,98,100,103,-1,99,104,100,-1,100,104,105,-1,100,105,106,-1,95,97,86,-1,86,97,107,-1,86,107,101,-1,102,108,86,-1,86,108,109,-1,86,109,88,-1,88,109,110,-1,88,110,111,-1,111,112,88,-1,88,112,113,-1,88,113,114,-1,100,115,116,-1,117,118,119,-1,119,118,120,-1,119,120,100,-1,100,120,121,-1,100,121,103,-1,106,122,100,-1,100,122,123,-1,100,123,124,-1,114,125,88,-1,88,125,126,-1,88,126,127,-1,127,126,117,-1,127,117,128,-1,128,117,119,-1,124,129,100,-1,100,129,130,-1,100,130,115,-1,131,132,133,-1,131,133,134,-1,116,135,100,-1,100,135,136,-1,100,136,137,-1,137,136,138,-1,137,138,139,-1,140,141,142,-1,142,141,143,-1,142,143,144,-1,144,145,142,-1,142,145,146,-1,142,146,147,-1,147,146,148,-1,147,148,149,-1,137,150,151,-1,139,152,137,-1,137,152,153,-1,137,153,150,-1,154,155,156,-1,156,155,137,-1,156,137,157,-1,157,137,151,-1,154,133,155,-1,155,133,132,-1,155,132,32,-1,32,132,158,-1,32,158,30,-1,159,160,161,-1,159,161,162,-1,149,148,161,-1,161,148,163,-1,161,163,162,-1,164,165,166,-1,165,167,166,-1,166,167,168,-1,166,168,169,-1,141,166,170,-1,140,134,141,-1,141,134,133,-1,141,133,166,-1,166,133,171,-1,166,171,164,-1,170,172,141,-1,141,172,173,-1,141,173,174,-1,169,168,175,-1,175,168,176,-1,175,176,177,-1,177,176,178,-1,177,178,179,-1,180,181,174,-1,174,181,182,-1,174,182,141,-1,37,183,38,-1,38,183,184,-1,38,184,95,-1,95,184,185,-1,95,185,96,-1,186,187,188,-1,188,187,189,-1,188,189,190,-1,190,189,191,-1,190,191,192,-1,193,194,195,-1,195,192,193,-1,193,192,191,-1,193,191,196,-1,196,191,197,-1,196,197,198,-1,198,197,199,-1,198,199,200,-1,200,199,201,-1,202,203,191,-1,204,205,189,-1,206,207,208,-1,208,207,209,-1,208,209,210,-1,203,211,191,-1,191,211,212,-1,191,212,213,-1,213,214,191,-1,191,214,215,-1,191,215,216,-1,216,215,207,-1,216,207,217,-1,205,218,189,-1,189,218,219,-1,189,219,191,-1,191,219,220,-1,191,220,202,-1,221,222,209,-1,210,209,223,-1,223,209,222,-1,223,222,224,-1,225,226,187,-1,225,187,227,-1,226,228,187,-1,187,228,229,-1,187,229,189,-1,189,229,230,-1,189,230,204,-1,217,207,231,-1,231,207,206,-1,231,206,29,-1,29,206,232,-1,29,232,27,-1,233,210,234,-1,234,210,223,-1,234,223,235,-1,235,223,224,-1,236,237,238,-1,238,237,239,-1,240,241,242,-1,243,244,245,-1,245,244,246,-1,247,248,243,-1,243,248,249,-1,250,251,252,-1,253,254,255,-1,249,256,243,-1,243,256,257,-1,243,257,244,-1,258,259,250,-1,250,259,260,-1,250,260,251,-1,241,261,242,-1,242,261,262,-1,242,262,263,-1,242,264,265,-1,266,267,240,-1,240,267,268,-1,240,268,269,-1,269,268,270,-1,271,272,270,-1,270,272,273,-1,270,273,269,-1,255,274,253,-1,253,274,275,-1,253,275,276,-1,252,277,250,-1,250,277,278,-1,250,278,242,-1,242,278,279,-1,242,279,240,-1,240,279,280,-1,240,280,266,-1,281,282,270,-1,270,282,283,-1,270,283,284,-1,263,285,242,-1,242,285,254,-1,242,254,264,-1,264,254,253,-1,286,287,288,-1,288,287,289,-1,288,289,276,-1,276,289,290,-1,276,290,253,-1,284,291,270,-1,270,291,292,-1,270,292,271,-1,293,294,295,-1,295,294,296,-1,295,296,297,-1,293,286,294,-1,294,286,288,-1,294,288,298,-1,298,288,245,-1,298,245,299,-1,299,245,246,-1,299,246,300,-1,300,246,301,-1,302,303,22,-1,22,303,304,-1,22,304,23,-1,305,306,307,-1,265,308,309,-1,309,308,310,-1,309,310,311,-1,312,313,23,-1,313,314,23,-1,23,314,315,-1,23,315,316,-1,311,317,309,-1,309,317,318,-1,309,318,305,-1,305,318,319,-1,305,319,306,-1,320,307,321,-1,321,307,322,-1,316,323,23,-1,23,323,324,-1,23,324,21,-1,325,326,327,-1,327,326,328,-1,327,328,329,-1,327,330,325,-1,325,330,331,-1,325,331,332,-1,332,333,325,-1,325,333,334,-1,325,334,335,-1,335,334,336,-1,335,336,337,-1,337,336,338,-1,337,338,307,-1,307,338,339,-1,307,339,322,-1,340,341,329,-1,329,341,342,-1,329,342,327,-1,343,344,297,-1,297,344,345,-1,297,345,295,-1,343,346,344,-1,344,346,347,-1,344,347,348,-1,348,347,349,-1,348,350,351,-1,349,352,348,-1,348,352,353,-1,348,353,354,-1,354,355,348,-1,348,355,356,-1,348,356,350,-1,351,357,348,-1,348,357,358,-1,348,358,359,-1,360,361,362,-1,363,364,365,-1,365,364,366,-1,365,366,367,-1,367,366,368,-1,367,368,362,-1,362,368,369,-1,362,369,360,-1,363,365,370,-1,370,365,24,-1,370,24,371,-1,372,373,374,-1,375,376,377,-1,377,376,378,-1,377,378,379,-1,209,227,221,-1,221,227,187,-1,221,187,26,-1,26,187,377,-1,26,377,24,-1,24,377,379,-1,24,379,371,-1,380,381,374,-1,374,381,382,-1,374,382,372,-1,373,383,374,-1,374,383,384,-1,374,384,377,-1,377,384,385,-1,377,385,375,-1,360,386,361,-1,361,386,387,-1,361,387,380,-1,380,387,388,-1,380,388,381,-1,362,389,390,-1,390,389,391,-1,390,392,362,-1,362,392,393,-1,362,393,367,-1,367,393,394,-1,367,394,395,-1,396,397,398,-1,398,397,399,-1,399,397,400,-1,400,397,393,-1,400,393,401,-1,401,393,392,-1,401,392,20,-1,20,392,402,-1,20,402,18,-1,391,389,403,-1,403,389,404,-1,403,404,405,-1,406,407,408,-1,408,407,409,-1,408,409,410,-1,410,409,411,-1,410,411,412,-1,413,414,415,-1,415,414,416,-1,415,417,413,-1,413,417,418,-1,413,418,419,-1,419,418,420,-1,420,418,421,-1,420,421,422,-1,422,421,423,-1,422,423,14,-1,14,423,424,-1,14,424,12,-1,425,426,404,-1,394,427,395,-1,395,427,405,-1,395,405,11,-1,11,405,404,-1,11,404,428,-1,428,404,426,-1,9,11,429,-1,430,431,428,-1,428,431,432,-1,428,432,11,-1,11,432,433,-1,11,433,429,-1,434,435,428,-1,428,435,436,-1,428,436,437,-1,437,438,428,-1,428,438,439,-1,428,439,430,-1,440,441,442,-1,442,441,443,-1,442,443,444,-1,440,445,441,-1,441,445,446,-1,441,446,447,-1,447,446,448,-1,447,448,449,-1,444,450,442,-1,442,450,451,-1,442,451,428,-1,428,451,452,-1,428,452,434,-1,7,453,454,-1,454,453,455,-1,455,453,456,-1,455,456,457,-1,8,458,459,-1,459,460,8,-1,8,460,461,-1,8,461,6,-1,462,463,8,-1,8,463,464,-1,8,464,458,-1,465,466,467,-1,467,466,468,-1,467,468,462,-1,462,468,469,-1,462,469,463,-1,470,471,472,-1,471,473,472,-1,472,473,474,-1,472,474,475,-1,470,472,476,-1,476,472,242,-1,476,242,477,-1,265,309,242,-1,242,309,478,-1,242,478,477,-1,479,480,481,-1,481,480,482,-1,483,484,485,-1,485,484,486,-1,482,485,481,-1,481,485,486,-1,481,486,487,-1,487,486,488,-1,487,488,489,-1,302,301,303,-1,303,301,246,-1,303,246,490,-1,490,246,244,-1,490,244,491,-1,491,492,490,-1,490,492,493,-1,490,493,250,-1,250,493,494,-1,250,494,258,-1,495,3,238,-1,238,3,5,-1,238,5,236,-1,236,5,496,-1,236,496,497,-1,497,496,216,-1,497,216,498,-1,498,216,217,-1,499,500,501,-1,238,502,495,-1,495,502,503,-1,495,503,504,-1,504,503,499,-1,504,499,505,-1,505,499,501,-1,506,507,23,-1,320,312,307,-1,307,312,23,-1,307,23,305,-1,305,23,507,-1,305,507,502,-1,502,507,508,-1,502,508,503,-1,509,510,506,-1,511,512,513,-1,513,512,514,-1,513,514,509,-1,509,506,513,-1,513,506,23,-1,513,23,515,-1,515,23,304,-1,515,304,516,-1,515,517,513,-1,513,517,518,-1,513,518,519,-1,1,520,2,-1,2,520,521,-1,2,521,304,-1,304,521,522,-1,304,522,516,-1,519,523,513,-1,513,523,524,-1,513,524,511,-1,0,2,525,-1,525,2,526,-1,525,526,527,-1,4,528,526,-1,526,528,529,-1,526,529,527,-1,411,15,412,-1,412,15,17,-1,412,17,530,-1,530,17,71,-1,530,71,531,-1,531,71,65,-1,531,65,532,-1,532,65,35,-1,532,35,533,-1,533,35,53,-1,533,53,534,-1,534,53,51,-1,535,536,537,-1,467,538,38,-1,38,538,41,-1,38,41,36,-1,36,41,45,-1,538,539,41,-1,41,539,535,-1,41,535,462,-1,462,535,537,-1,462,537,467,-1,467,537,540,-1,467,540,538,-1,541,479,542,-1,542,479,481,-1,542,481,543,-1,543,481,467,-1,543,467,544,-1,544,467,38,-1,544,38,545,-1,545,38,95,-1,545,95,489,-1,489,95,86,-1,489,86,487,-1,487,86,85,-1,7,454,8,-1,8,454,546,-1,8,546,462,-1,462,546,48,-1,462,48,41,-1,41,48,47,-1,41,47,39,-1,85,490,487,-1,487,490,250,-1,487,250,481,-1,481,250,242,-1,481,242,467,-1,467,242,472,-1,467,472,465,-1,465,472,475,-1,25,24,239,-1,239,24,365,-1,239,365,238,-1,238,365,367,-1,238,367,502,-1,502,367,395,-1,502,395,305,-1,305,395,11,-1,305,11,309,-1,309,11,10,-1,309,10,478,-1,374,547,380,-1,380,547,548,-1,380,548,361,-1,361,548,549,-1,361,549,362,-1,362,549,550,-1,362,550,389,-1,389,550,455,-1,389,455,404,-1,404,455,457,-1,404,457,425,-1,13,12,416,-1,416,12,551,-1,416,551,415,-1,415,551,526,-1,415,526,552,-1,552,526,2,-1,552,2,553,-1,553,2,304,-1,553,304,554,-1,554,304,303,-1,554,303,555,-1,555,303,490,-1,555,490,556,-1,556,490,85,-1,556,85,557,-1,557,85,87,-1,557,87,406,-1,406,87,83,-1,406,83,407,-1,558,559,560,-1,561,562,563,-1,563,562,564,-1,565,563,187,-1,187,563,564,-1,187,564,377,-1,377,564,566,-1,377,566,374,-1,374,566,567,-1,374,567,568,-1,565,187,568,-1,568,187,558,-1,568,558,374,-1,374,558,560,-1,374,560,547,-1,186,200,187,-1,187,200,201,-1,187,201,558,-1,558,201,569,-1,558,569,559,-1,559,569,570,-1,4,526,5,-1,5,526,551,-1,5,551,496,-1,496,551,12,-1,496,12,216,-1,216,12,424,-1,216,424,191,-1,191,424,423,-1,191,423,197,-1,571,572,534,-1,573,574,575,-1,575,574,571,-1,575,571,576,-1,576,571,534,-1,575,410,573,-1,573,410,577,-1,573,577,572,-1,572,577,578,-1,572,578,534,-1,534,578,579,-1,534,579,410,-1,410,579,580,-1,410,580,577,-1,581,582,583,-1,583,582,584,-1,585,575,586,-1,586,575,587,-1,586,587,588,-1,588,587,584,-1,584,587,421,-1,584,421,583,-1,585,582,575,-1,575,582,581,-1,575,581,410,-1,410,581,589,-1,410,589,421,-1,421,589,590,-1,421,590,583,-1,591,592,593,-1,594,421,587,-1,593,592,587,-1,587,592,595,-1,587,595,594,-1,421,596,570,-1,570,596,597,-1,593,570,591,-1,591,570,597,-1,591,597,594,-1,594,597,598,-1,594,598,421,-1,421,598,599,-1,421,599,596,-1,600,601,576,-1,576,601,575,-1,575,601,602,-1,575,602,603,-1,604,605,587,-1,587,605,606,-1,587,606,593,-1,593,606,607,-1,587,575,604,-1,604,575,603,-1,604,603,607,-1,607,603,600,-1,607,600,593,-1,593,600,576,-1,593,576,570,-1,570,576,534,-1,
        ]
    }
}
Shape{
    appearance Appearance {
        material  Material 	{
            diffuseColor 1.0 1.0 0.0
            specularColor 0.5019607843137255 0.5019607843137255 0.0
            ambientIntensity 0.2
            transparency 0
            shininess 0.5
        }
    }
    geometry IndexedFaceSet {
        ccw TRUE
        solid FALSE
        coord DEF co Coordinate {
            point [
                0.0787 0.0984 -0.0039, 0.0787 -0.0984 -0.0039, 0.0787 0.0984 0.0, 0.0787 -0.0984 0.0, 0.1772 0.0984 -0.0039, 0.1772 0.0984 0.0, 0.1772 -0.0984 -0.0039, 0.1772 -0.0984 0.0, -0.1299 0.0984 -0.0039, -0.1772 0.0512 -0.0039, -0.1299 0.0984 0.0, -0.1772 0.0512 0.0, -0.0787 0.0984 -0.0039, -0.0787 0.0984 0.0, -0.0787 -0.0984 -0.0039, -0.0787 -0.0984 0.0, -0.1772 -0.0984 -0.0039, -0.1772 -0.0984 0.0, -0.0866 -0.122 0.0423, -0.0866 -0.122 0.0255, -0.0866 -0.1181 0.0423, -0.0866 -0.1181 0.0255, -0.1615 -0.122 0.0423, -0.1615 -0.1181 0.0423, -0.1615 -0.122 0.0255, -0.1615 -0.1181 0.0255, 0.1616 -0.122 0.0423, 0.1616 -0.122 0.0255, 0.1616 -0.1181 0.0423, 0.1616 -0.1181 0.0255, 0.0867 -0.122 0.0423, 0.0867 -0.1181 0.0423, 0.0867 -0.122 0.0255, 0.0867 -0.1181 0.0255, -0.0866 0.122 0.0255, -0.0866 0.122 0.0423, -0.0866 0.1181 0.0255, -0.0866 0.1181 0.0423, -0.1615 0.122 0.0255, -0.1615 0.1181 0.0255, -0.1615 0.122 0.0423, -0.1615 0.1181 0.0423, 0.1616 0.122 0.0255, 0.1616 0.122 0.0423, 0.1616 0.1181 0.0255, 0.1616 0.1181 0.0423, 0.0867 0.122 0.0255, 0.0867 0.1181 0.0255, 0.0867 0.122 0.0423, 0.0867 0.1181 0.0423, 0.2008 -0.0553 0.0255, 0.2008 -0.0896 0.0255, 0.1969 -0.0553 0.0255, 0.1969 -0.0896 0.0255, 0.2008 -0.0553 0.0423, 0.1969 -0.0553 0.0423, 0.2008 -0.0896 0.0423, 0.1969 -0.0896 0.0423, 0.2008 0.0553 0.0423, 0.2008 0.0896 0.0423, 0.1969 0.0553 0.0423, 0.1969 0.0896 0.0423, 0.2008 0.0553 0.0255, 0.1969 0.0553 0.0255, 0.2008 0.0896 0.0255, 0.1969 0.0896 0.0255, -0.2008 -0.0896 0.0255, -0.2008 -0.0553 0.0255, -0.1969 -0.0896 0.0255, -0.1969 -0.0553 0.0255, -0.2008 -0.0896 0.0423, -0.1969 -0.0896 0.0423, -0.2008 -0.0553 0.0423, -0.1969 -0.0553 0.0423, -0.2008 0.0896 0.0423, -0.2008 0.0553 0.0423, -0.1969 0.0896 0.0423, -0.1969 0.0553 0.0423, -0.2008 0.0896 0.0255, -0.1969 0.0896 0.0255, -0.2008 0.0553 0.0255, -0.1969 0.0553 0.0255, -0.1969 0.0553 0.0255
            ]
        }
        coordIndex [
            0,1,2,-1,2,1,3,-1,4,0,5,-1,5,0,2,-1,6,4,7,-1,7,4,5,-1,1,6,3,-1,3,6,7,-1,4,6,0,-1,0,6,1,-1,8,9,10,-1,10,9,11,-1,12,8,13,-1,13,8,10,-1,14,12,15,-1,15,12,13,-1,16,14,17,-1,17,14,15,-1,9,16,11,-1,11,16,17,-1,16,9,14,-1,14,9,8,-1,14,8,12,-1,18,19,20,-1,20,19,21,-1,22,18,23,-1,23,18,20,-1,24,22,25,-1,25,22,23,-1,19,24,21,-1,21,24,25,-1,22,24,18,-1,18,24,19,-1,26,27,28,-1,28,27,29,-1,30,26,31,-1,31,26,28,-1,32,30,33,-1,33,30,31,-1,27,32,29,-1,29,32,33,-1,30,32,26,-1,26,32,27,-1,34,35,36,-1,36,35,37,-1,38,34,39,-1,39,34,36,-1,40,38,41,-1,41,38,39,-1,35,40,37,-1,37,40,41,-1,38,40,34,-1,34,40,35,-1,42,43,44,-1,44,43,45,-1,46,42,47,-1,47,42,44,-1,48,46,49,-1,49,46,47,-1,43,48,45,-1,45,48,49,-1,46,48,42,-1,42,48,43,-1,50,51,52,-1,52,51,53,-1,54,50,55,-1,55,50,52,-1,56,54,57,-1,57,54,55,-1,51,56,53,-1,53,56,57,-1,54,56,50,-1,50,56,51,-1,58,59,60,-1,60,59,61,-1,62,58,63,-1,63,58,60,-1,64,62,65,-1,65,62,63,-1,59,64,61,-1,61,64,65,-1,62,64,58,-1,58,64,59,-1,66,67,68,-1,68,67,69,-1,70,66,71,-1,71,66,68,-1,72,70,73,-1,73,70,71,-1,67,72,69,-1,69,72,73,-1,70,72,66,-1,66,72,67,-1,74,75,76,-1,76,75,77,-1,78,74,79,-1,79,74,76,-1,80,78,81,-1,81,78,79,-1,75,80,77,-1,77,80,81,-1,78,80,74,-1,74,80,75,-1,
        ]
    }
}
Shape{
    appearance Appearance {
        material  Material 	{
            diffuseColor 1.0 1.0 1.0
            specularColor 0.5019607843137255 0.5019607843137255 0.5019607843137255
            ambientIntensity 0.2
            transparency 0
            shininess 0.5
        }
    }
    geometry IndexedFaceSet {
        ccw TRUE
        solid FALSE
        coord DEF co Coordinate {
            point [
                0.1969 0.0173 0.1293, 0.1969 0.0173 0.1275, 0.1969 0.0173 0.1293, 0.1969 0.0173 0.1275, 0.1969 0.0109 0.1293, 0.1969 0.0109 0.1293, 0.1969 0.0109 0.1435, 0.1969 0.0109 0.1435, 0.1969 0.0088 0.1435, 0.1969 0.0088 0.1435, 0.1969 0.0088 0.1275, 0.1969 0.0088 0.1275, 0.1969 0.0279 0.1274, 0.1969 0.0255 0.1272, 0.1969 0.0269 0.1273, 0.1969 0.0255 0.1272, 0.1969 0.0279 0.1274, 0.1969 0.0296 0.128, 0.1969 0.0296 0.128, 0.1969 0.0299 0.1281, 0.1969 0.0299 0.1281, 0.1969 0.0299 0.1301, 0.1969 0.0299 0.1301, 0.1969 0.0283 0.1294, 0.1969 0.0283 0.1294, 0.1969 0.0265 0.1291, 0.1969 0.0265 0.1291, 0.1969 0.0258 0.129, 0.1969 0.0258 0.129, 0.1969 0.0241 0.1292, 0.1969 0.0241 0.1292, 0.1969 0.023 0.1297, 0.1969 0.023 0.1297, 0.1969 0.022 0.1304, 0.1969 0.022 0.1304, 0.1969 0.0217 0.1307, 0.1969 0.0217 0.1307, 0.1969 0.0209 0.1318, 0.1969 0.0209 0.1318, 0.1969 0.0204 0.1331, 0.1969 0.0204 0.1331, 0.1969 0.0201 0.1347, 0.1969 0.0201 0.1347, 0.1969 0.0201 0.1353, 0.1969 0.0201 0.1353, 0.1969 0.0203 0.1373, 0.1969 0.0203 0.1373, 0.1969 0.0208 0.1387, 0.1969 0.0208 0.1387, 0.1969 0.0216 0.1399, 0.1969 0.0216 0.1399, 0.1969 0.0218 0.1401, 0.1969 0.0218 0.1401, 0.1969 0.0229 0.141, 0.1969 0.0229 0.141, 0.1969 0.0241 0.1416, 0.1969 0.0241 0.1416, 0.1969 0.0255 0.1419, 0.1969 0.0255 0.1419, 0.1969 0.0261 0.1419, 0.1969 0.0261 0.1419, 0.1969 0.0281 0.1416, 0.1969 0.0281 0.1416, 0.1969 0.0297 0.141, 0.1969 0.0297 0.141, 0.1969 0.0299 0.1409, 0.1969 0.0299 0.1409, 0.1969 0.0299 0.1431, 0.1969 0.0299 0.1431, 0.1969 0.0261 0.1437, 0.1969 0.0261 0.1437, 0.1969 0.0262 0.1437, 0.1969 0.0283 0.1436, 0.1969 0.0283 0.1436, 0.1969 0.0278 0.1436, 0.1969 0.0262 0.1437, 0.1969 0.025 0.1436, 0.1969 0.0238 0.1435, 0.1969 0.0238 0.1435, 0.1969 0.0221 0.1428, 0.1969 0.0221 0.1428, 0.1969 0.0206 0.1417, 0.1969 0.0206 0.1417, 0.1969 0.0202 0.1414, 0.1969 0.0202 0.1414, 0.1969 0.0191 0.1399, 0.1969 0.0191 0.1399, 0.1969 0.0186 0.1389, 0.1969 0.0183 0.1381, 0.1969 0.0183 0.1381, 0.1969 0.0179 0.136, 0.1969 0.0179 0.136, 0.1969 0.0179 0.1352, 0.1969 0.0179 0.1352, 0.1969 0.0182 0.1326, 0.1969 0.0182 0.1326, 0.1969 0.0186 0.1315, 0.1969 0.0189 0.1309, 0.1969 0.0189 0.1309, 0.1969 0.0198 0.1295, 0.1969 0.0198 0.1295, 0.1969 0.02 0.1294, 0.1969 0.02 0.1294, 0.1969 0.0245 0.1272, 0.1969 0.0213 0.1283, 0.1969 0.0213 0.1283, 0.1969 0.0228 0.1276, 0.1969 0.0228 0.1276, 0.1969 0.0241 0.1273, 0.1969 0.0245 0.1272, 0.1969 0.0417 0.1293, 0.1969 0.0417 0.1275, 0.1969 0.0417 0.1293, 0.1969 0.0417 0.1275, 0.1969 0.0352 0.1293, 0.1969 0.0352 0.1293, 0.1969 0.0395 0.1293, 0.1969 0.0352 0.1347, 0.1969 0.0352 0.1347, 0.1969 0.0409 0.1347, 0.1969 0.0409 0.1347, 0.1969 0.0395 0.1347, 0.1969 0.0409 0.1365, 0.1969 0.0409 0.1365, 0.1969 0.0352 0.1365, 0.1969 0.0352 0.1365, 0.1969 0.0395 0.1365, 0.1969 0.0352 0.1416, 0.1969 0.0352 0.1416, 0.1969 0.0414 0.1416, 0.1969 0.0414 0.1416, 0.1969 0.0395 0.1416, 0.1969 0.0414 0.1435, 0.1969 0.0414 0.1435, 0.1969 0.0331 0.1435, 0.1969 0.0331 0.1435, 0.1969 0.0395 0.1435, 0.1969 0.0331 0.1275, 0.1969 0.0331 0.1275, 0.1969 0.0395 0.1275, 0.1969 0.0556 0.1346, 0.1969 0.0577 0.1347, 0.1969 0.0556 0.1356, 0.1969 0.0578 0.1357, 0.1969 0.0554 0.1375, 0.1969 0.0575 0.1379, 0.1969 0.055 0.1387, 0.1969 0.0569 0.1394, 0.1969 0.0544 0.1396, 0.1969 0.0559 0.1408, 0.1969 0.0539 0.1401, 0.1969 0.0554 0.1414, 0.1969 0.0527 0.1409, 0.1969 0.0537 0.1425, 0.1969 0.0513 0.1414, 0.1969 0.0518 0.1432, 0.1969 0.0492 0.1416, 0.1969 0.0493 0.1435, 0.1969 0.0468 0.1416, 0.1969 0.0447 0.1435, 0.1969 0.0468 0.1293, 0.1969 0.0447 0.1275, 0.1969 0.0491 0.1293, 0.1969 0.0492 0.1275, 0.1969 0.0512 0.1295, 0.1969 0.0518 0.1278, 0.1969 0.0525 0.13, 0.1969 0.0536 0.1285, 0.1969 0.0536 0.1307, 0.1969 0.0552 0.1295, 0.1969 0.0539 0.131, 0.1969 0.0554 0.1297, 0.1969 0.0547 0.1319, 0.1969 0.0566 0.1311, 0.1969 0.0552 0.1331, 0.1969 0.0574 0.1328, 0.1969 0.0492 0.1275, 0.1969 0.0447 0.1275, 0.1969 0.0554 0.1297, 0.1969 0.0518 0.1278, 0.1969 0.0521 0.1279, 0.1969 0.0536 0.1285, 0.1969 0.0542 0.1289, 0.1969 0.0552 0.1295, 0.1969 0.0566 0.1311, 0.1969 0.0574 0.1328, 0.1969 0.0577 0.1347, 0.1969 0.0578 0.1357, 0.1969 0.0575 0.1379, 0.1969 0.0569 0.1394, 0.1969 0.0559 0.1408, 0.1969 0.0554 0.1414, 0.1969 0.0493 0.1435, 0.1969 0.0542 0.1421, 0.1969 0.0537 0.1425, 0.1969 0.0521 0.1431, 0.1969 0.0518 0.1432, 0.1969 0.0447 0.1435, 0.1969 0.0492 0.1416, 0.1969 0.0468 0.1416, 0.1969 0.0468 0.1293, 0.1969 0.0491 0.1293, 0.1969 0.0539 0.131, 0.1969 0.0536 0.1307, 0.1969 0.0525 0.13, 0.1969 0.0512 0.1295, 0.1969 0.0556 0.1356, 0.1969 0.0556 0.1346, 0.1969 0.0552 0.1331, 0.1969 0.0547 0.1319, 0.1969 0.0539 0.1401, 0.1969 0.0544 0.1396, 0.1969 0.055 0.1387, 0.1969 0.0554 0.1375, 0.1969 0.0513 0.1414, 0.1969 0.0527 0.1409, 0.1969 0.0527 0.1409
            ]
        }
        coordIndex [
            0,1,2,-1,2,1,3,-1,4,0,5,-1,5,0,2,-1,6,4,7,-1,7,4,5,-1,8,6,9,-1,9,6,7,-1,10,8,11,-1,11,8,9,-1,1,10,3,-1,3,10,11,-1,6,8,4,-1,4,8,10,-1,4,10,0,-1,0,10,1,-1,12,13,14,-1,14,13,15,-1,14,16,12,-1,12,16,17,-1,12,17,18,-1,18,17,19,-1,18,19,20,-1,21,20,22,-1,22,20,19,-1,21,22,23,-1,21,23,24,-1,24,23,25,-1,24,25,26,-1,26,25,27,-1,26,27,28,-1,28,27,29,-1,28,29,30,-1,30,29,31,-1,30,31,32,-1,32,31,33,-1,32,33,34,-1,34,33,35,-1,34,35,36,-1,36,35,37,-1,36,37,38,-1,38,37,39,-1,38,39,40,-1,40,39,41,-1,40,41,42,-1,42,41,43,-1,42,43,44,-1,44,43,45,-1,44,45,46,-1,46,45,47,-1,46,47,48,-1,48,47,49,-1,48,49,50,-1,50,49,51,-1,50,51,52,-1,52,51,53,-1,52,53,54,-1,54,53,55,-1,54,55,56,-1,56,55,57,-1,56,57,58,-1,58,57,59,-1,58,59,60,-1,60,59,61,-1,60,61,62,-1,62,61,63,-1,62,63,64,-1,64,63,65,-1,64,65,66,-1,67,66,68,-1,68,66,65,-1,69,70,71,-1,67,68,72,-1,67,72,73,-1,73,72,74,-1,73,74,71,-1,71,74,75,-1,71,75,69,-1,70,69,76,-1,70,76,77,-1,76,78,77,-1,77,78,79,-1,77,79,80,-1,80,79,81,-1,80,81,82,-1,82,81,83,-1,82,83,84,-1,84,83,85,-1,84,85,86,-1,86,85,87,-1,86,87,88,-1,87,89,88,-1,88,89,90,-1,88,90,91,-1,91,90,92,-1,91,92,93,-1,93,92,94,-1,93,94,95,-1,95,94,96,-1,95,96,97,-1,96,98,97,-1,97,98,99,-1,97,99,100,-1,100,99,101,-1,100,101,102,-1,15,13,103,-1,102,101,104,-1,102,104,105,-1,105,104,106,-1,105,106,107,-1,107,106,108,-1,107,108,103,-1,103,108,109,-1,103,109,15,-1,64,66,67,-1,46,48,86,-1,64,67,62,-1,62,67,73,-1,62,73,60,-1,60,73,71,-1,60,71,58,-1,58,71,70,-1,58,70,56,-1,56,70,77,-1,56,77,54,-1,20,21,18,-1,18,21,24,-1,18,24,12,-1,12,24,26,-1,12,26,13,-1,13,26,28,-1,13,28,103,-1,103,28,30,-1,103,30,107,-1,107,30,32,-1,107,32,105,-1,105,32,34,-1,105,34,102,-1,102,34,36,-1,102,36,100,-1,100,36,38,-1,100,38,97,-1,86,48,84,-1,77,80,54,-1,54,80,82,-1,54,82,52,-1,52,82,84,-1,52,84,50,-1,50,84,48,-1,93,44,91,-1,91,44,46,-1,91,46,88,-1,88,46,86,-1,97,38,95,-1,95,38,40,-1,95,40,93,-1,93,40,42,-1,93,42,44,-1,110,111,112,-1,112,111,113,-1,114,115,116,-1,116,115,110,-1,116,110,112,-1,117,115,118,-1,118,115,114,-1,119,120,121,-1,121,120,117,-1,121,117,118,-1,122,120,123,-1,123,120,119,-1,124,125,126,-1,126,125,122,-1,126,122,123,-1,127,125,128,-1,128,125,124,-1,129,130,131,-1,131,130,127,-1,131,127,128,-1,132,130,133,-1,133,130,129,-1,134,135,136,-1,136,135,132,-1,136,132,133,-1,137,135,138,-1,138,135,134,-1,113,111,139,-1,139,111,137,-1,139,137,138,-1,137,111,110,-1,110,115,137,-1,137,115,117,-1,137,117,135,-1,130,132,127,-1,127,132,135,-1,127,135,125,-1,125,135,117,-1,125,117,122,-1,122,117,120,-1,140,141,142,-1,142,141,143,-1,142,143,144,-1,144,143,145,-1,144,145,146,-1,146,145,147,-1,146,147,148,-1,148,147,149,-1,148,149,150,-1,150,149,151,-1,150,151,152,-1,152,151,153,-1,152,153,154,-1,154,153,155,-1,154,155,156,-1,156,155,157,-1,156,157,158,-1,158,157,159,-1,158,159,160,-1,160,159,161,-1,160,161,162,-1,162,161,163,-1,162,163,164,-1,164,163,165,-1,164,165,166,-1,166,165,167,-1,166,167,168,-1,168,167,169,-1,168,169,170,-1,170,169,171,-1,170,171,172,-1,172,171,173,-1,172,173,174,-1,174,173,175,-1,174,175,140,-1,140,175,141,-1,163,161,176,-1,176,161,177,-1,178,171,169,-1,163,176,179,-1,163,179,165,-1,165,179,180,-1,165,180,167,-1,180,181,167,-1,167,181,182,-1,167,182,169,-1,169,182,183,-1,169,183,178,-1,171,178,184,-1,171,184,173,-1,173,184,185,-1,173,185,175,-1,175,185,186,-1,175,186,141,-1,141,186,187,-1,141,187,143,-1,143,187,188,-1,143,188,145,-1,145,188,189,-1,145,189,147,-1,147,189,190,-1,147,190,149,-1,149,190,191,-1,149,191,151,-1,192,157,155,-1,153,151,193,-1,193,151,191,-1,193,194,153,-1,153,194,195,-1,153,195,155,-1,155,195,196,-1,155,196,192,-1,159,157,197,-1,197,157,192,-1,161,159,177,-1,177,159,197,-1,156,158,198,-1,198,158,199,-1,158,160,199,-1,199,160,200,-1,160,162,200,-1,200,162,201,-1,170,202,203,-1,170,203,168,-1,168,203,204,-1,168,204,166,-1,166,204,205,-1,166,205,164,-1,164,205,201,-1,164,201,162,-1,142,206,207,-1,142,207,140,-1,140,207,208,-1,140,208,174,-1,174,208,209,-1,174,209,172,-1,172,209,202,-1,172,202,170,-1,150,210,211,-1,150,211,148,-1,148,211,212,-1,148,212,146,-1,146,212,213,-1,146,213,144,-1,144,213,206,-1,144,206,142,-1,156,198,214,-1,156,214,154,-1,154,214,215,-1,154,215,152,-1,152,215,210,-1,152,210,150,-1,
        ]
    }
}
Shape{
    appearance Appearance {
        material  Material 	{
            diffuseColor 0.25098039215686274 0.25098039215686274 0.25098039215686274
            specularColor 0.12549019607843137 0.12549019607843137 0.12549019607843137
            ambientIntensity 0.2
            transparency 0
            shininess 0.5
        }
    }
    geometry IndexedFaceSet {
        ccw TRUE
        solid FALSE
        coord DEF co Coordinate {
            point [
                0.1969 0.0468 0.1416, 0.1969 0.0468 0.1293, 0.1969 0.0492 0.1416, 0.1969 0.0491 0.1293, 0.1969 0.0512 0.1295, 0.1969 0.0525 0.13, 0.1969 0.0536 0.1307, 0.1969 0.0539 0.131, 0.1969 0.0547 0.1319, 0.1969 0.0552 0.1331, 0.1969 0.0556 0.1346, 0.1969 0.0556 0.1356, 0.1969 0.0554 0.1375, 0.1969 0.055 0.1387, 0.1969 0.0544 0.1396, 0.1969 0.0539 0.1401, 0.1969 0.0513 0.1414, 0.1969 0.0527 0.1409, 0.1969 0.0527 0.1409
            ]
        }
        coordIndex [
            0,1,2,-1,2,1,3,-1,2,3,4,-1,4,5,2,-1,2,5,6,-1,2,6,7,-1,7,8,2,-1,2,8,9,-1,2,9,10,-1,10,11,2,-1,2,11,12,-1,2,12,13,-1,13,14,2,-1,2,14,15,-1,2,15,16,-1,16,15,17,-1,
        ]
    }
}
Shape{
    appearance Appearance {
        material  Material 	{
            diffuseColor 1.0 1.0 1.0
            specularColor 0.5019607843137255 0.5019607843137255 0.5019607843137255
            ambientIntensity 0.2
            transparency 0
            shininess 0.5
        }
    }
    geometry IndexedFaceSet {
        ccw TRUE
        solid FALSE
        coord DEF co Coordinate {
            point [
                0.1969 0.0632 0.1337, 0.1969 0.0625 0.1318, 0.1969 0.0685 0.1337, 0.1969 0.0692 0.1318, 0.1969 0.0655 0.1403, 0.1969 0.0648 0.1435, 0.1969 0.0587 0.1275, 0.1969 0.061 0.1275, 0.1969 0.0657 0.1408, 0.1969 0.0658 0.1414, 0.1969 0.067 0.1435, 0.1969 0.0659 0.1414, 0.1969 0.066 0.1408, 0.1969 0.0661 0.1403, 0.1969 0.0731 0.1275, 0.1969 0.0708 0.1275, 0.1969 0.067 0.1435, 0.1969 0.0731 0.1275, 0.1969 0.0648 0.1435, 0.1969 0.0587 0.1275, 0.1969 0.061 0.1275, 0.1969 0.0625 0.1318, 0.1969 0.0692 0.1318, 0.1969 0.0708 0.1275, 0.1969 0.0632 0.1337, 0.1969 0.0685 0.1337, 0.1969 0.0661 0.1403, 0.1969 0.0659 0.1414, 0.1969 0.066 0.1408, 0.1969 0.0658 0.1414, 0.1969 0.0655 0.1403, 0.1969 0.0657 0.1408, 0.1969 0.0657 0.1408
            ]
        }
        coordIndex [
            0,1,2,-1,2,1,3,-1,4,5,0,-1,0,5,6,-1,0,6,1,-1,1,6,7,-1,4,8,5,-1,5,8,9,-1,5,9,10,-1,10,9,11,-1,10,11,12,-1,12,13,10,-1,10,13,2,-1,10,2,14,-1,14,2,3,-1,14,3,15,-1,10,14,16,-1,16,14,17,-1,5,10,18,-1,18,10,16,-1,6,5,19,-1,19,5,18,-1,7,6,20,-1,20,6,19,-1,1,7,21,-1,21,7,20,-1,3,1,22,-1,22,1,21,-1,15,3,23,-1,23,3,22,-1,14,15,17,-1,17,15,23,-1,0,2,24,-1,24,2,25,-1,2,13,25,-1,25,13,26,-1,11,27,28,-1,11,28,12,-1,12,28,26,-1,12,26,13,-1,11,9,27,-1,27,9,29,-1,4,30,31,-1,4,31,8,-1,8,31,29,-1,8,29,9,-1,4,0,30,-1,30,0,24,-1,
        ]
    }
}
Shape{
    appearance Appearance {
        material  Material 	{
            diffuseColor 0.25098039215686274 0.25098039215686274 0.25098039215686274
            specularColor 0.12549019607843137 0.12549019607843137 0.12549019607843137
            ambientIntensity 0.2
            transparency 0
            shininess 0.5
        }
    }
    geometry IndexedFaceSet {
        ccw TRUE
        solid FALSE
        coord DEF co Coordinate {
            point [
                0.1969 0.0659 0.1414, 0.1969 0.0658 0.1414, 0.1969 0.066 0.1408, 0.1969 0.0657 0.1408, 0.1969 0.0661 0.1403, 0.1969 0.0655 0.1403, 0.1969 0.0685 0.1337, 0.1969 0.0632 0.1337, 0.1969 0.0632 0.1337
            ]
        }
        coordIndex [
            0,1,2,-1,2,1,3,-1,2,3,4,-1,4,3,5,-1,4,5,6,-1,6,5,7,-1,
        ]
    }
}
Shape{
    appearance Appearance {
        material  Material 	{
            diffuseColor 1.0 1.0 1.0
            specularColor 0.5019607843137255 0.5019607843137255 0.5019607843137255
            ambientIntensity 0.2
            transparency 0
            shininess 0.5
        }
    }
    geometry IndexedFaceSet {
        ccw TRUE
        solid FALSE
        coord DEF co Coordinate {
            point [
                0.1969 0.0174 0.1039, 0.1969 0.0174 0.1021, 0.1969 0.0174 0.1039, 0.1969 0.0174 0.1021, 0.1969 0.0109 0.1039, 0.1969 0.0109 0.1039, 0.1969 0.0109 0.1093, 0.1969 0.0109 0.1093, 0.1969 0.0166 0.1093, 0.1969 0.0166 0.1093, 0.1969 0.0166 0.1111, 0.1969 0.0166 0.1111, 0.1969 0.0109 0.1111, 0.1969 0.0109 0.1111, 0.1969 0.0109 0.1162, 0.1969 0.0109 0.1162, 0.1969 0.0109 0.1159, 0.1969 0.0171 0.1162, 0.1969 0.0171 0.1162, 0.1969 0.0171 0.1181, 0.1969 0.0171 0.1181, 0.1969 0.0088 0.1181, 0.1969 0.0088 0.1181, 0.1969 0.0088 0.1021, 0.1969 0.0088 0.1021, 0.1969 0.0088 0.1159, 0.1969 0.0265 0.1038, 0.1969 0.0265 0.1038, 0.1969 0.0264 0.1056, 0.1969 0.0216 0.1085, 0.1969 0.0208 0.108, 0.1969 0.0219 0.1067, 0.1969 0.0265 0.1064, 0.1969 0.0285 0.1094, 0.1969 0.0265 0.1067, 0.1969 0.0265 0.1078, 0.1969 0.0265 0.1021, 0.1969 0.0285 0.1021, 0.1969 0.0261 0.1049, 0.1969 0.0257 0.1044, 0.1969 0.026 0.1031, 0.1969 0.0254 0.1041, 0.1969 0.0253 0.1025, 0.1969 0.0248 0.1037, 0.1969 0.0249 0.1022, 0.1969 0.0242 0.1035, 0.1969 0.0241 0.1019, 0.1969 0.0235 0.1034, 0.1969 0.0218 0.1041, 0.1969 0.0203 0.1027, 0.1969 0.022 0.1039, 0.1969 0.0209 0.1023, 0.1969 0.0224 0.1037, 0.1969 0.0216 0.102, 0.1969 0.0228 0.1035, 0.1969 0.0225 0.1018, 0.1969 0.023 0.1018, 0.1969 0.0217 0.1064, 0.1969 0.0202 0.1075, 0.1969 0.0215 0.1061, 0.1969 0.0198 0.1069, 0.1969 0.0214 0.1056, 0.1969 0.0222 0.1069, 0.1969 0.0227 0.1072, 0.1969 0.0231 0.1089, 0.1969 0.0239 0.1074, 0.1969 0.0265 0.1093, 0.1969 0.0205 0.1127, 0.1969 0.0205 0.1107, 0.1969 0.0209 0.1129, 0.1969 0.0219 0.1116, 0.1969 0.0223 0.1135, 0.1969 0.0231 0.112, 0.1969 0.0244 0.1138, 0.1969 0.0242 0.1121, 0.1969 0.0256 0.1137, 0.1969 0.0249 0.1121, 0.1969 0.0264 0.1134, 0.1969 0.0254 0.1119, 0.1969 0.0271 0.113, 0.1969 0.0257 0.1117, 0.1969 0.0276 0.1125, 0.1969 0.026 0.1113, 0.1969 0.0281 0.1119, 0.1969 0.0263 0.1109, 0.1969 0.0284 0.111, 0.1969 0.0265 0.1102, 0.1969 0.0195 0.1062, 0.1969 0.0194 0.1054, 0.1969 0.0214 0.1053, 0.1969 0.0193 0.1051, 0.1969 0.0214 0.1048, 0.1969 0.0195 0.1041, 0.1969 0.0216 0.1045, 0.1969 0.0197 0.1035, 0.1969 0.0201 0.1029, 0.1969 0.0244 0.1138, 0.1969 0.0223 0.1135, 0.1969 0.0209 0.1129, 0.1969 0.0205 0.1127, 0.1969 0.0205 0.1107, 0.1969 0.0219 0.1116, 0.1969 0.0231 0.112, 0.1969 0.0242 0.1121, 0.1969 0.0249 0.1121, 0.1969 0.0254 0.1119, 0.1969 0.0257 0.1117, 0.1969 0.026 0.1113, 0.1969 0.0263 0.1109, 0.1969 0.0265 0.1102, 0.1969 0.0265 0.1093, 0.1969 0.0231 0.1089, 0.1969 0.0216 0.1085, 0.1969 0.0208 0.108, 0.1969 0.0202 0.1075, 0.1969 0.0198 0.1069, 0.1969 0.0195 0.1062, 0.1969 0.0194 0.1054, 0.1969 0.0193 0.1051, 0.1969 0.0195 0.1041, 0.1969 0.0197 0.1035, 0.1969 0.0201 0.1029, 0.1969 0.0203 0.1027, 0.1969 0.023 0.1018, 0.1969 0.0209 0.1023, 0.1969 0.0216 0.102, 0.1969 0.0219 0.1019, 0.1969 0.0225 0.1018, 0.1969 0.0241 0.1019, 0.1969 0.0249 0.1022, 0.1969 0.0253 0.1025, 0.1969 0.026 0.1031, 0.1969 0.0265 0.1038, 0.1969 0.0265 0.1038, 0.1969 0.0265 0.1021, 0.1969 0.0285 0.1021, 0.1969 0.0285 0.1094, 0.1969 0.0284 0.111, 0.1969 0.0281 0.1119, 0.1969 0.0276 0.1125, 0.1969 0.0271 0.113, 0.1969 0.0264 0.1134, 0.1969 0.0256 0.1137, 0.1969 0.0219 0.1067, 0.1969 0.0222 0.1069, 0.1969 0.0227 0.1072, 0.1969 0.0239 0.1074, 0.1969 0.0214 0.1053, 0.1969 0.0214 0.1056, 0.1969 0.0215 0.1061, 0.1969 0.0217 0.1064, 0.1969 0.022 0.1039, 0.1969 0.0218 0.1041, 0.1969 0.0216 0.1045, 0.1969 0.0214 0.1048, 0.1969 0.0235 0.1034, 0.1969 0.0228 0.1035, 0.1969 0.0224 0.1037, 0.1969 0.0257 0.1044, 0.1969 0.0254 0.1041, 0.1969 0.0248 0.1037, 0.1969 0.0242 0.1035, 0.1969 0.0265 0.1067, 0.1969 0.0265 0.1064, 0.1969 0.0264 0.1056, 0.1969 0.0261 0.1049, 0.1969 0.0265 0.1078, 0.1969 0.0265 0.1078
            ]
        }
        coordIndex [
            0,1,2,-1,2,1,3,-1,4,0,5,-1,5,0,2,-1,6,4,7,-1,7,4,5,-1,8,6,9,-1,9,6,7,-1,10,8,11,-1,11,8,9,-1,12,10,13,-1,13,10,11,-1,14,15,16,-1,16,15,12,-1,16,12,13,-1,17,15,18,-1,18,15,14,-1,19,17,20,-1,20,17,18,-1,21,19,22,-1,22,19,20,-1,23,24,25,-1,25,24,21,-1,25,21,22,-1,1,24,3,-1,3,24,23,-1,24,1,0,-1,0,4,24,-1,24,4,6,-1,24,6,21,-1,17,19,15,-1,15,19,21,-1,15,21,12,-1,12,21,6,-1,12,6,10,-1,10,6,8,-1,26,27,28,-1,29,30,31,-1,32,33,34,-1,34,33,35,-1,36,37,27,-1,27,37,33,-1,27,33,28,-1,28,33,32,-1,28,38,26,-1,26,38,39,-1,26,39,40,-1,40,39,41,-1,40,41,42,-1,42,41,43,-1,42,43,44,-1,44,43,45,-1,44,45,46,-1,46,45,47,-1,48,49,50,-1,50,49,51,-1,50,51,52,-1,52,51,53,-1,52,53,54,-1,54,53,55,-1,54,55,47,-1,47,55,56,-1,47,56,46,-1,31,30,57,-1,57,30,58,-1,57,58,59,-1,59,58,60,-1,59,60,61,-1,31,62,29,-1,29,62,63,-1,29,63,64,-1,64,63,65,-1,64,65,66,-1,67,68,69,-1,69,68,70,-1,69,70,71,-1,71,70,72,-1,71,72,73,-1,73,72,74,-1,73,74,75,-1,75,74,76,-1,75,76,77,-1,77,76,78,-1,77,78,79,-1,79,78,80,-1,79,80,81,-1,81,80,82,-1,81,82,83,-1,83,82,84,-1,83,84,85,-1,85,84,86,-1,85,86,33,-1,33,86,66,-1,33,66,35,-1,35,66,65,-1,60,87,61,-1,61,87,88,-1,61,88,89,-1,89,88,90,-1,89,90,91,-1,91,90,92,-1,91,92,93,-1,93,92,94,-1,93,94,48,-1,48,94,95,-1,48,95,49,-1,73,96,97,-1,73,97,71,-1,71,97,98,-1,71,98,69,-1,69,98,99,-1,69,99,67,-1,68,67,100,-1,100,67,99,-1,68,100,101,-1,68,101,70,-1,70,101,102,-1,70,102,72,-1,72,102,103,-1,72,103,74,-1,74,103,104,-1,74,104,76,-1,76,104,105,-1,76,105,78,-1,78,105,106,-1,78,106,80,-1,80,106,107,-1,80,107,82,-1,82,107,108,-1,82,108,84,-1,84,108,109,-1,84,109,86,-1,86,109,110,-1,86,110,66,-1,64,66,111,-1,111,66,110,-1,64,111,112,-1,64,112,29,-1,29,112,113,-1,29,113,30,-1,30,113,114,-1,30,114,58,-1,58,114,115,-1,58,115,60,-1,60,115,116,-1,60,116,87,-1,87,116,117,-1,87,117,88,-1,88,117,118,-1,88,118,90,-1,90,118,119,-1,90,119,92,-1,92,119,120,-1,92,120,94,-1,94,120,121,-1,94,121,95,-1,95,121,122,-1,95,122,49,-1,123,56,55,-1,49,122,124,-1,49,124,51,-1,51,124,125,-1,51,125,53,-1,53,125,126,-1,53,126,55,-1,55,126,127,-1,55,127,123,-1,56,123,128,-1,56,128,46,-1,46,128,129,-1,46,129,44,-1,44,129,130,-1,44,130,42,-1,42,130,131,-1,42,131,40,-1,40,131,132,-1,40,132,26,-1,27,26,133,-1,133,26,132,-1,36,27,134,-1,134,27,133,-1,37,36,135,-1,135,36,134,-1,33,37,136,-1,136,37,135,-1,33,136,137,-1,33,137,85,-1,85,137,138,-1,85,138,83,-1,83,138,139,-1,83,139,81,-1,81,139,140,-1,81,140,79,-1,79,140,141,-1,79,141,77,-1,77,141,142,-1,77,142,75,-1,75,142,96,-1,75,96,73,-1,31,143,144,-1,31,144,62,-1,62,144,145,-1,62,145,63,-1,63,145,146,-1,63,146,65,-1,89,147,148,-1,89,148,61,-1,61,148,149,-1,61,149,59,-1,59,149,150,-1,59,150,57,-1,57,150,143,-1,57,143,31,-1,50,151,152,-1,50,152,48,-1,48,152,153,-1,48,153,93,-1,93,153,154,-1,93,154,91,-1,91,154,147,-1,91,147,89,-1,47,155,156,-1,47,156,54,-1,54,156,157,-1,54,157,52,-1,52,157,151,-1,52,151,50,-1,39,158,159,-1,39,159,41,-1,41,159,160,-1,41,160,43,-1,43,160,161,-1,43,161,45,-1,45,161,155,-1,45,155,47,-1,34,162,163,-1,34,163,32,-1,32,163,164,-1,32,164,28,-1,28,164,165,-1,28,165,38,-1,38,165,158,-1,38,158,39,-1,34,35,162,-1,162,35,166,-1,35,65,166,-1,166,65,146,-1,
        ]
    }
}
Shape{
    appearance Appearance {
        material  Material 	{
            diffuseColor 0.25098039215686274 0.25098039215686274 0.25098039215686274
            specularColor 0.12549019607843137 0.12549019607843137 0.12549019607843137
            ambientIntensity 0.2
            transparency 0
            shininess 0.5
        }
    }
    geometry IndexedFaceSet {
        ccw TRUE
        solid FALSE
        coord DEF co Coordinate {
            point [
                0.1969 0.0265 0.1078, 0.1969 0.0239 0.1074, 0.1969 0.0265 0.1067, 0.1969 0.0227 0.1072, 0.1969 0.0222 0.1069, 0.1969 0.0219 0.1067, 0.1969 0.0265 0.1064, 0.1969 0.0264 0.1056, 0.1969 0.0217 0.1064, 0.1969 0.0261 0.1049, 0.1969 0.0218 0.1041, 0.1969 0.022 0.1039, 0.1969 0.0254 0.1041, 0.1969 0.0216 0.1045, 0.1969 0.0248 0.1037, 0.1969 0.0242 0.1035, 0.1969 0.0235 0.1034, 0.1969 0.0215 0.1061, 0.1969 0.0214 0.1056, 0.1969 0.0257 0.1044, 0.1969 0.0214 0.1053, 0.1969 0.0214 0.1048, 0.1969 0.0224 0.1037, 0.1969 0.0228 0.1035, 0.1969 0.0228 0.1035
            ]
        }
        coordIndex [
            0,1,2,-1,2,1,3,-1,3,4,2,-1,2,4,5,-1,2,5,6,-1,6,5,7,-1,7,5,8,-1,7,8,9,-1,10,11,12,-1,10,12,13,-1,14,12,15,-1,15,12,16,-1,8,17,9,-1,9,17,18,-1,9,18,19,-1,19,18,20,-1,19,20,12,-1,12,20,21,-1,12,21,13,-1,11,22,12,-1,12,22,23,-1,12,23,16,-1,
        ]
    }
}
Shape{
    appearance Appearance {
        material  Material 	{
            diffuseColor 1.0 1.0 1.0
            specularColor 0.5019607843137255 0.5019607843137255 0.5019607843137255
            ambientIntensity 0.2
            transparency 0
            shininess 0.5
        }
    }
    geometry IndexedFaceSet {
        ccw TRUE
        solid FALSE
        coord DEF co Coordinate {
            point [
                0.1969 0.0313 0.1045, 0.1969 0.0313 0.1045, 0.1969 0.032 0.1041, 0.1969 0.0346 0.1034, 0.1969 0.0346 0.1034, 0.1969 0.0332 0.1036, 0.1969 0.0332 0.1036, 0.1969 0.0322 0.104, 0.1969 0.032 0.1041, 0.1969 0.0313 0.1025, 0.1969 0.0313 0.1025, 0.1969 0.0326 0.102, 0.1969 0.0322 0.1021, 0.1969 0.0344 0.1018, 0.1969 0.0344 0.1018, 0.1969 0.0331 0.1019, 0.1969 0.0326 0.102, 0.1969 0.036 0.102, 0.1969 0.0356 0.1019, 0.1969 0.036 0.102, 0.1969 0.0371 0.1024, 0.1969 0.0371 0.1024, 0.1969 0.0377 0.1027, 0.1969 0.0377 0.1027, 0.1969 0.0382 0.1032, 0.1969 0.0382 0.1032, 0.1969 0.0386 0.1037, 0.1969 0.0386 0.1037, 0.1969 0.0389 0.1043, 0.1969 0.0389 0.1043, 0.1969 0.039 0.1052, 0.1969 0.039 0.1052, 0.1969 0.0389 0.1059, 0.1969 0.0389 0.1059, 0.1969 0.0387 0.1065, 0.1969 0.0387 0.1065, 0.1969 0.0384 0.107, 0.1969 0.0384 0.107, 0.1969 0.0383 0.1071, 0.1969 0.0383 0.1071, 0.1969 0.0378 0.1075, 0.1969 0.0378 0.1075, 0.1969 0.0365 0.1082, 0.1969 0.0365 0.1082, 0.1969 0.0357 0.1085, 0.1969 0.0357 0.1085, 0.1969 0.0345 0.1091, 0.1969 0.0345 0.1091, 0.1969 0.0338 0.1095, 0.1969 0.0338 0.1095, 0.1969 0.0336 0.1097, 0.1969 0.0336 0.1097, 0.1969 0.0334 0.11, 0.1969 0.0334 0.11, 0.1969 0.0334 0.1103, 0.1969 0.0334 0.1103, 0.1969 0.0333 0.1106, 0.1969 0.0333 0.1106, 0.1969 0.0334 0.1109, 0.1969 0.0334 0.1109, 0.1969 0.0335 0.1112, 0.1969 0.0335 0.1112, 0.1969 0.0336 0.1114, 0.1969 0.0336 0.1114, 0.1969 0.0339 0.1117, 0.1969 0.0339 0.1117, 0.1969 0.0344 0.1119, 0.1969 0.0344 0.1119, 0.1969 0.0349 0.1121, 0.1969 0.0349 0.1121, 0.1969 0.0355 0.1121, 0.1969 0.0355 0.1121, 0.1969 0.0369 0.112, 0.1969 0.0369 0.112, 0.1969 0.0381 0.1115, 0.1969 0.0381 0.1115, 0.1969 0.0384 0.1113, 0.1969 0.0384 0.1113, 0.1969 0.0384 0.1132, 0.1969 0.0384 0.1132, 0.1969 0.0371 0.1136, 0.1969 0.0371 0.1136, 0.1969 0.0357 0.1138, 0.1969 0.0357 0.1138, 0.1969 0.0341 0.1136, 0.1969 0.0341 0.1136, 0.1969 0.033 0.1131, 0.1969 0.033 0.1131, 0.1969 0.0326 0.1128, 0.1969 0.0326 0.1128, 0.1969 0.032 0.1124, 0.1969 0.0322 0.1125, 0.1969 0.032 0.1124, 0.1969 0.0316 0.1118, 0.1969 0.0316 0.1118, 0.1969 0.0314 0.1112, 0.1969 0.0314 0.1112, 0.1969 0.0313 0.1104, 0.1969 0.0313 0.1104, 0.1969 0.0313 0.1097, 0.1969 0.0313 0.1097, 0.1969 0.0316 0.1091, 0.1969 0.0316 0.1091, 0.1969 0.0318 0.1086, 0.1969 0.0318 0.1086, 0.1969 0.0343 0.1071, 0.1969 0.0343 0.1071, 0.1969 0.0331 0.1076, 0.1969 0.0322 0.1083, 0.1969 0.0322 0.1083, 0.1969 0.0322 0.1082, 0.1969 0.0331 0.1076, 0.1969 0.0356 0.1065, 0.1969 0.0356 0.1065, 0.1969 0.0364 0.1061, 0.1969 0.0364 0.1061, 0.1969 0.0367 0.1058, 0.1969 0.0367 0.1058, 0.1969 0.0368 0.1055, 0.1969 0.0368 0.1055, 0.1969 0.0369 0.1052, 0.1969 0.0369 0.1052, 0.1969 0.0369 0.105, 0.1969 0.0369 0.105, 0.1969 0.0369 0.1046, 0.1969 0.0369 0.1046, 0.1969 0.0368 0.1043, 0.1969 0.0368 0.1043, 0.1969 0.0366 0.104, 0.1969 0.0366 0.104, 0.1969 0.0364 0.1038, 0.1969 0.0364 0.1038, 0.1969 0.0362 0.1037, 0.1969 0.0362 0.1037, 0.1969 0.0357 0.1035, 0.1969 0.0357 0.1035, 0.1969 0.0346 0.1034, 0.1969 0.0346 0.1034, 0.1969 0.0489 0.1135, 0.1969 0.051 0.1135, 0.1969 0.0489 0.1135, 0.1969 0.051 0.1135, 0.1969 0.0458 0.1049, 0.1969 0.0458 0.1049, 0.1969 0.0456 0.1043, 0.1969 0.0456 0.1043, 0.1969 0.0456 0.104, 0.1969 0.0456 0.104, 0.1969 0.0455 0.104, 0.1969 0.0455 0.104, 0.1969 0.0453 0.1049, 0.1969 0.0453 0.1049, 0.1969 0.0423 0.1135, 0.1969 0.0423 0.1135, 0.1969 0.0432 0.1107, 0.1969 0.04 0.1135, 0.1969 0.04 0.1135, 0.1969 0.0445 0.1021, 0.1969 0.0445 0.1021, 0.1969 0.0432 0.1053, 0.1969 0.0436 0.1, 0.1969 0.0436 0.1, 0.1969 0.0444 0.1019, 0.1969 0.0433 0.0993, 0.1969 0.0433 0.0993, 0.1969 0.0432 0.0993, 0.1969 0.0429 0.0989, 0.1969 0.0429 0.0989, 0.1969 0.0425 0.0986, 0.1969 0.0425 0.0986, 0.1969 0.042 0.0984, 0.1969 0.042 0.0984, 0.1969 0.0416 0.0984, 0.1969 0.0416 0.0984, 0.1969 0.0409 0.0985, 0.1969 0.0409 0.0985, 0.1969 0.0404 0.0986, 0.1969 0.0404 0.0986, 0.1969 0.0404 0.0968, 0.1969 0.0404 0.0968, 0.1969 0.041 0.0967, 0.1969 0.041 0.0967, 0.1969 0.0417 0.0967, 0.1969 0.0417 0.0967, 0.1969 0.0425 0.0967, 0.1969 0.0432 0.097, 0.1969 0.0433 0.097, 0.1969 0.0425 0.0967, 0.1969 0.0433 0.097, 0.1969 0.044 0.0975, 0.1969 0.044 0.0975, 0.1969 0.0444 0.0979, 0.1969 0.0444 0.0979, 0.1969 0.0452 0.0991, 0.1969 0.0452 0.0991, 0.1969 0.0458 0.1003, 0.1969 0.0458 0.1003, 0.1969 0.0464 0.1019, 0.1969 0.0618 0.1039, 0.1969 0.0618 0.1021, 0.1969 0.0618 0.1039, 0.1969 0.0618 0.1021, 0.1969 0.0552 0.1039, 0.1969 0.0552 0.1039, 0.1969 0.0582 0.1039, 0.1969 0.0552 0.1093, 0.1969 0.0552 0.1093, 0.1969 0.061 0.1093, 0.1969 0.061 0.1093, 0.1969 0.0582 0.1093, 0.1969 0.061 0.1111, 0.1969 0.061 0.1111, 0.1969 0.0552 0.1111, 0.1969 0.0552 0.1111, 0.1969 0.0582 0.1111, 0.1969 0.0552 0.1162, 0.1969 0.0552 0.1162, 0.1969 0.0552 0.1159, 0.1969 0.0614 0.1162, 0.1969 0.0614 0.1162, 0.1969 0.0582 0.1162, 0.1969 0.0614 0.1181, 0.1969 0.0614 0.1181, 0.1969 0.0542 0.1181, 0.1969 0.0532 0.1181, 0.1969 0.0532 0.1181, 0.1969 0.0582 0.1181, 0.1969 0.0532 0.1021, 0.1969 0.0532 0.1021, 0.1969 0.0532 0.1159, 0.1969 0.0542 0.1021, 0.1969 0.0582 0.1021, 0.1969 0.0756 0.1092, 0.1969 0.0778 0.1093, 0.1969 0.0757 0.1102, 0.1969 0.0778 0.1103, 0.1969 0.0755 0.1121, 0.1969 0.0776 0.1125, 0.1969 0.075 0.1133, 0.1969 0.077 0.114, 0.1969 0.0744 0.1142, 0.1969 0.076 0.1154, 0.1969 0.0739 0.1147, 0.1969 0.0754 0.116, 0.1969 0.0727 0.1155, 0.1969 0.0737 0.1171, 0.1969 0.0714 0.116, 0.1969 0.0718 0.1178, 0.1969 0.0693 0.1162, 0.1969 0.0694 0.1181, 0.1969 0.0669 0.1162, 0.1969 0.0648 0.1181, 0.1969 0.0669 0.1039, 0.1969 0.0648 0.1021, 0.1969 0.0692 0.1039, 0.1969 0.0692 0.1021, 0.1969 0.0712 0.1041, 0.1969 0.0718 0.1024, 0.1969 0.0726 0.1046, 0.1969 0.0737 0.1031, 0.1969 0.0737 0.1053, 0.1969 0.0752 0.1041, 0.1969 0.074 0.1056, 0.1969 0.0754 0.1043, 0.1969 0.0747 0.1065, 0.1969 0.0766 0.1057, 0.1969 0.0753 0.1077, 0.1969 0.0774 0.1074, 0.1969 0.0692 0.1021, 0.1969 0.0648 0.1021, 0.1969 0.0718 0.1024, 0.1969 0.0737 0.1031, 0.1969 0.0752 0.1041, 0.1969 0.0754 0.1043, 0.1969 0.0766 0.1057, 0.1969 0.0774 0.1074, 0.1969 0.0778 0.1093, 0.1969 0.0778 0.1103, 0.1969 0.0776 0.1125, 0.1969 0.077 0.114, 0.1969 0.076 0.1154, 0.1969 0.0755 0.1159, 0.1969 0.0754 0.116, 0.1969 0.0737 0.1171, 0.1969 0.0718 0.1178, 0.1969 0.0694 0.1181, 0.1969 0.0648 0.1181, 0.1969 0.0648 0.1159, 0.1969 0.0693 0.1162, 0.1969 0.0669 0.1162, 0.1969 0.0669 0.1039, 0.1969 0.0692 0.1039, 0.1969 0.074 0.1056, 0.1969 0.0737 0.1053, 0.1969 0.0726 0.1046, 0.1969 0.0712 0.1041, 0.1969 0.0757 0.1102, 0.1969 0.0756 0.1092, 0.1969 0.0753 0.1077, 0.1969 0.0747 0.1065, 0.1969 0.0739 0.1147, 0.1969 0.0744 0.1142, 0.1969 0.075 0.1133, 0.1969 0.0755 0.1121, 0.1969 0.0714 0.116, 0.1969 0.0727 0.1155, 0.1969 0.0727 0.1155
            ]
        }
        coordIndex [
            0,1,2,-1,3,4,5,-1,3,5,6,-1,6,5,7,-1,6,7,2,-1,2,7,8,-1,2,8,0,-1,9,1,10,-1,10,1,0,-1,11,9,12,-1,12,9,10,-1,13,14,15,-1,15,14,11,-1,15,11,16,-1,16,11,12,-1,17,14,18,-1,18,14,13,-1,18,19,17,-1,17,19,20,-1,17,20,21,-1,21,20,22,-1,21,22,23,-1,23,22,24,-1,23,24,25,-1,25,24,26,-1,25,26,27,-1,27,26,28,-1,27,28,29,-1,29,28,30,-1,29,30,31,-1,31,30,32,-1,31,32,33,-1,33,32,34,-1,33,34,35,-1,35,34,36,-1,35,36,37,-1,37,36,38,-1,37,38,39,-1,39,38,40,-1,39,40,41,-1,41,40,42,-1,41,42,43,-1,43,42,44,-1,43,44,45,-1,45,44,46,-1,45,46,47,-1,47,46,48,-1,47,48,49,-1,49,48,50,-1,49,50,51,-1,51,50,52,-1,51,52,53,-1,53,52,54,-1,53,54,55,-1,55,54,56,-1,55,56,57,-1,57,56,58,-1,57,58,59,-1,59,58,60,-1,59,60,61,-1,61,60,62,-1,61,62,63,-1,63,62,64,-1,63,64,65,-1,65,64,66,-1,65,66,67,-1,67,66,68,-1,67,68,69,-1,69,68,70,-1,69,70,71,-1,71,70,72,-1,71,72,73,-1,73,72,74,-1,73,74,75,-1,75,74,76,-1,75,76,77,-1,78,77,79,-1,79,77,76,-1,78,79,80,-1,78,80,81,-1,81,80,82,-1,81,82,83,-1,83,82,84,-1,83,84,85,-1,85,84,86,-1,85,86,87,-1,87,86,88,-1,87,88,89,-1,90,89,91,-1,91,89,88,-1,91,92,90,-1,90,92,93,-1,90,93,94,-1,94,93,95,-1,94,95,96,-1,96,95,97,-1,96,97,98,-1,98,97,99,-1,98,99,100,-1,100,99,101,-1,100,101,102,-1,102,101,103,-1,102,103,104,-1,105,106,107,-1,104,103,108,-1,104,108,109,-1,109,108,110,-1,109,110,107,-1,107,110,111,-1,107,111,105,-1,106,105,112,-1,106,112,113,-1,113,112,114,-1,113,114,115,-1,115,114,116,-1,115,116,117,-1,117,116,118,-1,117,118,119,-1,119,118,120,-1,119,120,121,-1,121,120,122,-1,121,122,123,-1,123,122,124,-1,123,124,125,-1,125,124,126,-1,125,126,127,-1,127,126,128,-1,127,128,129,-1,129,128,130,-1,129,130,131,-1,131,130,132,-1,131,132,133,-1,133,132,134,-1,133,134,135,-1,135,134,136,-1,135,136,137,-1,137,136,4,-1,137,4,3,-1,63,65,87,-1,87,65,85,-1,119,37,117,-1,117,37,39,-1,117,39,115,-1,115,39,41,-1,115,41,113,-1,41,43,113,-1,113,43,45,-1,113,45,106,-1,106,45,47,-1,21,23,129,-1,129,23,25,-1,129,25,127,-1,127,25,27,-1,127,27,125,-1,125,27,29,-1,125,29,123,-1,123,29,31,-1,123,31,121,-1,121,31,33,-1,121,33,119,-1,119,33,35,-1,119,35,37,-1,14,3,11,-1,11,3,6,-1,11,6,9,-1,9,6,2,-1,9,2,1,-1,65,67,85,-1,85,67,69,-1,85,69,83,-1,83,69,71,-1,83,71,81,-1,81,71,73,-1,81,73,78,-1,78,73,75,-1,78,75,77,-1,129,131,21,-1,21,131,133,-1,21,133,17,-1,17,133,135,-1,17,135,14,-1,14,135,137,-1,14,137,3,-1,87,89,63,-1,63,89,90,-1,63,90,61,-1,61,90,94,-1,61,94,59,-1,59,94,96,-1,59,96,57,-1,57,96,98,-1,57,98,55,-1,55,98,100,-1,55,100,53,-1,53,100,102,-1,53,102,51,-1,51,102,104,-1,51,104,49,-1,49,104,109,-1,49,109,47,-1,47,109,107,-1,47,107,106,-1,138,139,140,-1,140,139,141,-1,142,138,143,-1,143,138,140,-1,142,143,144,-1,142,144,145,-1,145,144,146,-1,145,146,147,-1,148,147,149,-1,149,147,146,-1,150,148,151,-1,151,148,149,-1,152,153,154,-1,154,153,150,-1,154,150,151,-1,155,153,156,-1,156,153,152,-1,157,158,159,-1,159,158,155,-1,159,155,156,-1,160,161,162,-1,162,161,158,-1,162,158,157,-1,161,160,163,-1,161,163,164,-1,164,163,165,-1,164,165,166,-1,165,167,166,-1,166,167,168,-1,166,168,169,-1,169,168,170,-1,169,170,171,-1,171,170,172,-1,171,172,173,-1,173,172,174,-1,173,174,175,-1,175,174,176,-1,175,176,177,-1,178,177,179,-1,179,177,176,-1,178,179,180,-1,178,180,181,-1,181,180,182,-1,181,182,183,-1,183,182,184,-1,185,186,184,-1,184,186,187,-1,184,187,183,-1,185,188,186,-1,186,188,189,-1,186,189,190,-1,190,189,191,-1,190,191,192,-1,192,191,193,-1,192,193,194,-1,194,193,195,-1,194,195,196,-1,141,139,197,-1,197,139,196,-1,197,196,195,-1,145,147,196,-1,139,138,196,-1,196,138,142,-1,196,142,145,-1,153,155,150,-1,150,155,158,-1,150,158,148,-1,177,178,175,-1,175,178,181,-1,175,181,173,-1,173,181,183,-1,173,183,171,-1,171,183,187,-1,171,187,169,-1,169,187,186,-1,169,186,166,-1,166,186,190,-1,166,190,164,-1,164,190,192,-1,164,192,161,-1,161,192,194,-1,161,194,158,-1,158,194,196,-1,158,196,148,-1,148,196,147,-1,198,199,200,-1,200,199,201,-1,202,203,204,-1,204,203,198,-1,204,198,200,-1,205,203,206,-1,206,203,202,-1,207,208,209,-1,209,208,205,-1,209,205,206,-1,210,208,211,-1,211,208,207,-1,212,213,214,-1,214,213,210,-1,214,210,211,-1,215,216,217,-1,217,216,213,-1,217,213,212,-1,218,219,220,-1,220,219,216,-1,220,216,215,-1,221,219,222,-1,222,219,218,-1,223,224,225,-1,223,225,226,-1,226,225,221,-1,226,221,222,-1,227,228,229,-1,229,228,225,-1,229,225,224,-1,227,230,228,-1,228,230,231,-1,228,231,199,-1,199,231,201,-1,208,210,205,-1,205,210,213,-1,199,198,228,-1,228,198,203,-1,219,221,216,-1,216,221,225,-1,216,225,213,-1,213,225,228,-1,213,228,205,-1,205,228,203,-1,232,233,234,-1,234,233,235,-1,234,235,236,-1,236,235,237,-1,236,237,238,-1,238,237,239,-1,238,239,240,-1,240,239,241,-1,240,241,242,-1,242,241,243,-1,242,243,244,-1,244,243,245,-1,244,245,246,-1,246,245,247,-1,246,247,248,-1,248,247,249,-1,248,249,250,-1,250,249,251,-1,250,251,252,-1,252,251,253,-1,252,253,254,-1,254,253,255,-1,254,255,256,-1,256,255,257,-1,256,257,258,-1,258,257,259,-1,258,259,260,-1,260,259,261,-1,260,261,262,-1,262,261,263,-1,262,263,264,-1,264,263,265,-1,264,265,266,-1,266,265,267,-1,266,267,232,-1,232,267,233,-1,255,253,268,-1,268,253,269,-1,255,268,270,-1,255,270,257,-1,257,270,271,-1,257,271,259,-1,259,271,272,-1,259,272,261,-1,261,272,273,-1,261,273,263,-1,263,273,274,-1,263,274,265,-1,265,274,275,-1,265,275,267,-1,267,275,276,-1,267,276,233,-1,233,276,277,-1,233,277,235,-1,235,277,278,-1,235,278,237,-1,237,278,279,-1,237,279,239,-1,239,279,280,-1,239,280,241,-1,241,280,243,-1,243,280,281,-1,243,281,282,-1,243,282,283,-1,243,283,245,-1,245,283,284,-1,245,284,247,-1,247,284,285,-1,247,285,249,-1,251,249,286,-1,286,249,285,-1,269,253,287,-1,287,253,251,-1,287,251,286,-1,248,250,288,-1,288,250,289,-1,250,252,289,-1,289,252,290,-1,252,254,290,-1,290,254,291,-1,262,292,293,-1,262,293,260,-1,260,293,294,-1,260,294,258,-1,258,294,295,-1,258,295,256,-1,256,295,291,-1,256,291,254,-1,234,296,297,-1,234,297,232,-1,232,297,298,-1,232,298,266,-1,266,298,299,-1,266,299,264,-1,264,299,292,-1,264,292,262,-1,242,300,301,-1,242,301,240,-1,240,301,302,-1,240,302,238,-1,238,302,303,-1,238,303,236,-1,236,303,296,-1,236,296,234,-1,248,288,304,-1,248,304,246,-1,246,304,305,-1,246,305,244,-1,244,305,300,-1,244,300,242,-1,
        ]
    }
}
Shape{
    appearance Appearance {
        material  Material 	{
            diffuseColor 0.25098039215686274 0.25098039215686274 0.25098039215686274
            specularColor 0.12549019607843137 0.12549019607843137 0.12549019607843137
            ambientIntensity 0.2
            transparency 0
            shininess 0.5
        }
    }
    geometry IndexedFaceSet {
        ccw TRUE
        solid FALSE
        coord DEF co Coordinate {
            point [
                0.1969 0.0669 0.1162, 0.1969 0.0669 0.1039, 0.1969 0.0693 0.1162, 0.1969 0.0692 0.1039, 0.1969 0.0712 0.1041, 0.1969 0.0726 0.1046, 0.1969 0.0737 0.1053, 0.1969 0.074 0.1056, 0.1969 0.0747 0.1065, 0.1969 0.0753 0.1077, 0.1969 0.0756 0.1092, 0.1969 0.0757 0.1102, 0.1969 0.0755 0.1121, 0.1969 0.075 0.1133, 0.1969 0.0744 0.1142, 0.1969 0.0739 0.1147, 0.1969 0.0714 0.116, 0.1969 0.0727 0.1155, 0.1969 0.0727 0.1155
            ]
        }
        coordIndex [
            0,1,2,-1,2,1,3,-1,2,3,4,-1,4,5,2,-1,2,5,6,-1,2,6,7,-1,7,8,2,-1,2,8,9,-1,2,9,10,-1,10,11,2,-1,2,11,12,-1,2,12,13,-1,13,14,2,-1,2,14,15,-1,2,15,16,-1,16,15,17,-1,
        ]
    }
}
Shape{
    appearance Appearance {
        material  Material 	{
            diffuseColor 1.0 1.0 1.0
            specularColor 0.5019607843137255 0.5019607843137255 0.5019607843137255
            ambientIntensity 0.2
            transparency 0
            shininess 0.5
        }
    }
    geometry IndexedFaceSet {
        ccw TRUE
        solid FALSE
        coord DEF co Coordinate {
            point [
                0.1969 0.0832 0.1082, 0.1969 0.0825 0.1064, 0.1969 0.0886 0.1082, 0.1969 0.0892 0.1064, 0.1969 0.0856 0.1149, 0.1969 0.0848 0.1181, 0.1969 0.0787 0.1021, 0.1969 0.081 0.1021, 0.1969 0.0857 0.1154, 0.1969 0.0859 0.116, 0.1969 0.087 0.1181, 0.1969 0.0859 0.116, 0.1969 0.086 0.1153, 0.1969 0.0862 0.1149, 0.1969 0.0931 0.1021, 0.1969 0.0909 0.1021, 0.1969 0.087 0.1181, 0.1969 0.0879 0.1159, 0.1969 0.0931 0.1021, 0.1969 0.0848 0.1181, 0.1969 0.0787 0.1021, 0.1969 0.084 0.1159, 0.1969 0.081 0.1021, 0.1969 0.0825 0.1064, 0.1969 0.0892 0.1064, 0.1969 0.0909 0.1021, 0.1969 0.0832 0.1082, 0.1969 0.0886 0.1082, 0.1969 0.0862 0.1149, 0.1969 0.0859 0.116, 0.1969 0.086 0.1153, 0.1969 0.0859 0.116, 0.1969 0.0856 0.1149, 0.1969 0.0857 0.1154, 0.1969 0.0857 0.1154
            ]
        }
        coordIndex [
            0,1,2,-1,2,1,3,-1,4,5,0,-1,0,5,6,-1,0,6,1,-1,1,6,7,-1,4,8,5,-1,5,8,9,-1,5,9,10,-1,10,9,11,-1,10,11,12,-1,12,13,10,-1,10,13,2,-1,10,2,14,-1,14,2,3,-1,14,3,15,-1,16,10,17,-1,17,10,14,-1,17,14,18,-1,5,10,19,-1,19,10,16,-1,20,6,21,-1,21,6,5,-1,21,5,19,-1,7,6,22,-1,22,6,20,-1,1,7,23,-1,23,7,22,-1,3,1,24,-1,24,1,23,-1,15,3,25,-1,25,3,24,-1,14,15,18,-1,18,15,25,-1,0,2,26,-1,26,2,27,-1,2,13,27,-1,27,13,28,-1,11,29,30,-1,11,30,12,-1,12,30,28,-1,12,28,13,-1,11,9,29,-1,29,9,31,-1,4,32,33,-1,4,33,8,-1,8,33,31,-1,8,31,9,-1,4,0,32,-1,32,0,26,-1,
        ]
    }
}
Shape{
    appearance Appearance {
        material  Material 	{
            diffuseColor 0.25098039215686274 0.25098039215686274 0.25098039215686274
            specularColor 0.12549019607843137 0.12549019607843137 0.12549019607843137
            ambientIntensity 0.2
            transparency 0
            shininess 0.5
        }
    }
    geometry IndexedFaceSet {
        ccw TRUE
        solid FALSE
        coord DEF co Coordinate {
            point [
                0.1969 0.0859 0.116, 0.1969 0.0859 0.116, 0.1969 0.086 0.1153, 0.1969 0.0857 0.1154, 0.1969 0.0862 0.1149, 0.1969 0.0856 0.1149, 0.1969 0.0886 0.1082, 0.1969 0.0832 0.1082, 0.1969 0.0832 0.1082
            ]
        }
        coordIndex [
            0,1,2,-1,2,1,3,-1,2,3,4,-1,4,3,5,-1,4,5,6,-1,6,5,7,-1,
        ]
    }
}
Shape{
    appearance Appearance {
        material  Material 	{
            diffuseColor 1.0 1.0 1.0
            specularColor 0.5019607843137255 0.5019607843137255 0.5019607843137255
            ambientIntensity 0.2
            transparency 0
            shininess 0.5
        }
    }
    geometry IndexedFaceSet {
        ccw TRUE
        solid FALSE
        coord DEF co Coordinate {
            point [
                0.1969 -0.062 0.0999, 0.1969 -0.0603 0.0978, 0.1969 -0.0629 0.1099, 0.1969 -0.0649 0.1297, 0.1969 -0.0623 0.131, 0.1969 -0.063 0.138, 0.1969 -0.0429 0.0994, 0.1969 -0.0416 0.1019, 0.1969 -0.0409 0.1047, 0.1969 -0.0559 0.1383, 0.1969 -0.0524 0.13, 0.1969 -0.0506 0.1336, 0.1969 -0.0585 0.1386, 0.1969 -0.0249 0.1154, 0.1969 -0.0284 0.1215, 0.1969 -0.0409 0.107, 0.1969 -0.0437 0.1135, 0.1969 -0.0409 0.1059, 0.1969 -0.0471 0.0957, 0.1969 -0.0448 0.0973, 0.1969 -0.0553 0.1025, 0.1969 -0.0544 0.1018, 0.1969 -0.0581 0.0961, 0.1969 -0.0534 0.1014, 0.1969 -0.0483 0.1075, 0.1969 -0.048 0.1065, 0.1969 -0.0479 0.1054, 0.1969 -0.0482 0.1043, 0.1969 -0.0487 0.1033, 0.1969 -0.0212 0.1267, 0.1969 -0.0202 0.1267, 0.1969 -0.0156 0.1329, 0.1969 -0.0181 0.1264, 0.1969 -0.015 0.1327, 0.1969 -0.0161 0.1257, 0.1969 -0.0117 0.131, 0.1969 -0.0086 0.1284, 0.1969 -0.0535 0.141, 0.1969 -0.048 0.1367, 0.1969 -0.0509 0.1433, 0.1969 -0.045 0.1389, 0.1969 -0.0481 0.1451, 0.1969 -0.0652 0.1112, 0.1969 -0.0645 0.1027, 0.1969 -0.0631 0.1022, 0.1969 -0.0595 0.1317, 0.1969 -0.0584 0.1317, 0.1969 -0.0572 0.1385, 0.1969 -0.0559 0.1314, 0.1969 -0.0533 0.1305, 0.1969 -0.0568 0.1053, 0.1969 -0.0565 0.1042, 0.1969 -0.0561 0.1033, 0.1969 -0.0555 0.095, 0.1969 -0.0528 0.0945, 0.1969 -0.0524 0.1013, 0.1969 -0.0522 0.0945, 0.1969 -0.0513 0.1015, 0.1969 -0.0497 0.0948, 0.1969 -0.0503 0.1018, 0.1969 -0.0494 0.1024, 0.1969 -0.0143 0.1245, 0.1969 -0.013 0.123, 0.1969 -0.0062 0.1252, 0.1969 -0.0119 0.121, 0.1969 -0.0048 0.1217, 0.1969 -0.0043 0.1179, 0.1969 -0.0114 0.1188, 0.1969 -0.0114 0.1178, 0.1969 -0.0048 0.1139, 0.1969 -0.0116 0.1156, 0.1969 -0.0062 0.1103, 0.1969 -0.0124 0.1136, 0.1969 -0.0085 0.1071, 0.1969 -0.0672 0.1364, 0.1969 -0.0708 0.1338, 0.1969 -0.067 0.1278, 0.1969 -0.0716 0.1331, 0.1969 -0.0685 0.1255, 0.1969 -0.0743 0.1296, 0.1969 -0.0695 0.1229, 0.1969 -0.0137 0.1118, 0.1969 -0.0138 0.1116, 0.1969 -0.0116 0.1045, 0.1969 -0.0155 0.1103, 0.1969 -0.0151 0.1028, 0.1969 -0.0175 0.1093, 0.1969 -0.0189 0.102, 0.1969 -0.0196 0.1089, 0.1969 -0.0256 0.102, 0.1969 -0.0247 0.1089, 0.1969 -0.0262 0.1021, 0.1969 -0.0217 0.1419, 0.1969 -0.0262 0.1367, 0.1969 -0.018 0.1375, 0.1969 -0.0236 0.1336, 0.1969 -0.0219 0.13, 0.1969 -0.0567 0.1064, 0.1969 -0.0564 0.1075, 0.1969 -0.0616 0.1124, 0.1969 -0.0559 0.1085, 0.1969 -0.0597 0.1146, 0.1969 -0.0553 0.1091, 0.1969 -0.0573 0.1162, 0.1969 -0.0544 0.1097, 0.1969 -0.0548 0.1171, 0.1969 -0.0534 0.1101, 0.1969 -0.0522 0.1174, 0.1969 -0.0524 0.1102, 0.1969 -0.0507 0.1173, 0.1969 -0.0516 0.1101, 0.1969 -0.048 0.1166, 0.1969 -0.0505 0.1098, 0.1969 -0.0456 0.1153, 0.1969 -0.0496 0.1092, 0.1969 -0.0488 0.1084, 0.1969 -0.0428 0.1471, 0.1969 -0.0413 0.1404, 0.1969 -0.0372 0.1478, 0.1969 -0.0371 0.1409, 0.1969 -0.0325 0.1473, 0.1969 -0.0332 0.1405, 0.1969 -0.0268 0.1453, 0.1969 -0.0296 0.1391, 0.1969 -0.0264 0.1369, 0.1969 -0.0762 0.1255, 0.1969 -0.0769 0.1212, 0.1969 -0.0698 0.1203, 0.1969 -0.0769 0.1201, 0.1969 -0.0696 0.1185, 0.1969 -0.0764 0.1156, 0.1969 -0.0688 0.1157, 0.1969 -0.0747 0.1114, 0.1969 -0.0673 0.1133, 0.1969 -0.0722 0.1077, 0.1969 -0.0686 0.1047, 0.1969 -0.0253 0.1091, 0.1969 -0.028 0.1032, 0.1969 -0.0277 0.1029, 0.1969 -0.0289 0.1055, 0.1969 -0.0288 0.1047, 0.1969 -0.0285 0.1039, 0.1969 -0.0249 0.109, 0.1969 -0.0269 0.1024, 0.1969 -0.0262 0.109, 0.1969 -0.027 0.1087, 0.1969 -0.0289 0.1059, 0.1969 -0.0277 0.1082, 0.1969 -0.0283 0.1075, 0.1969 -0.0287 0.1068, 0.1969 -0.0254 0.1091, 0.1969 -0.0043 0.1179, 0.1969 -0.0048 0.1217, 0.1969 -0.0062 0.1252, 0.1969 -0.0078 0.1273, 0.1969 -0.0086 0.1284, 0.1969 -0.0117 0.131, 0.1969 -0.015 0.1327, 0.1969 -0.0156 0.1329, 0.1969 -0.018 0.1375, 0.1969 -0.0217 0.1419, 0.1969 -0.0243 0.1436, 0.1969 -0.0268 0.1453, 0.1969 -0.0325 0.1473, 0.1969 -0.0372 0.1478, 0.1969 -0.0509 0.1433, 0.1969 -0.0504 0.1436, 0.1969 -0.0481 0.1451, 0.1969 -0.0428 0.1471, 0.1969 -0.0535 0.141, 0.1969 -0.0559 0.1383, 0.1969 -0.0572 0.1385, 0.1969 -0.0585 0.1386, 0.1969 -0.063 0.138, 0.1969 -0.0672 0.1364, 0.1969 -0.0708 0.1338, 0.1969 -0.0716 0.1331, 0.1969 -0.0743 0.1296, 0.1969 -0.0753 0.1273, 0.1969 -0.0762 0.1255, 0.1969 -0.0769 0.1212, 0.1969 -0.0769 0.1201, 0.1969 -0.0764 0.1159, 0.1969 -0.0764 0.1156, 0.1969 -0.0747 0.1114, 0.1969 -0.0722 0.1077, 0.1969 -0.0686 0.1047, 0.1969 -0.0645 0.1027, 0.1969 -0.0631 0.1022, 0.1969 -0.0629 0.1019, 0.1969 -0.062 0.0999, 0.1969 -0.0603 0.0978, 0.1969 -0.0581 0.0961, 0.1969 -0.0569 0.0956, 0.1969 -0.0555 0.095, 0.1969 -0.0528 0.0945, 0.1969 -0.0522 0.0945, 0.1969 -0.0409 0.1059, 0.1969 -0.0497 0.0948, 0.1969 -0.0475 0.0956, 0.1969 -0.0471 0.0957, 0.1969 -0.0448 0.0973, 0.1969 -0.0429 0.0994, 0.1969 -0.0416 0.1019, 0.1969 -0.0416 0.1019, 0.1969 -0.0409 0.1047, 0.1969 -0.0409 0.107, 0.1969 -0.0249 0.1154, 0.1969 -0.0284 0.1215, 0.1969 -0.0252 0.1159, 0.1969 -0.0437 0.1135, 0.1969 -0.0391 0.1159, 0.1969 -0.0456 0.1153, 0.1969 -0.0468 0.1159, 0.1969 -0.048 0.1166, 0.1969 -0.0507 0.1173, 0.1969 -0.0522 0.1174, 0.1969 -0.0548 0.1171, 0.1969 -0.0573 0.1162, 0.1969 -0.0577 0.1159, 0.1969 -0.0597 0.1146, 0.1969 -0.0616 0.1124, 0.1969 -0.0629 0.1099, 0.1969 -0.0698 0.1203, 0.1969 -0.0652 0.1112, 0.1969 -0.0673 0.1133, 0.1969 -0.0688 0.1157, 0.1969 -0.0688 0.1159, 0.1969 -0.0696 0.1185, 0.1969 -0.0695 0.1229, 0.1969 -0.0685 0.1255, 0.1969 -0.0673 0.1273, 0.1969 -0.067 0.1278, 0.1969 -0.0649 0.1297, 0.1969 -0.0623 0.131, 0.1969 -0.0595 0.1317, 0.1969 -0.0584 0.1317, 0.1969 -0.0559 0.1314, 0.1969 -0.0533 0.1305, 0.1969 -0.0524 0.13, 0.1969 -0.0506 0.1336, 0.1969 -0.048 0.1367, 0.1969 -0.045 0.1389, 0.1969 -0.0413 0.1404, 0.1969 -0.0371 0.1409, 0.1969 -0.0212 0.1267, 0.1969 -0.0213 0.1273, 0.1969 -0.0219 0.13, 0.1969 -0.0236 0.1336, 0.1969 -0.0262 0.1367, 0.1969 -0.0264 0.1369, 0.1969 -0.0296 0.1391, 0.1969 -0.0332 0.1405, 0.1969 -0.0202 0.1267, 0.1969 -0.0181 0.1264, 0.1969 -0.0161 0.1257, 0.1969 -0.0143 0.1245, 0.1969 -0.013 0.123, 0.1969 -0.0119 0.121, 0.1969 -0.0114 0.1188, 0.1969 -0.0114 0.1178, 0.1969 -0.0116 0.1159, 0.1969 -0.0116 0.1156, 0.1969 -0.0124 0.1136, 0.1969 -0.0137 0.1118, 0.1969 -0.0138 0.1116, 0.1969 -0.0155 0.1103, 0.1969 -0.0175 0.1093, 0.1969 -0.0196 0.1089, 0.1969 -0.0247 0.1089, 0.1969 -0.0249 0.109, 0.1969 -0.0253 0.1091, 0.1969 -0.0254 0.1091, 0.1969 -0.0262 0.109, 0.1969 -0.027 0.1087, 0.1969 -0.0277 0.1082, 0.1969 -0.0283 0.1075, 0.1969 -0.0287 0.1068, 0.1969 -0.0289 0.1059, 0.1969 -0.0289 0.1055, 0.1969 -0.0288 0.1047, 0.1969 -0.0285 0.1039, 0.1969 -0.028 0.1032, 0.1969 -0.0277 0.1029, 0.1969 -0.0269 0.1024, 0.1969 -0.0262 0.1021, 0.1969 -0.0256 0.102, 0.1969 -0.0189 0.102, 0.1969 -0.0151 0.1028, 0.1969 -0.0116 0.1045, 0.1969 -0.0085 0.1071, 0.1969 -0.0046 0.1159, 0.1969 -0.0048 0.1139, 0.1969 -0.0062 0.1103, 0.1969 -0.0524 0.1102, 0.1969 -0.0516 0.1101, 0.1969 -0.0505 0.1098, 0.1969 -0.0496 0.1092, 0.1969 -0.0488 0.1084, 0.1969 -0.0483 0.1075, 0.1969 -0.048 0.1065, 0.1969 -0.0479 0.1054, 0.1969 -0.0482 0.1043, 0.1969 -0.0487 0.1033, 0.1969 -0.0494 0.1024, 0.1969 -0.0503 0.1018, 0.1969 -0.0513 0.1015, 0.1969 -0.0524 0.1013, 0.1969 -0.0534 0.1014, 0.1969 -0.0544 0.1018, 0.1969 -0.0553 0.1025, 0.1969 -0.0561 0.1033, 0.1969 -0.0565 0.1042, 0.1969 -0.0568 0.1053, 0.1969 -0.0567 0.1064, 0.1969 -0.0564 0.1075, 0.1969 -0.0559 0.1085, 0.1969 -0.0553 0.1091, 0.1969 -0.0544 0.1097, 0.1969 -0.0534 0.1101, 0.1969 -0.0534 0.1101
            ]
        }
        coordIndex [
            0,1,2,-1,3,4,5,-1,6,7,8,-1,9,10,11,-1,5,4,12,-1,13,14,15,-1,15,14,16,-1,15,16,17,-1,17,16,18,-1,17,18,8,-1,8,18,19,-1,8,19,6,-1,20,1,21,-1,21,1,22,-1,21,22,23,-1,24,25,16,-1,16,25,26,-1,16,26,18,-1,18,26,27,-1,18,27,28,-1,29,30,31,-1,31,30,32,-1,31,32,33,-1,33,32,34,-1,33,34,35,-1,35,34,36,-1,9,11,37,-1,37,11,38,-1,37,38,39,-1,39,38,40,-1,39,40,41,-1,42,43,2,-1,2,43,44,-1,2,44,0,-1,4,45,12,-1,12,45,46,-1,12,46,47,-1,47,46,48,-1,47,48,9,-1,9,48,49,-1,9,49,10,-1,50,2,51,-1,51,2,1,-1,51,1,52,-1,52,1,20,-1,22,53,23,-1,23,53,54,-1,23,54,55,-1,55,54,56,-1,55,56,57,-1,57,56,58,-1,57,58,59,-1,59,58,18,-1,59,18,60,-1,60,18,28,-1,34,61,36,-1,36,61,62,-1,36,62,63,-1,63,62,64,-1,63,64,65,-1,65,64,66,-1,64,67,66,-1,66,67,68,-1,66,68,69,-1,69,68,70,-1,69,70,71,-1,71,70,72,-1,71,72,73,-1,5,74,3,-1,3,74,75,-1,3,75,76,-1,76,75,77,-1,76,77,78,-1,78,77,79,-1,78,79,80,-1,72,81,73,-1,73,81,82,-1,73,82,83,-1,83,82,84,-1,83,84,85,-1,85,84,86,-1,85,86,87,-1,87,86,88,-1,87,88,89,-1,89,88,90,-1,89,90,91,-1,92,93,94,-1,94,93,95,-1,94,95,31,-1,31,95,96,-1,31,96,29,-1,50,97,2,-1,2,97,98,-1,2,98,99,-1,99,98,100,-1,99,100,101,-1,101,100,102,-1,101,102,103,-1,103,102,104,-1,103,104,105,-1,105,104,106,-1,105,106,107,-1,107,106,108,-1,107,108,109,-1,109,108,110,-1,109,110,111,-1,111,110,112,-1,111,112,113,-1,113,112,114,-1,113,114,16,-1,16,114,115,-1,16,115,24,-1,41,40,116,-1,116,40,117,-1,116,117,118,-1,118,117,119,-1,118,119,120,-1,120,119,121,-1,120,121,122,-1,122,121,123,-1,122,123,92,-1,92,123,124,-1,92,124,93,-1,79,125,80,-1,80,125,126,-1,80,126,127,-1,127,126,128,-1,127,128,129,-1,129,128,130,-1,129,130,131,-1,131,130,132,-1,131,132,133,-1,133,132,134,-1,133,134,42,-1,42,134,135,-1,42,135,43,-1,136,137,138,-1,139,140,136,-1,136,140,141,-1,136,141,137,-1,90,142,91,-1,91,142,136,-1,91,136,143,-1,143,136,138,-1,144,145,146,-1,145,147,146,-1,146,147,148,-1,146,148,149,-1,139,136,146,-1,146,136,150,-1,146,150,144,-1,66,151,152,-1,66,152,65,-1,65,152,153,-1,65,153,63,-1,63,153,154,-1,63,154,36,-1,154,155,36,-1,36,155,156,-1,36,156,35,-1,35,156,157,-1,35,157,33,-1,33,157,158,-1,33,158,31,-1,31,158,159,-1,31,159,94,-1,94,159,160,-1,94,160,92,-1,122,92,161,-1,161,92,160,-1,161,162,122,-1,122,162,163,-1,122,163,120,-1,120,163,164,-1,120,164,118,-1,165,39,166,-1,166,39,41,-1,166,41,167,-1,167,41,116,-1,167,116,168,-1,168,116,118,-1,168,118,164,-1,39,165,169,-1,39,169,37,-1,37,169,170,-1,37,170,9,-1,9,170,171,-1,9,171,47,-1,47,171,172,-1,47,172,12,-1,12,172,173,-1,12,173,5,-1,5,173,174,-1,5,174,74,-1,74,174,175,-1,74,175,75,-1,75,175,176,-1,75,176,77,-1,77,176,177,-1,77,177,79,-1,79,177,178,-1,79,178,125,-1,178,179,125,-1,125,179,180,-1,125,180,126,-1,126,180,181,-1,126,181,128,-1,130,128,182,-1,182,128,181,-1,182,183,130,-1,130,183,184,-1,130,184,132,-1,132,184,185,-1,132,185,134,-1,134,185,186,-1,134,186,135,-1,135,186,187,-1,135,187,43,-1,43,187,188,-1,43,188,44,-1,44,188,189,-1,44,189,0,-1,189,190,0,-1,0,190,191,-1,0,191,1,-1,1,191,192,-1,1,192,22,-1,22,192,193,-1,22,193,53,-1,193,194,53,-1,53,194,195,-1,53,195,54,-1,54,195,196,-1,54,196,56,-1,197,17,8,-1,56,196,198,-1,56,198,58,-1,58,198,199,-1,58,199,18,-1,199,200,18,-1,18,200,201,-1,18,201,19,-1,19,201,202,-1,19,202,6,-1,6,202,203,-1,6,203,7,-1,7,203,204,-1,7,204,8,-1,8,204,205,-1,8,205,197,-1,15,17,206,-1,206,17,197,-1,13,15,207,-1,207,15,206,-1,208,14,209,-1,209,14,13,-1,209,13,207,-1,210,16,211,-1,211,16,14,-1,211,14,208,-1,16,210,212,-1,16,212,113,-1,113,212,213,-1,113,213,111,-1,213,214,111,-1,111,214,215,-1,111,215,109,-1,109,215,216,-1,109,216,107,-1,107,216,217,-1,107,217,105,-1,105,217,218,-1,105,218,103,-1,103,218,219,-1,103,219,101,-1,219,220,101,-1,101,220,221,-1,101,221,99,-1,99,221,222,-1,99,222,2,-1,223,127,129,-1,2,222,224,-1,2,224,42,-1,42,224,225,-1,42,225,133,-1,133,225,226,-1,133,226,131,-1,131,226,227,-1,131,227,129,-1,129,227,228,-1,129,228,223,-1,127,223,229,-1,127,229,80,-1,80,229,230,-1,80,230,78,-1,78,230,231,-1,78,231,76,-1,231,232,76,-1,76,232,233,-1,76,233,3,-1,3,233,234,-1,3,234,4,-1,4,234,235,-1,4,235,45,-1,45,235,236,-1,45,236,46,-1,46,236,237,-1,46,237,48,-1,48,237,238,-1,48,238,49,-1,49,238,239,-1,49,239,10,-1,10,239,240,-1,10,240,11,-1,11,240,241,-1,11,241,38,-1,38,241,242,-1,38,242,40,-1,40,242,243,-1,40,243,117,-1,117,243,244,-1,117,244,119,-1,245,29,246,-1,246,29,96,-1,246,96,247,-1,247,96,95,-1,247,95,248,-1,248,95,93,-1,248,93,249,-1,249,93,124,-1,249,124,250,-1,250,124,123,-1,250,123,251,-1,251,123,121,-1,251,121,252,-1,252,121,119,-1,252,119,244,-1,30,29,253,-1,253,29,245,-1,30,253,254,-1,30,254,32,-1,32,254,255,-1,32,255,34,-1,34,255,256,-1,34,256,61,-1,61,256,257,-1,61,257,62,-1,62,257,258,-1,62,258,64,-1,64,258,259,-1,64,259,67,-1,67,259,260,-1,67,260,68,-1,70,68,261,-1,261,68,260,-1,261,262,70,-1,70,262,263,-1,70,263,72,-1,72,263,264,-1,72,264,81,-1,81,264,265,-1,81,265,82,-1,82,265,266,-1,82,266,84,-1,84,266,267,-1,84,267,86,-1,86,267,268,-1,86,268,88,-1,90,88,269,-1,269,88,268,-1,90,269,270,-1,90,270,142,-1,142,270,271,-1,142,271,136,-1,136,271,272,-1,136,272,150,-1,150,272,273,-1,150,273,144,-1,144,273,274,-1,144,274,145,-1,145,274,275,-1,145,275,147,-1,147,275,276,-1,147,276,148,-1,148,276,277,-1,148,277,149,-1,149,277,278,-1,149,278,146,-1,146,278,279,-1,146,279,139,-1,139,279,280,-1,139,280,140,-1,140,280,281,-1,140,281,141,-1,141,281,282,-1,141,282,137,-1,137,282,283,-1,137,283,138,-1,138,283,284,-1,138,284,143,-1,143,284,285,-1,143,285,91,-1,91,285,286,-1,91,286,89,-1,87,89,287,-1,287,89,286,-1,87,287,288,-1,87,288,85,-1,85,288,289,-1,85,289,83,-1,83,289,290,-1,83,290,73,-1,151,66,291,-1,291,66,69,-1,291,69,292,-1,292,69,71,-1,292,71,293,-1,293,71,73,-1,293,73,290,-1,108,294,295,-1,108,295,110,-1,110,295,296,-1,110,296,112,-1,112,296,297,-1,112,297,114,-1,114,297,298,-1,114,298,115,-1,115,298,299,-1,115,299,24,-1,24,299,300,-1,24,300,25,-1,25,300,301,-1,25,301,26,-1,26,301,302,-1,26,302,27,-1,27,302,303,-1,27,303,28,-1,28,303,304,-1,28,304,60,-1,60,304,305,-1,60,305,59,-1,59,305,306,-1,59,306,57,-1,57,306,307,-1,57,307,55,-1,55,307,308,-1,55,308,23,-1,23,308,309,-1,23,309,21,-1,21,309,310,-1,21,310,20,-1,20,310,311,-1,20,311,52,-1,52,311,312,-1,52,312,51,-1,51,312,313,-1,51,313,50,-1,50,313,314,-1,50,314,97,-1,97,314,315,-1,97,315,98,-1,98,315,316,-1,98,316,100,-1,100,316,317,-1,100,317,102,-1,102,317,318,-1,102,318,104,-1,104,318,319,-1,104,319,106,-1,106,319,294,-1,106,294,108,-1,
        ]
    }
}
Shape{
    appearance Appearance {
        material  Material 	{
            diffuseColor 0.25098039215686274 0.25098039215686274 0.25098039215686274
            specularColor 0.12549019607843137 0.12549019607843137 0.12549019607843137
            ambientIntensity 0.2
            transparency 0
            shininess 0.5
        }
    }
    geometry IndexedFaceSet {
        ccw TRUE
        solid FALSE
        coord DEF co Coordinate {
            point [
                0.1969 -0.0524 0.1013, 0.1969 -0.0553 0.1091, 0.1969 -0.0559 0.1085, 0.1969 -0.0524 0.1102, 0.1969 -0.0516 0.1101, 0.1969 -0.0513 0.1015, 0.1969 -0.0534 0.1101, 0.1969 -0.0544 0.1097, 0.1969 -0.0494 0.1024, 0.1969 -0.0488 0.1084, 0.1969 -0.0496 0.1092, 0.1969 -0.0565 0.1042, 0.1969 -0.0561 0.1033, 0.1969 -0.0553 0.1025, 0.1969 -0.0503 0.1018, 0.1969 -0.0505 0.1098, 0.1969 -0.0564 0.1075, 0.1969 -0.0567 0.1064, 0.1969 -0.0568 0.1053, 0.1969 -0.0544 0.1018, 0.1969 -0.0534 0.1014, 0.1969 -0.0482 0.1043, 0.1969 -0.0479 0.1054, 0.1969 -0.0487 0.1033, 0.1969 -0.048 0.1065, 0.1969 -0.0483 0.1075, 0.1969 -0.0483 0.1075
            ]
        }
        coordIndex [
            0,1,2,-1,3,0,4,-1,4,0,5,-1,3,6,0,-1,0,6,7,-1,0,7,1,-1,8,9,10,-1,11,12,2,-1,2,12,13,-1,5,14,4,-1,4,14,8,-1,4,8,15,-1,15,8,10,-1,16,17,2,-1,2,17,18,-1,2,18,11,-1,13,19,2,-1,2,19,20,-1,2,20,0,-1,21,22,23,-1,23,22,24,-1,23,24,8,-1,8,24,25,-1,8,25,9,-1,
        ]
    }
}