#VRML V2.0 utf8
# 3D model generated by easyeda2kicad.py (https://github.com/uPesy/easyeda2kicad.py)

Shape{
    appearance Appearance {
        material  Material 	{
            diffuseColor 0.20784313725490197 0.20784313725490197 0.20784313725490197
            specularColor 0.01568627450980392 0.01568627450980392 0.01568627450980392
            ambientIntensity 0.2
            transparency 0
            shininess 0.5
        }
    }
    geometry IndexedFaceSet {
        ccw TRUE
        solid FALSE
        coord DEF co Coordinate {
            point [
                0.0674 0.0259 -0.9843, 0.0752 0.025 -0.9843, 0.0504 -0.0332 -0.9843, 0.0605 0.0341 -0.9843, 0.0581 0.0339 -0.9843, 0.0413 0.0341 -0.9843, 0.049 0.0314 -0.9843, 0.049 0.0209 -0.9843, 0.0578 0.0247 -0.9843, 0.049 -0.0324 -0.9843, 0.1034 0.0128 -0.9843, 0.0988 0.0202 -0.9843, 0.144 0.0336 -0.9843, 0.0917 0.027 -0.9843, 0.0842 0.0313 -0.9843, 0.2362 0.0341 -0.9843, 0.2362 -0.7874 -0.9843, 0.1546 -0.0452 -0.9843, 0.0754 0.0339 -0.9843, 0.0734 0.0341 -0.9843, 0.1546 0.0336 -0.9843, 0.088 -0.0425 -0.9843, 0.0943 -0.0384 -0.9843, 0.1143 -0.0452 -0.9843, 0.1002 -0.0322 -0.9843, 0.1143 -0.0365 -0.9843, 0.1044 -0.0247 -0.9843, 0.144 -0.0365 -0.9843, 0.0811 0.0229 -0.9843, 0.0865 0.0193 -0.9843, 0.0913 0.014 -0.9843, 0.097 -0.0066 -0.9843, 0.0962 -0.0152 -0.9843, 0.094 -0.0219 -0.9843, 0.0765 -0.0367 -0.9843, 0.0692 -0.0375 -0.9843, 0.0823 -0.0345 -0.9843, 0.0871 -0.0313 -0.9843, 0.0908 -0.0274 -0.9843, 0.0587 -0.0363 -0.9843, 0.1068 -0.0164 -0.9843, 0.1075 -0.0073 -0.9843, 0.1064 0.0039 -0.9843, 0.0945 0.0079 -0.9843, 0.0966 -0.0005 -0.9843, 0.0413 -0.7874 -0.9843, 0.049 -0.0411 -0.9843, 0.0574 -0.0445 -0.9843, 0.0685 -0.0461 -0.9843, 0.0706 -0.0461 -0.9843, 0.0803 -0.0451 -0.9843, 0.0675 0.0345 -0.9843, 0.0413 0.7874 -0.9843, 0.2362 0.7874 -0.9843, -0.1527 -0.0452 -0.9843, -0.1447 -0.0231 -0.9843, -0.1122 -0.0231 -0.9843, -0.0835 -0.0236 -0.9843, -0.0789 -0.0306 -0.9843, -0.0931 -0.0452 -0.9843, -0.0725 -0.0368 -0.9843, -0.0642 -0.0416 -0.9843, -0.2362 -0.7874 -0.9843, -0.1047 -0.0452 -0.9843, -0.024 -0.0452 -0.9843, -0.0454 -0.0452 -0.9843, -0.0552 -0.0443 -0.9843, 0.023 0.0249 -0.9843, 0.023 -0.001 -0.9843, -0.0067 0.0249 -0.9843, -0.0048 -0.001 -0.9843, -0.0067 0.0336 -0.9843, -0.024 0.0336 -0.9843, -0.0048 -0.0096 -0.9843, -0.1642 -0.0452 -0.9843, -0.2362 0.0341 -0.9843, -0.1335 0.0336 -0.9843, -0.1229 0.0336 -0.9843, 0.023 -0.0096 -0.9843, 0.023 -0.0365 -0.9843, -0.0086 -0.0365 -0.9843, -0.0086 -0.0452 -0.9843, 0.0336 -0.0452 -0.9843, 0.0336 0.0336 -0.9843, -0.0668 0.0291 -0.9843, -0.0754 0.0234 -0.9843, -0.0755 0.0233 -0.9843, -0.081 0.0171 -0.9843, -0.0847 0.0104 -0.9843, -0.0868 0.0026 -0.9843, -0.0874 -0.0048 -0.9843, -0.0863 -0.0153 -0.9843, -0.0462 0.0336 -0.9843, -0.0576 0.0324 -0.9843, -0.2362 0.7874 -0.9843, 0.8839 -0.0591 -0.9646, 0.8839 -0.0591 -0.5906, 0.8714 -0.1594 -0.5906, 0.8714 -0.1594 -0.9646, 0.8475 -0.2577 -0.5906, 0.8475 -0.2577 -0.9646, 0.8126 -0.3527 -0.5906, 0.8126 -0.3527 -0.9646, 0.7671 -0.443 -0.5906, 0.7671 -0.443 -0.9646, 0.7116 -0.5275 -0.5906, 0.7116 -0.5275 -0.9646, 0.6468 -0.6052 -0.5906, 0.6468 -0.6052 -0.9646, 0.5736 -0.675 -0.5906, 0.5736 -0.675 -0.9646, 0.4929 -0.736 -0.5906, 0.4929 -0.736 -0.9646, 0.4058 -0.7874 -0.5906, 0.4058 -0.7874 -0.9646, 0.4058 0.7874 -0.9646, 0.4058 0.7874 -0.5906, 0.4929 0.736 -0.5906, 0.4929 0.736 -0.9646, 0.5736 0.675 -0.5906, 0.5736 0.675 -0.9646, 0.6468 0.6052 -0.5906, 0.6468 0.6052 -0.9646, 0.7116 0.5275 -0.5906, 0.7116 0.5275 -0.9646, 0.7671 0.443 -0.5906, 0.7671 0.443 -0.9646, 0.8126 0.3527 -0.5906, 0.8126 0.3527 -0.9646, 0.8475 0.2577 -0.5906, 0.8475 0.2577 -0.9646, 0.8714 0.1594 -0.5906, 0.8714 0.1594 -0.9646, 0.8839 0.0591 -0.5906, 0.8839 0.0591 -0.9646, -0.4058 0.7874 -0.9646, -0.4058 0.7874 -0.5906, -0.2362 0.7874 -0.9646, 0.2362 0.7874 -0.9646, -0.4058 -0.7874 -0.5906, -0.4058 -0.7874 -0.9646, -0.2362 -0.7874 -0.9646, 0.2362 -0.7874 -0.9646, 0.8049 -0.0591 -0.9646, 0.8049 -0.0591 -0.5906, 0.8049 0.0591 -0.9646, 0.8049 0.0591 -0.5906, 0.7896 0.057 -0.9646, 0.7896 0.057 -0.5906, 0.7754 0.0511 -0.9646, 0.7754 0.0511 -0.5906, 0.7632 0.0418 -0.9646, 0.7632 0.0418 -0.5906, 0.7538 0.0295 -0.9646, 0.7538 0.0295 -0.5906, 0.7479 0.0153 -0.9646, 0.7479 0.0153 -0.5906, 0.7459 0.0 -0.9646, 0.7459 0.0 -0.5906, 0.7479 -0.0153 -0.9646, 0.7479 -0.0153 -0.5906, 0.7538 -0.0295 -0.9646, 0.7538 -0.0295 -0.5906, 0.7632 -0.0418 -0.9646, 0.7632 -0.0418 -0.5906, 0.7754 -0.0511 -0.9646, 0.7754 -0.0511 -0.5906, 0.7896 -0.057 -0.9646, 0.7896 -0.057 -0.5906, -0.8839 0.0591 -0.9646, -0.8839 0.0591 -0.5906, -0.8714 0.1594 -0.5906, -0.8714 0.1594 -0.9646, -0.8475 0.2577 -0.5906, -0.8475 0.2577 -0.9646, -0.8126 0.3527 -0.5906, -0.8126 0.3527 -0.9646, -0.7671 0.443 -0.5906, -0.7671 0.443 -0.9646, -0.7116 0.5275 -0.5906, -0.7116 0.5275 -0.9646, -0.6468 0.6052 -0.5906, -0.6468 0.6052 -0.9646, -0.5736 0.675 -0.5906, -0.5736 0.675 -0.9646, -0.4929 0.736 -0.5906, -0.4929 0.736 -0.9646, -0.4929 -0.736 -0.5906, -0.4929 -0.736 -0.9646, -0.5736 -0.675 -0.5906, -0.5736 -0.675 -0.9646, -0.6468 -0.6052 -0.5906, -0.6468 -0.6052 -0.9646, -0.7116 -0.5275 -0.5906, -0.7116 -0.5275 -0.9646, -0.7671 -0.443 -0.5906, -0.7671 -0.443 -0.9646, -0.8126 -0.3527 -0.5906, -0.8126 -0.3527 -0.9646, -0.8475 -0.2577 -0.5906, -0.8475 -0.2577 -0.9646, -0.8714 -0.1594 -0.5906, -0.8714 -0.1594 -0.9646, -0.8839 -0.0591 -0.5906, -0.8839 -0.0591 -0.9646, -0.8049 0.0591 -0.5906, -0.8049 0.0591 -0.9646, -0.8049 -0.0591 -0.9646, -0.8049 -0.0591 -0.5906, -0.7896 -0.057 -0.9646, -0.7896 -0.057 -0.5906, -0.7754 -0.0511 -0.9646, -0.7754 -0.0511 -0.5906, -0.7632 -0.0418 -0.9646, -0.7632 -0.0418 -0.5906, -0.7538 -0.0295 -0.9646, -0.7538 -0.0295 -0.5906, -0.7479 -0.0153 -0.9646, -0.7479 -0.0153 -0.5906, -0.7459 -0.0 -0.9646, -0.7459 -0.0 -0.5906, -0.7479 0.0153 -0.9646, -0.7479 0.0153 -0.5906, -0.7538 0.0295 -0.9646, -0.7538 0.0295 -0.5906, -0.7632 0.0418 -0.9646, -0.7632 0.0418 -0.5906, -0.7754 0.0511 -0.9646, -0.7754 0.0511 -0.5906, -0.7896 0.057 -0.9646, -0.7896 0.057 -0.5906, -0.7896 0.057 -0.5906
            ]
        }
        coordIndex [
            0,1,2,-1,3,4,5,-1,5,4,6,-1,5,6,7,-1,0,2,8,-1,8,2,9,-1,8,9,7,-1,10,11,12,-1,12,11,13,-1,12,13,14,-1,15,16,17,-1,14,18,12,-1,12,18,19,-1,12,19,20,-1,21,22,23,-1,23,22,24,-1,23,24,25,-1,25,24,26,-1,25,26,27,-1,1,28,2,-1,2,28,29,-1,2,29,30,-1,31,32,2,-1,2,32,33,-1,34,35,36,-1,36,35,37,-1,33,38,2,-1,2,38,37,-1,2,37,39,-1,39,37,35,-1,26,40,27,-1,27,40,41,-1,27,41,12,-1,12,41,42,-1,12,42,10,-1,30,43,2,-1,2,43,44,-1,2,44,31,-1,17,16,23,-1,23,16,45,-1,23,45,21,-1,7,9,5,-1,5,9,46,-1,5,46,45,-1,45,46,47,-1,45,47,48,-1,48,49,45,-1,45,49,50,-1,45,50,21,-1,19,51,52,-1,17,20,15,-1,15,20,19,-1,15,19,53,-1,53,19,52,-1,54,55,56,-1,57,58,59,-1,59,58,60,-1,59,60,61,-1,62,63,45,-1,45,63,59,-1,64,45,65,-1,65,45,59,-1,65,59,66,-1,66,59,61,-1,67,68,69,-1,69,68,70,-1,71,69,72,-1,72,69,70,-1,72,70,64,-1,64,70,73,-1,56,63,54,-1,54,63,62,-1,54,62,74,-1,74,62,75,-1,74,75,76,-1,76,75,5,-1,76,5,77,-1,78,79,73,-1,73,79,80,-1,73,80,64,-1,64,80,81,-1,64,81,45,-1,45,81,82,-1,45,82,5,-1,5,82,83,-1,5,83,71,-1,77,84,85,-1,85,86,77,-1,77,86,87,-1,77,87,88,-1,88,89,77,-1,77,89,90,-1,77,90,59,-1,59,90,91,-1,59,91,57,-1,71,72,5,-1,5,72,92,-1,5,92,77,-1,77,92,93,-1,77,93,84,-1,75,94,5,-1,5,94,52,-1,5,52,3,-1,3,52,51,-1,95,96,97,-1,95,97,98,-1,98,97,99,-1,98,99,100,-1,100,99,101,-1,100,101,102,-1,102,101,103,-1,102,103,104,-1,104,103,105,-1,104,105,106,-1,106,105,107,-1,106,107,108,-1,108,107,109,-1,108,109,110,-1,110,109,111,-1,110,111,112,-1,112,111,113,-1,112,113,114,-1,115,116,117,-1,115,117,118,-1,118,117,119,-1,118,119,120,-1,120,119,121,-1,120,121,122,-1,122,121,123,-1,122,123,124,-1,124,123,125,-1,124,125,126,-1,126,125,127,-1,126,127,128,-1,128,127,129,-1,128,129,130,-1,130,129,131,-1,130,131,132,-1,132,131,133,-1,132,133,134,-1,135,136,137,-1,137,136,116,-1,116,115,138,-1,138,53,52,-1,116,138,137,-1,137,138,52,-1,137,52,94,-1,139,140,113,-1,113,140,141,-1,45,16,142,-1,114,113,142,-1,142,113,141,-1,142,141,45,-1,45,141,62,-1,143,144,95,-1,95,144,96,-1,145,146,147,-1,147,146,148,-1,147,148,149,-1,149,148,150,-1,149,150,151,-1,151,150,152,-1,151,152,153,-1,153,152,154,-1,153,154,155,-1,155,154,156,-1,155,156,157,-1,157,156,158,-1,157,158,159,-1,159,158,160,-1,159,160,161,-1,161,160,162,-1,161,162,163,-1,163,162,164,-1,163,164,165,-1,165,164,166,-1,165,166,167,-1,167,166,168,-1,167,168,143,-1,143,168,144,-1,134,133,145,-1,145,133,146,-1,169,170,171,-1,169,171,172,-1,172,171,173,-1,172,173,174,-1,174,173,175,-1,174,175,176,-1,176,175,177,-1,176,177,178,-1,178,177,179,-1,178,179,180,-1,180,179,181,-1,180,181,182,-1,182,181,183,-1,182,183,184,-1,184,183,185,-1,184,185,186,-1,186,185,136,-1,186,136,135,-1,140,139,187,-1,140,187,188,-1,188,187,189,-1,188,189,190,-1,190,189,191,-1,190,191,192,-1,192,191,193,-1,192,193,194,-1,194,193,195,-1,194,195,196,-1,196,195,197,-1,196,197,198,-1,198,197,199,-1,198,199,200,-1,200,199,201,-1,200,201,202,-1,202,201,203,-1,202,203,204,-1,205,170,206,-1,206,170,169,-1,207,208,209,-1,209,208,210,-1,209,210,211,-1,211,210,212,-1,211,212,213,-1,213,212,214,-1,213,214,215,-1,215,214,216,-1,215,216,217,-1,217,216,218,-1,217,218,219,-1,219,218,220,-1,219,220,221,-1,221,220,222,-1,221,222,223,-1,223,222,224,-1,223,224,225,-1,225,224,226,-1,225,226,227,-1,227,226,228,-1,227,228,229,-1,229,228,230,-1,229,230,206,-1,206,230,205,-1,203,208,204,-1,204,208,207,-1,
        ]
    }
}
Shape{
    appearance Appearance {
        material  Material 	{
            diffuseColor 0.34901960784313724 0.34901960784313724 0.34901960784313724
            specularColor 0.023529411764705882 0.023529411764705882 0.023529411764705882
            ambientIntensity 0.2
            transparency 0
            shininess 0.5
        }
    }
    geometry IndexedFaceSet {
        ccw TRUE
        solid FALSE
        coord DEF co Coordinate {
            point [
                0.4058 -0.7874 0.1969, 0.4058 -0.7874 0.0, 0.4894 -0.7384 0.1969, 0.4929 -0.736 0.0, 0.5736 -0.675 0.0, 0.5713 -0.677 0.1969, 0.4928 -0.7358 0.1969, 0.6468 -0.6052 0.0, 0.6456 -0.6066 0.1969, 0.5735 -0.6749 0.1969, 0.7116 -0.5275 0.1969, 0.7112 -0.528 0.1969, 0.6468 -0.6052 0.1969, 0.7116 -0.5275 0.0, 0.7671 -0.443 0.0, 0.7671 -0.443 0.1969, 0.7674 -0.4425 0.1969, 0.8126 -0.3527 0.0, 0.8125 -0.3526 0.1969, 0.8133 -0.351 0.1969, 0.8475 -0.2577 0.0, 0.8473 -0.2577 0.1969, 0.8484 -0.2548 0.1969, 0.8714 -0.1594 0.0, 0.8711 -0.1594 0.1969, 0.8721 -0.1552 0.1969, 0.8839 -0.0591 0.0, 0.8839 -0.0591 0.1969, 0.8839 0.0591 0.1969, 0.8839 0.0591 0.0, 0.8721 0.1552 0.1969, 0.8714 0.1594 0.0, 0.8475 0.2577 0.0, 0.8484 0.2548 0.1969, 0.8711 0.1594 0.1969, 0.8126 0.3527 0.0, 0.8133 0.351 0.1969, 0.8473 0.2577 0.1969, 0.7671 0.443 0.1969, 0.7674 0.4425 0.1969, 0.8125 0.3526 0.1969, 0.7671 0.443 0.0, 0.7116 0.5275 0.0, 0.7116 0.5275 0.1969, 0.7112 0.528 0.1969, 0.6468 0.6052 0.0, 0.6468 0.6052 0.1969, 0.6456 0.6066 0.1969, 0.5736 0.675 0.0, 0.5735 0.6749 0.1969, 0.5713 0.677 0.1969, 0.4929 0.736 0.0, 0.4928 0.7358 0.1969, 0.4894 0.7384 0.1969, 0.4058 0.7874 0.0, 0.4058 0.7874 0.1969, -0.7632 0.0418 0.2756, -0.7538 0.0295 0.2756, 0.3862 0.7087 0.2756, -0.7754 0.0511 0.2756, 0.7632 0.0418 0.2756, 0.7754 0.0511 0.2756, -0.741 0.3198 0.2756, -0.773 0.2322 0.2756, -0.7896 0.057 0.2756, -0.7946 0.1414 0.2756, -0.8049 0.0591 0.2756, 0.741 -0.3198 0.2756, 0.773 -0.2322 0.2756, 0.7896 -0.057 0.2756, 0.7946 -0.1414 0.2756, 0.8049 -0.0591 0.2756, -0.3862 0.7087 0.2756, -0.4459 0.6727 0.2756, -0.5205 0.6168 0.2756, -0.8049 -0.0591 0.2756, -0.7946 -0.1414 0.2756, -0.7896 -0.057 0.2756, -0.773 -0.2322 0.2756, -0.3862 -0.7087 0.2756, 0.3862 -0.7087 0.2756, 0.7754 -0.0511 0.2756, 0.4459 -0.6727 0.2756, 0.5205 -0.6168 0.2756, 0.5882 -0.5526 0.2756, 0.648 -0.4811 0.2756, 0.6992 -0.4031 0.2756, -0.5882 -0.5526 0.2756, -0.5205 -0.6168 0.2756, -0.7754 -0.0511 0.2756, -0.4459 -0.6727 0.2756, 0.5882 0.5526 0.2756, 0.5205 0.6168 0.2756, 0.4459 0.6727 0.2756, 0.8049 0.0591 0.2756, 0.7946 0.1414 0.2756, 0.7896 0.057 0.2756, 0.773 0.2322 0.2756, -0.5882 0.5526 0.2756, -0.648 0.4811 0.2756, -0.6992 0.4031 0.2756, 0.7632 -0.0418 0.2756, 0.7538 -0.0295 0.2756, 0.7479 -0.0153 0.2756, -0.7632 -0.0418 0.2756, -0.7538 -0.0295 0.2756, -0.741 -0.3198 0.2756, -0.6992 -0.4031 0.2756, -0.648 -0.4811 0.2756, 0.741 0.3198 0.2756, 0.6992 0.4031 0.2756, 0.648 0.4811 0.2756, 0.7538 0.0295 0.2756, 0.7479 0.0153 0.2756, -0.7479 0.0153 0.2756, 0.7459 0.0 0.2756, -0.7459 -0.0 0.2756, -0.7479 -0.0153 0.2756, -0.707 0.0484 0.0, -0.7538 0.0295 0.0, -0.7632 0.0418 0.0, -0.7754 0.0511 0.0, -0.7896 0.057 0.0, -0.8714 0.1594 0.0, -0.8049 0.0591 0.0, -0.8839 0.0591 0.0, 0.6292 -0.326 0.0, 0.7632 -0.0418 0.0, 0.7754 -0.0511 0.0, 0.6677 0.2373 0.0, 0.6292 0.326 0.0, 0.6938 0.1442 0.0, 0.7754 0.0511 0.0, 0.707 0.0484 0.0, 0.7632 0.0418 0.0, 0.7538 0.0295 0.0, 0.7479 0.0153 0.0, 0.7459 0.0 0.0, 0.707 -0.0484 0.0, 0.8049 -0.0591 0.0, 0.7896 -0.057 0.0, -0.7538 -0.0295 0.0, -0.707 -0.0484 0.0, -0.7632 -0.0418 0.0, -0.6938 -0.1442 0.0, -0.7754 -0.0511 0.0, -0.7479 -0.0153 0.0, -0.7459 -0.0 0.0, -0.7479 0.0153 0.0, 0.8049 0.0591 0.0, 0.7479 -0.0153 0.0, 0.7538 -0.0295 0.0, 0.6938 -0.1442 0.0, 0.6677 -0.2373 0.0, -0.8126 -0.3527 0.0, -0.8475 -0.2577 0.0, -0.8049 -0.0591 0.0, -0.8714 -0.1594 0.0, -0.8839 -0.0591 0.0, 0.7896 0.057 0.0, -0.6677 -0.2373 0.0, -0.6292 -0.326 0.0, -0.6468 -0.6052 0.0, 0.579 0.4087 0.0, 0.5179 0.4837 0.0, 0.4472 0.5497 0.0, 0.3682 0.6055 0.0, 0.2823 0.65 0.0, 0.1912 0.6824 0.0, -0.0965 0.7021 0.0, -0.4058 0.7874 0.0, -0.0 0.7087 0.0, 0.0965 0.7021 0.0, -0.7896 -0.057 0.0, -0.7116 -0.5275 0.0, -0.7671 -0.443 0.0, -0.579 -0.4087 0.0, -0.5179 -0.4837 0.0, -0.5736 -0.675 0.0, -0.4472 -0.5497 0.0, -0.4929 -0.736 0.0, -0.3682 -0.6055 0.0, -0.4058 -0.7874 0.0, -0.2823 -0.65 0.0, -0.1912 -0.6824 0.0, -0.6938 0.1442 0.0, -0.6677 0.2373 0.0, -0.0965 -0.7021 0.0, 0.0 -0.7087 0.0, 0.0965 -0.7021 0.0, 0.5179 -0.4837 0.0, 0.4472 -0.5497 0.0, 0.3682 -0.6055 0.0, 0.2823 -0.65 0.0, 0.1912 -0.6824 0.0, 0.579 -0.4087 0.0, -0.1912 0.6824 0.0, -0.2823 0.65 0.0, -0.4929 0.736 0.0, -0.3682 0.6055 0.0, -0.5736 0.675 0.0, -0.4472 0.5497 0.0, -0.6468 0.6052 0.0, -0.5179 0.4837 0.0, -0.7116 0.5275 0.0, -0.579 0.4087 0.0, -0.7671 0.443 0.0, -0.6292 0.326 0.0, -0.8126 0.3527 0.0, -0.8475 0.2577 0.0, -0.8475 0.2577 0.0
            ]
        }
        coordIndex [
            0,1,2,-1,2,1,3,-1,4,5,3,-1,3,5,6,-1,3,6,2,-1,7,8,4,-1,4,8,9,-1,4,9,5,-1,10,11,7,-1,7,11,12,-1,7,12,8,-1,7,13,10,-1,10,13,14,-1,10,14,15,-1,15,14,16,-1,16,14,17,-1,16,17,18,-1,18,17,19,-1,19,17,20,-1,19,20,21,-1,21,20,22,-1,22,20,23,-1,22,23,24,-1,24,23,25,-1,25,23,26,-1,25,26,27,-1,28,29,30,-1,30,29,31,-1,32,33,31,-1,31,33,34,-1,31,34,30,-1,35,36,32,-1,32,36,37,-1,32,37,33,-1,38,39,35,-1,35,39,40,-1,35,40,36,-1,35,41,38,-1,38,41,42,-1,38,42,43,-1,43,42,44,-1,44,42,45,-1,44,45,46,-1,46,45,47,-1,47,45,48,-1,47,48,49,-1,49,48,50,-1,50,48,51,-1,50,51,52,-1,52,51,53,-1,53,51,54,-1,53,54,55,-1,56,57,58,-1,56,58,59,-1,58,60,61,-1,62,63,64,-1,64,63,65,-1,64,65,66,-1,67,68,69,-1,69,68,70,-1,69,70,71,-1,58,72,59,-1,59,72,73,-1,59,73,74,-1,75,76,77,-1,77,76,78,-1,79,80,81,-1,81,80,82,-1,81,82,83,-1,83,84,81,-1,81,84,85,-1,81,85,69,-1,69,85,86,-1,69,86,67,-1,87,88,89,-1,89,88,90,-1,89,90,79,-1,91,92,61,-1,61,92,93,-1,61,93,58,-1,94,95,96,-1,96,95,97,-1,74,98,59,-1,59,98,99,-1,59,99,64,-1,64,99,100,-1,64,100,62,-1,81,101,79,-1,79,101,102,-1,79,102,89,-1,89,102,103,-1,89,103,104,-1,104,103,105,-1,78,106,77,-1,77,106,107,-1,77,107,89,-1,89,107,108,-1,89,108,87,-1,97,109,96,-1,96,109,110,-1,96,110,61,-1,61,110,111,-1,61,111,91,-1,60,58,112,-1,112,58,57,-1,112,57,113,-1,113,57,114,-1,113,114,115,-1,115,114,116,-1,115,116,103,-1,103,116,117,-1,103,117,105,-1,118,119,120,-1,121,122,123,-1,123,122,124,-1,123,124,125,-1,126,127,128,-1,129,130,45,-1,131,132,133,-1,133,132,134,-1,133,134,135,-1,135,136,133,-1,133,136,137,-1,133,137,138,-1,20,139,23,-1,23,139,26,-1,20,17,139,-1,139,17,14,-1,139,14,140,-1,140,14,13,-1,140,13,7,-1,141,142,143,-1,143,142,144,-1,143,144,145,-1,141,146,142,-1,142,146,147,-1,142,147,118,-1,118,147,148,-1,118,148,119,-1,35,32,149,-1,149,32,31,-1,149,31,29,-1,137,150,138,-1,138,150,151,-1,138,151,152,-1,152,151,127,-1,152,127,153,-1,153,127,126,-1,154,155,156,-1,156,155,157,-1,156,157,158,-1,131,129,132,-1,132,129,45,-1,132,45,159,-1,159,45,42,-1,159,42,149,-1,149,42,41,-1,149,41,35,-1,160,161,162,-1,130,163,45,-1,45,163,164,-1,45,164,48,-1,48,164,165,-1,48,165,51,-1,51,165,166,-1,51,166,54,-1,54,166,167,-1,54,167,168,-1,169,170,171,-1,171,170,54,-1,171,54,172,-1,172,54,168,-1,144,160,145,-1,145,160,162,-1,145,162,173,-1,173,162,174,-1,173,174,156,-1,156,174,175,-1,156,175,154,-1,161,176,162,-1,162,176,177,-1,162,177,178,-1,178,177,179,-1,178,179,180,-1,180,179,181,-1,180,181,182,-1,182,181,183,-1,182,183,184,-1,120,121,118,-1,118,121,123,-1,118,123,185,-1,185,123,186,-1,184,187,182,-1,182,187,188,-1,182,188,1,-1,1,188,189,-1,190,7,191,-1,191,7,4,-1,191,4,192,-1,192,4,3,-1,192,3,193,-1,193,3,1,-1,193,1,194,-1,194,1,189,-1,128,140,126,-1,126,140,7,-1,126,7,195,-1,195,7,190,-1,169,196,170,-1,170,196,197,-1,170,197,198,-1,198,197,199,-1,198,199,200,-1,200,199,201,-1,200,201,202,-1,202,201,203,-1,202,203,204,-1,204,203,205,-1,204,205,206,-1,206,205,207,-1,206,207,208,-1,208,207,186,-1,208,186,209,-1,209,186,123,-1,
        ]
    }
}
Shape{
    appearance Appearance {
        material  Material 	{
            diffuseColor 0.20784313725490197 0.20784313725490197 0.20784313725490197
            specularColor 0.01568627450980392 0.01568627450980392 0.01568627450980392
            ambientIntensity 0.2
            transparency 0
            shininess 0.5
        }
    }
    geometry IndexedFaceSet {
        ccw TRUE
        solid FALSE
        coord DEF co Coordinate {
            point [
                0.8049 0.0591 -0.5906, 0.8839 0.0591 -0.5906, 0.8714 0.1594 -0.5906, 0.6938 0.1442 -0.5906, 0.707 0.0484 -0.5906, 0.7538 -0.0295 -0.5906, 0.7479 -0.0153 -0.5906, 0.707 -0.0484 -0.5906, 0.6677 0.2373 -0.5906, -0.8126 0.3527 -0.5906, -0.8475 0.2577 -0.5906, -0.8049 0.0591 -0.5906, -0.8714 0.1594 -0.5906, -0.8839 0.0591 -0.5906, 0.7459 0.0 -0.5906, 0.7479 0.0153 -0.5906, 0.7754 0.0511 -0.5906, 0.7896 0.057 -0.5906, -0.7459 -0.0 -0.5906, -0.707 -0.0484 -0.5906, -0.7479 0.0153 -0.5906, -0.707 0.0484 -0.5906, -0.7538 0.0295 -0.5906, -0.6938 0.1442 -0.5906, -0.7632 0.0418 -0.5906, -0.7754 0.0511 -0.5906, -0.7754 -0.0511 -0.5906, -0.6677 -0.2373 -0.5906, -0.7632 -0.0418 -0.5906, -0.6938 -0.1442 -0.5906, -0.7538 -0.0295 -0.5906, -0.7479 -0.0153 -0.5906, -0.1912 -0.6824 -0.5906, -0.2823 -0.65 -0.5906, -0.4058 -0.7874 -0.5906, -0.8839 -0.0591 -0.5906, -0.8714 -0.1594 -0.5906, -0.8049 -0.0591 -0.5906, -0.8475 -0.2577 -0.5906, 0.7538 0.0295 -0.5906, 0.7632 0.0418 -0.5906, -0.6677 0.2373 -0.5906, -0.6292 0.326 -0.5906, -0.6468 0.6052 -0.5906, 0.8126 -0.3527 -0.5906, 0.8475 -0.2577 -0.5906, 0.8049 -0.0591 -0.5906, 0.8714 -0.1594 -0.5906, 0.8839 -0.0591 -0.5906, 0.6938 -0.1442 -0.5906, 0.7754 -0.0511 -0.5906, 0.7632 -0.0418 -0.5906, -0.8126 -0.3527 -0.5906, -0.7671 -0.443 -0.5906, -0.7896 -0.057 -0.5906, -0.7116 -0.5275 -0.5906, -0.6468 -0.6052 -0.5906, -0.579 0.4087 -0.5906, -0.5179 0.4837 -0.5906, -0.5736 0.675 -0.5906, -0.4472 0.5497 -0.5906, -0.4929 0.736 -0.5906, -0.3682 0.6055 -0.5906, -0.4058 0.7874 -0.5906, -0.2823 0.65 -0.5906, -0.1912 0.6824 -0.5906, 0.6677 -0.2373 -0.5906, 0.6292 -0.326 -0.5906, 0.6468 -0.6052 -0.5906, -0.7896 0.057 -0.5906, -0.7116 0.5275 -0.5906, -0.7671 0.443 -0.5906, -0.0965 0.7021 -0.5906, -0.0 0.7087 -0.5906, 0.4058 0.7874 -0.5906, 0.0965 0.7021 -0.5906, 0.7896 -0.057 -0.5906, 0.7116 -0.5275 -0.5906, 0.7671 -0.443 -0.5906, -0.4929 -0.736 -0.5906, -0.3682 -0.6055 -0.5906, -0.5736 -0.675 -0.5906, -0.4472 -0.5497 -0.5906, -0.5179 -0.4837 -0.5906, -0.579 -0.4087 -0.5906, -0.6292 -0.326 -0.5906, 0.1912 0.6824 -0.5906, 0.2823 0.65 -0.5906, 0.4929 0.736 -0.5906, 0.3682 0.6055 -0.5906, 0.5736 0.675 -0.5906, 0.4472 0.5497 -0.5906, 0.6468 0.6052 -0.5906, 0.5179 0.4837 -0.5906, 0.7116 0.5275 -0.5906, 0.579 0.4087 -0.5906, 0.7671 0.443 -0.5906, 0.6292 0.326 -0.5906, 0.8126 0.3527 -0.5906, 0.8475 0.2577 -0.5906, 0.579 -0.4087 -0.5906, 0.5179 -0.4837 -0.5906, 0.5736 -0.675 -0.5906, 0.4472 -0.5497 -0.5906, 0.4929 -0.736 -0.5906, 0.3682 -0.6055 -0.5906, 0.4058 -0.7874 -0.5906, 0.2823 -0.65 -0.5906, 0.1912 -0.6824 -0.5906, 0.0965 -0.7021 -0.5906, 0.0 -0.7087 -0.5906, -0.0965 -0.7021 -0.5906, -0.0965 -0.7021 -0.5906
            ]
        }
        coordIndex [
            0,1,2,-1,3,4,2,-1,5,6,7,-1,3,2,8,-1,9,10,11,-1,11,10,12,-1,11,12,13,-1,7,6,4,-1,4,6,14,-1,4,14,15,-1,4,16,2,-1,2,16,17,-1,2,17,0,-1,18,19,20,-1,20,19,21,-1,20,21,22,-1,22,21,23,-1,22,23,24,-1,24,23,25,-1,26,27,28,-1,28,27,29,-1,28,29,30,-1,30,29,19,-1,30,19,31,-1,31,19,18,-1,32,33,34,-1,35,36,37,-1,37,36,38,-1,15,39,4,-1,4,39,40,-1,4,40,16,-1,41,42,43,-1,44,45,46,-1,46,45,47,-1,46,47,48,-1,49,50,7,-1,7,50,51,-1,7,51,5,-1,38,52,37,-1,37,52,53,-1,37,53,54,-1,54,53,55,-1,54,55,56,-1,42,57,43,-1,43,57,58,-1,43,58,59,-1,59,58,60,-1,59,60,61,-1,61,60,62,-1,61,62,63,-1,63,62,64,-1,63,64,65,-1,66,67,68,-1,23,41,25,-1,25,41,43,-1,25,43,69,-1,69,43,70,-1,69,70,11,-1,11,70,71,-1,11,71,9,-1,65,72,63,-1,63,72,73,-1,63,73,74,-1,74,73,75,-1,49,66,50,-1,50,66,68,-1,50,68,76,-1,76,68,77,-1,76,77,46,-1,46,77,78,-1,46,78,44,-1,34,33,79,-1,79,33,80,-1,79,80,81,-1,81,80,82,-1,81,82,56,-1,56,82,83,-1,56,83,84,-1,26,54,27,-1,27,54,56,-1,27,56,85,-1,85,56,84,-1,75,86,74,-1,74,86,87,-1,74,87,88,-1,88,87,89,-1,88,89,90,-1,90,89,91,-1,90,91,92,-1,92,91,93,-1,92,93,94,-1,94,93,95,-1,94,95,96,-1,96,95,97,-1,96,97,98,-1,98,97,8,-1,98,8,99,-1,99,8,2,-1,67,100,68,-1,68,100,101,-1,68,101,102,-1,102,101,103,-1,102,103,104,-1,104,103,105,-1,104,105,106,-1,106,105,107,-1,106,107,108,-1,108,109,106,-1,106,109,110,-1,106,110,34,-1,34,110,111,-1,34,111,32,-1,
        ]
    }
}
Shape{
    appearance Appearance {
        material  Material 	{
            diffuseColor 0.34901960784313724 0.34901960784313724 0.34901960784313724
            specularColor 0.023529411764705882 0.023529411764705882 0.023529411764705882
            ambientIntensity 0.2
            transparency 0
            shininess 0.5
        }
    }
    geometry IndexedFaceSet {
        ccw TRUE
        solid FALSE
        coord DEF co Coordinate {
            point [
                0.4459 -0.6727 0.2756, 0.3862 -0.7087 0.2756, 0.4058 -0.7874 0.1969, 0.4894 -0.7384 0.1969, 0.4928 -0.7358 0.1969, 0.5205 -0.6168 0.2756, 0.5713 -0.677 0.1969, 0.5735 -0.6749 0.1969, 0.5882 -0.5526 0.2756, 0.7112 -0.528 0.1969, 0.648 -0.4811 0.2756, 0.6468 -0.6052 0.1969, 0.6456 -0.6066 0.1969, 0.7116 -0.5275 0.1969, 0.7671 -0.443 0.1969, 0.6992 -0.4031 0.2756, 0.7674 -0.4425 0.1969, 0.8125 -0.3526 0.1969, 0.741 -0.3198 0.2756, 0.8133 -0.351 0.1969, 0.8473 -0.2577 0.1969, 0.773 -0.2322 0.2756, 0.8839 -0.0591 0.1969, 0.8049 -0.0591 0.2756, 0.8721 -0.1552 0.1969, 0.7946 -0.1414 0.2756, 0.8711 -0.1594 0.1969, 0.8484 -0.2548 0.1969, 0.7946 0.1414 0.2756, 0.8049 0.0591 0.2756, 0.8839 0.0591 0.1969, 0.8721 0.1552 0.1969, 0.8711 0.1594 0.1969, 0.773 0.2322 0.2756, 0.8484 0.2548 0.1969, 0.8473 0.2577 0.1969, 0.741 0.3198 0.2756, 0.8133 0.351 0.1969, 0.8125 0.3526 0.1969, 0.6992 0.4031 0.2756, 0.7116 0.5275 0.1969, 0.648 0.4811 0.2756, 0.7671 0.443 0.1969, 0.7674 0.4425 0.1969, 0.7112 0.528 0.1969, 0.6468 0.6052 0.1969, 0.5882 0.5526 0.2756, 0.6456 0.6066 0.1969, 0.5735 0.6749 0.1969, 0.5205 0.6168 0.2756, 0.4058 0.7874 0.1969, 0.3862 0.7087 0.2756, 0.4894 0.7384 0.1969, 0.4459 0.6727 0.2756, 0.4928 0.7358 0.1969, 0.5713 0.677 0.1969, -0.4058 0.7874 0.1969, -0.4058 0.7874 0.0, -0.4894 0.7384 0.1969, -0.4929 0.736 0.0, -0.5736 0.675 0.0, -0.5713 0.677 0.1969, -0.4928 0.7358 0.1969, -0.6468 0.6052 0.0, -0.6456 0.6066 0.1969, -0.5735 0.6749 0.1969, -0.7116 0.5275 0.1969, -0.7112 0.528 0.1969, -0.6468 0.6052 0.1969, -0.7116 0.5275 0.0, -0.7671 0.443 0.0, -0.7671 0.443 0.1969, -0.7674 0.4425 0.1969, -0.8126 0.3527 0.0, -0.8125 0.3526 0.1969, -0.8133 0.351 0.1969, -0.8475 0.2577 0.0, -0.8473 0.2577 0.1969, -0.8484 0.2548 0.1969, -0.8714 0.1594 0.0, -0.8711 0.1594 0.1969, -0.8721 0.1552 0.1969, -0.8839 0.0591 0.0, -0.8839 0.0591 0.1969, -0.4459 0.6727 0.2756, -0.3862 0.7087 0.2756, -0.5205 0.6168 0.2756, -0.5882 0.5526 0.2756, -0.648 0.4811 0.2756, -0.6992 0.4031 0.2756, -0.741 0.3198 0.2756, -0.773 0.2322 0.2756, -0.8049 0.0591 0.2756, -0.7946 0.1414 0.2756, -0.8839 -0.0591 0.1969, -0.8839 -0.0591 0.0, -0.8721 -0.1552 0.1969, -0.8714 -0.1594 0.0, -0.8475 -0.2577 0.0, -0.8484 -0.2548 0.1969, -0.8711 -0.1594 0.1969, -0.8126 -0.3527 0.0, -0.8133 -0.351 0.1969, -0.8473 -0.2577 0.1969, -0.7671 -0.443 0.1969, -0.7674 -0.4425 0.1969, -0.8125 -0.3526 0.1969, -0.7671 -0.443 0.0, -0.7116 -0.5275 0.0, -0.7116 -0.5275 0.1969, -0.7112 -0.528 0.1969, -0.6468 -0.6052 0.0, -0.6468 -0.6052 0.1969, -0.6456 -0.6066 0.1969, -0.5736 -0.675 0.0, -0.5735 -0.6749 0.1969, -0.5713 -0.677 0.1969, -0.4929 -0.736 0.0, -0.4928 -0.7358 0.1969, -0.4894 -0.7384 0.1969, -0.4058 -0.7874 0.0, -0.4058 -0.7874 0.1969, 0.4058 -0.7874 0.0, 0.4058 0.7874 0.0, 0.4058 0.7874 0.0
            ]
        }
        coordIndex [
            0,1,2,-1,2,3,0,-1,0,3,4,-1,0,4,5,-1,4,6,5,-1,5,6,7,-1,5,7,8,-1,9,10,11,-1,11,10,8,-1,11,8,12,-1,12,8,7,-1,9,13,10,-1,10,13,14,-1,10,14,15,-1,14,16,15,-1,15,16,17,-1,15,17,18,-1,17,19,18,-1,18,19,20,-1,18,20,21,-1,22,23,24,-1,24,23,25,-1,24,25,26,-1,26,25,21,-1,26,21,27,-1,27,21,20,-1,28,29,30,-1,30,31,28,-1,28,31,32,-1,28,32,33,-1,32,34,33,-1,33,34,35,-1,33,35,36,-1,35,37,36,-1,36,37,38,-1,36,38,39,-1,40,41,42,-1,42,41,39,-1,42,39,43,-1,43,39,38,-1,40,44,41,-1,41,44,45,-1,41,45,46,-1,45,47,46,-1,46,47,48,-1,46,48,49,-1,50,51,52,-1,52,51,53,-1,52,53,54,-1,54,53,49,-1,54,49,55,-1,55,49,48,-1,56,57,58,-1,58,57,59,-1,60,61,59,-1,59,61,62,-1,59,62,58,-1,63,64,60,-1,60,64,65,-1,60,65,61,-1,66,67,63,-1,63,67,68,-1,63,68,64,-1,63,69,66,-1,66,69,70,-1,66,70,71,-1,71,70,72,-1,72,70,73,-1,72,73,74,-1,74,73,75,-1,75,73,76,-1,75,76,77,-1,77,76,78,-1,78,76,79,-1,78,79,80,-1,80,79,81,-1,81,79,82,-1,81,82,83,-1,84,85,56,-1,56,58,84,-1,84,58,62,-1,84,62,86,-1,62,61,86,-1,86,61,65,-1,86,65,87,-1,65,64,87,-1,87,64,68,-1,87,68,88,-1,71,89,66,-1,66,89,88,-1,66,88,67,-1,67,88,68,-1,71,72,89,-1,89,72,74,-1,89,74,90,-1,74,75,90,-1,90,75,77,-1,90,77,91,-1,83,92,81,-1,81,92,93,-1,81,93,80,-1,80,93,91,-1,80,91,78,-1,78,91,77,-1,94,95,96,-1,96,95,97,-1,98,99,97,-1,97,99,100,-1,97,100,96,-1,101,102,98,-1,98,102,103,-1,98,103,99,-1,104,105,101,-1,101,105,106,-1,101,106,102,-1,101,107,104,-1,104,107,108,-1,104,108,109,-1,109,108,110,-1,110,108,111,-1,110,111,112,-1,112,111,113,-1,113,111,114,-1,113,114,115,-1,115,114,116,-1,116,114,117,-1,116,117,118,-1,118,117,119,-1,119,117,120,-1,119,120,121,-1,121,120,2,-1,2,120,122,-1,50,123,56,-1,56,123,57,-1,
        ]
    }
}
Shape{
    appearance Appearance {
        material  Material 	{
            diffuseColor 0.6352941176470588 0.30980392156862746 0.023529411764705882
            specularColor 0.047058823529411764 0.023529411764705882 0.0
            ambientIntensity 0.2
            transparency 0
            shininess 0.5
        }
    }
    geometry IndexedFaceSet {
        ccw TRUE
        solid FALSE
        coord DEF co Coordinate {
            point [
                -0.0 0.7087 0.0, -0.0965 0.7021 -0.5906, -0.0965 0.7021 0.0, -0.1912 0.6824 -0.5906, -0.1912 0.6824 0.0, -0.2823 0.65 -0.5906, -0.2823 0.65 0.0, -0.3682 0.6055 -0.5906, -0.3682 0.6055 0.0, -0.4472 0.5497 -0.5906, -0.4472 0.5497 0.0, -0.5179 0.4837 -0.5906, -0.5179 0.4837 0.0, -0.579 0.4087 -0.5906, -0.579 0.4087 0.0, -0.6292 0.326 -0.5906, -0.6292 0.326 0.0, -0.6677 0.2373 -0.5906, -0.6677 0.2373 0.0, -0.6938 0.1442 -0.5906, -0.6938 0.1442 0.0, -0.707 0.0484 -0.5906, -0.707 0.0484 0.0, -0.707 -0.0484 -0.5906, -0.707 -0.0484 0.0, -0.6938 -0.1442 -0.5906, -0.6938 -0.1442 0.0, -0.6677 -0.2373 -0.5906, -0.6677 -0.2373 0.0, -0.6292 -0.326 -0.5906, -0.6292 -0.326 0.0, -0.579 -0.4087 -0.5906, -0.579 -0.4087 0.0, -0.5179 -0.4837 -0.5906, -0.5179 -0.4837 0.0, -0.4472 -0.5497 -0.5906, -0.4472 -0.5497 0.0, -0.3682 -0.6055 -0.5906, -0.3682 -0.6055 0.0, -0.2823 -0.65 -0.5906, -0.2823 -0.65 0.0, -0.1912 -0.6824 -0.5906, -0.1912 -0.6824 0.0, -0.0965 -0.7021 -0.5906, -0.0965 -0.7021 0.0, 0.0 -0.7087 -0.5906, 0.0 -0.7087 0.0, 0.0965 -0.7021 -0.5906, 0.0965 -0.7021 0.0, 0.1912 -0.6824 -0.5906, 0.1912 -0.6824 0.0, 0.2823 -0.65 -0.5906, 0.2823 -0.65 0.0, 0.3682 -0.6055 -0.5906, 0.3682 -0.6055 0.0, 0.4472 -0.5497 -0.5906, 0.4472 -0.5497 0.0, 0.5179 -0.4837 -0.5906, 0.5179 -0.4837 0.0, 0.579 -0.4087 -0.5906, 0.579 -0.4087 0.0, 0.6292 -0.326 -0.5906, 0.6292 -0.326 0.0, 0.6677 -0.2373 -0.5906, 0.6677 -0.2373 0.0, 0.6938 -0.1442 -0.5906, 0.6938 -0.1442 0.0, 0.707 -0.0484 -0.5906, 0.707 -0.0484 0.0, 0.707 0.0484 -0.5906, 0.707 0.0484 0.0, 0.6938 0.1442 -0.5906, 0.6938 0.1442 0.0, 0.6677 0.2373 -0.5906, 0.6677 0.2373 0.0, 0.6292 0.326 -0.5906, 0.6292 0.326 0.0, 0.579 0.4087 -0.5906, 0.579 0.4087 0.0, 0.5179 0.4837 -0.5906, 0.5179 0.4837 0.0, 0.4472 0.5497 -0.5906, 0.4472 0.5497 0.0, 0.3682 0.6055 -0.5906, 0.3682 0.6055 0.0, 0.2823 0.65 -0.5906, 0.2823 0.65 0.0, 0.1912 0.6824 -0.5906, 0.1912 0.6824 0.0, 0.0965 0.7021 -0.5906, 0.0965 0.7021 0.0, -0.0 0.7087 -0.5906, -0.0 0.7087 -0.5906
            ]
        }
        coordIndex [
            0,1,2,-1,2,1,3,-1,2,3,4,-1,4,3,5,-1,4,5,6,-1,6,5,7,-1,6,7,8,-1,8,7,9,-1,8,9,10,-1,10,9,11,-1,10,11,12,-1,12,11,13,-1,12,13,14,-1,14,13,15,-1,14,15,16,-1,16,15,17,-1,16,17,18,-1,18,17,19,-1,18,19,20,-1,20,19,21,-1,20,21,22,-1,22,21,23,-1,22,23,24,-1,24,23,25,-1,24,25,26,-1,26,25,27,-1,26,27,28,-1,28,27,29,-1,28,29,30,-1,30,29,31,-1,30,31,32,-1,32,31,33,-1,32,33,34,-1,34,33,35,-1,34,35,36,-1,36,35,37,-1,36,37,38,-1,38,37,39,-1,38,39,40,-1,40,39,41,-1,40,41,42,-1,42,41,43,-1,42,43,44,-1,44,43,45,-1,44,45,46,-1,46,45,47,-1,46,47,48,-1,48,47,49,-1,48,49,50,-1,50,49,51,-1,50,51,52,-1,52,51,53,-1,52,53,54,-1,54,53,55,-1,54,55,56,-1,56,55,57,-1,56,57,58,-1,58,57,59,-1,58,59,60,-1,60,59,61,-1,60,61,62,-1,62,61,63,-1,62,63,64,-1,64,63,65,-1,64,65,66,-1,66,65,67,-1,66,67,68,-1,68,67,69,-1,68,69,70,-1,70,69,71,-1,70,71,72,-1,72,71,73,-1,72,73,74,-1,74,73,75,-1,74,75,76,-1,76,75,77,-1,76,77,78,-1,78,77,79,-1,78,79,80,-1,80,79,81,-1,80,81,82,-1,82,81,83,-1,82,83,84,-1,84,83,85,-1,84,85,86,-1,86,85,87,-1,86,87,88,-1,88,87,89,-1,88,89,90,-1,90,89,91,-1,90,91,0,-1,0,91,1,-1,
        ]
    }
}
Shape{
    appearance Appearance {
        material  Material 	{
            diffuseColor 0.34901960784313724 0.34901960784313724 0.34901960784313724
            specularColor 0.023529411764705882 0.023529411764705882 0.023529411764705882
            ambientIntensity 0.2
            transparency 0
            shininess 0.5
        }
    }
    geometry IndexedFaceSet {
        ccw TRUE
        solid FALSE
        coord DEF co Coordinate {
            point [
                0.4058 -0.7874 0.1969, 0.3862 -0.7087 0.2756, -0.4058 -0.7874 0.1969, -0.3862 -0.7087 0.2756, -0.7946 -0.1414 0.2756, -0.8049 -0.0591 0.2756, -0.8839 -0.0591 0.1969, -0.8721 -0.1552 0.1969, -0.8711 -0.1594 0.1969, -0.773 -0.2322 0.2756, -0.8484 -0.2548 0.1969, -0.8473 -0.2577 0.1969, -0.741 -0.3198 0.2756, -0.8133 -0.351 0.1969, -0.8125 -0.3526 0.1969, -0.6992 -0.4031 0.2756, -0.7116 -0.5275 0.1969, -0.648 -0.4811 0.2756, -0.7671 -0.443 0.1969, -0.7674 -0.4425 0.1969, -0.7112 -0.528 0.1969, -0.6468 -0.6052 0.1969, -0.5882 -0.5526 0.2756, -0.6456 -0.6066 0.1969, -0.5735 -0.6749 0.1969, -0.5205 -0.6168 0.2756, -0.4894 -0.7384 0.1969, -0.4459 -0.6727 0.2756, -0.4928 -0.7358 0.1969, -0.5713 -0.677 0.1969, -0.4058 0.7874 0.1969, -0.3862 0.7087 0.2756, 0.4058 0.7874 0.1969, 0.3862 0.7087 0.2756, -0.8839 0.0591 0.1969, -0.8839 0.0591 0.0, -0.8049 0.0591 0.2756, -0.8049 0.0591 0.0, -0.8049 -0.0591 0.0, -0.8839 -0.0591 0.0, -0.7896 -0.057 0.0, -0.7896 -0.057 0.2756, -0.7754 -0.0511 0.0, -0.7754 -0.0511 0.2756, -0.7632 -0.0418 0.0, -0.7632 -0.0418 0.2756, -0.7538 -0.0295 0.0, -0.7538 -0.0295 0.2756, -0.7479 -0.0153 0.0, -0.7479 -0.0153 0.2756, -0.7459 -0.0 0.0, -0.7459 -0.0 0.2756, -0.7479 0.0153 0.0, -0.7479 0.0153 0.2756, -0.7538 0.0295 0.0, -0.7538 0.0295 0.2756, -0.7632 0.0418 0.0, -0.7632 0.0418 0.2756, -0.7754 0.0511 0.0, -0.7754 0.0511 0.2756, -0.7896 0.057 0.0, -0.7896 0.057 0.2756, 0.8839 0.0591 0.1969, 0.8049 0.0591 0.2756, 0.8839 0.0591 0.0, 0.8049 0.0591 0.0, 0.8049 -0.0591 0.2756, 0.8839 -0.0591 0.1969, 0.8049 -0.0591 0.0, 0.8839 -0.0591 0.0, 0.7896 0.057 0.0, 0.7896 0.057 0.2756, 0.7754 0.0511 0.0, 0.7754 0.0511 0.2756, 0.7632 0.0418 0.0, 0.7632 0.0418 0.2756, 0.7538 0.0295 0.0, 0.7538 0.0295 0.2756, 0.7479 0.0153 0.0, 0.7479 0.0153 0.2756, 0.7459 0.0 0.0, 0.7459 0.0 0.2756, 0.7479 -0.0153 0.0, 0.7479 -0.0153 0.2756, 0.7538 -0.0295 0.0, 0.7538 -0.0295 0.2756, 0.7632 -0.0418 0.0, 0.7632 -0.0418 0.2756, 0.7754 -0.0511 0.0, 0.7754 -0.0511 0.2756, 0.7896 -0.057 0.0, 0.7896 -0.057 0.2756, 0.7896 -0.057 0.2756
            ]
        }
        coordIndex [
            0,1,2,-1,2,1,3,-1,4,5,6,-1,6,7,4,-1,4,7,8,-1,4,8,9,-1,8,10,9,-1,9,10,11,-1,9,11,12,-1,11,13,12,-1,12,13,14,-1,12,14,15,-1,16,17,18,-1,18,17,15,-1,18,15,19,-1,19,15,14,-1,16,20,17,-1,17,20,21,-1,17,21,22,-1,21,23,22,-1,22,23,24,-1,22,24,25,-1,2,3,26,-1,26,3,27,-1,26,27,28,-1,28,27,25,-1,28,25,29,-1,29,25,24,-1,30,31,32,-1,32,31,33,-1,34,35,36,-1,36,35,37,-1,5,38,6,-1,6,38,39,-1,38,5,40,-1,40,5,41,-1,40,41,42,-1,42,41,43,-1,42,43,44,-1,44,43,45,-1,44,45,46,-1,46,45,47,-1,46,47,48,-1,48,47,49,-1,48,49,50,-1,50,49,51,-1,50,51,52,-1,52,51,53,-1,52,53,54,-1,54,53,55,-1,54,55,56,-1,56,55,57,-1,56,57,58,-1,58,57,59,-1,58,59,60,-1,60,59,61,-1,60,61,37,-1,37,61,36,-1,62,63,64,-1,64,63,65,-1,66,67,68,-1,68,67,69,-1,65,63,70,-1,70,63,71,-1,70,71,72,-1,72,71,73,-1,72,73,74,-1,74,73,75,-1,74,75,76,-1,76,75,77,-1,76,77,78,-1,78,77,79,-1,78,79,80,-1,80,79,81,-1,80,81,82,-1,82,81,83,-1,82,83,84,-1,84,83,85,-1,84,85,86,-1,86,85,87,-1,86,87,88,-1,88,87,89,-1,88,89,90,-1,90,89,91,-1,90,91,68,-1,68,91,66,-1,
        ]
    }
}
Shape{
    appearance Appearance {
        material  Material 	{
            diffuseColor 0.6666666666666666 0.6666666666666666 0.6666666666666666
            specularColor 0.4666666666666667 0.4666666666666667 0.4666666666666667
            ambientIntensity 0.2
            transparency 0
            shininess 0.5
        }
    }
    geometry IndexedFaceSet {
        ccw TRUE
        solid FALSE
        coord DEF co Coordinate {
            point [
                -0.2362 0.7878 -0.9846, -0.2362 0.7878 -0.9646, -0.2362 0.7874 -0.9646, -0.2362 -0.7874 -0.9646, -0.2362 -0.7878 -0.9646, -0.2362 -0.7874 -0.9843, -0.2362 -0.7878 -0.9846, -0.2362 0.0341 -0.9843, -0.2362 0.7874 -0.9843, -0.4058 0.7874 -0.9646, -0.4059 0.7878 -0.9646, -0.4929 0.736 -0.9646, -0.4931 0.7364 -0.9646, -0.5736 0.675 -0.9646, -0.5739 0.6753 -0.9646, -0.6468 0.6052 -0.9646, -0.6472 0.6054 -0.9646, -0.7116 0.5275 -0.9646, -0.712 0.5277 -0.9646, -0.7671 0.443 -0.9646, -0.7675 0.443 -0.9646, -0.8126 0.3527 -0.9646, -0.8131 0.3526 -0.9646, -0.8475 0.2577 -0.9646, -0.848 0.2575 -0.9646, -0.8714 0.1594 -0.9646, -0.8718 0.1591 -0.9646, -0.8839 0.0591 -0.9646, -0.8843 0.0587 -0.9646, -0.8049 0.0591 -0.9646, -0.8049 0.0587 -0.9646, -0.7896 0.057 -0.9646, -0.7897 0.0567 -0.9646, -0.7754 0.0511 -0.9646, -0.7756 0.0508 -0.9646, -0.7632 0.0418 -0.9646, -0.7634 0.0415 -0.9646, -0.7538 0.0295 -0.9646, -0.7541 0.0293 -0.9646, -0.7479 0.0153 -0.9646, -0.7483 0.0152 -0.9646, -0.7459 -0.0 -0.9646, -0.7463 -0.0 -0.9646, -0.7479 -0.0153 -0.9646, -0.7483 -0.0152 -0.9646, -0.7538 -0.0295 -0.9646, -0.7541 -0.0293 -0.9646, -0.7632 -0.0418 -0.9646, -0.7634 -0.0415 -0.9646, -0.7754 -0.0511 -0.9646, -0.7756 -0.0508 -0.9646, -0.7896 -0.057 -0.9646, -0.7897 -0.0567 -0.9646, -0.8049 -0.0591 -0.9646, -0.8049 -0.0587 -0.9646, -0.8839 -0.0591 -0.9646, -0.8843 -0.0587 -0.9646, -0.8714 -0.1594 -0.9646, -0.8718 -0.1591 -0.9646, -0.8475 -0.2577 -0.9646, -0.848 -0.2575 -0.9646, -0.8126 -0.3527 -0.9646, -0.8131 -0.3526 -0.9646, -0.7671 -0.443 -0.9646, -0.7675 -0.443 -0.9646, -0.7116 -0.5275 -0.9646, -0.712 -0.5277 -0.9646, -0.6468 -0.6052 -0.9646, -0.6472 -0.6054 -0.9646, -0.5736 -0.675 -0.9646, -0.5739 -0.6753 -0.9646, -0.4929 -0.736 -0.9646, -0.4931 -0.7364 -0.9646, -0.4058 -0.7874 -0.9646, -0.4059 -0.7878 -0.9646, -0.4059 0.7878 -0.9846, -0.4931 0.7364 -0.9846, -0.5739 0.6753 -0.9846, -0.6472 0.6054 -0.9846, -0.712 0.5277 -0.9846, -0.7675 0.443 -0.9846, -0.8131 0.3526 -0.9846, -0.848 0.2575 -0.9846, -0.8718 0.1591 -0.9846, -0.8843 0.0587 -0.9846, -0.8049 0.0587 -0.9846, -0.7897 0.0567 -0.9846, -0.7756 0.0508 -0.9846, -0.7634 0.0415 -0.9846, -0.7541 0.0293 -0.9846, -0.7483 0.0152 -0.9846, -0.7463 -0.0 -0.9846, -0.7483 -0.0152 -0.9846, -0.7541 -0.0293 -0.9846, -0.7634 -0.0415 -0.9846, -0.7756 -0.0508 -0.9846, -0.7897 -0.0567 -0.9846, -0.8049 -0.0587 -0.9846, -0.8843 -0.0587 -0.9846, -0.8718 -0.1591 -0.9846, -0.848 -0.2575 -0.9846, -0.8131 -0.3526 -0.9846, -0.7675 -0.443 -0.9846, -0.712 -0.5277 -0.9846, -0.6472 -0.6054 -0.9846, -0.5739 -0.6753 -0.9846, -0.4931 -0.7364 -0.9846, -0.4059 -0.7878 -0.9846, 0.2362 -0.7878 -0.9846, 0.2362 -0.7878 -0.9646, 0.2362 -0.7874 -0.9646, 0.2362 0.7874 -0.9646, 0.2362 0.7878 -0.9646, 0.2362 0.7874 -0.9843, 0.2362 0.7878 -0.9846, 0.2362 0.0341 -0.9843, 0.2362 -0.7874 -0.9843, 0.4058 -0.7874 -0.9646, 0.4059 -0.7878 -0.9646, 0.4929 -0.736 -0.9646, 0.4931 -0.7364 -0.9646, 0.5736 -0.675 -0.9646, 0.5739 -0.6753 -0.9646, 0.6468 -0.6052 -0.9646, 0.6472 -0.6054 -0.9646, 0.7116 -0.5275 -0.9646, 0.712 -0.5277 -0.9646, 0.7671 -0.443 -0.9646, 0.7675 -0.443 -0.9646, 0.8126 -0.3527 -0.9646, 0.8131 -0.3526 -0.9646, 0.8475 -0.2577 -0.9646, 0.848 -0.2575 -0.9646, 0.8714 -0.1594 -0.9646, 0.8718 -0.1591 -0.9646, 0.8839 -0.0591 -0.9646, 0.8843 -0.0587 -0.9646, 0.8049 -0.0591 -0.9646, 0.8049 -0.0587 -0.9646, 0.7896 -0.057 -0.9646, 0.7897 -0.0567 -0.9646, 0.7754 -0.0511 -0.9646, 0.7756 -0.0508 -0.9646, 0.7632 -0.0418 -0.9646, 0.7634 -0.0415 -0.9646, 0.7538 -0.0295 -0.9646, 0.7541 -0.0293 -0.9646, 0.7479 -0.0153 -0.9646, 0.7483 -0.0152 -0.9646, 0.7459 0.0 -0.9646, 0.7463 0.0 -0.9646, 0.7479 0.0153 -0.9646, 0.7483 0.0152 -0.9646, 0.7538 0.0295 -0.9646, 0.7541 0.0293 -0.9646, 0.7632 0.0418 -0.9646, 0.7634 0.0415 -0.9646, 0.7754 0.0511 -0.9646, 0.7756 0.0508 -0.9646, 0.7896 0.057 -0.9646, 0.7897 0.0567 -0.9646, 0.8049 0.0591 -0.9646, 0.8049 0.0587 -0.9646, 0.8839 0.0591 -0.9646, 0.8843 0.0587 -0.9646, 0.8714 0.1594 -0.9646, 0.8718 0.1591 -0.9646, 0.8475 0.2577 -0.9646, 0.848 0.2575 -0.9646, 0.8126 0.3527 -0.9646, 0.8131 0.3526 -0.9646, 0.7671 0.443 -0.9646, 0.7675 0.443 -0.9646, 0.7116 0.5275 -0.9646, 0.712 0.5277 -0.9646, 0.6468 0.6052 -0.9646, 0.6472 0.6054 -0.9646, 0.5736 0.675 -0.9646, 0.5739 0.6753 -0.9646, 0.4929 0.736 -0.9646, 0.4931 0.7364 -0.9646, 0.4058 0.7874 -0.9646, 0.4059 0.7878 -0.9646, 0.4059 0.7878 -0.9846, 0.4059 -0.7878 -0.9846, 0.4931 -0.7364 -0.9846, 0.5739 -0.6753 -0.9846, 0.6472 -0.6054 -0.9846, 0.712 -0.5277 -0.9846, 0.7675 -0.443 -0.9846, 0.8131 -0.3526 -0.9846, 0.848 -0.2575 -0.9846, 0.8718 -0.1591 -0.9846, 0.8843 -0.0587 -0.9846, 0.8049 -0.0587 -0.9846, 0.7897 -0.0567 -0.9846, 0.7756 -0.0508 -0.9846, 0.7634 -0.0415 -0.9846, 0.7541 -0.0293 -0.9846, 0.7483 -0.0152 -0.9846, 0.7463 0.0 -0.9846, 0.7483 0.0152 -0.9846, 0.7541 0.0293 -0.9846, 0.7634 0.0415 -0.9846, 0.7756 0.0508 -0.9846, 0.7897 0.0567 -0.9846, 0.8049 0.0587 -0.9846, 0.8843 0.0587 -0.9846, 0.8718 0.1591 -0.9846, 0.848 0.2575 -0.9846, 0.8131 0.3526 -0.9846, 0.7675 0.443 -0.9846, 0.712 0.5277 -0.9846, 0.6472 0.6054 -0.9846, 0.5739 0.6753 -0.9846, 0.4931 0.7364 -0.9846, 0.4931 0.7364 -0.9846
            ]
        }
        coordIndex [
            0,1,2,-1,3,4,5,-1,5,4,6,-1,5,6,7,-1,7,6,0,-1,7,0,8,-1,8,0,2,-1,2,1,9,-1,9,1,10,-1,9,10,11,-1,11,10,12,-1,11,12,13,-1,13,12,14,-1,13,14,15,-1,15,14,16,-1,15,16,17,-1,17,16,18,-1,17,18,19,-1,19,18,20,-1,19,20,21,-1,21,20,22,-1,21,22,23,-1,23,22,24,-1,23,24,25,-1,25,24,26,-1,25,26,27,-1,27,26,28,-1,27,28,29,-1,29,28,30,-1,29,30,31,-1,31,30,32,-1,31,32,33,-1,33,32,34,-1,33,34,35,-1,35,34,36,-1,35,36,37,-1,37,36,38,-1,37,38,39,-1,39,38,40,-1,39,40,41,-1,41,40,42,-1,41,42,43,-1,43,42,44,-1,43,44,45,-1,45,44,46,-1,45,46,47,-1,47,46,48,-1,47,48,49,-1,49,48,50,-1,49,50,51,-1,51,50,52,-1,51,52,53,-1,53,52,54,-1,53,54,55,-1,55,54,56,-1,55,56,57,-1,57,56,58,-1,57,58,59,-1,59,58,60,-1,59,60,61,-1,61,60,62,-1,61,62,63,-1,63,62,64,-1,63,64,65,-1,65,64,66,-1,65,66,67,-1,67,66,68,-1,67,68,69,-1,69,68,70,-1,69,70,71,-1,71,70,72,-1,71,72,73,-1,73,72,74,-1,73,74,3,-1,3,74,4,-1,75,10,0,-1,0,10,1,-1,10,75,76,-1,10,76,12,-1,12,76,77,-1,12,77,14,-1,14,77,78,-1,14,78,16,-1,16,78,79,-1,16,79,18,-1,18,79,80,-1,18,80,20,-1,20,80,81,-1,20,81,22,-1,22,81,82,-1,22,82,24,-1,24,82,83,-1,24,83,26,-1,26,83,84,-1,26,84,28,-1,85,30,84,-1,84,30,28,-1,30,85,32,-1,32,85,86,-1,32,86,34,-1,34,86,87,-1,34,87,36,-1,36,87,88,-1,36,88,38,-1,38,88,89,-1,38,89,40,-1,40,89,90,-1,40,90,42,-1,42,90,91,-1,42,91,44,-1,44,91,92,-1,44,92,46,-1,46,92,93,-1,46,93,48,-1,48,93,94,-1,48,94,50,-1,50,94,95,-1,50,95,52,-1,52,95,96,-1,52,96,54,-1,54,96,97,-1,98,56,97,-1,97,56,54,-1,56,98,99,-1,56,99,58,-1,58,99,100,-1,58,100,60,-1,60,100,101,-1,60,101,62,-1,62,101,102,-1,62,102,64,-1,64,102,103,-1,64,103,66,-1,66,103,104,-1,66,104,68,-1,68,104,105,-1,68,105,70,-1,70,105,106,-1,70,106,72,-1,72,106,107,-1,72,107,74,-1,6,4,107,-1,107,4,74,-1,99,98,97,-1,93,92,6,-1,6,92,91,-1,6,91,0,-1,0,91,90,-1,102,97,103,-1,103,97,96,-1,102,101,97,-1,97,101,100,-1,97,100,99,-1,107,95,6,-1,6,95,94,-1,6,94,93,-1,90,89,0,-1,0,89,88,-1,0,88,75,-1,75,88,87,-1,75,87,76,-1,82,85,83,-1,83,85,84,-1,82,81,85,-1,85,81,80,-1,85,80,86,-1,107,106,95,-1,95,106,105,-1,95,105,96,-1,96,105,104,-1,96,104,103,-1,80,79,86,-1,86,79,78,-1,86,78,87,-1,87,78,77,-1,87,77,76,-1,108,109,110,-1,111,112,113,-1,113,112,114,-1,113,114,115,-1,115,114,108,-1,115,108,116,-1,116,108,110,-1,110,109,117,-1,117,109,118,-1,117,118,119,-1,119,118,120,-1,119,120,121,-1,121,120,122,-1,121,122,123,-1,123,122,124,-1,123,124,125,-1,125,124,126,-1,125,126,127,-1,127,126,128,-1,127,128,129,-1,129,128,130,-1,129,130,131,-1,131,130,132,-1,131,132,133,-1,133,132,134,-1,133,134,135,-1,135,134,136,-1,135,136,137,-1,137,136,138,-1,137,138,139,-1,139,138,140,-1,139,140,141,-1,141,140,142,-1,141,142,143,-1,143,142,144,-1,143,144,145,-1,145,144,146,-1,145,146,147,-1,147,146,148,-1,147,148,149,-1,149,148,150,-1,149,150,151,-1,151,150,152,-1,151,152,153,-1,153,152,154,-1,153,154,155,-1,155,154,156,-1,155,156,157,-1,157,156,158,-1,157,158,159,-1,159,158,160,-1,159,160,161,-1,161,160,162,-1,161,162,163,-1,163,162,164,-1,163,164,165,-1,165,164,166,-1,165,166,167,-1,167,166,168,-1,167,168,169,-1,169,168,170,-1,169,170,171,-1,171,170,172,-1,171,172,173,-1,173,172,174,-1,173,174,175,-1,175,174,176,-1,175,176,177,-1,177,176,178,-1,177,178,179,-1,179,178,180,-1,179,180,181,-1,181,180,182,-1,181,182,111,-1,111,182,112,-1,114,112,183,-1,183,112,182,-1,184,118,108,-1,108,118,109,-1,118,184,185,-1,118,185,120,-1,120,185,186,-1,120,186,122,-1,122,186,187,-1,122,187,124,-1,124,187,188,-1,124,188,126,-1,126,188,189,-1,126,189,128,-1,128,189,190,-1,128,190,130,-1,130,190,191,-1,130,191,132,-1,132,191,192,-1,132,192,134,-1,134,192,193,-1,134,193,136,-1,194,138,193,-1,193,138,136,-1,138,194,140,-1,140,194,195,-1,140,195,142,-1,142,195,196,-1,142,196,144,-1,144,196,197,-1,144,197,146,-1,146,197,198,-1,146,198,148,-1,148,198,199,-1,148,199,150,-1,150,199,200,-1,150,200,152,-1,152,200,201,-1,152,201,154,-1,154,201,202,-1,154,202,156,-1,156,202,203,-1,156,203,158,-1,158,203,204,-1,158,204,160,-1,160,204,205,-1,160,205,162,-1,162,205,206,-1,207,164,206,-1,206,164,162,-1,164,207,208,-1,164,208,166,-1,166,208,209,-1,166,209,168,-1,168,209,210,-1,168,210,170,-1,170,210,211,-1,170,211,172,-1,172,211,212,-1,172,212,174,-1,174,212,213,-1,174,213,176,-1,176,213,214,-1,176,214,178,-1,178,214,215,-1,178,215,180,-1,180,215,183,-1,180,183,182,-1,202,201,114,-1,114,201,200,-1,114,200,108,-1,108,200,199,-1,205,212,206,-1,206,212,211,-1,206,211,210,-1,183,204,114,-1,114,204,203,-1,114,203,202,-1,210,209,206,-1,206,209,208,-1,206,208,207,-1,195,187,196,-1,196,187,186,-1,199,198,108,-1,108,198,197,-1,108,197,184,-1,184,197,196,-1,184,196,185,-1,185,196,186,-1,191,194,192,-1,192,194,193,-1,191,190,194,-1,194,190,189,-1,194,189,195,-1,195,189,188,-1,195,188,187,-1,183,215,204,-1,204,215,214,-1,204,214,205,-1,205,214,213,-1,205,213,212,-1,
        ]
    }
}
Shape{
    appearance Appearance {
        material  Material 	{
            diffuseColor 1.0 1.0 1.0
            specularColor 0.8784313725490196 0.8784313725490196 0.8784313725490196
            ambientIntensity 0.2
            transparency 0
            shininess 0.5
        }
    }
    geometry IndexedFaceSet {
        ccw TRUE
        solid FALSE
        coord DEF co Coordinate {
            point [
                -0.1335 0.0336 -0.9449, -0.1642 -0.0452 -0.9449, -0.1335 0.0336 -0.9843, -0.1642 -0.0452 -0.9843, -0.1527 -0.0452 -0.9449, -0.1527 -0.0452 -0.9843, -0.1447 -0.0231 -0.9449, -0.1447 -0.0231 -0.9843, -0.1122 -0.0231 -0.9449, -0.1122 -0.0231 -0.9843, -0.1047 -0.0452 -0.9449, -0.1047 -0.0452 -0.9843, -0.0931 -0.0452 -0.9449, -0.0931 -0.0452 -0.9843, -0.1229 0.0336 -0.9449, -0.1229 0.0336 -0.9843, -0.1148 -0.0144 -0.9449, -0.1412 -0.0144 -0.9449, -0.1266 0.0185 -0.9449, -0.1273 0.0212 -0.9449, -0.1278 0.024 -0.9449, -0.1281 0.024 -0.9449, -0.1286 0.0212 -0.9449, -0.1293 0.0185 -0.9449, -0.1148 -0.0144 -0.9843, -0.1412 -0.0144 -0.9843, -0.1266 0.0185 -0.9843, -0.1273 0.0212 -0.9843, -0.1278 0.024 -0.9843, -0.1281 0.024 -0.9843, -0.1286 0.0212 -0.9843, -0.1293 0.0185 -0.9843, -0.0454 -0.0452 -0.9449, -0.024 -0.0452 -0.9449, -0.0454 -0.0452 -0.9843, -0.024 -0.0452 -0.9843, -0.024 0.0336 -0.9449, -0.024 0.0336 -0.9843, -0.0462 0.0336 -0.9449, -0.0462 0.0336 -0.9843, -0.0874 -0.0048 -0.9449, -0.0874 -0.0048 -0.9843, -0.0868 0.0026 -0.9843, -0.0868 0.0026 -0.9449, -0.0847 0.0104 -0.9843, -0.0847 0.0104 -0.9449, -0.081 0.0171 -0.9843, -0.081 0.0171 -0.9449, -0.0755 0.0233 -0.9843, -0.0755 0.0233 -0.9449, -0.0754 0.0234 -0.9843, -0.0754 0.0234 -0.9449, -0.0668 0.0291 -0.9843, -0.0668 0.0291 -0.9449, -0.0576 0.0324 -0.9843, -0.0576 0.0324 -0.9449, -0.0552 -0.0443 -0.9843, -0.0552 -0.0443 -0.9449, -0.0642 -0.0416 -0.9843, -0.0642 -0.0416 -0.9449, -0.0725 -0.0368 -0.9843, -0.0725 -0.0368 -0.9449, -0.0789 -0.0306 -0.9843, -0.0789 -0.0306 -0.9449, -0.0835 -0.0236 -0.9843, -0.0835 -0.0236 -0.9449, -0.0863 -0.0153 -0.9843, -0.0863 -0.0153 -0.9449, -0.0716 0.0139 -0.9449, -0.0678 0.018 -0.9449, -0.062 0.0217 -0.9449, -0.0555 0.0239 -0.9449, -0.0462 0.0249 -0.9449, -0.0346 0.0249 -0.9449, -0.0346 -0.0365 -0.9449, -0.0457 -0.0365 -0.9449, -0.0541 -0.0357 -0.9449, -0.0607 -0.0337 -0.9449, -0.066 -0.0305 -0.9449, -0.0705 -0.0261 -0.9449, -0.0738 -0.0207 -0.9449, -0.0761 -0.0133 -0.9449, -0.0768 -0.005 -0.9449, -0.0762 0.0028 -0.9449, -0.0743 0.009 -0.9449, -0.0462 0.0249 -0.9843, -0.0346 0.0249 -0.9843, -0.0555 0.0239 -0.9843, -0.062 0.0217 -0.9843, -0.0678 0.018 -0.9843, -0.0716 0.0139 -0.9843, -0.0743 0.009 -0.9843, -0.0762 0.0028 -0.9843, -0.0768 -0.005 -0.9843, -0.0761 -0.0133 -0.9843, -0.0738 -0.0207 -0.9843, -0.0705 -0.0261 -0.9843, -0.066 -0.0305 -0.9843, -0.0607 -0.0337 -0.9843, -0.0541 -0.0357 -0.9843, -0.0457 -0.0365 -0.9843, -0.0346 -0.0365 -0.9843, -0.0086 -0.0365 -0.9449, -0.0086 -0.0452 -0.9449, -0.0086 -0.0365 -0.9843, -0.0086 -0.0452 -0.9843, 0.0336 -0.0452 -0.9449, 0.0336 -0.0452 -0.9843, 0.0336 0.0336 -0.9449, 0.0336 0.0336 -0.9843, -0.0067 0.0336 -0.9449, -0.0067 0.0336 -0.9843, -0.0067 0.0249 -0.9449, -0.0067 0.0249 -0.9843, 0.023 0.0249 -0.9449, 0.023 0.0249 -0.9843, 0.023 -0.001 -0.9449, 0.023 -0.001 -0.9843, -0.0048 -0.001 -0.9449, -0.0048 -0.001 -0.9843, -0.0048 -0.0096 -0.9449, -0.0048 -0.0096 -0.9843, 0.023 -0.0096 -0.9449, 0.023 -0.0096 -0.9843, 0.023 -0.0365 -0.9449, 0.023 -0.0365 -0.9843, 0.049 -0.0324 -0.9449, 0.049 -0.0411 -0.9449, 0.049 -0.0324 -0.9843, 0.049 -0.0411 -0.9843, 0.0706 -0.0461 -0.9449, 0.0706 -0.0461 -0.9843, 0.0685 -0.0461 -0.9843, 0.0685 -0.0461 -0.9449, 0.0574 -0.0445 -0.9843, 0.0574 -0.0445 -0.9449, 0.1075 -0.0073 -0.9449, 0.1075 -0.0073 -0.9843, 0.1068 -0.0164 -0.9843, 0.1068 -0.0164 -0.9449, 0.1044 -0.0247 -0.9843, 0.1044 -0.0247 -0.9449, 0.1002 -0.0322 -0.9843, 0.1002 -0.0322 -0.9449, 0.0943 -0.0384 -0.9843, 0.0943 -0.0384 -0.9449, 0.088 -0.0425 -0.9843, 0.088 -0.0425 -0.9449, 0.0803 -0.0451 -0.9843, 0.0803 -0.0451 -0.9449, 0.0675 0.0345 -0.9843, 0.0734 0.0341 -0.9843, 0.0675 0.0345 -0.9449, 0.0754 0.0339 -0.9449, 0.0754 0.0339 -0.9843, 0.0842 0.0313 -0.9843, 0.0842 0.0313 -0.9449, 0.0917 0.027 -0.9843, 0.0917 0.027 -0.9449, 0.0988 0.0202 -0.9843, 0.0988 0.0202 -0.9449, 0.1034 0.0128 -0.9843, 0.1034 0.0128 -0.9449, 0.1064 0.0039 -0.9843, 0.1064 0.0039 -0.9449, 0.0605 0.0341 -0.9843, 0.0581 0.0339 -0.9449, 0.0581 0.0339 -0.9843, 0.049 0.0314 -0.9449, 0.049 0.0314 -0.9843, 0.049 0.0209 -0.9449, 0.049 0.0209 -0.9843, 0.0674 0.0259 -0.9449, 0.0674 0.0259 -0.9843, 0.0578 0.0247 -0.9843, 0.0578 0.0247 -0.9449, 0.097 -0.0066 -0.9449, 0.097 -0.0066 -0.9843, 0.0966 -0.0005 -0.9843, 0.0966 -0.0005 -0.9449, 0.0945 0.0079 -0.9843, 0.0945 0.0079 -0.9449, 0.0913 0.014 -0.9843, 0.0913 0.014 -0.9449, 0.0865 0.0193 -0.9843, 0.0865 0.0193 -0.9449, 0.0811 0.0229 -0.9843, 0.0811 0.0229 -0.9449, 0.0752 0.025 -0.9843, 0.0752 0.025 -0.9449, 0.0692 -0.0375 -0.9449, 0.0692 -0.0375 -0.9843, 0.0765 -0.0367 -0.9843, 0.0765 -0.0367 -0.9449, 0.0823 -0.0345 -0.9843, 0.0823 -0.0345 -0.9449, 0.0871 -0.0313 -0.9843, 0.0871 -0.0313 -0.9449, 0.0908 -0.0274 -0.9843, 0.0908 -0.0274 -0.9449, 0.094 -0.0219 -0.9843, 0.094 -0.0219 -0.9449, 0.0962 -0.0152 -0.9843, 0.0962 -0.0152 -0.9449, 0.0504 -0.0332 -0.9843, 0.0504 -0.0332 -0.9449, 0.0587 -0.0363 -0.9843, 0.0587 -0.0363 -0.9449, 0.1143 -0.0365 -0.9449, 0.1143 -0.0452 -0.9449, 0.1143 -0.0365 -0.9843, 0.1143 -0.0452 -0.9843, 0.1546 -0.0452 -0.9449, 0.1546 -0.0452 -0.9843, 0.1546 0.0336 -0.9449, 0.1546 0.0336 -0.9843, 0.144 0.0336 -0.9449, 0.144 0.0336 -0.9843, 0.144 -0.0365 -0.9449, 0.144 -0.0365 -0.9843, 0.144 -0.0365 -0.9843
            ]
        }
        coordIndex [
            0,1,2,-1,2,1,3,-1,1,4,3,-1,3,4,5,-1,4,6,5,-1,5,6,7,-1,6,8,7,-1,7,8,9,-1,8,10,9,-1,9,10,11,-1,10,12,11,-1,11,12,13,-1,12,14,13,-1,13,14,15,-1,14,0,15,-1,15,0,2,-1,16,8,17,-1,17,8,6,-1,18,14,16,-1,16,14,12,-1,16,12,8,-1,8,12,10,-1,18,19,14,-1,14,19,20,-1,14,20,0,-1,0,20,21,-1,0,21,22,-1,22,23,0,-1,0,23,17,-1,0,17,1,-1,1,17,6,-1,1,6,4,-1,16,17,24,-1,24,17,25,-1,18,16,26,-1,26,16,24,-1,18,26,27,-1,18,27,19,-1,19,27,28,-1,19,28,20,-1,21,20,29,-1,29,20,28,-1,21,29,30,-1,21,30,22,-1,22,30,31,-1,22,31,23,-1,17,23,25,-1,25,23,31,-1,32,33,34,-1,34,33,35,-1,33,36,35,-1,35,36,37,-1,36,38,37,-1,37,38,39,-1,40,41,42,-1,40,42,43,-1,43,42,44,-1,43,44,45,-1,45,44,46,-1,45,46,47,-1,47,46,48,-1,47,48,49,-1,49,48,50,-1,49,50,51,-1,51,50,52,-1,51,52,53,-1,53,52,54,-1,53,54,55,-1,55,54,39,-1,55,39,38,-1,32,34,56,-1,32,56,57,-1,57,56,58,-1,57,58,59,-1,59,58,60,-1,59,60,61,-1,61,60,62,-1,61,62,63,-1,63,62,64,-1,63,64,65,-1,65,64,66,-1,65,66,67,-1,67,66,41,-1,67,41,40,-1,45,47,68,-1,68,47,49,-1,68,49,69,-1,69,49,51,-1,69,51,70,-1,70,51,53,-1,70,53,71,-1,71,53,55,-1,71,55,72,-1,72,55,38,-1,72,38,73,-1,73,38,36,-1,73,36,74,-1,74,36,33,-1,74,33,75,-1,75,33,32,-1,75,32,76,-1,76,32,57,-1,76,57,77,-1,77,57,59,-1,77,59,78,-1,78,59,61,-1,78,61,79,-1,79,61,63,-1,79,63,80,-1,80,63,65,-1,80,65,81,-1,81,65,67,-1,81,67,82,-1,82,67,40,-1,82,40,83,-1,83,40,43,-1,83,43,84,-1,84,43,45,-1,84,45,68,-1,72,73,85,-1,85,73,86,-1,72,85,87,-1,72,87,71,-1,71,87,88,-1,71,88,70,-1,70,88,89,-1,70,89,69,-1,69,89,90,-1,69,90,68,-1,68,90,91,-1,68,91,84,-1,84,91,92,-1,84,92,83,-1,83,92,93,-1,83,93,82,-1,82,93,94,-1,82,94,81,-1,81,94,95,-1,81,95,80,-1,80,95,96,-1,80,96,79,-1,79,96,97,-1,79,97,78,-1,78,97,98,-1,78,98,77,-1,77,98,99,-1,77,99,76,-1,76,99,100,-1,76,100,75,-1,74,75,101,-1,101,75,100,-1,73,74,86,-1,86,74,101,-1,102,103,104,-1,104,103,105,-1,103,106,105,-1,105,106,107,-1,106,108,107,-1,107,108,109,-1,108,110,109,-1,109,110,111,-1,110,112,111,-1,111,112,113,-1,112,114,113,-1,113,114,115,-1,114,116,115,-1,115,116,117,-1,116,118,117,-1,117,118,119,-1,118,120,119,-1,119,120,121,-1,120,122,121,-1,121,122,123,-1,122,124,123,-1,123,124,125,-1,124,102,125,-1,125,102,104,-1,106,103,102,-1,102,124,106,-1,106,124,122,-1,106,122,108,-1,112,110,114,-1,114,110,108,-1,114,108,116,-1,116,108,122,-1,116,122,118,-1,118,122,120,-1,126,127,128,-1,128,127,129,-1,130,131,132,-1,130,132,133,-1,133,132,134,-1,133,134,135,-1,135,134,129,-1,135,129,127,-1,136,137,138,-1,136,138,139,-1,139,138,140,-1,139,140,141,-1,141,140,142,-1,141,142,143,-1,143,142,144,-1,143,144,145,-1,145,144,146,-1,145,146,147,-1,147,146,148,-1,147,148,149,-1,149,148,131,-1,149,131,130,-1,150,151,152,-1,152,151,153,-1,151,154,153,-1,153,154,155,-1,153,155,156,-1,156,155,157,-1,156,157,158,-1,158,157,159,-1,158,159,160,-1,160,159,161,-1,160,161,162,-1,162,161,163,-1,162,163,164,-1,164,163,137,-1,164,137,136,-1,150,152,165,-1,165,152,166,-1,165,166,167,-1,167,166,168,-1,167,168,169,-1,168,170,169,-1,169,170,171,-1,172,173,174,-1,172,174,175,-1,175,174,171,-1,175,171,170,-1,176,177,178,-1,176,178,179,-1,179,178,180,-1,179,180,181,-1,181,180,182,-1,181,182,183,-1,183,182,184,-1,183,184,185,-1,185,184,186,-1,185,186,187,-1,187,186,188,-1,187,188,189,-1,189,188,173,-1,189,173,172,-1,190,191,192,-1,190,192,193,-1,193,192,194,-1,193,194,195,-1,195,194,196,-1,195,196,197,-1,197,196,198,-1,197,198,199,-1,199,198,200,-1,199,200,201,-1,201,200,202,-1,201,202,203,-1,203,202,177,-1,203,177,176,-1,126,128,204,-1,126,204,205,-1,205,204,206,-1,205,206,207,-1,207,206,191,-1,207,191,190,-1,193,130,190,-1,190,130,133,-1,190,133,207,-1,207,133,135,-1,207,135,205,-1,205,135,127,-1,205,127,126,-1,170,168,175,-1,175,168,166,-1,175,166,172,-1,172,166,152,-1,172,152,189,-1,189,152,153,-1,189,153,187,-1,187,153,156,-1,187,156,185,-1,185,156,158,-1,185,158,183,-1,183,158,160,-1,183,160,181,-1,181,160,162,-1,181,162,179,-1,179,162,164,-1,179,164,176,-1,176,164,136,-1,176,136,203,-1,203,136,139,-1,203,139,201,-1,201,139,141,-1,201,141,199,-1,199,141,143,-1,199,143,197,-1,197,143,145,-1,197,145,195,-1,195,145,147,-1,195,147,193,-1,193,147,149,-1,193,149,130,-1,208,209,210,-1,210,209,211,-1,209,212,211,-1,211,212,213,-1,212,214,213,-1,213,214,215,-1,214,216,215,-1,215,216,217,-1,216,218,217,-1,217,218,219,-1,218,208,219,-1,219,208,210,-1,216,214,218,-1,218,214,212,-1,218,212,208,-1,208,212,209,-1,
        ]
    }
}
Shape{
    appearance Appearance {
        material  Material 	{
            diffuseColor 0.20784313725490197 0.20784313725490197 0.20784313725490197
            specularColor 0.01568627450980392 0.01568627450980392 0.01568627450980392
            ambientIntensity 0.2
            transparency 0
            shininess 0.5
        }
    }
    geometry IndexedFaceSet {
        ccw TRUE
        solid FALSE
        coord DEF co Coordinate {
            point [
                -0.1148 -0.0144 -0.9843, -0.1412 -0.0144 -0.9843, -0.1266 0.0185 -0.9843, -0.1293 0.0185 -0.9843, -0.1273 0.0212 -0.9843, -0.1286 0.0212 -0.9843, -0.1278 0.024 -0.9843, -0.1281 0.024 -0.9843, -0.0346 0.0249 -0.9843, -0.0346 -0.0365 -0.9843, -0.0462 0.0249 -0.9843, -0.0457 -0.0365 -0.9843, -0.0541 -0.0357 -0.9843, -0.0768 -0.005 -0.9843, -0.0762 0.0028 -0.9843, -0.0743 0.009 -0.9843, -0.0555 0.0239 -0.9843, -0.0607 -0.0337 -0.9843, -0.066 -0.0305 -0.9843, -0.0705 -0.0261 -0.9843, -0.0738 -0.0207 -0.9843, -0.0761 -0.0133 -0.9843, -0.0716 0.0139 -0.9843, -0.0678 0.018 -0.9843, -0.062 0.0217 -0.9843, -0.062 0.0217 -0.9843
            ]
        }
        coordIndex [
            0,1,2,-1,2,1,3,-1,2,3,4,-1,4,3,5,-1,4,5,6,-1,6,5,7,-1,8,9,10,-1,10,9,11,-1,10,11,12,-1,13,14,10,-1,10,14,15,-1,10,15,16,-1,12,17,10,-1,10,17,18,-1,10,18,19,-1,19,20,10,-1,10,20,21,-1,10,21,13,-1,22,23,15,-1,15,23,24,-1,15,24,16,-1,
        ]
    }
}