#VRML V2.0 utf8
# 3D model generated by easyeda2kicad.py (https://github.com/uPesy/easyeda2kicad.py)

Shape{
    appearance Appearance {
        material  Material 	{
            diffuseColor 0.0 0.5019607843137255 0.0
            specularColor 0.0 0.25098039215686274 0.0
            ambientIntensity 0.2
            transparency 0
            shininess 0.5
        }
    }
    geometry IndexedFaceSet {
        ccw TRUE
        solid FALSE
        coord DEF co Coordinate {
            point [
                -0.1535 0.3543 -0.0512, -0.1535 0.3524 -0.0512, -0.1969 0.3524 -0.0512, 0.1535 -0.3543 -0.0512, 0.1535 -0.3524 -0.0512, 0.374 -0.3524 -0.0512, 0.0 -0.3937 -0.0512, 0.0 -0.3524 -0.0512, 0.0433 -0.3524 -0.0512, 0.0433 -0.3543 -0.0512, 0.374 -0.3937 -0.0512, 0.2402 -0.2402 -0.0512, 0.0 -0.1969 -0.0512, 0.374 -0.1969 -0.0512, 0.0433 -0.2402 -0.0512, 0.1535 -0.2402 -0.0512, 0.2402 -0.3504 -0.0512, 0.3543 -0.3504 -0.0512, 0.3543 -0.2402 -0.0512, -0.0433 -0.3524 -0.0512, -0.0433 -0.3543 -0.0512, -0.1535 -0.3543 -0.0512, -0.1969 -0.3937 -0.0512, -0.1535 -0.3524 -0.0512, -0.1969 -0.3524 -0.0512, -0.1535 -0.2402 -0.0512, -0.1969 -0.1969 -0.0512, -0.0433 -0.2402 -0.0512, -0.1969 0.1969 -0.0512, -0.1969 0.3937 -0.0512, -0.0433 0.3543 -0.0512, 0.0 0.3937 -0.0512, -0.0433 0.3524 -0.0512, 0.0 0.3524 -0.0512, -0.0433 0.2402 -0.0512, 0.0 0.1969 -0.0512, -0.1535 0.2402 -0.0512, 0.1535 0.3524 -0.0512, 0.2402 0.3504 -0.0512, 0.1535 0.2402 -0.0512, 0.2402 0.2402 -0.0512, 0.374 0.1969 -0.0512, 0.3543 0.2402 -0.0512, 0.374 0.3524 -0.0512, 0.3543 0.3504 -0.0512, 0.0433 0.2402 -0.0512, 0.0433 0.3524 -0.0512, 0.0433 0.3543 -0.0512, 0.1535 0.3543 -0.0512, 0.374 0.3937 -0.0512, -0.3937 0.3524 -0.0512, -0.3937 0.3937 -0.0512, -0.3543 0.2402 -0.0512, -0.2795 0.2402 -0.0512, -0.2402 0.2795 -0.0512, -0.2402 0.3504 -0.0512, -0.3543 0.3504 -0.0512, -0.3937 0.1969 -0.0512, -0.2402 0.0433 -0.0512, -0.1969 -0.0 -0.0512, -0.3543 0.0433 -0.0512, -0.3937 -0.0 -0.0512, -0.3543 0.1535 -0.0512, -0.2402 0.1535 -0.0512, 0.2402 0.1535 -0.0512, 0.0 -0.0 -0.0512, 0.2402 0.0433 -0.0512, 0.3543 0.1535 -0.0512, 0.3543 0.0433 -0.0512, 0.374 -0.0 -0.0512, -0.2402 -0.1535 -0.0512, -0.3543 -0.1535 -0.0512, -0.3937 -0.1969 -0.0512, -0.3543 -0.0433 -0.0512, -0.2402 -0.0433 -0.0512, 0.2402 -0.0433 -0.0512, 0.2402 -0.1535 -0.0512, 0.3543 -0.1535 -0.0512, 0.3543 -0.0433 -0.0512, -0.3543 -0.3504 -0.0512, -0.3937 -0.3524 -0.0512, -0.3543 -0.2402 -0.0512, -0.2402 -0.2402 -0.0512, -0.2402 -0.3504 -0.0512, -0.3937 -0.3937 -0.0512, 0.3937 0.3937 -0.0512, 0.3937 0.3524 -0.0512, 0.3937 0.1969 -0.0512, 0.3937 -0.0 -0.0512, 0.3937 -0.1969 -0.0512, 0.3937 -0.3524 -0.0512, 0.3937 -0.3937 -0.0512, 0.3937 0.3937 0.0, -0.3937 0.3937 0.0, 0.3937 -0.3937 0.0, -0.3937 -0.3937 0.0, -0.3937 -0.3937 0.0
            ]
        }
        coordIndex [
            0,1,2,-1,3,4,5,-1,6,7,8,-1,8,9,6,-1,6,9,3,-1,6,3,10,-1,10,3,5,-1,11,12,13,-1,14,12,15,-1,15,12,11,-1,15,11,4,-1,4,11,16,-1,4,16,5,-1,5,16,17,-1,5,17,13,-1,13,17,18,-1,13,18,11,-1,19,12,7,-1,7,12,14,-1,7,14,8,-1,19,7,20,-1,20,7,6,-1,20,6,21,-1,21,6,22,-1,21,22,23,-1,23,22,24,-1,23,24,25,-1,25,24,26,-1,25,26,27,-1,2,1,28,-1,0,29,30,-1,30,29,31,-1,30,31,32,-1,32,31,33,-1,32,33,34,-1,34,33,35,-1,34,35,36,-1,37,38,39,-1,39,38,40,-1,39,40,41,-1,41,40,42,-1,41,42,43,-1,43,42,44,-1,45,35,46,-1,46,35,33,-1,46,33,47,-1,47,33,31,-1,47,31,48,-1,48,31,49,-1,48,49,37,-1,37,49,43,-1,37,43,38,-1,38,43,44,-1,0,2,29,-1,29,2,50,-1,29,50,51,-1,52,53,28,-1,28,53,54,-1,28,54,2,-1,2,54,55,-1,2,55,50,-1,50,55,56,-1,50,56,57,-1,57,56,52,-1,57,52,28,-1,58,59,60,-1,60,59,61,-1,60,61,62,-1,62,61,57,-1,62,57,63,-1,63,57,28,-1,63,28,58,-1,58,28,59,-1,35,64,65,-1,65,64,66,-1,67,41,68,-1,68,41,69,-1,68,69,66,-1,45,39,35,-1,35,39,41,-1,35,41,64,-1,64,41,67,-1,70,26,71,-1,71,26,72,-1,71,72,73,-1,73,72,61,-1,73,61,74,-1,74,61,59,-1,74,59,70,-1,70,59,26,-1,1,36,28,-1,28,36,35,-1,28,35,59,-1,59,35,65,-1,59,65,26,-1,26,65,12,-1,26,12,27,-1,27,12,19,-1,66,69,65,-1,65,69,75,-1,65,75,12,-1,12,75,76,-1,12,76,13,-1,13,76,77,-1,13,77,69,-1,69,77,78,-1,69,78,75,-1,79,80,81,-1,81,80,72,-1,81,72,82,-1,82,72,26,-1,82,26,83,-1,83,26,24,-1,79,83,80,-1,80,83,24,-1,80,24,84,-1,84,24,22,-1,49,85,43,-1,43,85,86,-1,43,86,41,-1,41,86,87,-1,41,87,69,-1,69,87,88,-1,69,88,13,-1,13,88,89,-1,13,89,5,-1,5,89,90,-1,5,90,10,-1,10,90,91,-1,85,49,92,-1,92,49,31,-1,92,31,93,-1,93,31,29,-1,93,29,51,-1,86,85,92,-1,94,91,90,-1,90,89,94,-1,94,89,88,-1,94,88,92,-1,92,88,87,-1,92,87,86,-1,84,22,95,-1,95,22,6,-1,95,6,94,-1,94,6,10,-1,94,10,91,-1,80,84,95,-1,93,51,50,-1,50,57,93,-1,93,57,61,-1,93,61,95,-1,95,61,72,-1,95,72,80,-1,95,94,93,-1,93,94,92,-1,
        ]
    }
}
Shape{
    appearance Appearance {
        material  Material 	{
            diffuseColor 1.0 1.0 0.0
            specularColor 0.5019607843137255 0.5019607843137255 0.0
            ambientIntensity 0.2
            transparency 0
            shininess 0.5
        }
    }
    geometry IndexedFaceSet {
        ccw TRUE
        solid FALSE
        coord DEF co Coordinate {
            point [
                0.2402 0.3504 -0.0591, 0.2402 0.2402 -0.0591, 0.2402 0.3504 -0.0512, 0.2402 0.2402 -0.0512, 0.3543 0.3504 -0.0591, 0.3543 0.3504 -0.0512, 0.3543 0.2402 -0.0591, 0.3543 0.2402 -0.0512, 0.0433 0.3543 -0.0512, 0.0433 0.3543 -0.0591, 0.0433 0.3524 -0.0512, 0.0433 0.2402 -0.0591, 0.0433 0.2402 -0.0512, 0.1535 0.3543 -0.0591, 0.1535 0.3543 -0.0512, 0.1535 0.2402 -0.0512, 0.1535 0.2402 -0.0591, 0.1535 0.3524 -0.0512, -0.1535 0.3543 -0.0512, -0.1535 0.3543 -0.0591, -0.1535 0.3524 -0.0512, -0.1535 0.2402 -0.0591, -0.1535 0.2402 -0.0512, -0.0433 0.3543 -0.0591, -0.0433 0.3543 -0.0512, -0.0433 0.2402 -0.0512, -0.0433 0.2402 -0.0591, -0.0433 0.3524 -0.0512, -0.3543 0.3504 -0.0591, -0.3543 0.2402 -0.0591, -0.3543 0.3504 -0.0512, -0.3543 0.2402 -0.0512, -0.2402 0.3504 -0.0591, -0.2402 0.3504 -0.0512, -0.2402 0.2795 -0.0591, -0.2402 0.2795 -0.0512, -0.2795 0.2402 -0.0512, -0.2795 0.2402 -0.0591, -0.3543 -0.2402 -0.0591, -0.3543 -0.3504 -0.0591, -0.3543 -0.2402 -0.0512, -0.3543 -0.3504 -0.0512, -0.2402 -0.2402 -0.0591, -0.2402 -0.2402 -0.0512, -0.2402 -0.3504 -0.0591, -0.2402 -0.3504 -0.0512, 0.2402 0.0433 -0.0591, 0.3543 0.0433 -0.0591, 0.2402 0.0433 -0.0512, 0.3543 0.0433 -0.0512, 0.2402 0.1535 -0.0591, 0.2402 0.1535 -0.0512, 0.3543 0.1535 -0.0591, 0.3543 0.1535 -0.0512, 0.2402 -0.1535 -0.0591, 0.3543 -0.1535 -0.0591, 0.2402 -0.1535 -0.0512, 0.3543 -0.1535 -0.0512, 0.2402 -0.0433 -0.0591, 0.2402 -0.0433 -0.0512, 0.3543 -0.0433 -0.0591, 0.3543 -0.0433 -0.0512, 0.2402 -0.3504 -0.0591, 0.3543 -0.3504 -0.0591, 0.2402 -0.3504 -0.0512, 0.3543 -0.3504 -0.0512, 0.2402 -0.2402 -0.0591, 0.2402 -0.2402 -0.0512, 0.3543 -0.2402 -0.0591, 0.3543 -0.2402 -0.0512, -0.3543 -0.0433 -0.0591, -0.3543 -0.1535 -0.0591, -0.3543 -0.0433 -0.0512, -0.3543 -0.1535 -0.0512, -0.2402 -0.0433 -0.0591, -0.2402 -0.0433 -0.0512, -0.2402 -0.1535 -0.0591, -0.2402 -0.1535 -0.0512, -0.3543 0.1535 -0.0591, -0.3543 0.0433 -0.0591, -0.3543 0.1535 -0.0512, -0.3543 0.0433 -0.0512, -0.2402 0.1535 -0.0591, -0.2402 0.1535 -0.0512, -0.2402 0.0433 -0.0591, -0.2402 0.0433 -0.0512, -0.1535 -0.3543 -0.0591, -0.0433 -0.3543 -0.0591, -0.1535 -0.3543 -0.0512, -0.0433 -0.3543 -0.0512, -0.1535 -0.2402 -0.0512, -0.1535 -0.2402 -0.0591, -0.1535 -0.3524 -0.0512, -0.0433 -0.2402 -0.0591, -0.0433 -0.2402 -0.0512, -0.0433 -0.3524 -0.0512, 0.1535 -0.3543 -0.0512, 0.1535 -0.3543 -0.0591, 0.1535 -0.3524 -0.0512, 0.1535 -0.2402 -0.0591, 0.1535 -0.2402 -0.0512, 0.0433 -0.3543 -0.0591, 0.0433 -0.3543 -0.0512, 0.0433 -0.2402 -0.0512, 0.0433 -0.2402 -0.0591, 0.0433 -0.3524 -0.0512, 0.0433 -0.3524 -0.0512
            ]
        }
        coordIndex [
            0,1,2,-1,2,1,3,-1,4,0,5,-1,5,0,2,-1,6,4,7,-1,7,4,5,-1,1,6,3,-1,3,6,7,-1,4,6,0,-1,0,6,1,-1,8,9,10,-1,10,9,11,-1,10,11,12,-1,13,9,14,-1,14,9,8,-1,15,16,17,-1,17,16,13,-1,17,13,14,-1,11,16,12,-1,12,16,15,-1,13,16,9,-1,9,16,11,-1,18,19,20,-1,20,19,21,-1,20,21,22,-1,23,19,24,-1,24,19,18,-1,25,26,27,-1,27,26,23,-1,27,23,24,-1,21,26,22,-1,22,26,25,-1,23,26,19,-1,19,26,21,-1,28,29,30,-1,30,29,31,-1,32,28,33,-1,33,28,30,-1,34,32,35,-1,35,32,33,-1,36,31,37,-1,37,31,29,-1,37,29,34,-1,34,29,28,-1,34,28,32,-1,38,39,40,-1,40,39,41,-1,42,38,43,-1,43,38,40,-1,44,42,45,-1,45,42,43,-1,39,44,41,-1,41,44,45,-1,42,44,38,-1,38,44,39,-1,46,47,48,-1,48,47,49,-1,50,46,51,-1,51,46,48,-1,52,50,53,-1,53,50,51,-1,47,52,49,-1,49,52,53,-1,50,52,46,-1,46,52,47,-1,54,55,56,-1,56,55,57,-1,58,54,59,-1,59,54,56,-1,60,58,61,-1,61,58,59,-1,55,60,57,-1,57,60,61,-1,58,60,54,-1,54,60,55,-1,62,63,64,-1,64,63,65,-1,66,62,67,-1,67,62,64,-1,68,66,69,-1,69,66,67,-1,63,68,65,-1,65,68,69,-1,66,68,62,-1,62,68,63,-1,70,71,72,-1,72,71,73,-1,74,70,75,-1,75,70,72,-1,76,74,77,-1,77,74,75,-1,71,76,73,-1,73,76,77,-1,74,76,70,-1,70,76,71,-1,78,79,80,-1,80,79,81,-1,82,78,83,-1,83,78,80,-1,84,82,85,-1,85,82,83,-1,79,84,81,-1,81,84,85,-1,82,84,78,-1,78,84,79,-1,86,87,88,-1,88,87,89,-1,90,91,92,-1,92,91,86,-1,92,86,88,-1,93,91,94,-1,94,91,90,-1,89,87,95,-1,95,87,93,-1,95,93,94,-1,91,93,86,-1,86,93,87,-1,96,97,98,-1,98,97,99,-1,98,99,100,-1,101,97,102,-1,102,97,96,-1,103,104,105,-1,105,104,101,-1,105,101,102,-1,99,104,100,-1,100,104,103,-1,101,104,97,-1,97,104,99,-1,35,36,34,-1,34,36,37,-1,
        ]
    }
}
Shape{
    appearance Appearance {
        material  Material 	{
            diffuseColor 0.25098039215686274 0.25098039215686274 0.25098039215686274
            specularColor 0.12549019607843137 0.12549019607843137 0.12549019607843137
            ambientIntensity 0.2
            transparency 0
            shininess 0.5
        }
    }
    geometry IndexedFaceSet {
        ccw TRUE
        solid FALSE
        coord DEF co Coordinate {
            point [
                -0.2288 -0.3647 0.3346, -0.2283 -0.3642 0.3346, -0.2283 -0.3611 0.3346, -0.2366 -0.361 0.3346, -0.2373 -0.3611 0.3346, -0.2327 -0.3611 0.3346, -0.2462 -0.3314 0.3346, -0.2474 -0.3315 0.3346, -0.2412 -0.3315 0.3346, -0.3034 -0.3322 0.3346, -0.3036 -0.3315 0.3346, -0.3556 -0.3315 0.3346, -0.2923 -0.3272 0.3346, -0.2887 -0.3303 0.3346, -0.2731 -0.3125 0.3346, -0.2731 -0.3315 0.3346, -0.3094 -0.3109 0.3346, -0.3071 -0.3125 0.3346, -0.3041 -0.3145 0.3346, -0.2996 -0.3199 0.3346, -0.2969 -0.325 0.3346, -0.2963 -0.3253 0.3346, -0.316 -0.3084 0.3346, -0.2731 -0.0174 0.3346, -0.3222 -0.3076 0.3346, -0.3556 -0.0174 0.3346, -0.3283 -0.3083 0.3346, -0.3556 -0.3125 0.3346, -0.3522 -0.319 0.3346, -0.347 -0.3184 0.3346, -0.3412 -0.3155 0.3346, -0.3381 -0.3128 0.3346, -0.3376 -0.3125 0.3346, -0.3344 -0.3106 0.3346, -0.3455 -0.3185 0.3346, -0.344 -0.3187 0.3346, -0.3614 -0.3239 0.3346, -0.3572 -0.3209 0.3346, -0.3556 -0.3203 0.3346, -0.3937 -0.3315 0.3346, -0.3666 -0.3315 0.3346, -0.3937 -0.3125 0.3346, -0.3655 -0.3289 0.3346, -0.3623 -0.3248 0.3346, -0.3588 -0.3579 0.3346, -0.363 -0.3544 0.3346, -0.3937 -0.3611 0.3346, -0.3556 -0.3595 0.3346, -0.366 -0.3501 0.3346, -0.3679 -0.3451 0.3346, -0.3937 -0.337 0.3346, -0.3685 -0.3399 0.3346, -0.3685 -0.3386 0.3346, -0.3682 -0.337 0.3346, -0.3676 -0.3336 0.3346, -0.3523 -0.3608 0.3346, -0.354 -0.3603 0.3346, -0.3556 -0.3611 0.3346, -0.3464 -0.368 0.3346, -0.349 -0.3661 0.3346, -0.3556 -0.3685 0.3346, -0.351 -0.3636 0.3346, -0.3522 -0.3611 0.3346, -0.2731 -0.3685 0.3346, -0.3342 -0.3685 0.3346, -0.3556 -0.3937 0.3346, -0.3365 -0.3694 0.3346, -0.3397 -0.3698 0.3346, -0.3402 -0.3698 0.3346, -0.3434 -0.3693 0.3346, -0.3452 -0.3685 0.3346, -0.3273 -0.3611 0.3346, -0.3273 -0.3612 0.3346, -0.3288 -0.3641 0.3346, -0.3309 -0.3664 0.3346, -0.3335 -0.3683 0.3346, -0.2844 -0.3381 0.3346, -0.2838 -0.3424 0.3346, -0.2731 -0.337 0.3346, -0.3321 -0.3455 0.3346, -0.3297 -0.3476 0.3346, -0.3119 -0.3383 0.3346, -0.3103 -0.3533 0.3346, -0.3094 -0.3529 0.3346, -0.3078 -0.3454 0.3346, -0.2887 -0.3551 0.3346, -0.2923 -0.3581 0.3346, -0.2731 -0.3611 0.3346, -0.3111 -0.3539 0.3346, -0.2861 -0.3514 0.3346, -0.3551 -0.3501 0.3346, -0.3522 -0.3519 0.3346, -0.3507 -0.349 0.3346, -0.2921 -0.3414 0.3346, -0.2927 -0.3388 0.3346, -0.2937 -0.337 0.3346, -0.3556 -0.337 0.3346, -0.2844 -0.3472 0.3346, -0.3429 -0.3435 0.3346, -0.3458 -0.3446 0.3346, -0.3485 -0.3465 0.3346, -0.3084 -0.3528 0.3346, -0.3082 -0.3528 0.3346, -0.3078 -0.3529 0.3346, -0.3556 -0.3496 0.3346, -0.3397 -0.3431 0.3346, -0.3381 -0.3432 0.3346, -0.3349 -0.344 0.3346, -0.3125 -0.3569 0.3346, -0.3124 -0.3564 0.3346, -0.3264 -0.3552 0.3346, -0.3122 -0.3554 0.3346, -0.3117 -0.3545 0.3346, -0.2947 -0.3496 0.3346, -0.2933 -0.3475 0.3346, -0.2923 -0.3452 0.3346, -0.292 -0.3426 0.3346, -0.3094 -0.3609 0.3346, -0.3102 -0.3606 0.3346, -0.3111 -0.3599 0.3346, -0.3114 -0.3596 0.3346, -0.312 -0.3588 0.3346, -0.3123 -0.3579 0.3346, -0.3265 -0.3579 0.3346, -0.3264 -0.3565 0.3346, -0.2964 -0.3601 0.3346, -0.3008 -0.361 0.3346, -0.3086 -0.361 0.3346, -0.3076 -0.3529 0.3346, -0.3016 -0.3529 0.3346, -0.2992 -0.3525 0.3346, -0.2969 -0.3514 0.3346, -0.2949 -0.3498 0.3346, -0.3602 -0.3396 0.3346, -0.36 -0.3417 0.3346, -0.359 -0.3449 0.3346, -0.3575 -0.3476 0.3346, -0.3572 -0.3315 0.3346, -0.3586 -0.3335 0.3346, -0.3598 -0.3364 0.3346, -0.3598 -0.337 0.3346, -0.3556 -0.3298 0.3346, -0.3568 -0.3308 0.3346, -0.3063 -0.3242 0.3346, -0.3093 -0.3206 0.3346, -0.3398 -0.3284 0.3346, -0.3096 -0.3203 0.3346, -0.3134 -0.3177 0.3346, -0.3378 -0.3242 0.3346, -0.3408 -0.3278 0.3346, -0.3043 -0.3285 0.3346, -0.3438 -0.3267 0.3346, -0.3469 -0.3264 0.3346, -0.3483 -0.3264 0.3346, -0.3348 -0.3206 0.3346, -0.3175 -0.3162 0.3346, -0.3313 -0.318 0.3346, -0.322 -0.3156 0.3346, -0.3269 -0.3162 0.3346, -0.3515 -0.3272 0.3346, -0.3545 -0.3288 0.3346, -0.3024 -0.3322 0.3346, -0.2939 -0.3366 0.3346, -0.2955 -0.3348 0.3346, -0.2975 -0.3334 0.3346, -0.2999 -0.3325 0.3346, -0.2878 -0.3315 0.3346, -0.286 -0.334 0.3346, -0.2848 -0.337 0.3346, -0.1981 -0.3262 0.3346, -0.2049 -0.3262 0.3346, -0.1962 -0.3313 0.3346, -0.2049 -0.3315 0.3346, -0.1935 -0.3313 0.3346, 0.3937 -0.3315 0.3346, 0.3937 -0.3125 0.3346, -0.2006 -0.3126 0.3346, -0.2049 -0.3125 0.3346, -0.2059 -0.3262 0.3346, -0.2076 -0.3313 0.3346, -0.2108 -0.3315 0.3346, -0.2103 -0.3313 0.3346, -0.2108 -0.3125 0.3346, -0.2049 -0.3172 0.3346, -0.2032 -0.3126 0.3346, -0.2327 -0.3229 0.3346, -0.2377 -0.3229 0.3346, -0.2327 -0.3292 0.3346, -0.2377 -0.3292 0.3346, -0.2283 -0.3125 0.3346, -0.2327 -0.3125 0.3346, -0.2305 -0.3126 0.3346, -0.2327 -0.3126 0.3346, -0.2305 -0.3148 0.3346, -0.2301 -0.3292 0.3346, -0.2283 -0.3315 0.3346, -0.2301 -0.3313 0.3346, -0.2327 -0.3315 0.3346, -0.231 -0.3229 0.3346, -0.231 -0.3208 0.3346, -0.2327 -0.3208 0.3346, -0.2327 -0.3148 0.3346, -0.2377 -0.3148 0.3346, -0.2377 -0.3208 0.3346, -0.2401 -0.3126 0.3346, -0.2412 -0.3125 0.3346, -0.2401 -0.3313 0.3346, -0.2439 -0.3131 0.3346, -0.2459 -0.3125 0.3346, -0.2463 -0.3125 0.3346, -0.2327 -0.3313 0.3346, -0.2439 -0.3156 0.3346, -0.2442 -0.3307 0.3346, -0.2483 -0.3145 0.3346, -0.2491 -0.3145 0.3346, -0.2504 -0.3293 0.3346, -0.2487 -0.3295 0.3346, -0.2478 -0.3295 0.3346, -0.2441 -0.3155 0.3346, -0.2457 -0.3291 0.3346, -0.2439 -0.3282 0.3346, -0.2439 -0.3306 0.3346, -0.246 -0.3148 0.3346, -0.2507 -0.3149 0.3346, -0.2522 -0.3156 0.3346, -0.2534 -0.3166 0.3346, -0.253 -0.328 0.3346, -0.2553 -0.323 0.3346, -0.2535 -0.3275 0.3346, -0.255 -0.3249 0.3346, -0.2544 -0.3263 0.3346, -0.2535 -0.3167 0.3346, -0.2544 -0.318 0.3346, -0.255 -0.3196 0.3346, -0.2553 -0.3222 0.3346, -0.2517 -0.3288 0.3346, -0.251 -0.3127 0.3346, -0.2496 -0.3125 0.3346, -0.257 -0.3125 0.3346, -0.257 -0.0174 0.3346, -0.2581 -0.0174 0.3346, -0.2483 -0.3123 0.3346, -0.2412 -0.0174 0.3346, -0.257 -0.318 0.3346, -0.2565 -0.3168 0.3346, -0.2552 -0.3151 0.3346, -0.2547 -0.3146 0.3346, -0.253 -0.3134 0.3346, -0.2578 -0.3214 0.3346, -0.2574 -0.3189 0.3346, -0.2581 -0.3125 0.3346, -0.257 -0.3266 0.3346, -0.2575 -0.3254 0.3346, -0.2581 -0.3315 0.3346, -0.2579 -0.3223 0.3346, -0.257 -0.3315 0.3346, -0.2525 -0.3311 0.3346, -0.2542 -0.3302 0.3346, -0.2555 -0.3291 0.3346, -0.2556 -0.3289 0.3346, -0.2567 -0.3273 0.3346, -0.2508 -0.3315 0.3346, -0.257 -0.337 0.3346, -0.2505 -0.3315 0.3346, -0.249 -0.3316 0.3346, -0.2412 -0.337 0.3346, -0.2119 -0.3251 0.3346, -0.2128 -0.3271 0.3346, -0.218 -0.3125 0.3346, -0.218 -0.3131 0.3346, -0.2161 -0.3138 0.3346, -0.218 -0.3308 0.3346, -0.218 -0.3315 0.3346, -0.2161 -0.3301 0.3346, -0.2142 -0.3287 0.3346, -0.2142 -0.3151 0.3346, -0.2135 -0.3158 0.3346, -0.2123 -0.3174 0.3346, -0.2117 -0.3192 0.3346, -0.2113 -0.3217 0.3346, -0.2114 -0.3229 0.3346, -0.2212 -0.3126 0.3346, -0.2184 -0.313 0.3346, -0.2183 -0.3309 0.3346, -0.2214 -0.3313 0.3346, -0.2266 -0.3313 0.3346, -0.2266 -0.3126 0.3346, -0.2498 -0.3608 0.3346, -0.2507 -0.3611 0.3346, -0.2478 -0.361 0.3346, -0.2552 -0.3546 0.3346, -0.2549 -0.3508 0.3346, -0.2557 -0.3552 0.3346, -0.256 -0.3561 0.3346, -0.249 -0.3603 0.3346, -0.2534 -0.3611 0.3346, -0.2543 -0.3608 0.3346, -0.257 -0.3611 0.3346, -0.2558 -0.3592 0.3346, -0.2561 -0.3585 0.3346, -0.2549 -0.3486 0.3346, -0.2544 -0.3483 0.3346, -0.2479 -0.3477 0.3346, -0.2419 -0.3496 0.3346, -0.2415 -0.349 0.3346, -0.2545 -0.354 0.3346, -0.2535 -0.3534 0.3346, -0.2535 -0.3499 0.3346, -0.2518 -0.353 0.3346, -0.2497 -0.3493 0.3346, -0.2505 -0.3492 0.3346, -0.252 -0.3494 0.3346, -0.255 -0.3602 0.3346, -0.2553 -0.36 0.3346, -0.2478 -0.3589 0.3346, -0.2479 -0.3589 0.3346, -0.2483 -0.3595 0.3346, -0.2527 -0.3476 0.3346, -0.2503 -0.3473 0.3346, -0.2489 -0.3474 0.3346, -0.2562 -0.3574 0.3346, -0.2562 -0.3571 0.3346, -0.2471 -0.3482 0.3346, -0.2465 -0.3488 0.3346, -0.2422 -0.3504 0.3346, -0.246 -0.3496 0.3346, -0.2456 -0.3506 0.3346, -0.2478 -0.3525 0.3346, -0.2479 -0.3514 0.3346, -0.2481 -0.3506 0.3346, -0.2484 -0.3501 0.3346, -0.2412 -0.3537 0.3346, -0.2423 -0.3581 0.3346, -0.2412 -0.3537 0.3346, -0.2414 -0.3586 0.3346, -0.2412 -0.3587 0.3346, -0.2416 -0.3533 0.3346, -0.2419 -0.3528 0.3346, -0.2455 -0.3524 0.3346, -0.2422 -0.3521 0.3346, -0.2423 -0.3512 0.3346, -0.2488 -0.3498 0.3346, -0.2492 -0.3495 0.3346, -0.2507 -0.3611 0.3346, -0.2412 -0.3685 0.3346, -0.257 -0.3685 0.3346, -0.252 -0.3613 0.3346, -0.2533 -0.3611 0.3346, -0.2423 -0.3605 0.3346, -0.2455 -0.361 0.3346, -0.2412 -0.3609 0.3346, -0.2412 -0.3611 0.3346, -0.2409 -0.361 0.3346, -0.24 -0.3611 0.3346, -0.2387 -0.3613 0.3346, -0.2339 -0.3479 0.3346, -0.2339 -0.3502 0.3346, -0.2408 -0.3484 0.3346, -0.24 -0.3479 0.3346, -0.2412 -0.3488 0.3346, -0.2334 -0.3583 0.3346, -0.2337 -0.359 0.3346, -0.2341 -0.3596 0.3346, -0.2387 -0.3475 0.3346, -0.2371 -0.3473 0.3346, -0.2327 -0.337 0.3346, -0.2355 -0.3475 0.3346, -0.2341 -0.3551 0.3346, -0.2336 -0.3558 0.3346, -0.2334 -0.3565 0.3346, -0.2333 -0.3573 0.3346, -0.2348 -0.3602 0.3346, -0.2354 -0.3606 0.3346, -0.2373 -0.3492 0.3346, -0.238 -0.3493 0.3346, -0.2399 -0.351 0.3346, -0.2386 -0.3494 0.3346, -0.2392 -0.3497 0.3346, -0.2399 -0.3513 0.3346, -0.2398 -0.3517 0.3346, -0.2396 -0.352 0.3346, -0.2394 -0.3523 0.3346, -0.2385 -0.3528 0.3346, -0.2358 -0.3494 0.3346, -0.2371 -0.3534 0.3346, -0.2345 -0.3499 0.3346, -0.2362 -0.3538 0.3346, -0.2346 -0.3546 0.3346, -0.2395 -0.35 0.3346, -0.2397 -0.3503 0.3346, -0.2398 -0.3506 0.3346, -0.2399 -0.3592 0.3346, -0.2387 -0.3551 0.3346, -0.2401 -0.3545 0.3346, -0.2385 -0.3594 0.3346, -0.2383 -0.3594 0.3346, -0.2372 -0.3557 0.3346, -0.2371 -0.3592 0.3346, -0.2357 -0.3576 0.3346, -0.2357 -0.3573 0.3346, -0.2365 -0.359 0.3346, -0.2363 -0.3589 0.3346, -0.2361 -0.3586 0.3346, -0.2359 -0.3583 0.3346, -0.2357 -0.358 0.3346, -0.2358 -0.3569 0.3346, -0.236 -0.3566 0.3346, -0.2363 -0.3563 0.3346, -0.2217 -0.3476 0.3346, -0.2193 -0.3476 0.3346, -0.218 -0.337 0.3346, -0.226 -0.3576 0.3346, -0.2257 -0.3587 0.3346, -0.2256 -0.3587 0.3346, -0.2283 -0.337 0.3346, -0.2283 -0.3509 0.3346, -0.2253 -0.3577 0.3346, -0.2255 -0.3583 0.3346, -0.2283 -0.3572 0.3346, -0.2321 -0.3476 0.3346, -0.2295 -0.3476 0.3346, -0.2268 -0.3609 0.3346, -0.2269 -0.3611 0.3346, -0.2279 -0.3634 0.3346, -0.2327 -0.3685 0.3346, -0.2316 -0.3671 0.3346, -0.2316 -0.365 0.3346, -0.2311 -0.3651 0.3346, -0.2303 -0.3652 0.3346, -0.2283 -0.3668 0.3346, -0.2291 -0.3671 0.3346, -0.2283 -0.3685 0.3346, -0.2301 -0.3672 0.3346, -0.2306 -0.3672 0.3346, -0.2297 -0.3652 0.3346, -0.2292 -0.365 0.3346, -0.2253 -0.363 0.3346, -0.2264 -0.365 0.3346, -0.218 -0.3685 0.3346, -0.2246 -0.3611 0.3346, -0.2272 -0.3661 0.3346, -0.2274 -0.3662 0.3346, -0.2282 -0.3668 0.3346, -0.2108 -0.3525 0.3346, -0.2143 -0.3525 0.3346, -0.2108 -0.3588 0.3346, -0.2143 -0.3588 0.3346, -0.2071 -0.3423 0.3346, -0.2071 -0.3444 0.3346, -0.2049 -0.337 0.3346, -0.2067 -0.3588 0.3346, -0.2049 -0.3611 0.3346, -0.2067 -0.361 0.3346, -0.2108 -0.3611 0.3346, -0.2076 -0.3525 0.3346, -0.2076 -0.3504 0.3346, -0.2108 -0.3504 0.3346, -0.2108 -0.3444 0.3346, -0.2143 -0.3444 0.3346, -0.2143 -0.3504 0.3346, -0.2108 -0.361 0.3346, -0.2167 -0.361 0.3346, -0.218 -0.3611 0.3346, -0.2167 -0.3423 0.3346, -0.2108 -0.3423 0.3346, -0.2108 -0.337 0.3346, -0.2731 0.3937 0.3346, -0.2581 0.3937 0.3346, -0.257 0.3937 0.3346, -0.2412 0.3937 0.3346, -0.2327 -0.0174 0.3346, -0.2327 0.3937 0.3346, -0.2283 -0.0174 0.3346, -0.2283 0.3937 0.3346, -0.218 -0.0174 0.3346, -0.218 0.3937 0.3346, -0.2108 -0.0174 0.3346, -0.2108 0.3937 0.3346, -0.2049 -0.0174 0.3346, -0.2049 0.3937 0.3346, 0.3937 -0.0174 0.3346, 0.3937 0.3937 0.3346, -0.2778 0.3053 0.3346, -0.2789 0.2969 0.3346, -0.2821 0.289 0.3346, -0.2873 0.2823 0.3346, -0.294 0.2772 0.3346, -0.3383 0.3215 0.3346, -0.3332 0.3282 0.3346, -0.3556 0.3937 0.3346, -0.3018 0.2739 0.3346, -0.3102 0.2728 0.3346, -0.3186 0.2739 0.3346, -0.3264 0.3333 0.3346, -0.3186 0.3366 0.3346, -0.3264 0.2772 0.3346, -0.3332 0.2823 0.3346, -0.3383 0.289 0.3346, -0.3416 0.2969 0.3346, -0.3427 0.3053 0.3346, -0.3416 0.3136 0.3346, -0.3102 0.3377 0.3346, -0.3018 0.3366 0.3346, -0.294 0.3333 0.3346, -0.2873 0.3282 0.3346, -0.2821 0.3215 0.3346, -0.2789 0.3136 0.3346, -0.3937 0.3937 0.3346, -0.3937 -0.0174 0.3346, -0.2586 -0.3292 0.3346, -0.2586 -0.3313 0.3346, -0.2685 -0.3313 0.3346, -0.2685 -0.3126 0.3346, -0.2661 -0.3126 0.3346, -0.2661 -0.3292 0.3346, -0.2581 -0.337 0.3346, -0.1842 -0.361 0.3346, -0.1869 -0.361 0.3346, 0.3937 -0.337 0.3346, -0.1772 -0.3423 0.3346, 0.3937 -0.3611 0.3346, -0.1701 -0.361 0.3346, -0.1728 -0.361 0.3346, -0.1747 -0.3559 0.3346, -0.1825 -0.3559 0.3346, -0.1798 -0.3423 0.3346, -0.1885 -0.3548 0.3346, -0.188 -0.3526 0.3346, -0.188 -0.3514 0.3346, -0.1883 -0.3488 0.3346, -0.1894 -0.3567 0.3346, -0.1908 -0.3583 0.3346, -0.1927 -0.3597 0.3346, -0.2032 -0.3423 0.3346, -0.2032 -0.361 0.3346, -0.198 -0.361 0.3346, -0.1949 -0.3606 0.3346, -0.1908 -0.3448 0.3346, -0.1901 -0.3454 0.3346, -0.189 -0.347 0.3346, -0.1978 -0.3423 0.3346, -0.195 -0.3426 0.3346, -0.1927 -0.3434 0.3346, -0.2581 -0.3611 0.3346, -0.2685 -0.361 0.3346, -0.2584 -0.361 0.3346, -0.2584 -0.3588 0.3346, -0.2589 -0.3444 0.3346, -0.2685 -0.3423 0.3346, -0.2589 -0.3423 0.3346, -0.2661 -0.3525 0.3346, -0.2661 -0.3588 0.3346, -0.2594 -0.3525 0.3346, -0.2594 -0.3504 0.3346, -0.2661 -0.3504 0.3346, -0.2661 -0.3444 0.3346, -0.2108 -0.3685 0.3346, -0.2049 -0.3685 0.3346, 0.3937 -0.3685 0.3346, -0.2581 -0.3685 0.3346, -0.2731 -0.3937 0.3346, -0.2581 -0.3937 0.3346, -0.257 -0.3937 0.3346, -0.2412 -0.3937 0.3346, -0.2327 -0.3937 0.3346, -0.2283 -0.3937 0.3346, -0.218 -0.3937 0.3346, -0.2108 -0.3937 0.3346, -0.2049 -0.3937 0.3346, 0.3937 -0.3937 0.3346, -0.3937 -0.3685 0.3346, -0.3937 -0.3937 0.3346, 0.3937 0.3937 0.0, 0.3937 -0.3937 0.0, -0.3937 0.3937 0.0, -0.3937 -0.3937 0.0, -0.3937 -0.3937 0.0
            ]
        }
        coordIndex [
            0,1,2,-1,3,4,5,-1,6,7,8,-1,9,10,11,-1,12,13,14,-1,14,13,15,-1,16,17,14,-1,14,17,18,-1,14,18,19,-1,19,20,14,-1,14,20,21,-1,14,21,12,-1,22,23,24,-1,24,23,25,-1,24,25,26,-1,27,28,29,-1,30,31,27,-1,27,31,32,-1,27,32,25,-1,25,32,33,-1,25,33,26,-1,27,29,30,-1,30,29,34,-1,30,34,35,-1,36,37,27,-1,27,37,38,-1,27,38,28,-1,39,40,41,-1,41,40,42,-1,41,42,43,-1,44,45,46,-1,44,46,47,-1,45,48,46,-1,46,48,49,-1,46,49,50,-1,50,49,51,-1,51,52,50,-1,50,52,53,-1,50,53,39,-1,39,53,54,-1,39,54,40,-1,55,56,57,-1,58,59,60,-1,60,59,61,-1,60,61,57,-1,57,61,62,-1,57,62,55,-1,63,64,65,-1,65,64,66,-1,65,66,67,-1,67,68,65,-1,65,68,69,-1,65,69,60,-1,60,69,70,-1,60,70,58,-1,71,72,63,-1,63,72,73,-1,73,74,63,-1,63,74,75,-1,63,75,64,-1,76,77,78,-1,79,80,81,-1,82,83,84,-1,85,86,87,-1,82,84,88,-1,85,87,89,-1,90,91,92,-1,93,94,81,-1,81,94,95,-1,81,95,96,-1,78,77,87,-1,87,77,97,-1,87,97,89,-1,98,96,99,-1,99,96,100,-1,83,101,84,-1,84,101,102,-1,84,102,103,-1,100,96,92,-1,92,96,104,-1,92,104,90,-1,98,105,96,-1,96,105,106,-1,96,106,81,-1,81,106,107,-1,81,107,79,-1,108,109,110,-1,110,109,111,-1,110,111,84,-1,84,111,112,-1,84,112,88,-1,113,114,84,-1,84,114,115,-1,84,115,81,-1,81,115,116,-1,81,116,93,-1,117,118,71,-1,71,118,119,-1,71,119,120,-1,120,121,71,-1,71,121,122,-1,71,122,123,-1,123,122,108,-1,123,108,124,-1,124,108,110,-1,86,125,87,-1,87,125,126,-1,87,126,71,-1,71,126,127,-1,71,127,117,-1,103,128,84,-1,84,128,129,-1,84,129,130,-1,130,131,84,-1,84,131,132,-1,84,132,113,-1,96,133,134,-1,134,135,96,-1,96,135,136,-1,96,136,104,-1,137,138,96,-1,138,139,96,-1,96,139,140,-1,96,140,133,-1,11,141,142,-1,143,144,145,-1,144,146,145,-1,145,146,147,-1,145,147,148,-1,11,145,149,-1,11,10,145,-1,145,10,150,-1,145,150,143,-1,149,151,11,-1,11,151,152,-1,11,152,153,-1,148,147,154,-1,154,147,155,-1,154,155,156,-1,156,155,157,-1,156,157,158,-1,153,159,11,-1,11,159,160,-1,11,160,141,-1,142,137,11,-1,11,137,96,-1,11,96,9,-1,9,96,95,-1,9,95,161,-1,161,95,162,-1,162,163,161,-1,161,163,164,-1,161,164,165,-1,13,166,15,-1,15,166,167,-1,15,167,78,-1,78,167,168,-1,78,168,76,-1,169,170,171,-1,171,170,172,-1,171,172,173,-1,174,175,176,-1,176,175,177,-1,170,178,172,-1,172,178,179,-1,172,179,180,-1,180,179,181,-1,180,181,182,-1,182,181,183,-1,182,183,177,-1,177,183,184,-1,177,184,176,-1,185,186,187,-1,187,186,188,-1,189,190,191,-1,191,190,192,-1,191,193,189,-1,189,193,194,-1,189,194,195,-1,195,194,196,-1,195,196,197,-1,185,187,198,-1,198,187,194,-1,198,194,199,-1,199,194,193,-1,199,193,200,-1,193,201,200,-1,200,201,202,-1,200,202,203,-1,192,190,204,-1,204,190,205,-1,204,205,206,-1,207,205,208,-1,208,205,209,-1,196,210,197,-1,197,210,206,-1,197,206,8,-1,8,206,205,-1,8,205,211,-1,211,205,207,-1,6,8,212,-1,213,214,215,-1,216,217,218,-1,218,217,219,-1,218,219,211,-1,211,219,220,-1,211,220,8,-1,8,220,221,-1,8,221,212,-1,216,218,215,-1,215,218,222,-1,215,222,213,-1,214,223,215,-1,215,223,224,-1,215,224,225,-1,226,227,228,-1,228,227,229,-1,228,229,230,-1,225,231,215,-1,215,231,232,-1,215,232,233,-1,233,234,215,-1,215,234,227,-1,215,227,235,-1,235,227,226,-1,236,237,238,-1,238,237,239,-1,238,239,240,-1,237,241,239,-1,239,241,209,-1,239,209,242,-1,243,244,238,-1,238,244,245,-1,245,246,238,-1,238,246,247,-1,238,247,236,-1,248,249,250,-1,251,252,253,-1,253,252,254,-1,248,250,254,-1,255,256,257,-1,257,258,255,-1,255,258,259,-1,255,259,260,-1,256,255,261,-1,261,255,262,-1,261,262,263,-1,263,262,264,-1,264,262,265,-1,264,265,7,-1,266,267,180,-1,268,269,182,-1,182,269,270,-1,271,272,273,-1,273,272,180,-1,273,180,274,-1,274,180,267,-1,270,275,182,-1,182,275,276,-1,182,276,277,-1,277,278,182,-1,182,278,279,-1,182,279,180,-1,180,279,280,-1,180,280,266,-1,189,281,268,-1,268,281,282,-1,268,282,269,-1,271,283,272,-1,272,283,284,-1,272,284,195,-1,195,284,285,-1,195,285,189,-1,189,285,286,-1,189,286,281,-1,287,288,289,-1,290,291,292,-1,292,291,293,-1,287,289,294,-1,295,296,297,-1,297,298,299,-1,262,300,301,-1,302,303,304,-1,290,305,291,-1,291,305,306,-1,291,306,307,-1,307,306,308,-1,309,310,308,-1,308,310,311,-1,308,311,307,-1,296,312,297,-1,297,312,313,-1,297,313,298,-1,314,315,289,-1,289,315,316,-1,289,316,294,-1,301,317,262,-1,262,317,318,-1,262,318,319,-1,299,320,297,-1,297,320,321,-1,297,321,262,-1,262,321,293,-1,262,293,300,-1,300,293,291,-1,302,322,303,-1,303,322,323,-1,303,323,324,-1,324,323,325,-1,324,325,326,-1,327,328,308,-1,308,328,329,-1,308,329,330,-1,331,332,333,-1,333,332,334,-1,333,334,335,-1,336,337,338,-1,338,337,339,-1,338,339,326,-1,326,339,340,-1,326,340,324,-1,330,341,308,-1,308,341,342,-1,308,342,309,-1,288,343,344,-1,344,343,345,-1,345,343,346,-1,345,346,347,-1,331,336,332,-1,332,336,338,-1,332,338,348,-1,348,338,349,-1,348,349,350,-1,350,349,351,-1,350,351,352,-1,352,351,353,-1,354,353,344,-1,344,353,351,-1,344,351,288,-1,288,351,349,-1,288,349,289,-1,355,356,5,-1,357,358,265,-1,319,302,262,-1,262,302,304,-1,262,304,265,-1,265,304,359,-1,265,359,357,-1,360,361,5,-1,5,361,362,-1,358,363,265,-1,265,363,364,-1,265,364,365,-1,365,364,366,-1,365,366,355,-1,367,368,356,-1,356,368,369,-1,356,369,5,-1,5,369,370,-1,5,370,360,-1,362,371,5,-1,5,371,372,-1,5,372,3,-1,373,374,375,-1,375,374,376,-1,375,376,377,-1,375,378,373,-1,373,378,379,-1,373,379,380,-1,380,381,373,-1,373,381,382,-1,373,382,383,-1,383,382,384,-1,383,384,385,-1,385,384,386,-1,385,386,356,-1,356,386,387,-1,356,387,367,-1,388,389,377,-1,377,389,390,-1,377,390,375,-1,391,392,335,-1,335,392,393,-1,335,393,333,-1,391,394,392,-1,392,394,395,-1,392,395,396,-1,396,395,397,-1,396,398,399,-1,397,400,396,-1,396,400,401,-1,396,401,402,-1,402,403,396,-1,396,403,404,-1,396,404,398,-1,399,405,396,-1,396,405,406,-1,396,406,407,-1,408,409,410,-1,411,412,413,-1,410,414,408,-1,408,414,415,-1,408,415,416,-1,416,415,411,-1,416,411,417,-1,417,411,413,-1,2,418,5,-1,5,418,419,-1,355,5,365,-1,365,5,419,-1,365,419,414,-1,414,419,420,-1,414,420,415,-1,421,418,422,-1,422,418,2,-1,422,2,423,-1,423,2,1,-1,424,425,426,-1,354,344,4,-1,4,344,424,-1,4,424,5,-1,5,424,426,-1,5,426,2,-1,2,426,427,-1,2,427,428,-1,429,430,431,-1,431,430,432,-1,431,432,424,-1,424,432,433,-1,424,433,425,-1,428,434,2,-1,2,434,435,-1,2,435,0,-1,436,437,438,-1,436,438,439,-1,437,440,438,-1,438,440,441,-1,438,441,431,-1,431,441,442,-1,431,442,429,-1,443,444,445,-1,445,444,446,-1,447,448,449,-1,449,448,450,-1,449,450,451,-1,451,450,452,-1,451,452,453,-1,443,445,454,-1,454,445,450,-1,454,450,455,-1,455,450,448,-1,455,448,456,-1,448,457,456,-1,456,457,458,-1,456,458,459,-1,452,460,453,-1,453,460,461,-1,453,461,462,-1,462,461,463,-1,447,449,464,-1,464,449,465,-1,464,465,463,-1,463,465,410,-1,463,410,462,-1,462,410,409,-1,462,409,439,-1,466,240,467,-1,467,240,239,-1,467,239,468,-1,468,239,242,-1,468,242,469,-1,469,242,470,-1,469,470,471,-1,471,470,472,-1,471,472,473,-1,473,472,474,-1,473,474,475,-1,475,474,476,-1,475,476,477,-1,477,476,478,-1,477,478,479,-1,479,478,480,-1,479,480,481,-1,482,483,23,-1,483,484,23,-1,23,484,485,-1,23,485,486,-1,487,488,489,-1,486,490,23,-1,23,490,491,-1,23,491,25,-1,25,491,492,-1,488,493,489,-1,489,493,494,-1,489,494,466,-1,492,495,25,-1,25,495,496,-1,25,496,497,-1,497,498,25,-1,25,498,499,-1,25,499,489,-1,489,499,500,-1,489,500,487,-1,494,501,466,-1,466,501,502,-1,466,502,503,-1,503,504,466,-1,466,504,505,-1,466,505,506,-1,209,205,242,-1,242,205,190,-1,242,190,470,-1,470,190,189,-1,470,189,472,-1,472,189,268,-1,472,268,474,-1,474,268,182,-1,474,182,476,-1,476,182,177,-1,476,177,478,-1,478,177,175,-1,478,175,480,-1,506,482,466,-1,466,482,23,-1,466,23,240,-1,240,23,250,-1,240,250,238,-1,238,250,249,-1,238,249,243,-1,489,507,25,-1,25,507,508,-1,25,508,27,-1,27,508,41,-1,27,41,36,-1,36,41,43,-1,254,250,253,-1,253,250,509,-1,253,509,510,-1,15,511,14,-1,14,511,512,-1,14,512,513,-1,514,509,513,-1,513,509,250,-1,513,250,14,-1,14,250,23,-1,14,23,16,-1,16,23,22,-1,7,265,8,-1,8,265,365,-1,8,365,197,-1,197,365,414,-1,197,414,195,-1,195,414,410,-1,195,410,272,-1,272,410,465,-1,272,465,180,-1,180,465,449,-1,180,449,172,-1,510,511,253,-1,253,511,15,-1,253,15,515,-1,515,15,78,-1,516,517,451,-1,518,519,520,-1,520,519,521,-1,520,521,451,-1,451,521,522,-1,451,522,516,-1,516,522,523,-1,516,523,524,-1,176,173,174,-1,174,173,172,-1,174,172,518,-1,518,172,449,-1,518,449,519,-1,519,449,525,-1,526,517,527,-1,527,517,525,-1,527,525,528,-1,528,525,529,-1,526,530,517,-1,517,530,531,-1,517,531,532,-1,533,449,534,-1,534,449,451,-1,534,451,535,-1,535,451,517,-1,535,517,536,-1,536,517,532,-1,537,538,525,-1,525,538,539,-1,525,539,529,-1,533,540,449,-1,449,540,541,-1,449,541,525,-1,525,541,542,-1,525,542,537,-1,260,251,255,-1,255,251,253,-1,255,253,262,-1,262,253,515,-1,262,515,297,-1,297,515,543,-1,87,543,544,-1,544,543,545,-1,545,543,546,-1,546,543,515,-1,546,515,547,-1,87,544,78,-1,78,544,548,-1,78,548,515,-1,515,548,549,-1,515,549,547,-1,550,551,552,-1,552,551,546,-1,552,546,553,-1,553,546,547,-1,553,547,554,-1,554,547,555,-1,439,438,462,-1,462,438,556,-1,462,556,453,-1,453,556,557,-1,453,557,451,-1,451,557,558,-1,451,558,520,-1,71,63,87,-1,87,63,559,-1,87,559,543,-1,543,559,345,-1,543,345,297,-1,297,345,347,-1,297,347,295,-1,65,560,63,-1,63,560,561,-1,63,561,559,-1,559,561,562,-1,559,562,345,-1,345,562,563,-1,345,563,344,-1,344,563,564,-1,344,564,424,-1,424,564,565,-1,424,565,431,-1,431,565,566,-1,431,566,438,-1,438,566,567,-1,438,567,556,-1,556,567,568,-1,556,568,557,-1,557,568,569,-1,557,569,558,-1,56,47,57,-1,57,47,46,-1,57,46,60,-1,60,46,570,-1,60,570,65,-1,65,570,571,-1,481,569,572,-1,572,569,573,-1,507,481,574,-1,574,481,572,-1,571,507,575,-1,575,507,574,-1,569,571,573,-1,573,571,575,-1,575,574,573,-1,573,574,572,-1,
        ]
    }
}
Shape{
    appearance Appearance {
        material  Material 	{
            diffuseColor 1.0 1.0 1.0
            specularColor 0.5019607843137255 0.5019607843137255 0.5019607843137255
            ambientIntensity 0.2
            transparency 0
            shininess 0.5
        }
    }
    geometry IndexedFaceSet {
        ccw TRUE
        solid FALSE
        coord DEF co Coordinate {
            point [
                -0.2778 0.3053 0.3307, -0.2778 0.3053 0.3346, -0.2789 0.3136 0.3307, -0.2789 0.3136 0.3346, -0.2821 0.3215 0.3307, -0.2821 0.3215 0.3346, -0.2873 0.3282 0.3307, -0.2873 0.3282 0.3346, -0.294 0.3333 0.3307, -0.294 0.3333 0.3346, -0.3018 0.3366 0.3307, -0.3018 0.3366 0.3346, -0.3102 0.3377 0.3307, -0.3102 0.3377 0.3346, -0.3186 0.3366 0.3307, -0.3186 0.3366 0.3346, -0.3264 0.3333 0.3307, -0.3264 0.3333 0.3346, -0.3332 0.3282 0.3307, -0.3332 0.3282 0.3346, -0.3383 0.3215 0.3307, -0.3383 0.3215 0.3346, -0.3416 0.3136 0.3307, -0.3416 0.3136 0.3346, -0.3427 0.3053 0.3307, -0.3427 0.3053 0.3346, -0.3416 0.2969 0.3307, -0.3416 0.2969 0.3346, -0.3383 0.289 0.3307, -0.3383 0.289 0.3346, -0.3332 0.2823 0.3307, -0.3332 0.2823 0.3346, -0.3264 0.2772 0.3307, -0.3264 0.2772 0.3346, -0.3186 0.2739 0.3307, -0.3186 0.2739 0.3346, -0.3102 0.2728 0.3307, -0.3102 0.2728 0.3346, -0.3018 0.2739 0.3307, -0.3018 0.2739 0.3346, -0.294 0.2772 0.3307, -0.294 0.2772 0.3346, -0.2873 0.2823 0.3307, -0.2873 0.2823 0.3346, -0.2821 0.289 0.3307, -0.2821 0.289 0.3346, -0.2789 0.2969 0.3307, -0.2789 0.2969 0.3346, -0.3102 0.3053 0.3307, -0.2586 -0.3292 0.3386, -0.2586 -0.3313 0.3386, -0.2586 -0.3292 0.3346, -0.2586 -0.3313 0.3346, -0.2661 -0.3292 0.3386, -0.2661 -0.3292 0.3346, -0.2661 -0.3126 0.3386, -0.2661 -0.3126 0.3346, -0.2685 -0.3126 0.3386, -0.2685 -0.3126 0.3346, -0.2685 -0.3313 0.3386, -0.2685 -0.3313 0.3346, -0.249 -0.3316 0.3346, -0.2474 -0.3315 0.3346, -0.249 -0.3316 0.3386, -0.2462 -0.3314 0.3386, -0.2462 -0.3314 0.3346, -0.2442 -0.3307 0.3346, -0.2442 -0.3307 0.3386, -0.2439 -0.3306 0.3346, -0.2439 -0.3306 0.3386, -0.2439 -0.3282 0.3386, -0.2439 -0.3282 0.3346, -0.2457 -0.3291 0.3346, -0.2457 -0.3291 0.3386, -0.2478 -0.3295 0.3346, -0.2478 -0.3295 0.3386, -0.2487 -0.3295 0.3346, -0.2487 -0.3295 0.3386, -0.2504 -0.3293 0.3346, -0.2504 -0.3293 0.3386, -0.2517 -0.3288 0.3346, -0.2517 -0.3288 0.3386, -0.253 -0.328 0.3346, -0.253 -0.328 0.3386, -0.2535 -0.3275 0.3346, -0.2535 -0.3275 0.3386, -0.2544 -0.3263 0.3346, -0.2544 -0.3263 0.3386, -0.255 -0.3249 0.3346, -0.255 -0.3249 0.3386, -0.2553 -0.323 0.3346, -0.2553 -0.323 0.3386, -0.2553 -0.3222 0.3346, -0.2553 -0.3222 0.3386, -0.255 -0.3196 0.3346, -0.255 -0.3196 0.3386, -0.2544 -0.318 0.3346, -0.2544 -0.318 0.3386, -0.2535 -0.3167 0.3346, -0.2535 -0.3167 0.3386, -0.2534 -0.3166 0.3346, -0.2534 -0.3166 0.3386, -0.2522 -0.3156 0.3346, -0.2522 -0.3156 0.3386, -0.2507 -0.3149 0.3346, -0.2507 -0.3149 0.3386, -0.2491 -0.3145 0.3346, -0.2491 -0.3145 0.3386, -0.2483 -0.3145 0.3346, -0.2483 -0.3145 0.3386, -0.246 -0.3148 0.3346, -0.246 -0.3148 0.3386, -0.2441 -0.3155 0.3346, -0.2441 -0.3155 0.3386, -0.2439 -0.3156 0.3346, -0.2439 -0.3156 0.3386, -0.2439 -0.3131 0.3386, -0.2439 -0.3131 0.3346, -0.2483 -0.3123 0.3346, -0.2483 -0.3123 0.3386, -0.2463 -0.3125 0.3346, -0.2459 -0.3125 0.3386, -0.2459 -0.3125 0.3346, -0.2496 -0.3125 0.3346, -0.251 -0.3127 0.3386, -0.251 -0.3127 0.3346, -0.253 -0.3134 0.3346, -0.253 -0.3134 0.3386, -0.2547 -0.3146 0.3346, -0.2547 -0.3146 0.3386, -0.2552 -0.3151 0.3346, -0.2552 -0.3151 0.3386, -0.2565 -0.3168 0.3346, -0.2565 -0.3168 0.3386, -0.257 -0.318 0.3346, -0.2574 -0.3189 0.3386, -0.2574 -0.3189 0.3346, -0.2578 -0.3214 0.3346, -0.2578 -0.3214 0.3386, -0.2579 -0.3223 0.3346, -0.2579 -0.3223 0.3386, -0.2575 -0.3254 0.3346, -0.2575 -0.3254 0.3386, -0.257 -0.3266 0.3346, -0.2567 -0.3273 0.3386, -0.2567 -0.3273 0.3346, -0.2556 -0.3289 0.3346, -0.2556 -0.3289 0.3386, -0.2555 -0.3291 0.3346, -0.2555 -0.3291 0.3386, -0.2505 -0.3315 0.3386, -0.2542 -0.3302 0.3346, -0.2542 -0.3302 0.3386, -0.2525 -0.3311 0.3346, -0.2525 -0.3311 0.3386, -0.2508 -0.3315 0.3346, -0.2505 -0.3315 0.3346, -0.2301 -0.3292 0.3386, -0.2301 -0.3313 0.3386, -0.2301 -0.3292 0.3346, -0.2301 -0.3313 0.3346, -0.2377 -0.3292 0.3346, -0.2377 -0.3292 0.3386, -0.2327 -0.3292 0.3346, -0.2377 -0.3229 0.3386, -0.2377 -0.3229 0.3346, -0.231 -0.3229 0.3346, -0.231 -0.3229 0.3386, -0.2327 -0.3229 0.3346, -0.231 -0.3208 0.3386, -0.231 -0.3208 0.3346, -0.2377 -0.3208 0.3346, -0.2377 -0.3208 0.3386, -0.2327 -0.3208 0.3346, -0.2377 -0.3148 0.3386, -0.2377 -0.3148 0.3346, -0.2305 -0.3148 0.3346, -0.2305 -0.3148 0.3386, -0.2327 -0.3148 0.3346, -0.2305 -0.3126 0.3386, -0.2305 -0.3126 0.3346, -0.2401 -0.3126 0.3346, -0.2401 -0.3126 0.3386, -0.2327 -0.3126 0.3346, -0.2401 -0.3313 0.3386, -0.2401 -0.3313 0.3346, -0.2327 -0.3313 0.3346, -0.2142 -0.3287 0.3386, -0.2161 -0.3275 0.3386, -0.2161 -0.3301 0.3386, -0.2173 -0.3283 0.3386, -0.2183 -0.3309 0.3386, -0.2189 -0.3289 0.3386, -0.2214 -0.3313 0.3386, -0.2214 -0.3292 0.3386, -0.2266 -0.3313 0.3386, -0.2241 -0.3292 0.3386, -0.2266 -0.3126 0.3386, -0.2241 -0.3148 0.3386, -0.2212 -0.3126 0.3386, -0.2213 -0.3148 0.3386, -0.2212 -0.3148 0.3386, -0.2184 -0.313 0.3386, -0.2188 -0.3151 0.3386, -0.2161 -0.3138 0.3386, -0.2172 -0.3157 0.3386, -0.2142 -0.3151 0.3386, -0.2159 -0.3165 0.3386, -0.2135 -0.3158 0.3386, -0.2154 -0.3171 0.3386, -0.2123 -0.3174 0.3386, -0.2147 -0.3181 0.3386, -0.2117 -0.3192 0.3386, -0.2142 -0.3195 0.3386, -0.2113 -0.3217 0.3386, -0.2139 -0.3218 0.3386, -0.2114 -0.3229 0.3386, -0.214 -0.3231 0.3386, -0.2119 -0.3251 0.3386, -0.2143 -0.3248 0.3386, -0.2128 -0.3271 0.3386, -0.215 -0.3261 0.3386, -0.2159 -0.3272 0.3386, -0.2214 -0.3313 0.3346, -0.2266 -0.3313 0.3346, -0.2142 -0.3287 0.3346, -0.2183 -0.3309 0.3346, -0.218 -0.3308 0.3346, -0.2161 -0.3301 0.3346, -0.2128 -0.3271 0.3346, -0.2119 -0.3251 0.3346, -0.2114 -0.3229 0.3346, -0.2113 -0.3217 0.3346, -0.2117 -0.3192 0.3346, -0.2123 -0.3174 0.3346, -0.2135 -0.3158 0.3346, -0.2142 -0.3151 0.3346, -0.2212 -0.3126 0.3346, -0.2161 -0.3138 0.3346, -0.218 -0.3131 0.3346, -0.2184 -0.313 0.3346, -0.2266 -0.3126 0.3346, -0.2213 -0.3148 0.3346, -0.2241 -0.3148 0.3346, -0.2241 -0.3292 0.3346, -0.2214 -0.3292 0.3346, -0.2159 -0.3272 0.3346, -0.2161 -0.3275 0.3346, -0.2173 -0.3283 0.3346, -0.2189 -0.3289 0.3346, -0.2139 -0.3218 0.3346, -0.214 -0.3231 0.3346, -0.2143 -0.3248 0.3346, -0.215 -0.3261 0.3346, -0.2159 -0.3165 0.3346, -0.2154 -0.3171 0.3346, -0.2147 -0.3181 0.3346, -0.2142 -0.3195 0.3346, -0.2212 -0.3148 0.3346, -0.2188 -0.3151 0.3346, -0.2172 -0.3157 0.3346, -0.2172 -0.3157 0.3346
            ]
        }
        coordIndex [
            0,1,2,-1,2,1,3,-1,2,3,4,-1,4,3,5,-1,4,5,6,-1,6,5,7,-1,6,7,8,-1,8,7,9,-1,8,9,10,-1,10,9,11,-1,10,11,12,-1,12,11,13,-1,12,13,14,-1,14,13,15,-1,14,15,16,-1,16,15,17,-1,16,17,18,-1,18,17,19,-1,18,19,20,-1,20,19,21,-1,20,21,22,-1,22,21,23,-1,22,23,24,-1,24,23,25,-1,24,25,26,-1,26,25,27,-1,26,27,28,-1,28,27,29,-1,28,29,30,-1,30,29,31,-1,30,31,32,-1,32,31,33,-1,32,33,34,-1,34,33,35,-1,34,35,36,-1,36,35,37,-1,36,37,38,-1,38,37,39,-1,38,39,40,-1,40,39,41,-1,40,41,42,-1,42,41,43,-1,42,43,44,-1,44,43,45,-1,44,45,46,-1,46,45,47,-1,46,47,0,-1,0,47,1,-1,44,46,48,-1,48,46,0,-1,48,0,2,-1,38,40,48,-1,48,40,42,-1,48,42,44,-1,32,34,48,-1,48,34,36,-1,48,36,38,-1,26,28,48,-1,48,28,30,-1,48,30,32,-1,20,22,48,-1,48,22,24,-1,48,24,26,-1,14,16,48,-1,48,16,18,-1,48,18,20,-1,8,10,48,-1,48,10,12,-1,48,12,14,-1,2,4,48,-1,48,4,6,-1,48,6,8,-1,49,50,51,-1,51,50,52,-1,53,49,54,-1,54,49,51,-1,55,53,56,-1,56,53,54,-1,57,55,58,-1,58,55,56,-1,59,57,60,-1,60,57,58,-1,50,59,52,-1,52,59,60,-1,55,57,53,-1,53,57,59,-1,53,59,49,-1,49,59,50,-1,61,62,63,-1,63,62,64,-1,62,65,64,-1,64,65,66,-1,64,66,67,-1,67,66,68,-1,67,68,69,-1,70,69,71,-1,71,69,68,-1,70,71,72,-1,70,72,73,-1,73,72,74,-1,73,74,75,-1,75,74,76,-1,75,76,77,-1,77,76,78,-1,77,78,79,-1,79,78,80,-1,79,80,81,-1,81,80,82,-1,81,82,83,-1,83,82,84,-1,83,84,85,-1,85,84,86,-1,85,86,87,-1,87,86,88,-1,87,88,89,-1,89,88,90,-1,89,90,91,-1,91,90,92,-1,91,92,93,-1,93,92,94,-1,93,94,95,-1,95,94,96,-1,95,96,97,-1,97,96,98,-1,97,98,99,-1,99,98,100,-1,99,100,101,-1,101,100,102,-1,101,102,103,-1,103,102,104,-1,103,104,105,-1,105,104,106,-1,105,106,107,-1,107,106,108,-1,107,108,109,-1,109,108,110,-1,109,110,111,-1,111,110,112,-1,111,112,113,-1,113,112,114,-1,113,114,115,-1,116,115,117,-1,117,115,114,-1,118,119,120,-1,120,119,121,-1,120,121,122,-1,122,121,116,-1,122,116,117,-1,119,118,123,-1,119,123,124,-1,123,125,124,-1,124,125,126,-1,124,126,127,-1,127,126,128,-1,127,128,129,-1,129,128,130,-1,129,130,131,-1,131,130,132,-1,131,132,133,-1,133,132,134,-1,133,134,135,-1,134,136,135,-1,135,136,137,-1,135,137,138,-1,138,137,139,-1,138,139,140,-1,140,139,141,-1,140,141,142,-1,142,141,143,-1,142,143,144,-1,143,145,144,-1,144,145,146,-1,144,146,147,-1,147,146,148,-1,147,148,149,-1,61,63,150,-1,149,148,151,-1,149,151,152,-1,152,151,153,-1,152,153,154,-1,154,153,155,-1,154,155,150,-1,150,155,156,-1,150,156,61,-1,95,97,133,-1,133,97,131,-1,140,93,138,-1,138,93,95,-1,138,95,135,-1,135,95,133,-1,97,99,131,-1,131,99,101,-1,131,101,129,-1,129,101,103,-1,129,103,127,-1,127,103,124,-1,124,103,105,-1,124,105,119,-1,69,70,67,-1,67,70,73,-1,67,73,64,-1,64,73,75,-1,64,75,63,-1,63,75,77,-1,63,77,150,-1,150,77,79,-1,150,79,154,-1,154,79,81,-1,154,81,152,-1,152,81,83,-1,152,83,149,-1,149,83,85,-1,149,85,147,-1,147,85,87,-1,147,87,144,-1,144,87,142,-1,142,87,89,-1,142,89,140,-1,140,89,91,-1,140,91,93,-1,105,107,119,-1,119,107,109,-1,119,109,121,-1,121,109,111,-1,121,111,116,-1,116,111,113,-1,116,113,115,-1,157,158,159,-1,159,158,160,-1,161,162,163,-1,163,162,157,-1,163,157,159,-1,164,162,165,-1,165,162,161,-1,166,167,168,-1,168,167,164,-1,168,164,165,-1,169,167,170,-1,170,167,166,-1,171,172,173,-1,173,172,169,-1,173,169,170,-1,174,172,175,-1,175,172,171,-1,176,177,178,-1,178,177,174,-1,178,174,175,-1,179,177,180,-1,180,177,176,-1,181,182,183,-1,183,182,179,-1,183,179,180,-1,184,182,185,-1,185,182,181,-1,184,185,158,-1,158,185,186,-1,158,186,160,-1,184,158,157,-1,157,162,184,-1,184,162,164,-1,184,164,182,-1,177,179,174,-1,174,179,182,-1,174,182,172,-1,172,182,164,-1,172,164,169,-1,169,164,167,-1,187,188,189,-1,189,188,190,-1,189,190,191,-1,191,190,192,-1,191,192,193,-1,193,192,194,-1,193,194,195,-1,195,194,196,-1,195,196,197,-1,197,196,198,-1,197,198,199,-1,198,200,199,-1,199,200,201,-1,199,201,202,-1,202,201,203,-1,202,203,204,-1,204,203,205,-1,204,205,206,-1,206,205,207,-1,206,207,208,-1,208,207,209,-1,208,209,210,-1,210,209,211,-1,210,211,212,-1,212,211,213,-1,212,213,214,-1,214,213,215,-1,214,215,216,-1,216,215,217,-1,216,217,218,-1,218,217,219,-1,218,219,220,-1,220,219,221,-1,220,221,187,-1,187,221,222,-1,187,222,188,-1,193,195,223,-1,223,195,224,-1,225,187,189,-1,193,223,226,-1,193,226,191,-1,191,226,227,-1,191,227,189,-1,189,227,228,-1,189,228,225,-1,187,225,229,-1,187,229,220,-1,220,229,230,-1,220,230,218,-1,218,230,231,-1,218,231,216,-1,216,231,232,-1,216,232,214,-1,214,232,233,-1,214,233,212,-1,212,233,234,-1,212,234,210,-1,210,234,235,-1,210,235,208,-1,208,235,236,-1,208,236,206,-1,237,199,202,-1,206,236,238,-1,206,238,204,-1,204,238,239,-1,204,239,202,-1,202,239,240,-1,202,240,237,-1,197,199,241,-1,241,199,237,-1,195,197,224,-1,224,197,241,-1,200,198,242,-1,242,198,243,-1,198,196,243,-1,243,196,244,-1,196,194,244,-1,244,194,245,-1,222,246,247,-1,222,247,188,-1,188,247,248,-1,188,248,190,-1,190,248,249,-1,190,249,192,-1,192,249,245,-1,192,245,194,-1,215,250,251,-1,215,251,217,-1,217,251,252,-1,217,252,219,-1,219,252,253,-1,219,253,221,-1,221,253,246,-1,221,246,222,-1,207,254,255,-1,207,255,209,-1,209,255,256,-1,209,256,211,-1,211,256,257,-1,211,257,213,-1,213,257,250,-1,213,250,215,-1,200,242,258,-1,200,258,201,-1,201,258,259,-1,201,259,203,-1,203,259,260,-1,203,260,205,-1,205,260,254,-1,205,254,207,-1,
        ]
    }
}
Shape{
    appearance Appearance {
        material  Material 	{
            diffuseColor 0.25098039215686274 0.25098039215686274 0.25098039215686274
            specularColor 0.12549019607843137 0.12549019607843137 0.12549019607843137
            ambientIntensity 0.2
            transparency 0
            shininess 0.5
        }
    }
    geometry IndexedFaceSet {
        ccw TRUE
        solid FALSE
        coord DEF co Coordinate {
            point [
                -0.2173 -0.3283 0.3346, -0.2161 -0.3275 0.3346, -0.2212 -0.3148 0.3346, -0.2241 -0.3148 0.3346, -0.2241 -0.3292 0.3346, -0.2213 -0.3148 0.3346, -0.2214 -0.3292 0.3346, -0.2189 -0.3289 0.3346, -0.2159 -0.3272 0.3346, -0.215 -0.3261 0.3346, -0.2143 -0.3248 0.3346, -0.2139 -0.3218 0.3346, -0.2159 -0.3165 0.3346, -0.2172 -0.3157 0.3346, -0.2142 -0.3195 0.3346, -0.2147 -0.3181 0.3346, -0.2154 -0.3171 0.3346, -0.214 -0.3231 0.3346, -0.2188 -0.3151 0.3346, -0.2188 -0.3151 0.3346
            ]
        }
        coordIndex [
            0,1,2,-1,3,4,5,-1,5,4,6,-1,5,6,2,-1,2,6,7,-1,2,7,0,-1,1,8,2,-1,2,8,9,-1,2,9,10,-1,11,12,13,-1,14,15,11,-1,11,15,16,-1,11,16,12,-1,10,17,2,-1,2,17,11,-1,2,11,18,-1,18,11,13,-1,
        ]
    }
}
Shape{
    appearance Appearance {
        material  Material 	{
            diffuseColor 1.0 1.0 1.0
            specularColor 0.5019607843137255 0.5019607843137255 0.5019607843137255
            ambientIntensity 0.2
            transparency 0
            shininess 0.5
        }
    }
    geometry IndexedFaceSet {
        ccw TRUE
        solid FALSE
        coord DEF co Coordinate {
            point [
                -0.2051 -0.3241 0.3386, -0.2059 -0.3262 0.3386, -0.1988 -0.3241 0.3386, -0.1981 -0.3262 0.3386, -0.2023 -0.3163 0.3386, -0.2032 -0.3126 0.3386, -0.2103 -0.3313 0.3386, -0.2076 -0.3313 0.3386, -0.2021 -0.3158 0.3386, -0.202 -0.315 0.3386, -0.2006 -0.3126 0.3386, -0.2019 -0.315 0.3386, -0.2018 -0.3158 0.3386, -0.2016 -0.3163 0.3386, -0.1935 -0.3313 0.3386, -0.1962 -0.3313 0.3386, -0.2006 -0.3126 0.3346, -0.1935 -0.3313 0.3346, -0.2032 -0.3126 0.3346, -0.2103 -0.3313 0.3346, -0.2049 -0.3172 0.3346, -0.2076 -0.3313 0.3346, -0.2059 -0.3262 0.3346, -0.1981 -0.3262 0.3346, -0.2049 -0.3262 0.3346, -0.1962 -0.3313 0.3346, -0.2051 -0.3241 0.3346, -0.1988 -0.3241 0.3346, -0.2016 -0.3163 0.3346, -0.2019 -0.315 0.3346, -0.2018 -0.3158 0.3346, -0.202 -0.315 0.3346, -0.2023 -0.3163 0.3346, -0.2021 -0.3158 0.3346, -0.2021 -0.3158 0.3346
            ]
        }
        coordIndex [
            0,1,2,-1,2,1,3,-1,4,5,0,-1,0,5,6,-1,0,6,1,-1,1,6,7,-1,4,8,5,-1,5,8,9,-1,5,9,10,-1,10,9,11,-1,10,11,12,-1,12,13,10,-1,10,13,2,-1,10,2,14,-1,14,2,3,-1,14,3,15,-1,10,14,16,-1,16,14,17,-1,5,10,18,-1,18,10,16,-1,19,6,20,-1,20,6,5,-1,20,5,18,-1,7,6,21,-1,21,6,19,-1,1,7,22,-1,22,7,21,-1,23,3,24,-1,24,3,1,-1,24,1,22,-1,15,3,25,-1,25,3,23,-1,14,15,17,-1,17,15,25,-1,0,2,26,-1,26,2,27,-1,2,13,27,-1,27,13,28,-1,11,29,30,-1,11,30,12,-1,12,30,28,-1,12,28,13,-1,11,9,29,-1,29,9,31,-1,4,32,33,-1,4,33,8,-1,8,33,31,-1,8,31,9,-1,4,0,32,-1,32,0,26,-1,
        ]
    }
}
Shape{
    appearance Appearance {
        material  Material 	{
            diffuseColor 0.25098039215686274 0.25098039215686274 0.25098039215686274
            specularColor 0.12549019607843137 0.12549019607843137 0.12549019607843137
            ambientIntensity 0.2
            transparency 0
            shininess 0.5
        }
    }
    geometry IndexedFaceSet {
        ccw TRUE
        solid FALSE
        coord DEF co Coordinate {
            point [
                -0.2019 -0.315 0.3346, -0.202 -0.315 0.3346, -0.2018 -0.3158 0.3346, -0.2021 -0.3158 0.3346, -0.2016 -0.3163 0.3346, -0.2023 -0.3163 0.3346, -0.1988 -0.3241 0.3346, -0.2051 -0.3241 0.3346, -0.2051 -0.3241 0.3346
            ]
        }
        coordIndex [
            0,1,2,-1,2,1,3,-1,2,3,4,-1,4,3,5,-1,4,5,6,-1,6,5,7,-1,
        ]
    }
}
Shape{
    appearance Appearance {
        material  Material 	{
            diffuseColor 1.0 1.0 1.0
            specularColor 0.5019607843137255 0.5019607843137255 0.5019607843137255
            ambientIntensity 0.2
            transparency 0
            shininess 0.5
        }
    }
    geometry IndexedFaceSet {
        ccw TRUE
        solid FALSE
        coord DEF co Coordinate {
            point [
                -0.2584 -0.3588 0.3386, -0.2584 -0.361 0.3386, -0.2584 -0.3588 0.3346, -0.2584 -0.361 0.3346, -0.2661 -0.3588 0.3386, -0.2661 -0.3588 0.3346, -0.2661 -0.3525 0.3386, -0.2661 -0.3525 0.3346, -0.2594 -0.3525 0.3386, -0.2594 -0.3525 0.3346, -0.2594 -0.3504 0.3386, -0.2594 -0.3504 0.3346, -0.2661 -0.3504 0.3386, -0.2661 -0.3504 0.3346, -0.2661 -0.3444 0.3386, -0.2661 -0.3444 0.3346, -0.2589 -0.3444 0.3386, -0.2589 -0.3444 0.3346, -0.2589 -0.3423 0.3386, -0.2589 -0.3423 0.3346, -0.2685 -0.3423 0.3386, -0.2685 -0.3423 0.3346, -0.2685 -0.361 0.3386, -0.2685 -0.361 0.3346, -0.2478 -0.361 0.3386, -0.2455 -0.361 0.3386, -0.2478 -0.3589 0.3386, -0.2455 -0.3524 0.3386, -0.2478 -0.3525 0.3386, -0.2529 -0.3553 0.3386, -0.2524 -0.355 0.3386, -0.2479 -0.3589 0.3386, -0.2491 -0.3586 0.3386, -0.2483 -0.3595 0.3386, -0.2498 -0.359 0.3386, -0.2509 -0.3547 0.3386, -0.2478 -0.3543 0.3386, -0.2478 -0.3555 0.3386, -0.2478 -0.3557 0.3386, -0.248 -0.3567 0.3386, -0.2483 -0.3576 0.3386, -0.2488 -0.3583 0.3386, -0.2479 -0.3514 0.3386, -0.2456 -0.3506 0.3386, -0.2481 -0.3506 0.3386, -0.246 -0.3496 0.3386, -0.2484 -0.3501 0.3386, -0.2465 -0.3488 0.3386, -0.2488 -0.3498 0.3386, -0.2471 -0.3482 0.3386, -0.2492 -0.3495 0.3386, -0.2479 -0.3477 0.3386, -0.2497 -0.3493 0.3386, -0.2489 -0.3474 0.3386, -0.2505 -0.3492 0.3386, -0.2503 -0.3473 0.3386, -0.252 -0.3494 0.3386, -0.2527 -0.3476 0.3386, -0.2535 -0.3499 0.3386, -0.2544 -0.3483 0.3386, -0.2549 -0.3508 0.3386, -0.2549 -0.3486 0.3386, -0.2533 -0.3586 0.3386, -0.255 -0.3602 0.3386, -0.2531 -0.3588 0.3386, -0.2543 -0.3608 0.3386, -0.2527 -0.3591 0.3386, -0.2534 -0.3611 0.3386, -0.2521 -0.3593 0.3386, -0.252 -0.3613 0.3386, -0.2514 -0.3594 0.3386, -0.2507 -0.3611 0.3386, -0.2505 -0.3593 0.3386, -0.2498 -0.3608 0.3386, -0.249 -0.3603 0.3386, -0.2538 -0.3568 0.3386, -0.2562 -0.3571 0.3386, -0.2538 -0.3572 0.3386, -0.2562 -0.3574 0.3386, -0.2538 -0.3577 0.3386, -0.2561 -0.3585 0.3386, -0.2536 -0.3582 0.3386, -0.2558 -0.3592 0.3386, -0.2553 -0.36 0.3386, -0.2518 -0.353 0.3386, -0.2535 -0.3534 0.3386, -0.2532 -0.3555 0.3386, -0.2545 -0.354 0.3386, -0.2535 -0.3559 0.3386, -0.2552 -0.3546 0.3386, -0.2537 -0.3563 0.3386, -0.2557 -0.3552 0.3386, -0.256 -0.3561 0.3386, -0.2503 -0.3473 0.3346, -0.2527 -0.3476 0.3346, -0.2544 -0.3483 0.3346, -0.2549 -0.3486 0.3346, -0.2549 -0.3508 0.3346, -0.2535 -0.3499 0.3346, -0.252 -0.3494 0.3346, -0.2505 -0.3492 0.3346, -0.2497 -0.3493 0.3346, -0.2492 -0.3495 0.3346, -0.2488 -0.3498 0.3346, -0.2484 -0.3501 0.3346, -0.2481 -0.3506 0.3346, -0.2479 -0.3514 0.3346, -0.2478 -0.3525 0.3346, -0.2518 -0.353 0.3346, -0.2535 -0.3534 0.3346, -0.2545 -0.354 0.3346, -0.2552 -0.3546 0.3346, -0.2557 -0.3552 0.3346, -0.256 -0.3561 0.3346, -0.2562 -0.3571 0.3346, -0.2562 -0.3574 0.3346, -0.2561 -0.3585 0.3346, -0.2558 -0.3592 0.3346, -0.2553 -0.36 0.3346, -0.255 -0.3602 0.3346, -0.252 -0.3613 0.3346, -0.2533 -0.3611 0.3346, -0.2534 -0.3611 0.3346, -0.2543 -0.3608 0.3346, -0.2507 -0.3611 0.3346, -0.2507 -0.3611 0.3346, -0.2498 -0.3608 0.3346, -0.249 -0.3603 0.3346, -0.2483 -0.3595 0.3346, -0.2479 -0.3589 0.3346, -0.2478 -0.3589 0.3346, -0.2478 -0.361 0.3346, -0.2455 -0.361 0.3346, -0.2455 -0.3524 0.3346, -0.2456 -0.3506 0.3346, -0.246 -0.3496 0.3346, -0.2465 -0.3488 0.3346, -0.2471 -0.3482 0.3346, -0.2479 -0.3477 0.3346, -0.2489 -0.3474 0.3346, -0.2532 -0.3555 0.3346, -0.2529 -0.3553 0.3346, -0.2524 -0.355 0.3346, -0.2509 -0.3547 0.3346, -0.2538 -0.3572 0.3346, -0.2538 -0.3568 0.3346, -0.2537 -0.3563 0.3346, -0.2535 -0.3559 0.3346, -0.2531 -0.3588 0.3346, -0.2533 -0.3586 0.3346, -0.2536 -0.3582 0.3346, -0.2538 -0.3577 0.3346, -0.2514 -0.3594 0.3346, -0.2521 -0.3593 0.3346, -0.2527 -0.3591 0.3346, -0.2488 -0.3583 0.3346, -0.2491 -0.3586 0.3346, -0.2498 -0.359 0.3346, -0.2505 -0.3593 0.3346, -0.2478 -0.3555 0.3346, -0.2478 -0.3557 0.3346, -0.248 -0.3567 0.3346, -0.2483 -0.3576 0.3346, -0.2478 -0.3543 0.3346, -0.2478 -0.3543 0.3346
            ]
        }
        coordIndex [
            0,1,2,-1,2,1,3,-1,4,0,5,-1,5,0,2,-1,6,4,7,-1,7,4,5,-1,8,6,9,-1,9,6,7,-1,10,8,11,-1,11,8,9,-1,12,10,13,-1,13,10,11,-1,14,12,15,-1,15,12,13,-1,16,14,17,-1,17,14,15,-1,18,16,19,-1,19,16,17,-1,20,18,21,-1,21,18,19,-1,22,20,23,-1,23,20,21,-1,1,22,3,-1,3,22,23,-1,22,1,0,-1,0,4,22,-1,22,4,6,-1,22,6,20,-1,16,18,14,-1,14,18,20,-1,14,20,12,-1,12,20,6,-1,12,6,10,-1,10,6,8,-1,24,25,26,-1,26,25,27,-1,28,29,30,-1,31,32,33,-1,33,32,34,-1,35,36,27,-1,27,36,37,-1,37,38,27,-1,27,38,39,-1,27,39,26,-1,26,39,40,-1,26,40,31,-1,31,40,41,-1,31,41,32,-1,30,35,28,-1,28,35,27,-1,28,27,42,-1,42,27,43,-1,42,43,44,-1,44,43,45,-1,44,45,46,-1,46,45,47,-1,46,47,48,-1,48,47,49,-1,48,49,50,-1,50,49,51,-1,50,51,52,-1,52,51,53,-1,52,53,54,-1,54,53,55,-1,54,55,56,-1,56,55,57,-1,56,57,58,-1,58,57,59,-1,58,59,60,-1,60,59,61,-1,62,63,64,-1,64,63,65,-1,64,65,66,-1,66,65,67,-1,66,67,68,-1,68,67,69,-1,68,69,70,-1,70,69,71,-1,70,71,72,-1,72,71,73,-1,72,73,34,-1,34,73,74,-1,34,74,33,-1,75,76,77,-1,77,76,78,-1,77,78,79,-1,79,78,80,-1,79,80,81,-1,81,80,82,-1,81,82,62,-1,62,82,83,-1,62,83,63,-1,28,84,29,-1,29,84,85,-1,29,85,86,-1,86,85,87,-1,86,87,88,-1,88,87,89,-1,88,89,90,-1,90,89,91,-1,90,91,75,-1,75,91,92,-1,75,92,76,-1,55,93,94,-1,55,94,57,-1,57,94,95,-1,57,95,59,-1,59,95,96,-1,59,96,61,-1,60,61,97,-1,97,61,96,-1,60,97,98,-1,60,98,58,-1,58,98,99,-1,58,99,56,-1,56,99,100,-1,56,100,54,-1,54,100,101,-1,54,101,52,-1,52,101,102,-1,52,102,50,-1,50,102,103,-1,50,103,48,-1,48,103,104,-1,48,104,46,-1,46,104,105,-1,46,105,44,-1,44,105,106,-1,44,106,42,-1,42,106,107,-1,42,107,28,-1,84,28,108,-1,108,28,107,-1,84,108,109,-1,84,109,85,-1,85,109,110,-1,85,110,87,-1,87,110,111,-1,87,111,89,-1,89,111,112,-1,89,112,91,-1,91,112,113,-1,91,113,92,-1,92,113,114,-1,92,114,76,-1,76,114,115,-1,76,115,78,-1,78,115,116,-1,78,116,80,-1,80,116,117,-1,80,117,82,-1,82,117,118,-1,82,118,83,-1,83,118,119,-1,83,119,63,-1,120,69,121,-1,121,69,67,-1,121,67,122,-1,122,67,65,-1,122,65,123,-1,123,65,63,-1,123,63,119,-1,69,120,124,-1,69,124,71,-1,71,124,125,-1,71,125,73,-1,125,126,73,-1,73,126,127,-1,73,127,74,-1,74,127,128,-1,74,128,33,-1,33,128,129,-1,33,129,31,-1,26,31,130,-1,130,31,129,-1,24,26,131,-1,131,26,130,-1,25,24,132,-1,132,24,131,-1,27,25,133,-1,133,25,132,-1,27,133,134,-1,27,134,43,-1,43,134,135,-1,43,135,45,-1,45,135,136,-1,45,136,47,-1,47,136,137,-1,47,137,49,-1,49,137,138,-1,49,138,51,-1,51,138,139,-1,51,139,53,-1,53,139,93,-1,53,93,55,-1,86,140,141,-1,86,141,29,-1,29,141,142,-1,29,142,30,-1,30,142,143,-1,30,143,35,-1,77,144,145,-1,77,145,75,-1,75,145,146,-1,75,146,90,-1,90,146,147,-1,90,147,88,-1,88,147,140,-1,88,140,86,-1,64,148,149,-1,64,149,62,-1,62,149,150,-1,62,150,81,-1,81,150,151,-1,81,151,79,-1,79,151,144,-1,79,144,77,-1,70,152,153,-1,70,153,68,-1,68,153,154,-1,68,154,66,-1,66,154,148,-1,66,148,64,-1,41,155,156,-1,41,156,32,-1,32,156,157,-1,32,157,34,-1,34,157,158,-1,34,158,72,-1,72,158,152,-1,72,152,70,-1,37,159,160,-1,37,160,38,-1,38,160,161,-1,38,161,39,-1,39,161,162,-1,39,162,40,-1,40,162,155,-1,40,155,41,-1,37,36,159,-1,159,36,163,-1,36,35,163,-1,163,35,143,-1,
        ]
    }
}
Shape{
    appearance Appearance {
        material  Material 	{
            diffuseColor 0.25098039215686274 0.25098039215686274 0.25098039215686274
            specularColor 0.12549019607843137 0.12549019607843137 0.12549019607843137
            ambientIntensity 0.2
            transparency 0
            shininess 0.5
        }
    }
    geometry IndexedFaceSet {
        ccw TRUE
        solid FALSE
        coord DEF co Coordinate {
            point [
                -0.2478 -0.3557 0.3346, -0.2478 -0.3555 0.3346, -0.2532 -0.3555 0.3346, -0.2478 -0.3543 0.3346, -0.2509 -0.3547 0.3346, -0.2524 -0.355 0.3346, -0.2529 -0.3553 0.3346, -0.248 -0.3567 0.3346, -0.2535 -0.3559 0.3346, -0.2483 -0.3576 0.3346, -0.2533 -0.3586 0.3346, -0.2531 -0.3588 0.3346, -0.2491 -0.3586 0.3346, -0.2536 -0.3582 0.3346, -0.2498 -0.359 0.3346, -0.2505 -0.3593 0.3346, -0.2514 -0.3594 0.3346, -0.2537 -0.3563 0.3346, -0.2538 -0.3568 0.3346, -0.2488 -0.3583 0.3346, -0.2538 -0.3572 0.3346, -0.2538 -0.3577 0.3346, -0.2527 -0.3591 0.3346, -0.2521 -0.3593 0.3346, -0.2521 -0.3593 0.3346
            ]
        }
        coordIndex [
            0,1,2,-1,1,3,4,-1,4,5,1,-1,1,5,6,-1,1,6,2,-1,0,2,7,-1,7,2,8,-1,7,8,9,-1,10,11,12,-1,10,12,13,-1,14,12,15,-1,15,12,16,-1,8,17,9,-1,9,17,18,-1,9,18,19,-1,19,18,20,-1,19,20,12,-1,12,20,21,-1,12,21,13,-1,11,22,12,-1,12,22,23,-1,12,23,16,-1,
        ]
    }
}
Shape{
    appearance Appearance {
        material  Material 	{
            diffuseColor 1.0 1.0 1.0
            specularColor 0.5019607843137255 0.5019607843137255 0.5019607843137255
            ambientIntensity 0.2
            transparency 0
            shininess 0.5
        }
    }
    geometry IndexedFaceSet {
        ccw TRUE
        solid FALSE
        coord DEF co Coordinate {
            point [
                -0.2423 -0.3581 0.3346, -0.2423 -0.3581 0.3386, -0.2414 -0.3586 0.3386, -0.2385 -0.3594 0.3386, -0.2385 -0.3594 0.3346, -0.2399 -0.3592 0.3346, -0.2399 -0.3592 0.3386, -0.2412 -0.3587 0.3346, -0.2414 -0.3586 0.3346, -0.2423 -0.3605 0.3386, -0.2423 -0.3605 0.3346, -0.2412 -0.3609 0.3346, -0.2409 -0.361 0.3386, -0.2387 -0.3613 0.3346, -0.2387 -0.3613 0.3386, -0.24 -0.3611 0.3346, -0.2409 -0.361 0.3346, -0.2373 -0.3611 0.3346, -0.2366 -0.361 0.3386, -0.2366 -0.361 0.3346, -0.2354 -0.3606 0.3346, -0.2354 -0.3606 0.3386, -0.2348 -0.3602 0.3346, -0.2348 -0.3602 0.3386, -0.2341 -0.3596 0.3346, -0.2341 -0.3596 0.3386, -0.2337 -0.359 0.3346, -0.2337 -0.359 0.3386, -0.2334 -0.3583 0.3346, -0.2334 -0.3583 0.3386, -0.2333 -0.3573 0.3346, -0.2333 -0.3573 0.3386, -0.2334 -0.3565 0.3346, -0.2334 -0.3565 0.3386, -0.2336 -0.3558 0.3346, -0.2336 -0.3558 0.3386, -0.2341 -0.3551 0.3346, -0.2341 -0.3551 0.3386, -0.2346 -0.3546 0.3346, -0.2346 -0.3546 0.3386, -0.2362 -0.3538 0.3346, -0.2362 -0.3538 0.3386, -0.2371 -0.3534 0.3346, -0.2371 -0.3534 0.3386, -0.2385 -0.3528 0.3346, -0.2385 -0.3528 0.3386, -0.2394 -0.3523 0.3346, -0.2394 -0.3523 0.3386, -0.2396 -0.352 0.3346, -0.2396 -0.352 0.3386, -0.2398 -0.3517 0.3346, -0.2398 -0.3517 0.3386, -0.2399 -0.3513 0.3346, -0.2399 -0.3513 0.3386, -0.2399 -0.351 0.3346, -0.2399 -0.351 0.3386, -0.2398 -0.3506 0.3346, -0.2398 -0.3506 0.3386, -0.2397 -0.3503 0.3346, -0.2397 -0.3503 0.3386, -0.2395 -0.35 0.3346, -0.2395 -0.35 0.3386, -0.2392 -0.3497 0.3346, -0.2392 -0.3497 0.3386, -0.2386 -0.3494 0.3346, -0.2386 -0.3494 0.3386, -0.238 -0.3493 0.3346, -0.238 -0.3493 0.3386, -0.2373 -0.3492 0.3346, -0.2373 -0.3492 0.3386, -0.2358 -0.3494 0.3346, -0.2358 -0.3494 0.3386, -0.2345 -0.3499 0.3346, -0.2345 -0.3499 0.3386, -0.2339 -0.3502 0.3346, -0.2339 -0.3502 0.3386, -0.2339 -0.3479 0.3386, -0.2339 -0.3479 0.3346, -0.2355 -0.3475 0.3346, -0.2355 -0.3475 0.3386, -0.2371 -0.3473 0.3346, -0.2371 -0.3473 0.3386, -0.2387 -0.3475 0.3346, -0.2387 -0.3475 0.3386, -0.24 -0.3479 0.3346, -0.24 -0.3479 0.3386, -0.2408 -0.3484 0.3346, -0.2408 -0.3484 0.3386, -0.2412 -0.3488 0.3346, -0.2415 -0.349 0.3386, -0.2415 -0.349 0.3346, -0.2419 -0.3496 0.3346, -0.2419 -0.3496 0.3386, -0.2422 -0.3504 0.3346, -0.2422 -0.3504 0.3386, -0.2423 -0.3512 0.3346, -0.2423 -0.3512 0.3386, -0.2422 -0.3521 0.3346, -0.2422 -0.3521 0.3386, -0.2419 -0.3528 0.3346, -0.2419 -0.3528 0.3386, -0.2416 -0.3533 0.3346, -0.2416 -0.3533 0.3386, -0.2387 -0.3551 0.3346, -0.2387 -0.3551 0.3386, -0.2401 -0.3545 0.3386, -0.2412 -0.3537 0.3346, -0.2412 -0.3537 0.3386, -0.2412 -0.3537 0.3346, -0.2401 -0.3545 0.3346, -0.2372 -0.3557 0.3346, -0.2372 -0.3557 0.3386, -0.2363 -0.3563 0.3346, -0.2363 -0.3563 0.3386, -0.236 -0.3566 0.3346, -0.236 -0.3566 0.3386, -0.2358 -0.3569 0.3346, -0.2358 -0.3569 0.3386, -0.2357 -0.3573 0.3346, -0.2357 -0.3573 0.3386, -0.2357 -0.3576 0.3346, -0.2357 -0.3576 0.3386, -0.2357 -0.358 0.3346, -0.2357 -0.358 0.3386, -0.2359 -0.3583 0.3346, -0.2359 -0.3583 0.3386, -0.2361 -0.3586 0.3346, -0.2361 -0.3586 0.3386, -0.2363 -0.3589 0.3346, -0.2363 -0.3589 0.3386, -0.2365 -0.359 0.3346, -0.2365 -0.359 0.3386, -0.2371 -0.3592 0.3346, -0.2371 -0.3592 0.3386, -0.2383 -0.3594 0.3346, -0.2383 -0.3594 0.3386, -0.2217 -0.3476 0.3386, -0.2193 -0.3476 0.3386, -0.2217 -0.3476 0.3346, -0.2193 -0.3476 0.3346, -0.2253 -0.3577 0.3386, -0.2253 -0.3577 0.3346, -0.2255 -0.3583 0.3346, -0.2255 -0.3583 0.3386, -0.2256 -0.3587 0.3346, -0.2256 -0.3587 0.3386, -0.2257 -0.3587 0.3386, -0.2257 -0.3587 0.3346, -0.226 -0.3576 0.3386, -0.226 -0.3576 0.3346, -0.2295 -0.3476 0.3386, -0.2283 -0.3509 0.3346, -0.2295 -0.3476 0.3346, -0.2321 -0.3476 0.3386, -0.2321 -0.3476 0.3346, -0.2268 -0.3609 0.3386, -0.2283 -0.3572 0.3346, -0.2268 -0.3609 0.3346, -0.2279 -0.3634 0.3346, -0.2279 -0.3634 0.3386, -0.2269 -0.3611 0.3346, -0.2283 -0.3642 0.3346, -0.2283 -0.3642 0.3386, -0.2288 -0.3647 0.3346, -0.2288 -0.3647 0.3386, -0.2292 -0.365 0.3346, -0.2292 -0.365 0.3386, -0.2297 -0.3652 0.3346, -0.2297 -0.3652 0.3386, -0.2303 -0.3652 0.3346, -0.2303 -0.3652 0.3386, -0.2311 -0.3651 0.3346, -0.2311 -0.3651 0.3386, -0.2316 -0.365 0.3346, -0.2316 -0.365 0.3386, -0.2316 -0.3671 0.3386, -0.2316 -0.3671 0.3346, -0.2306 -0.3672 0.3346, -0.2306 -0.3672 0.3386, -0.2301 -0.3672 0.3346, -0.2301 -0.3672 0.3386, -0.2291 -0.3671 0.3346, -0.2291 -0.3671 0.3386, -0.2283 -0.3668 0.3346, -0.2282 -0.3668 0.3386, -0.2282 -0.3668 0.3346, -0.2274 -0.3662 0.3346, -0.2274 -0.3662 0.3386, -0.2272 -0.3661 0.3346, -0.2272 -0.3661 0.3386, -0.2264 -0.365 0.3346, -0.2264 -0.365 0.3386, -0.2253 -0.363 0.3346, -0.2253 -0.363 0.3386, -0.2246 -0.3611 0.3346, -0.2067 -0.3588 0.3386, -0.2067 -0.361 0.3386, -0.2067 -0.3588 0.3346, -0.2067 -0.361 0.3346, -0.2143 -0.3588 0.3386, -0.2108 -0.3588 0.3346, -0.2143 -0.3588 0.3346, -0.2143 -0.3525 0.3386, -0.2143 -0.3525 0.3346, -0.2076 -0.3525 0.3386, -0.2108 -0.3525 0.3346, -0.2076 -0.3525 0.3346, -0.2076 -0.3504 0.3386, -0.2076 -0.3504 0.3346, -0.2143 -0.3504 0.3346, -0.2143 -0.3504 0.3386, -0.2108 -0.3504 0.3346, -0.2143 -0.3444 0.3386, -0.2143 -0.3444 0.3346, -0.2071 -0.3444 0.3346, -0.2071 -0.3444 0.3386, -0.2108 -0.3444 0.3346, -0.2071 -0.3423 0.3386, -0.2071 -0.3423 0.3346, -0.2167 -0.3423 0.3346, -0.2167 -0.3423 0.3386, -0.2108 -0.3423 0.3346, -0.2167 -0.361 0.3386, -0.2167 -0.361 0.3346, -0.2108 -0.361 0.3346, -0.1908 -0.3583 0.3386, -0.1927 -0.3571 0.3386, -0.1927 -0.3597 0.3386, -0.1939 -0.3579 0.3386, -0.1949 -0.3606 0.3386, -0.1955 -0.3585 0.3386, -0.198 -0.361 0.3386, -0.198 -0.3588 0.3386, -0.2032 -0.361 0.3386, -0.2008 -0.3588 0.3386, -0.2032 -0.3423 0.3386, -0.2008 -0.3444 0.3386, -0.1978 -0.3423 0.3386, -0.1979 -0.3444 0.3386, -0.1978 -0.3444 0.3386, -0.195 -0.3426 0.3386, -0.1954 -0.3447 0.3386, -0.1927 -0.3434 0.3386, -0.1938 -0.3453 0.3386, -0.1908 -0.3448 0.3386, -0.1925 -0.3462 0.3386, -0.1901 -0.3454 0.3386, -0.192 -0.3467 0.3386, -0.189 -0.347 0.3386, -0.1913 -0.3478 0.3386, -0.1883 -0.3488 0.3386, -0.1908 -0.3491 0.3386, -0.188 -0.3514 0.3386, -0.1905 -0.3515 0.3386, -0.188 -0.3526 0.3386, -0.1906 -0.3527 0.3386, -0.1885 -0.3548 0.3386, -0.1909 -0.3544 0.3386, -0.1894 -0.3567 0.3386, -0.1916 -0.3558 0.3386, -0.1925 -0.3569 0.3386, -0.198 -0.361 0.3346, -0.2032 -0.361 0.3346, -0.1949 -0.3606 0.3346, -0.1927 -0.3597 0.3346, -0.1908 -0.3583 0.3346, -0.1894 -0.3567 0.3346, -0.1885 -0.3548 0.3346, -0.188 -0.3526 0.3346, -0.188 -0.3514 0.3346, -0.1883 -0.3488 0.3346, -0.189 -0.347 0.3346, -0.1901 -0.3454 0.3346, -0.1908 -0.3448 0.3346, -0.1927 -0.3434 0.3346, -0.195 -0.3426 0.3346, -0.1978 -0.3423 0.3346, -0.2032 -0.3423 0.3346, -0.1979 -0.3444 0.3346, -0.2008 -0.3444 0.3346, -0.2008 -0.3588 0.3346, -0.198 -0.3588 0.3346, -0.1925 -0.3569 0.3346, -0.1927 -0.3571 0.3346, -0.1939 -0.3579 0.3346, -0.1955 -0.3585 0.3346, -0.1905 -0.3515 0.3346, -0.1906 -0.3527 0.3346, -0.1909 -0.3544 0.3346, -0.1916 -0.3558 0.3346, -0.1925 -0.3462 0.3346, -0.192 -0.3467 0.3346, -0.1913 -0.3478 0.3346, -0.1908 -0.3491 0.3346, -0.1978 -0.3444 0.3346, -0.1954 -0.3447 0.3346, -0.1938 -0.3453 0.3346, -0.1938 -0.3453 0.3346
            ]
        }
        coordIndex [
            0,1,2,-1,3,4,5,-1,3,5,6,-1,6,5,7,-1,6,7,2,-1,2,7,8,-1,2,8,0,-1,9,1,10,-1,10,1,0,-1,10,11,9,-1,9,11,12,-1,13,14,15,-1,15,14,12,-1,15,12,16,-1,16,12,11,-1,13,17,14,-1,14,17,18,-1,17,19,18,-1,18,19,20,-1,18,20,21,-1,21,20,22,-1,21,22,23,-1,23,22,24,-1,23,24,25,-1,25,24,26,-1,25,26,27,-1,27,26,28,-1,27,28,29,-1,29,28,30,-1,29,30,31,-1,31,30,32,-1,31,32,33,-1,33,32,34,-1,33,34,35,-1,35,34,36,-1,35,36,37,-1,37,36,38,-1,37,38,39,-1,39,38,40,-1,39,40,41,-1,41,40,42,-1,41,42,43,-1,43,42,44,-1,43,44,45,-1,45,44,46,-1,45,46,47,-1,47,46,48,-1,47,48,49,-1,49,48,50,-1,49,50,51,-1,51,50,52,-1,51,52,53,-1,53,52,54,-1,53,54,55,-1,55,54,56,-1,55,56,57,-1,57,56,58,-1,57,58,59,-1,59,58,60,-1,59,60,61,-1,61,60,62,-1,61,62,63,-1,63,62,64,-1,63,64,65,-1,65,64,66,-1,65,66,67,-1,67,66,68,-1,67,68,69,-1,69,68,70,-1,69,70,71,-1,71,70,72,-1,71,72,73,-1,73,72,74,-1,73,74,75,-1,76,75,77,-1,77,75,74,-1,76,77,78,-1,76,78,79,-1,79,78,80,-1,79,80,81,-1,81,80,82,-1,81,82,83,-1,83,82,84,-1,83,84,85,-1,85,84,86,-1,85,86,87,-1,86,88,87,-1,87,88,89,-1,88,90,89,-1,89,90,91,-1,89,91,92,-1,92,91,93,-1,92,93,94,-1,94,93,95,-1,94,95,96,-1,96,95,97,-1,96,97,98,-1,98,97,99,-1,98,99,100,-1,100,99,101,-1,100,101,102,-1,103,104,105,-1,102,101,106,-1,102,106,107,-1,107,106,108,-1,107,108,105,-1,105,108,109,-1,105,109,103,-1,104,103,110,-1,104,110,111,-1,111,110,112,-1,111,112,113,-1,113,112,114,-1,113,114,115,-1,115,114,116,-1,115,116,117,-1,117,116,118,-1,117,118,119,-1,119,118,120,-1,119,120,121,-1,121,120,122,-1,121,122,123,-1,123,122,124,-1,123,124,125,-1,125,124,126,-1,125,126,127,-1,127,126,128,-1,127,128,129,-1,129,128,130,-1,129,130,131,-1,131,130,132,-1,131,132,133,-1,133,132,134,-1,133,134,135,-1,135,134,4,-1,135,4,3,-1,61,63,85,-1,85,63,83,-1,111,43,104,-1,104,43,45,-1,21,23,127,-1,127,23,25,-1,127,25,125,-1,125,25,27,-1,125,27,123,-1,123,27,29,-1,123,29,121,-1,121,29,31,-1,121,31,119,-1,119,31,33,-1,119,33,117,-1,117,33,35,-1,117,35,115,-1,115,35,37,-1,115,37,113,-1,113,37,39,-1,113,39,111,-1,111,39,41,-1,111,41,43,-1,14,3,12,-1,12,3,6,-1,12,6,9,-1,9,6,2,-1,9,2,1,-1,63,65,83,-1,83,65,67,-1,83,67,81,-1,81,67,69,-1,81,69,79,-1,79,69,71,-1,79,71,76,-1,76,71,73,-1,76,73,75,-1,127,129,21,-1,21,129,131,-1,21,131,18,-1,18,131,133,-1,18,133,14,-1,14,133,135,-1,14,135,3,-1,85,87,61,-1,61,87,89,-1,61,89,59,-1,59,89,92,-1,59,92,57,-1,57,92,94,-1,57,94,55,-1,55,94,96,-1,55,96,53,-1,53,96,98,-1,53,98,51,-1,51,98,100,-1,51,100,49,-1,49,100,102,-1,49,102,47,-1,47,102,107,-1,47,107,45,-1,45,107,105,-1,45,105,104,-1,136,137,138,-1,138,137,139,-1,140,136,141,-1,141,136,138,-1,140,141,142,-1,140,142,143,-1,143,142,144,-1,143,144,145,-1,146,145,147,-1,147,145,144,-1,148,146,149,-1,149,146,147,-1,148,149,150,-1,150,149,151,-1,150,151,152,-1,153,150,154,-1,154,150,152,-1,153,154,155,-1,155,154,156,-1,155,156,157,-1,158,159,160,-1,160,159,155,-1,160,155,157,-1,159,158,161,-1,159,161,162,-1,162,161,163,-1,162,163,164,-1,164,163,165,-1,164,165,166,-1,166,165,167,-1,166,167,168,-1,168,167,169,-1,168,169,170,-1,170,169,171,-1,170,171,172,-1,172,171,173,-1,172,173,174,-1,175,174,176,-1,176,174,173,-1,175,176,177,-1,175,177,178,-1,178,177,179,-1,178,179,180,-1,180,179,181,-1,180,181,182,-1,182,181,183,-1,182,183,184,-1,183,185,184,-1,184,185,186,-1,184,186,187,-1,187,186,188,-1,187,188,189,-1,189,188,190,-1,189,190,191,-1,191,190,192,-1,191,192,193,-1,139,137,194,-1,194,137,193,-1,194,193,192,-1,143,145,193,-1,137,136,193,-1,193,136,140,-1,193,140,143,-1,150,153,148,-1,148,153,155,-1,148,155,146,-1,174,175,172,-1,172,175,178,-1,172,178,170,-1,170,178,180,-1,170,180,168,-1,168,180,182,-1,168,182,166,-1,166,182,184,-1,166,184,164,-1,145,146,193,-1,193,146,155,-1,193,155,191,-1,155,159,191,-1,191,159,162,-1,191,162,189,-1,189,162,164,-1,189,164,187,-1,187,164,184,-1,195,196,197,-1,197,196,198,-1,195,197,199,-1,199,197,200,-1,199,200,201,-1,202,199,203,-1,203,199,201,-1,202,203,204,-1,204,203,205,-1,204,205,206,-1,207,204,208,-1,208,204,206,-1,209,210,211,-1,211,210,207,-1,211,207,208,-1,212,210,213,-1,213,210,209,-1,214,215,216,-1,216,215,212,-1,216,212,213,-1,217,215,218,-1,218,215,214,-1,219,220,221,-1,221,220,217,-1,221,217,218,-1,222,220,223,-1,223,220,219,-1,222,223,196,-1,196,223,224,-1,196,224,198,-1,222,196,195,-1,195,199,222,-1,222,199,202,-1,222,202,220,-1,215,217,212,-1,212,217,220,-1,212,220,210,-1,210,220,202,-1,210,202,207,-1,207,202,204,-1,225,226,227,-1,227,226,228,-1,227,228,229,-1,229,228,230,-1,229,230,231,-1,231,230,232,-1,231,232,233,-1,233,232,234,-1,233,234,235,-1,235,234,236,-1,235,236,237,-1,236,238,237,-1,237,238,239,-1,237,239,240,-1,240,239,241,-1,240,241,242,-1,242,241,243,-1,242,243,244,-1,244,243,245,-1,244,245,246,-1,246,245,247,-1,246,247,248,-1,248,247,249,-1,248,249,250,-1,250,249,251,-1,250,251,252,-1,252,251,253,-1,252,253,254,-1,254,253,255,-1,254,255,256,-1,256,255,257,-1,256,257,258,-1,258,257,259,-1,258,259,225,-1,225,259,260,-1,225,260,226,-1,231,233,261,-1,261,233,262,-1,231,261,263,-1,231,263,229,-1,229,263,264,-1,229,264,227,-1,227,264,265,-1,227,265,225,-1,225,265,266,-1,225,266,258,-1,258,266,267,-1,258,267,256,-1,256,267,268,-1,256,268,254,-1,254,268,269,-1,254,269,252,-1,252,269,270,-1,252,270,250,-1,250,270,271,-1,250,271,248,-1,248,271,272,-1,248,272,246,-1,246,272,273,-1,246,273,244,-1,244,273,274,-1,244,274,242,-1,242,274,275,-1,242,275,240,-1,240,275,276,-1,240,276,237,-1,235,237,277,-1,277,237,276,-1,233,235,262,-1,262,235,277,-1,238,236,278,-1,278,236,279,-1,236,234,279,-1,279,234,280,-1,234,232,280,-1,280,232,281,-1,260,282,283,-1,260,283,226,-1,226,283,284,-1,226,284,228,-1,228,284,285,-1,228,285,230,-1,230,285,281,-1,230,281,232,-1,253,286,287,-1,253,287,255,-1,255,287,288,-1,255,288,257,-1,257,288,289,-1,257,289,259,-1,259,289,282,-1,259,282,260,-1,245,290,291,-1,245,291,247,-1,247,291,292,-1,247,292,249,-1,249,292,293,-1,249,293,251,-1,251,293,286,-1,251,286,253,-1,238,278,294,-1,238,294,239,-1,239,294,295,-1,239,295,241,-1,241,295,296,-1,241,296,243,-1,243,296,290,-1,243,290,245,-1,
        ]
    }
}
Shape{
    appearance Appearance {
        material  Material 	{
            diffuseColor 0.25098039215686274 0.25098039215686274 0.25098039215686274
            specularColor 0.12549019607843137 0.12549019607843137 0.12549019607843137
            ambientIntensity 0.2
            transparency 0
            shininess 0.5
        }
    }
    geometry IndexedFaceSet {
        ccw TRUE
        solid FALSE
        coord DEF co Coordinate {
            point [
                -0.1939 -0.3579 0.3346, -0.1927 -0.3571 0.3346, -0.1978 -0.3444 0.3346, -0.2008 -0.3444 0.3346, -0.2008 -0.3588 0.3346, -0.1979 -0.3444 0.3346, -0.198 -0.3588 0.3346, -0.1955 -0.3585 0.3346, -0.1925 -0.3569 0.3346, -0.1916 -0.3558 0.3346, -0.1909 -0.3544 0.3346, -0.1905 -0.3515 0.3346, -0.1925 -0.3462 0.3346, -0.1938 -0.3453 0.3346, -0.1908 -0.3491 0.3346, -0.1913 -0.3478 0.3346, -0.192 -0.3467 0.3346, -0.1906 -0.3527 0.3346, -0.1954 -0.3447 0.3346, -0.1954 -0.3447 0.3346
            ]
        }
        coordIndex [
            0,1,2,-1,3,4,5,-1,5,4,6,-1,5,6,2,-1,2,6,7,-1,2,7,0,-1,1,8,2,-1,2,8,9,-1,2,9,10,-1,11,12,13,-1,14,15,11,-1,11,15,16,-1,11,16,12,-1,10,17,2,-1,2,17,11,-1,2,11,18,-1,18,11,13,-1,
        ]
    }
}
Shape{
    appearance Appearance {
        material  Material 	{
            diffuseColor 1.0 1.0 1.0
            specularColor 0.5019607843137255 0.5019607843137255 0.5019607843137255
            ambientIntensity 0.2
            transparency 0
            shininess 0.5
        }
    }
    geometry IndexedFaceSet {
        ccw TRUE
        solid FALSE
        coord DEF co Coordinate {
            point [
                -0.1817 -0.3537 0.3386, -0.1825 -0.3559 0.3386, -0.1754 -0.3537 0.3386, -0.1747 -0.3559 0.3386, -0.1789 -0.346 0.3386, -0.1798 -0.3423 0.3386, -0.1869 -0.361 0.3386, -0.1842 -0.361 0.3386, -0.1787 -0.3454 0.3386, -0.1786 -0.3447 0.3386, -0.1772 -0.3423 0.3386, -0.1785 -0.3447 0.3386, -0.1784 -0.3455 0.3386, -0.1782 -0.346 0.3386, -0.1701 -0.361 0.3386, -0.1728 -0.361 0.3386, -0.1772 -0.3423 0.3346, -0.1701 -0.361 0.3346, -0.1798 -0.3423 0.3346, -0.1869 -0.361 0.3346, -0.1842 -0.361 0.3346, -0.1825 -0.3559 0.3346, -0.1747 -0.3559 0.3346, -0.1728 -0.361 0.3346, -0.1817 -0.3537 0.3346, -0.1754 -0.3537 0.3346, -0.1782 -0.346 0.3346, -0.1785 -0.3447 0.3346, -0.1784 -0.3455 0.3346, -0.1786 -0.3447 0.3346, -0.1789 -0.346 0.3346, -0.1787 -0.3454 0.3346, -0.1787 -0.3454 0.3346
            ]
        }
        coordIndex [
            0,1,2,-1,2,1,3,-1,4,5,0,-1,0,5,6,-1,0,6,1,-1,1,6,7,-1,4,8,5,-1,5,8,9,-1,5,9,10,-1,10,9,11,-1,10,11,12,-1,12,13,10,-1,10,13,2,-1,10,2,14,-1,14,2,3,-1,14,3,15,-1,10,14,16,-1,16,14,17,-1,5,10,18,-1,18,10,16,-1,6,5,19,-1,19,5,18,-1,7,6,20,-1,20,6,19,-1,1,7,21,-1,21,7,20,-1,3,1,22,-1,22,1,21,-1,15,3,23,-1,23,3,22,-1,14,15,17,-1,17,15,23,-1,0,2,24,-1,24,2,25,-1,2,13,25,-1,25,13,26,-1,11,27,28,-1,11,28,12,-1,12,28,26,-1,12,26,13,-1,11,9,27,-1,27,9,29,-1,4,30,31,-1,4,31,8,-1,8,31,29,-1,8,29,9,-1,4,0,30,-1,30,0,24,-1,
        ]
    }
}
Shape{
    appearance Appearance {
        material  Material 	{
            diffuseColor 0.25098039215686274 0.25098039215686274 0.25098039215686274
            specularColor 0.12549019607843137 0.12549019607843137 0.12549019607843137
            ambientIntensity 0.2
            transparency 0
            shininess 0.5
        }
    }
    geometry IndexedFaceSet {
        ccw TRUE
        solid FALSE
        coord DEF co Coordinate {
            point [
                -0.1785 -0.3447 0.3346, -0.1786 -0.3447 0.3346, -0.1784 -0.3455 0.3346, -0.1787 -0.3454 0.3346, -0.1782 -0.346 0.3346, -0.1789 -0.346 0.3346, -0.1754 -0.3537 0.3346, -0.1817 -0.3537 0.3346, -0.1817 -0.3537 0.3346
            ]
        }
        coordIndex [
            0,1,2,-1,2,1,3,-1,2,3,4,-1,4,3,5,-1,4,5,6,-1,6,5,7,-1,
        ]
    }
}
Shape{
    appearance Appearance {
        material  Material 	{
            diffuseColor 1.0 1.0 1.0
            specularColor 0.5019607843137255 0.5019607843137255 0.5019607843137255
            ambientIntensity 0.2
            transparency 0
            shininess 0.5
        }
    }
    geometry IndexedFaceSet {
        ccw TRUE
        solid FALSE
        coord DEF co Coordinate {
            point [
                -0.351 -0.3636 0.3386, -0.349 -0.3661 0.3386, -0.3522 -0.3519 0.3386, -0.3545 -0.3288 0.3386, -0.3515 -0.3272 0.3386, -0.3522 -0.319 0.3386, -0.344 -0.3187 0.3386, -0.3398 -0.3284 0.3386, -0.3378 -0.3242 0.3386, -0.3264 -0.3565 0.3386, -0.3264 -0.3552 0.3386, -0.3377 -0.3519 0.3386, -0.3389 -0.3515 0.3386, -0.3551 -0.3501 0.3386, -0.354 -0.3603 0.3386, -0.3523 -0.3608 0.3386, -0.347 -0.3184 0.3386, -0.3357 -0.3535 0.3386, -0.3351 -0.3546 0.3386, -0.3265 -0.3579 0.3386, -0.3078 -0.3454 0.3386, -0.3119 -0.3383 0.3386, -0.3297 -0.3476 0.3386, -0.3398 -0.3515 0.3386, -0.3411 -0.3516 0.3386, -0.3429 -0.3435 0.3386, -0.3423 -0.3521 0.3386, -0.3458 -0.3446 0.3386, -0.3433 -0.3528 0.3386, -0.3485 -0.3465 0.3386, -0.3439 -0.3534 0.3386, -0.3507 -0.349 0.3386, -0.3446 -0.3545 0.3386, -0.345 -0.3558 0.3386, -0.345 -0.3571 0.3386, -0.3349 -0.344 0.3386, -0.3381 -0.3432 0.3386, -0.3397 -0.3431 0.3386, -0.3366 -0.3526 0.3386, -0.3034 -0.3322 0.3386, -0.3024 -0.3322 0.3386, -0.2969 -0.325 0.3386, -0.2999 -0.3325 0.3386, -0.2963 -0.3253 0.3386, -0.2975 -0.3334 0.3386, -0.2923 -0.3272 0.3386, -0.2887 -0.3303 0.3386, -0.3412 -0.3155 0.3386, -0.3348 -0.3206 0.3386, -0.3381 -0.3128 0.3386, -0.3313 -0.318 0.3386, -0.3344 -0.3106 0.3386, -0.3483 -0.3264 0.3386, -0.3469 -0.3264 0.3386, -0.3455 -0.3185 0.3386, -0.3438 -0.3267 0.3386, -0.3408 -0.3278 0.3386, -0.3447 -0.3583 0.3386, -0.3442 -0.3594 0.3386, -0.3321 -0.3455 0.3386, -0.2887 -0.3551 0.3386, -0.2949 -0.3498 0.3386, -0.2923 -0.3581 0.3386, -0.2969 -0.3514 0.3386, -0.2964 -0.3601 0.3386, -0.2992 -0.3525 0.3386, -0.3008 -0.361 0.3386, -0.3016 -0.3529 0.3386, -0.3086 -0.361 0.3386, -0.3076 -0.3529 0.3386, -0.3094 -0.3609 0.3386, -0.2955 -0.3348 0.3386, -0.2939 -0.3366 0.3386, -0.286 -0.334 0.3386, -0.2927 -0.3388 0.3386, -0.2844 -0.3381 0.3386, -0.2921 -0.3414 0.3386, -0.2838 -0.3424 0.3386, -0.292 -0.3426 0.3386, -0.2844 -0.3472 0.3386, -0.2923 -0.3452 0.3386, -0.2861 -0.3514 0.3386, -0.2933 -0.3475 0.3386, -0.2947 -0.3496 0.3386, -0.3041 -0.3145 0.3386, -0.3093 -0.3206 0.3386, -0.2996 -0.3199 0.3386, -0.3063 -0.3242 0.3386, -0.3043 -0.3285 0.3386, -0.3598 -0.3364 0.3386, -0.3685 -0.3386 0.3386, -0.3602 -0.3396 0.3386, -0.3685 -0.3399 0.3386, -0.36 -0.3417 0.3386, -0.3679 -0.3451 0.3386, -0.359 -0.3449 0.3386, -0.366 -0.3501 0.3386, -0.3575 -0.3476 0.3386, -0.363 -0.3544 0.3386, -0.3588 -0.3579 0.3386, -0.3347 -0.3558 0.3386, -0.3347 -0.3571 0.3386, -0.3273 -0.3612 0.3386, -0.335 -0.3584 0.3386, -0.3288 -0.3641 0.3386, -0.3355 -0.3595 0.3386, -0.3309 -0.3664 0.3386, -0.3364 -0.3605 0.3386, -0.3335 -0.3683 0.3386, -0.3374 -0.3612 0.3386, -0.3365 -0.3694 0.3386, -0.3385 -0.3617 0.3386, -0.3397 -0.3698 0.3386, -0.3398 -0.3618 0.3386, -0.3402 -0.3698 0.3386, -0.3401 -0.3618 0.3386, -0.3434 -0.3693 0.3386, -0.3413 -0.3616 0.3386, -0.3464 -0.368 0.3386, -0.3425 -0.3611 0.3386, -0.3435 -0.3603 0.3386, -0.3283 -0.3083 0.3386, -0.3269 -0.3162 0.3386, -0.3222 -0.3076 0.3386, -0.322 -0.3156 0.3386, -0.316 -0.3084 0.3386, -0.3175 -0.3162 0.3386, -0.3094 -0.3109 0.3386, -0.3134 -0.3177 0.3386, -0.3096 -0.3203 0.3386, -0.3572 -0.3209 0.3386, -0.3614 -0.3239 0.3386, -0.3568 -0.3308 0.3386, -0.3623 -0.3248 0.3386, -0.3586 -0.3335 0.3386, -0.3655 -0.3289 0.3386, -0.3676 -0.3336 0.3386, -0.3082 -0.3528 0.3386, -0.3114 -0.3596 0.3386, -0.3111 -0.3599 0.3386, -0.3078 -0.3529 0.3386, -0.3102 -0.3606 0.3386, -0.3125 -0.3569 0.3386, -0.3123 -0.3579 0.3386, -0.312 -0.3588 0.3386, -0.3094 -0.3529 0.3386, -0.3103 -0.3533 0.3386, -0.3124 -0.3564 0.3386, -0.3111 -0.3539 0.3386, -0.3117 -0.3545 0.3386, -0.3122 -0.3554 0.3386, -0.3084 -0.3528 0.3386, -0.2838 -0.3424 0.3346, -0.2844 -0.3381 0.3346, -0.2848 -0.337 0.3346, -0.286 -0.334 0.3346, -0.2878 -0.3315 0.3346, -0.2887 -0.3303 0.3346, -0.2923 -0.3272 0.3346, -0.2963 -0.3253 0.3346, -0.2969 -0.325 0.3346, -0.2996 -0.3199 0.3346, -0.3041 -0.3145 0.3346, -0.3071 -0.3125 0.3346, -0.3094 -0.3109 0.3346, -0.316 -0.3084 0.3346, -0.3222 -0.3076 0.3346, -0.3381 -0.3128 0.3346, -0.3376 -0.3125 0.3346, -0.3344 -0.3106 0.3346, -0.3283 -0.3083 0.3346, -0.3412 -0.3155 0.3346, -0.344 -0.3187 0.3346, -0.3455 -0.3185 0.3346, -0.347 -0.3184 0.3346, -0.3522 -0.319 0.3346, -0.3556 -0.3203 0.3346, -0.3572 -0.3209 0.3346, -0.3614 -0.3239 0.3346, -0.3623 -0.3248 0.3346, -0.3685 -0.3399 0.3346, -0.3655 -0.3289 0.3346, -0.3666 -0.3315 0.3346, -0.3676 -0.3336 0.3346, -0.3682 -0.337 0.3346, -0.3685 -0.3386 0.3346, -0.3679 -0.3451 0.3346, -0.366 -0.3501 0.3346, -0.363 -0.3544 0.3346, -0.3523 -0.3608 0.3346, -0.3588 -0.3579 0.3346, -0.3556 -0.3595 0.3346, -0.354 -0.3603 0.3346, -0.3522 -0.3611 0.3346, -0.351 -0.3636 0.3346, -0.349 -0.3661 0.3346, -0.3464 -0.368 0.3346, -0.3452 -0.3685 0.3346, -0.3434 -0.3693 0.3346, -0.3402 -0.3698 0.3346, -0.3397 -0.3698 0.3346, -0.3264 -0.3565 0.3346, -0.3365 -0.3694 0.3346, -0.3342 -0.3685 0.3346, -0.3335 -0.3683 0.3346, -0.3309 -0.3664 0.3346, -0.3288 -0.3641 0.3346, -0.3273 -0.3612 0.3346, -0.3273 -0.3611 0.3346, -0.3265 -0.3579 0.3346, -0.3264 -0.3552 0.3346, -0.3078 -0.3454 0.3346, -0.3119 -0.3383 0.3346, -0.3297 -0.3476 0.3346, -0.3321 -0.3455 0.3346, -0.3349 -0.344 0.3346, -0.3381 -0.3432 0.3346, -0.3397 -0.3431 0.3346, -0.3429 -0.3435 0.3346, -0.3458 -0.3446 0.3346, -0.3485 -0.3465 0.3346, -0.3507 -0.349 0.3346, -0.3522 -0.3519 0.3346, -0.3551 -0.3501 0.3346, -0.3556 -0.3496 0.3346, -0.3575 -0.3476 0.3346, -0.359 -0.3449 0.3346, -0.36 -0.3417 0.3346, -0.3602 -0.3396 0.3346, -0.3598 -0.337 0.3346, -0.3598 -0.3364 0.3346, -0.3586 -0.3335 0.3346, -0.3572 -0.3315 0.3346, -0.3568 -0.3308 0.3346, -0.3556 -0.3298 0.3346, -0.3545 -0.3288 0.3346, -0.3515 -0.3272 0.3346, -0.3483 -0.3264 0.3346, -0.3469 -0.3264 0.3346, -0.3438 -0.3267 0.3346, -0.3408 -0.3278 0.3346, -0.3398 -0.3284 0.3346, -0.3378 -0.3242 0.3346, -0.3348 -0.3206 0.3346, -0.3313 -0.318 0.3346, -0.3269 -0.3162 0.3346, -0.322 -0.3156 0.3346, -0.3034 -0.3322 0.3346, -0.3036 -0.3315 0.3346, -0.3043 -0.3285 0.3346, -0.3063 -0.3242 0.3346, -0.3093 -0.3206 0.3346, -0.3096 -0.3203 0.3346, -0.3134 -0.3177 0.3346, -0.3175 -0.3162 0.3346, -0.3024 -0.3322 0.3346, -0.2999 -0.3325 0.3346, -0.2975 -0.3334 0.3346, -0.2955 -0.3348 0.3346, -0.2939 -0.3366 0.3346, -0.2937 -0.337 0.3346, -0.2927 -0.3388 0.3346, -0.2921 -0.3414 0.3346, -0.292 -0.3426 0.3346, -0.2923 -0.3452 0.3346, -0.2933 -0.3475 0.3346, -0.2947 -0.3496 0.3346, -0.2949 -0.3498 0.3346, -0.2969 -0.3514 0.3346, -0.2992 -0.3525 0.3346, -0.3016 -0.3529 0.3346, -0.3076 -0.3529 0.3346, -0.3078 -0.3529 0.3346, -0.3082 -0.3528 0.3346, -0.3084 -0.3528 0.3346, -0.3094 -0.3529 0.3346, -0.3103 -0.3533 0.3346, -0.3111 -0.3539 0.3346, -0.3117 -0.3545 0.3346, -0.3122 -0.3554 0.3346, -0.3124 -0.3564 0.3346, -0.3125 -0.3569 0.3346, -0.3123 -0.3579 0.3346, -0.312 -0.3588 0.3346, -0.3114 -0.3596 0.3346, -0.3111 -0.3599 0.3346, -0.3102 -0.3606 0.3346, -0.3094 -0.3609 0.3346, -0.3086 -0.361 0.3346, -0.3008 -0.361 0.3346, -0.2964 -0.3601 0.3346, -0.2923 -0.3581 0.3346, -0.2887 -0.3551 0.3346, -0.2861 -0.3514 0.3346, -0.2844 -0.3472 0.3346, -0.3398 -0.3515 0.3346, -0.3389 -0.3515 0.3346, -0.3377 -0.3519 0.3346, -0.3366 -0.3526 0.3346, -0.3357 -0.3535 0.3346, -0.3351 -0.3546 0.3346, -0.3347 -0.3558 0.3346, -0.3347 -0.3571 0.3346, -0.335 -0.3584 0.3346, -0.3355 -0.3595 0.3346, -0.3364 -0.3605 0.3346, -0.3374 -0.3612 0.3346, -0.3385 -0.3617 0.3346, -0.3398 -0.3618 0.3346, -0.3401 -0.3618 0.3346, -0.3413 -0.3616 0.3346, -0.3425 -0.3611 0.3346, -0.3435 -0.3603 0.3346, -0.3442 -0.3594 0.3346, -0.3447 -0.3583 0.3346, -0.345 -0.3571 0.3346, -0.345 -0.3558 0.3346, -0.3446 -0.3545 0.3346, -0.3439 -0.3534 0.3346, -0.3433 -0.3528 0.3346, -0.3423 -0.3521 0.3346, -0.3411 -0.3516 0.3346, -0.3411 -0.3516 0.3346
            ]
        }
        coordIndex [
            0,1,2,-1,3,4,5,-1,6,7,8,-1,9,10,11,-1,11,10,12,-1,13,14,2,-1,2,14,15,-1,2,15,0,-1,5,4,16,-1,17,18,19,-1,20,21,10,-1,10,21,22,-1,10,22,12,-1,12,22,23,-1,24,25,26,-1,26,25,27,-1,26,27,28,-1,28,27,29,-1,28,29,30,-1,30,29,31,-1,30,31,32,-1,32,31,2,-1,32,2,33,-1,33,2,34,-1,35,36,24,-1,24,36,37,-1,24,37,25,-1,9,11,19,-1,19,11,38,-1,19,38,17,-1,39,40,41,-1,41,40,42,-1,41,42,43,-1,43,42,44,-1,43,44,45,-1,45,44,46,-1,6,8,47,-1,47,8,48,-1,47,48,49,-1,49,48,50,-1,49,50,51,-1,4,52,16,-1,16,52,53,-1,16,53,54,-1,54,53,55,-1,54,55,6,-1,6,55,56,-1,6,56,7,-1,34,2,57,-1,57,2,1,-1,57,1,58,-1,23,22,24,-1,24,22,59,-1,24,59,35,-1,60,61,62,-1,62,61,63,-1,62,63,64,-1,64,63,65,-1,64,65,66,-1,66,65,67,-1,66,67,68,-1,68,67,69,-1,68,69,70,-1,44,71,46,-1,46,71,72,-1,46,72,73,-1,73,72,74,-1,73,74,75,-1,75,74,76,-1,75,76,77,-1,77,76,78,-1,77,78,79,-1,79,78,80,-1,79,80,81,-1,81,80,82,-1,81,82,60,-1,60,82,83,-1,60,83,61,-1,84,85,86,-1,86,85,87,-1,86,87,41,-1,41,87,88,-1,41,88,39,-1,89,90,91,-1,91,90,92,-1,91,92,93,-1,93,92,94,-1,93,94,95,-1,95,94,96,-1,95,96,97,-1,97,96,98,-1,97,98,13,-1,13,98,99,-1,13,99,14,-1,18,100,19,-1,19,100,101,-1,19,101,102,-1,102,101,103,-1,102,103,104,-1,104,103,105,-1,104,105,106,-1,106,105,107,-1,106,107,108,-1,108,107,109,-1,108,109,110,-1,110,109,111,-1,110,111,112,-1,112,111,113,-1,112,113,114,-1,114,113,115,-1,114,115,116,-1,116,115,117,-1,116,117,118,-1,118,117,119,-1,118,119,1,-1,1,119,120,-1,1,120,58,-1,51,50,121,-1,121,50,122,-1,121,122,123,-1,123,122,124,-1,123,124,125,-1,125,124,126,-1,125,126,127,-1,127,126,128,-1,127,128,84,-1,84,128,129,-1,84,129,85,-1,5,130,3,-1,3,130,131,-1,3,131,132,-1,132,131,133,-1,132,133,134,-1,134,133,135,-1,134,135,89,-1,89,135,136,-1,89,136,90,-1,137,138,139,-1,69,140,70,-1,70,140,137,-1,70,137,141,-1,141,137,139,-1,142,143,137,-1,137,143,144,-1,137,144,138,-1,145,146,147,-1,146,148,147,-1,147,148,149,-1,147,149,150,-1,142,137,147,-1,147,137,151,-1,147,151,145,-1,77,152,153,-1,77,153,75,-1,75,153,154,-1,75,154,73,-1,154,155,73,-1,73,155,156,-1,73,156,46,-1,156,157,46,-1,46,157,158,-1,46,158,45,-1,45,158,159,-1,45,159,43,-1,43,159,160,-1,43,160,41,-1,41,160,161,-1,41,161,86,-1,86,161,162,-1,86,162,84,-1,84,162,127,-1,127,162,163,-1,163,164,127,-1,127,164,165,-1,127,165,125,-1,125,165,166,-1,125,166,123,-1,167,49,168,-1,168,49,51,-1,168,51,169,-1,169,51,121,-1,169,121,170,-1,170,121,123,-1,170,123,166,-1,49,167,171,-1,49,171,47,-1,47,171,172,-1,47,172,6,-1,6,172,173,-1,6,173,54,-1,54,173,174,-1,54,174,16,-1,16,174,175,-1,16,175,5,-1,5,175,176,-1,5,176,130,-1,176,177,130,-1,130,177,178,-1,130,178,131,-1,131,178,179,-1,131,179,133,-1,180,92,90,-1,133,179,181,-1,182,136,181,-1,181,136,135,-1,181,135,133,-1,182,183,136,-1,136,183,184,-1,136,184,90,-1,90,184,185,-1,90,185,180,-1,92,180,186,-1,92,186,94,-1,94,186,187,-1,94,187,96,-1,96,187,188,-1,96,188,98,-1,189,15,14,-1,98,188,190,-1,98,190,99,-1,99,190,191,-1,99,191,14,-1,14,191,192,-1,14,192,189,-1,15,189,193,-1,15,193,0,-1,193,194,0,-1,0,194,195,-1,0,195,1,-1,1,195,196,-1,1,196,118,-1,118,196,197,-1,118,197,116,-1,197,198,116,-1,116,198,199,-1,116,199,114,-1,114,199,200,-1,114,200,112,-1,201,9,19,-1,112,200,202,-1,112,202,110,-1,110,202,203,-1,110,203,108,-1,203,204,108,-1,108,204,205,-1,108,205,106,-1,106,205,206,-1,106,206,104,-1,104,206,207,-1,104,207,102,-1,102,207,208,-1,102,208,19,-1,19,208,209,-1,19,209,201,-1,10,9,210,-1,210,9,201,-1,20,10,211,-1,211,10,210,-1,21,20,212,-1,212,20,211,-1,22,21,213,-1,213,21,212,-1,22,213,214,-1,22,214,59,-1,59,214,215,-1,59,215,35,-1,35,215,216,-1,35,216,36,-1,36,216,217,-1,36,217,37,-1,37,217,218,-1,37,218,25,-1,25,218,219,-1,25,219,27,-1,27,219,220,-1,27,220,29,-1,29,220,221,-1,29,221,31,-1,31,221,222,-1,31,222,2,-1,2,222,223,-1,2,223,13,-1,13,223,224,-1,13,224,97,-1,224,225,97,-1,97,225,226,-1,97,226,95,-1,95,226,227,-1,95,227,93,-1,93,227,228,-1,93,228,91,-1,228,229,91,-1,91,229,89,-1,229,230,89,-1,89,230,231,-1,89,231,134,-1,134,231,232,-1,134,232,132,-1,232,233,132,-1,132,233,234,-1,132,234,3,-1,234,235,3,-1,3,235,236,-1,3,236,4,-1,4,236,237,-1,4,237,52,-1,52,237,238,-1,52,238,53,-1,53,238,239,-1,53,239,55,-1,55,239,240,-1,55,240,56,-1,56,240,241,-1,56,241,7,-1,7,241,242,-1,7,242,8,-1,8,242,243,-1,8,243,48,-1,48,243,244,-1,48,244,50,-1,50,244,245,-1,50,245,122,-1,122,245,246,-1,122,246,124,-1,247,39,248,-1,248,39,88,-1,248,88,249,-1,249,88,87,-1,249,87,250,-1,250,87,85,-1,250,85,251,-1,251,85,129,-1,251,129,252,-1,252,129,128,-1,252,128,253,-1,253,128,126,-1,253,126,254,-1,254,126,124,-1,254,124,246,-1,40,39,255,-1,255,39,247,-1,40,255,256,-1,40,256,42,-1,42,256,257,-1,42,257,44,-1,44,257,258,-1,44,258,71,-1,71,258,259,-1,71,259,72,-1,72,259,260,-1,72,260,74,-1,260,261,74,-1,74,261,262,-1,74,262,76,-1,76,262,263,-1,76,263,78,-1,78,263,264,-1,78,264,80,-1,80,264,265,-1,80,265,82,-1,82,265,266,-1,82,266,83,-1,83,266,267,-1,83,267,61,-1,61,267,268,-1,61,268,63,-1,63,268,269,-1,63,269,65,-1,65,269,270,-1,65,270,67,-1,69,67,271,-1,271,67,270,-1,69,271,272,-1,69,272,140,-1,140,272,273,-1,140,273,137,-1,137,273,274,-1,137,274,151,-1,151,274,275,-1,151,275,145,-1,145,275,276,-1,145,276,146,-1,146,276,277,-1,146,277,148,-1,148,277,278,-1,148,278,149,-1,149,278,279,-1,149,279,150,-1,150,279,280,-1,150,280,147,-1,147,280,281,-1,147,281,142,-1,142,281,282,-1,142,282,143,-1,143,282,283,-1,143,283,144,-1,144,283,284,-1,144,284,138,-1,138,284,285,-1,138,285,139,-1,139,285,286,-1,139,286,141,-1,141,286,287,-1,141,287,70,-1,70,287,288,-1,70,288,68,-1,66,68,289,-1,289,68,288,-1,66,289,290,-1,66,290,64,-1,64,290,291,-1,64,291,62,-1,62,291,292,-1,62,292,60,-1,60,292,293,-1,60,293,81,-1,81,293,294,-1,81,294,79,-1,79,294,152,-1,79,152,77,-1,23,295,296,-1,23,296,12,-1,12,296,297,-1,12,297,11,-1,11,297,298,-1,11,298,38,-1,38,298,299,-1,38,299,17,-1,17,299,300,-1,17,300,18,-1,18,300,301,-1,18,301,100,-1,100,301,302,-1,100,302,101,-1,101,302,303,-1,101,303,103,-1,103,303,304,-1,103,304,105,-1,105,304,305,-1,105,305,107,-1,107,305,306,-1,107,306,109,-1,109,306,307,-1,109,307,111,-1,111,307,308,-1,111,308,113,-1,113,308,309,-1,113,309,115,-1,115,309,310,-1,115,310,117,-1,117,310,311,-1,117,311,119,-1,119,311,312,-1,119,312,120,-1,120,312,313,-1,120,313,58,-1,58,313,314,-1,58,314,57,-1,57,314,315,-1,57,315,34,-1,34,315,316,-1,34,316,33,-1,33,316,317,-1,33,317,32,-1,32,317,318,-1,32,318,30,-1,30,318,319,-1,30,319,28,-1,28,319,320,-1,28,320,26,-1,26,320,321,-1,26,321,24,-1,24,321,295,-1,24,295,23,-1,
        ]
    }
}
Shape{
    appearance Appearance {
        material  Material 	{
            diffuseColor 0.25098039215686274 0.25098039215686274 0.25098039215686274
            specularColor 0.12549019607843137 0.12549019607843137 0.12549019607843137
            ambientIntensity 0.2
            transparency 0
            shininess 0.5
        }
    }
    geometry IndexedFaceSet {
        ccw TRUE
        solid FALSE
        coord DEF co Coordinate {
            point [
                -0.3401 -0.3618 0.3346, -0.3433 -0.3528 0.3346, -0.3439 -0.3534 0.3346, -0.3398 -0.3515 0.3346, -0.3411 -0.3516 0.3346, -0.3423 -0.3521 0.3346, -0.3447 -0.3583 0.3346, -0.3442 -0.3594 0.3346, -0.3435 -0.3603 0.3346, -0.3389 -0.3515 0.3346, -0.3398 -0.3618 0.3346, -0.3385 -0.3617 0.3346, -0.3355 -0.3595 0.3346, -0.3351 -0.3546 0.3346, -0.3364 -0.3605 0.3346, -0.3357 -0.3535 0.3346, -0.3366 -0.3526 0.3346, -0.3374 -0.3612 0.3346, -0.3377 -0.3519 0.3346, -0.3446 -0.3545 0.3346, -0.345 -0.3558 0.3346, -0.345 -0.3571 0.3346, -0.3425 -0.3611 0.3346, -0.3413 -0.3616 0.3346, -0.335 -0.3584 0.3346, -0.3347 -0.3571 0.3346, -0.3347 -0.3558 0.3346, -0.3347 -0.3558 0.3346
            ]
        }
        coordIndex [
            0,1,2,-1,3,4,0,-1,0,4,5,-1,0,5,1,-1,6,7,2,-1,2,7,8,-1,3,0,9,-1,9,0,10,-1,9,10,11,-1,12,13,14,-1,14,13,15,-1,14,15,16,-1,11,17,9,-1,9,17,14,-1,9,14,18,-1,18,14,16,-1,19,20,2,-1,2,20,21,-1,2,21,6,-1,8,22,2,-1,2,22,23,-1,2,23,0,-1,24,25,12,-1,12,25,26,-1,12,26,13,-1,
        ]
    }
}