#VRML V2.0 utf8
# 3D model generated by easyeda2kicad.py (https://github.com/uPesy/easyeda2kicad.py)

Shape{
    appearance Appearance {
        material  Material 	{
            diffuseColor 0.996078431372549 0.8705882352941177 0.7607843137254902
            specularColor 0.4980392156862745 0.43529411764705883 0.3803921568627451
            ambientIntensity 0.2
            transparency 0
            shininess 0.5
        }
    }
    geometry IndexedFaceSet {
        ccw TRUE
        solid FALSE
        coord DEF co Coordinate {
            point [
                -0.7156 0.3937 -0.4016, -0.7156 0.1575 -0.4016, -0.7156 0.3937 -0.3937, -0.7156 0.1575 -0.3937, -0.4301 0.3937 -0.4016, -0.4301 0.3937 -0.3937, -0.4301 0.1575 -0.4016, -0.4301 0.1575 -0.3937, -0.3337 0.3937 -0.4016, -0.3337 0.1575 -0.4016, -0.3337 0.3937 -0.3937, -0.3337 0.1575 -0.3937, -0.0482 0.3937 -0.4016, -0.0482 0.3937 -0.3937, -0.0482 0.1575 -0.4016, -0.0482 0.1575 -0.3937, 0.0482 0.3937 -0.4016, 0.0482 0.1575 -0.4016, 0.0482 0.3937 -0.3937, 0.0482 0.1575 -0.3937, 0.3337 0.3937 -0.4016, 0.3337 0.3937 -0.3937, 0.3337 0.1575 -0.4016, 0.3337 0.1575 -0.3937, 0.4301 0.3937 -0.4016, 0.4301 0.1575 -0.4016, 0.4301 0.3937 -0.3937, 0.4301 0.1575 -0.3937, 0.7156 0.3937 -0.4016, 0.7156 0.3937 -0.3937, 0.7156 0.1575 -0.4016, 0.7156 0.1575 -0.3937, -0.3337 -0.1575 -0.4016, -0.3337 -0.3937 -0.4016, -0.3337 -0.1575 -0.3937, -0.3337 -0.3937 -0.3937, -0.0482 -0.1575 -0.4016, -0.0482 -0.1575 -0.3937, -0.0482 -0.3937 -0.4016, -0.0482 -0.3937 -0.3937, 0.0482 -0.1575 -0.4016, 0.0482 -0.3937 -0.4016, 0.0482 -0.1575 -0.3937, 0.0482 -0.3937 -0.3937, 0.3337 -0.1575 -0.4016, 0.3337 -0.1575 -0.3937, 0.3337 -0.3937 -0.4016, 0.3337 -0.3937 -0.3937, 0.4301 -0.3937 -0.4016, 0.7156 -0.3937 -0.4016, 0.4301 -0.3937 -0.3937, 0.7156 -0.3937 -0.3937, 0.4301 -0.1969 -0.4016, 0.4301 -0.1969 -0.3937, 0.4695 -0.1575 -0.4016, 0.4695 -0.1575 -0.3937, 0.7156 -0.1575 -0.4016, 0.7156 -0.1575 -0.3937, -0.7156 -0.1575 -0.4016, -0.7156 -0.3937 -0.4016, -0.7156 -0.1575 -0.3937, -0.7156 -0.3937 -0.3937, -0.4301 -0.1575 -0.4016, -0.4301 -0.1575 -0.3937, -0.4301 -0.3937 -0.4016, -0.4301 -0.3937 -0.3937, -0.4301 -0.3937 -0.3937
            ]
        }
        coordIndex [
            0,1,2,-1,2,1,3,-1,4,0,5,-1,5,0,2,-1,6,4,7,-1,7,4,5,-1,1,6,3,-1,3,6,7,-1,4,6,0,-1,0,6,1,-1,7,5,3,-1,3,5,2,-1,8,9,10,-1,10,9,11,-1,12,8,13,-1,13,8,10,-1,14,12,15,-1,15,12,13,-1,9,14,11,-1,11,14,15,-1,12,14,8,-1,8,14,9,-1,15,13,11,-1,11,13,10,-1,16,17,18,-1,18,17,19,-1,20,16,21,-1,21,16,18,-1,22,20,23,-1,23,20,21,-1,17,22,19,-1,19,22,23,-1,20,22,16,-1,16,22,17,-1,23,21,19,-1,19,21,18,-1,24,25,26,-1,26,25,27,-1,28,24,29,-1,29,24,26,-1,30,28,31,-1,31,28,29,-1,25,30,27,-1,27,30,31,-1,28,30,24,-1,24,30,25,-1,31,29,27,-1,27,29,26,-1,32,33,34,-1,34,33,35,-1,36,32,37,-1,37,32,34,-1,38,36,39,-1,39,36,37,-1,33,38,35,-1,35,38,39,-1,36,38,32,-1,32,38,33,-1,39,37,35,-1,35,37,34,-1,40,41,42,-1,42,41,43,-1,44,40,45,-1,45,40,42,-1,46,44,47,-1,47,44,45,-1,41,46,43,-1,43,46,47,-1,44,46,40,-1,40,46,41,-1,47,45,43,-1,43,45,42,-1,48,49,50,-1,50,49,51,-1,52,48,53,-1,53,48,50,-1,54,52,55,-1,55,52,53,-1,56,54,57,-1,57,54,55,-1,49,56,51,-1,51,56,57,-1,54,56,52,-1,52,56,49,-1,52,49,48,-1,53,50,55,-1,55,50,51,-1,55,51,57,-1,58,59,60,-1,60,59,61,-1,62,58,63,-1,63,58,60,-1,64,62,65,-1,65,62,63,-1,59,64,61,-1,61,64,65,-1,62,64,58,-1,58,64,59,-1,65,63,61,-1,61,63,60,-1,
        ]
    }
}
Shape{
    appearance Appearance {
        material  Material 	{
            diffuseColor 0.25098039215686274 0.25098039215686274 0.25098039215686274
            specularColor 0.12549019607843137 0.12549019607843137 0.12549019607843137
            ambientIntensity 0.2
            transparency 0
            shininess 0.5
        }
    }
    geometry IndexedFaceSet {
        ccw TRUE
        solid FALSE
        coord DEF co Coordinate {
            point [
                0.0691 0.0078 -0.3937, 0.073 0.0073 -0.3937, 0.0606 -0.0218 -0.3937, 0.0794 -0.0264 -0.3937, 0.0925 -0.0278 -0.3937, 0.0756 -0.0277 -0.3937, 0.073 -0.028 -0.3937, 0.0643 0.0071 -0.3937, 0.0599 -0.0214 -0.3937, 0.0599 0.0052 -0.3937, 0.0561 0.4724 -0.3937, 0.0599 0.0105 -0.3937, 0.0759 0.0063 -0.3937, 0.0787 0.0044 -0.3937, 0.081 0.0018 -0.3937, 0.0839 -0.0085 -0.3937, 0.0835 -0.0128 -0.3937, 0.0824 -0.0161 -0.3937, 0.0737 -0.0235 -0.3937, 0.07 -0.0239 -0.3937, 0.0765 -0.0225 -0.3937, 0.079 -0.0208 -0.3937, 0.0808 -0.0189 -0.3937, 0.0648 -0.0233 -0.3937, 0.0871 0.0012 -0.3937, 0.0848 0.0049 -0.3937, 0.1074 0.0116 -0.3937, 0.1127 0.0116 -0.3937, 0.7874 0.4724 -0.3937, 0.1127 -0.0278 -0.3937, 0.7874 -0.028 -0.3937, 0.0827 -0.0012 -0.3937, 0.0837 -0.0054 -0.3937, 0.0826 -0.0244 -0.3937, 0.0855 -0.0213 -0.3937, 0.0925 -0.0234 -0.3937, 0.0876 -0.0175 -0.3937, 0.1074 -0.0234 -0.3937, 0.0812 0.0083 -0.3937, 0.0775 0.0105 -0.3937, 0.0731 0.0118 -0.3937, 0.0888 -0.0134 -0.3937, 0.0892 -0.0088 -0.3937, 0.0886 -0.0032 -0.3937, 0.0692 0.0121 -0.3937, 0.0644 0.0118 -0.3937, 0.0599 -0.0257 -0.3937, 0.0641 -0.0274 -0.3937, 0.0561 -0.028 -0.3937, 0.0681 -0.028 -0.3937, 0.0561 -0.4724 -0.3937, 0.0696 -0.0282 -0.3937, 0.7874 -0.4724 -0.3937, 0.0707 -0.0282 -0.3937, 0.0234 -0.0278 -0.3937, 0.0311 -0.0234 -0.3937, 0.0311 -0.0278 -0.3937, 0.0522 -0.0278 -0.3937, 0.0522 0.0116 -0.3937, -0.037 -0.0167 -0.3937, -0.0207 -0.0167 -0.3937, -0.0169 -0.0278 -0.3937, 0.032 0.0116 -0.3937, -0.7874 0.4724 -0.3937, -0.0112 -0.0278 -0.3937, -0.0063 -0.017 -0.3937, -0.0041 -0.0205 -0.3937, -0.7874 -0.028 -0.3937, -0.0313 0.0116 -0.3937, 0.0469 0.0073 -0.3937, 0.0469 -0.0057 -0.3937, 0.032 0.0073 -0.3937, 0.033 -0.0057 -0.3937, 0.033 -0.01 -0.3937, 0.0469 -0.01 -0.3937, 0.0469 -0.0234 -0.3937, -0.0008 -0.0236 -0.3937, 0.0033 -0.026 -0.3937, 0.0078 -0.0273 -0.3937, -0.0261 0.0116 -0.3937, 0.0234 0.0116 -0.3937, 0.0066 0.011 -0.3937, 0.002 0.0094 -0.3937, -0.0023 0.0065 -0.3937, 0.0123 0.0116 -0.3937, -0.0023 0.0065 -0.3937, -0.0051 0.0034 -0.3937, -0.0069 0.0 -0.3937, -0.008 -0.0039 -0.3937, -0.0083 -0.0076 -0.3937, -0.0077 -0.0129 -0.3937, -0.0467 -0.0278 -0.3937, -0.0409 -0.0278 -0.3937, 0.0127 -0.0278 -0.3937, -0.7874 -0.4724 -0.3937, 0.7874 0.4724 0.0, 0.7874 -0.4724 0.0, -0.7874 -0.4724 0.0, -0.7874 0.4724 0.0, 0.7172 -0.3819 0.0, 0.7097 -0.4002 0.0, 0.6977 -0.4158 0.0, 0.682 -0.4278 0.0, 0.6246 -0.4354 0.0, 0.6442 -0.438 0.0, 0.6638 -0.4354 0.0, 0.6064 -0.4278 0.0, 0.5907 -0.4158 0.0, 0.5787 -0.4002 0.0, 0.6246 -0.2893 0.0, 0.6442 -0.2867 0.0, 0.5282 0.0 0.0, 0.6638 -0.2893 0.0, 0.682 -0.2969 0.0, 0.5711 -0.3428 0.0, 0.5787 -0.3245 0.0, 0.387 -0.2029 0.0, 0.5238 -0.0436 0.0, 0.5107 -0.0853 0.0, 0.6064 -0.2969 0.0, 0.4894 -0.1236 0.0, 0.5907 -0.3089 0.0, 0.4609 -0.1569 0.0, 0.4263 -0.1837 0.0, -0.6047 0.0703 0.0, -0.584 0.1004 0.0, -0.5567 0.1246 0.0, -0.5244 0.1415 0.0, 0.5711 -0.3819 0.0, 0.5686 -0.3624 0.0, -0.4171 -0.1415 0.0, 0.3446 -0.2139 0.0, 0.3009 -0.2161 0.0, 0.2576 -0.2095 0.0, -0.4525 -0.1502 0.0, -0.489 -0.1502 0.0, -0.5244 -0.1415 0.0, -0.3848 0.1246 0.0, -0.3574 0.1004 0.0, -0.3367 0.0703 0.0, -0.3238 0.0362 0.0, -0.3367 -0.0703 0.0, -0.3574 -0.1004 0.0, -0.3848 -0.1246 0.0, -0.5567 -0.1246 0.0, -0.584 -0.1004 0.0, -0.6047 -0.0703 0.0, -0.489 0.1502 0.0, -0.4525 0.1502 0.0, -0.4171 0.1415 0.0, -0.6177 -0.0362 0.0, -0.6221 0.0 0.0, -0.6177 0.0362 0.0, 0.1793 -0.1711 0.0, 0.2165 -0.1943 0.0, -0.3194 0.0 0.0, -0.3238 -0.0362 0.0, 0.1476 0.141 0.0, 0.1226 0.105 0.0, 0.1053 0.0648 0.0, 0.1476 -0.141 0.0, 0.1226 -0.105 0.0, 0.1053 -0.0648 0.0, 0.2576 0.2095 0.0, 0.2165 0.1943 0.0, 0.1793 0.1711 0.0, 0.0965 -0.0219 0.0, 0.0965 0.0219 0.0, 0.3009 0.2161 0.0, 0.3446 0.2139 0.0, 0.387 0.2029 0.0, 0.4263 0.1837 0.0, 0.4609 0.1569 0.0, 0.4894 0.1236 0.0, 0.5107 0.0853 0.0, 0.5238 0.0436 0.0, 0.6977 -0.3089 0.0, 0.7097 -0.3245 0.0, 0.7172 -0.3428 0.0, 0.7198 -0.3624 0.0, 0.7198 -0.3624 0.0
            ]
        }
        coordIndex [
            0,1,2,-1,3,4,5,-1,5,4,6,-1,0,2,7,-1,7,2,8,-1,7,8,9,-1,9,8,10,-1,9,10,11,-1,1,12,2,-1,2,12,13,-1,2,13,14,-1,15,16,2,-1,2,16,17,-1,18,19,20,-1,20,19,21,-1,17,22,2,-1,2,22,21,-1,2,21,23,-1,23,21,19,-1,24,25,26,-1,26,25,10,-1,26,10,27,-1,27,10,28,-1,27,28,29,-1,29,28,30,-1,14,31,2,-1,2,31,32,-1,2,32,15,-1,3,33,4,-1,4,33,34,-1,4,34,35,-1,35,34,36,-1,35,36,37,-1,25,38,10,-1,10,38,39,-1,10,39,40,-1,36,41,37,-1,37,41,42,-1,37,42,26,-1,26,42,43,-1,26,43,24,-1,40,44,10,-1,10,44,45,-1,10,45,11,-1,46,47,48,-1,48,47,49,-1,48,49,50,-1,50,49,51,-1,50,51,52,-1,52,51,53,-1,52,53,30,-1,30,53,6,-1,30,6,29,-1,29,6,4,-1,54,55,56,-1,48,57,58,-1,59,60,61,-1,62,63,58,-1,58,63,10,-1,58,10,48,-1,48,10,8,-1,48,8,46,-1,64,65,66,-1,67,63,68,-1,69,70,71,-1,71,70,72,-1,73,74,75,-1,66,76,64,-1,64,76,77,-1,64,77,78,-1,68,63,79,-1,75,55,73,-1,73,55,54,-1,73,54,72,-1,72,54,80,-1,72,80,71,-1,81,82,79,-1,79,82,83,-1,81,79,84,-1,84,79,63,-1,84,63,80,-1,80,63,62,-1,80,62,71,-1,83,85,79,-1,79,85,86,-1,79,86,87,-1,87,88,79,-1,79,88,89,-1,79,89,64,-1,64,89,90,-1,64,90,65,-1,91,92,48,-1,93,54,48,-1,48,54,56,-1,48,56,57,-1,78,93,64,-1,64,93,48,-1,64,48,61,-1,61,48,92,-1,61,92,59,-1,68,91,67,-1,67,91,48,-1,67,48,94,-1,94,48,50,-1,28,95,30,-1,30,95,96,-1,30,96,52,-1,97,94,96,-1,96,94,50,-1,96,50,52,-1,98,63,97,-1,97,63,67,-1,97,67,94,-1,63,98,10,-1,10,98,95,-1,10,95,28,-1,99,100,96,-1,96,100,101,-1,96,101,102,-1,103,97,104,-1,104,97,96,-1,104,96,105,-1,105,96,102,-1,103,106,97,-1,97,106,107,-1,97,107,108,-1,109,110,111,-1,111,110,112,-1,111,112,113,-1,114,115,116,-1,111,117,109,-1,109,117,118,-1,109,118,119,-1,119,118,120,-1,119,120,121,-1,121,120,122,-1,121,122,115,-1,115,122,123,-1,115,123,116,-1,124,125,98,-1,98,125,126,-1,98,126,127,-1,108,128,97,-1,97,128,129,-1,97,129,130,-1,116,131,114,-1,114,131,132,-1,114,132,133,-1,130,134,97,-1,97,134,135,-1,97,135,136,-1,137,138,95,-1,95,138,139,-1,95,139,140,-1,133,141,114,-1,114,141,142,-1,114,142,129,-1,129,142,143,-1,129,143,130,-1,136,144,97,-1,97,144,145,-1,97,145,146,-1,127,147,98,-1,98,147,148,-1,98,148,95,-1,95,148,149,-1,95,149,137,-1,146,150,97,-1,97,150,151,-1,97,151,98,-1,98,151,152,-1,98,152,124,-1,153,140,154,-1,154,140,155,-1,154,155,133,-1,133,155,156,-1,133,156,141,-1,157,140,158,-1,158,140,159,-1,153,160,140,-1,140,160,161,-1,140,161,162,-1,163,95,164,-1,164,95,140,-1,164,140,165,-1,165,140,157,-1,162,166,140,-1,140,166,167,-1,140,167,159,-1,163,168,95,-1,95,168,169,-1,95,169,170,-1,170,171,95,-1,95,171,172,-1,95,172,173,-1,173,174,95,-1,95,174,175,-1,95,175,111,-1,113,176,111,-1,111,176,177,-1,111,177,95,-1,95,177,178,-1,95,178,96,-1,96,178,179,-1,96,179,99,-1,
        ]
    }
}
Shape{
    appearance Appearance {
        material  Material 	{
            diffuseColor 0.7529411764705882 0.7529411764705882 0.7529411764705882
            specularColor 0.3764705882352941 0.3764705882352941 0.3764705882352941
            ambientIntensity 0.2
            transparency 0
            shininess 0.5
        }
    }
    geometry IndexedFaceSet {
        ccw TRUE
        solid FALSE
        coord DEF co Coordinate {
            point [
                0.7198 -0.3624 -0.0004, 0.7198 -0.3624 0.0, 0.7172 -0.3428 -0.0004, 0.7172 -0.3428 0.0, 0.7097 -0.3245 -0.0004, 0.7097 -0.3245 0.0, 0.6977 -0.3089 -0.0004, 0.6977 -0.3089 0.0, 0.682 -0.2969 -0.0004, 0.682 -0.2969 0.0, 0.6638 -0.2893 -0.0004, 0.6638 -0.2893 0.0, 0.6442 -0.2867 -0.0004, 0.6442 -0.2867 0.0, 0.6246 -0.2893 -0.0004, 0.6246 -0.2893 0.0, 0.6064 -0.2969 -0.0004, 0.6064 -0.2969 0.0, 0.5907 -0.3089 -0.0004, 0.5907 -0.3089 0.0, 0.5787 -0.3245 -0.0004, 0.5787 -0.3245 0.0, 0.5711 -0.3428 -0.0004, 0.5711 -0.3428 0.0, 0.5686 -0.3624 -0.0004, 0.5686 -0.3624 0.0, 0.5711 -0.3819 -0.0004, 0.5711 -0.3819 0.0, 0.5787 -0.4002 -0.0004, 0.5787 -0.4002 0.0, 0.5907 -0.4158 -0.0004, 0.5907 -0.4158 0.0, 0.6064 -0.4278 -0.0004, 0.6064 -0.4278 0.0, 0.6246 -0.4354 -0.0004, 0.6246 -0.4354 0.0, 0.6442 -0.438 -0.0004, 0.6442 -0.438 0.0, 0.6638 -0.4354 -0.0004, 0.6638 -0.4354 0.0, 0.682 -0.4278 -0.0004, 0.682 -0.4278 0.0, 0.6977 -0.4158 -0.0004, 0.6977 -0.4158 0.0, 0.7097 -0.4002 -0.0004, 0.7097 -0.4002 0.0, 0.7172 -0.3819 -0.0004, 0.7172 -0.3819 0.0, 0.6442 -0.3624 -0.0004, 0.6442 -0.3624 -0.0004
            ]
        }
        coordIndex [
            0,1,2,-1,2,1,3,-1,2,3,4,-1,4,3,5,-1,4,5,6,-1,6,5,7,-1,6,7,8,-1,8,7,9,-1,8,9,10,-1,10,9,11,-1,10,11,12,-1,12,11,13,-1,12,13,14,-1,14,13,15,-1,14,15,16,-1,16,15,17,-1,16,17,18,-1,18,17,19,-1,18,19,20,-1,20,19,21,-1,20,21,22,-1,22,21,23,-1,22,23,24,-1,24,23,25,-1,24,25,26,-1,26,25,27,-1,26,27,28,-1,28,27,29,-1,28,29,30,-1,30,29,31,-1,30,31,32,-1,32,31,33,-1,32,33,34,-1,34,33,35,-1,34,35,36,-1,36,35,37,-1,36,37,38,-1,38,37,39,-1,38,39,40,-1,40,39,41,-1,40,41,42,-1,42,41,43,-1,42,43,44,-1,44,43,45,-1,44,45,46,-1,46,45,47,-1,46,47,0,-1,0,47,1,-1,44,46,48,-1,48,46,0,-1,48,0,2,-1,38,40,48,-1,48,40,42,-1,48,42,44,-1,32,34,48,-1,48,34,36,-1,48,36,38,-1,26,28,48,-1,48,28,30,-1,48,30,32,-1,20,22,48,-1,48,22,24,-1,48,24,26,-1,14,16,48,-1,48,16,18,-1,48,18,20,-1,8,10,48,-1,48,10,12,-1,48,12,14,-1,2,4,48,-1,48,4,6,-1,48,6,8,-1,
        ]
    }
}
Shape{
    appearance Appearance {
        material  Material 	{
            diffuseColor 0.5019607843137255 0.5019607843137255 0.5019607843137255
            specularColor 0.25098039215686274 0.25098039215686274 0.25098039215686274
            ambientIntensity 0.2
            transparency 0
            shininess 0.5
        }
    }
    geometry IndexedFaceSet {
        ccw TRUE
        solid FALSE
        coord DEF co Coordinate {
            point [
                -0.0313 0.0116 -0.3933, -0.0467 -0.0278 -0.3933, -0.0313 0.0116 -0.3937, -0.0467 -0.0278 -0.3937, -0.0409 -0.0278 -0.3933, -0.0409 -0.0278 -0.3937, -0.037 -0.0167 -0.3933, -0.037 -0.0167 -0.3937, -0.0207 -0.0167 -0.3933, -0.0207 -0.0167 -0.3937, -0.0169 -0.0278 -0.3933, -0.0169 -0.0278 -0.3937, -0.0112 -0.0278 -0.3933, -0.0112 -0.0278 -0.3937, -0.0261 0.0116 -0.3933, -0.0261 0.0116 -0.3937, -0.022 -0.0124 -0.3933, -0.0352 -0.0124 -0.3933, -0.0279 0.004 -0.3933, -0.0283 0.0054 -0.3933, -0.0285 0.0068 -0.3933, -0.0286 0.0068 -0.3933, -0.0289 0.0054 -0.3933, -0.0293 0.004 -0.3933, -0.022 -0.0124 -0.3937, -0.0352 -0.0124 -0.3937, -0.0279 0.004 -0.3937, -0.0283 0.0054 -0.3937, -0.0285 0.0068 -0.3937, -0.0286 0.0068 -0.3937, -0.0289 0.0054 -0.3937, -0.0293 0.004 -0.3937, 0.0127 -0.0278 -0.3933, 0.0234 -0.0278 -0.3933, 0.0127 -0.0278 -0.3937, 0.0234 -0.0278 -0.3937, 0.0234 0.0116 -0.3933, 0.0234 0.0116 -0.3937, 0.0123 0.0116 -0.3933, 0.0123 0.0116 -0.3937, -0.0083 -0.0076 -0.3933, -0.0083 -0.0076 -0.3937, -0.008 -0.0039 -0.3937, -0.008 -0.0039 -0.3933, -0.0069 0.0 -0.3937, -0.0069 0.0 -0.3933, -0.0051 0.0034 -0.3937, -0.0051 0.0034 -0.3933, -0.0023 0.0065 -0.3937, -0.0023 0.0065 -0.3933, -0.0023 0.0065 -0.3937, -0.0023 0.0065 -0.3933, 0.002 0.0094 -0.3937, 0.002 0.0094 -0.3933, 0.0066 0.011 -0.3937, 0.0066 0.011 -0.3933, 0.0078 -0.0273 -0.3937, 0.0078 -0.0273 -0.3933, 0.0033 -0.026 -0.3937, 0.0033 -0.026 -0.3933, -0.0008 -0.0236 -0.3937, -0.0008 -0.0236 -0.3933, -0.0041 -0.0205 -0.3937, -0.0041 -0.0205 -0.3933, -0.0063 -0.017 -0.3937, -0.0063 -0.017 -0.3933, -0.0077 -0.0129 -0.3937, -0.0077 -0.0129 -0.3933, -0.0004 0.0018 -0.3933, 0.0015 0.0038 -0.3933, 0.0044 0.0057 -0.3933, 0.0077 0.0068 -0.3933, 0.0123 0.0073 -0.3933, 0.0181 0.0073 -0.3933, 0.0181 -0.0234 -0.3933, 0.0125 -0.0234 -0.3933, 0.0084 -0.0231 -0.3933, 0.0051 -0.022 -0.3933, 0.0024 -0.0204 -0.3933, 0.0002 -0.0182 -0.3933, -0.0015 -0.0155 -0.3933, -0.0026 -0.0118 -0.3933, -0.003 -0.0077 -0.3933, -0.0027 -0.0038 -0.3933, -0.0018 -0.0007 -0.3933, 0.0123 0.0073 -0.3937, 0.0181 0.0073 -0.3937, 0.0077 0.0068 -0.3937, 0.0044 0.0057 -0.3937, 0.0015 0.0038 -0.3937, -0.0004 0.0018 -0.3937, -0.0018 -0.0007 -0.3937, -0.0027 -0.0038 -0.3937, -0.003 -0.0077 -0.3937, -0.0026 -0.0118 -0.3937, -0.0015 -0.0155 -0.3937, 0.0002 -0.0182 -0.3937, 0.0024 -0.0204 -0.3937, 0.0051 -0.022 -0.3937, 0.0084 -0.0231 -0.3937, 0.0125 -0.0234 -0.3937, 0.0181 -0.0234 -0.3937, 0.0311 -0.0234 -0.3933, 0.0311 -0.0278 -0.3933, 0.0311 -0.0234 -0.3937, 0.0311 -0.0278 -0.3937, 0.0522 -0.0278 -0.3933, 0.0522 -0.0278 -0.3937, 0.0522 0.0116 -0.3933, 0.0522 0.0116 -0.3937, 0.032 0.0116 -0.3933, 0.032 0.0116 -0.3937, 0.032 0.0073 -0.3933, 0.032 0.0073 -0.3937, 0.0469 0.0073 -0.3933, 0.0469 0.0073 -0.3937, 0.0469 -0.0057 -0.3933, 0.0469 -0.0057 -0.3937, 0.033 -0.0057 -0.3933, 0.033 -0.0057 -0.3937, 0.033 -0.01 -0.3933, 0.033 -0.01 -0.3937, 0.0469 -0.01 -0.3933, 0.0469 -0.01 -0.3937, 0.0469 -0.0234 -0.3933, 0.0469 -0.0234 -0.3937, 0.0599 -0.0214 -0.3933, 0.0599 -0.0257 -0.3933, 0.0599 -0.0214 -0.3937, 0.0599 -0.0257 -0.3937, 0.0641 -0.0274 -0.3933, 0.0707 -0.0282 -0.3933, 0.0707 -0.0282 -0.3937, 0.0696 -0.0282 -0.3937, 0.0696 -0.0282 -0.3933, 0.0681 -0.028 -0.3937, 0.0641 -0.0274 -0.3937, 0.073 -0.028 -0.3937, 0.0756 -0.0277 -0.3933, 0.0756 -0.0277 -0.3937, 0.0794 -0.0264 -0.3933, 0.0794 -0.0264 -0.3937, 0.0826 -0.0244 -0.3933, 0.0826 -0.0244 -0.3937, 0.0855 -0.0213 -0.3933, 0.0855 -0.0213 -0.3937, 0.0876 -0.0175 -0.3933, 0.0876 -0.0175 -0.3937, 0.0888 -0.0134 -0.3933, 0.0888 -0.0134 -0.3937, 0.0892 -0.0088 -0.3933, 0.0892 -0.0088 -0.3937, 0.0692 0.0121 -0.3933, 0.0692 0.0121 -0.3937, 0.0731 0.0118 -0.3937, 0.0731 0.0118 -0.3933, 0.0775 0.0105 -0.3937, 0.0775 0.0105 -0.3933, 0.0812 0.0083 -0.3937, 0.0812 0.0083 -0.3933, 0.0848 0.0049 -0.3937, 0.0848 0.0049 -0.3933, 0.0871 0.0012 -0.3937, 0.0871 0.0012 -0.3933, 0.0886 -0.0032 -0.3937, 0.0886 -0.0032 -0.3933, 0.0599 0.0105 -0.3933, 0.0599 0.0105 -0.3937, 0.0644 0.0118 -0.3937, 0.0644 0.0118 -0.3933, 0.0599 0.0052 -0.3933, 0.0599 0.0052 -0.3937, 0.0691 0.0078 -0.3933, 0.0691 0.0078 -0.3937, 0.0643 0.0071 -0.3937, 0.0643 0.0071 -0.3933, 0.0839 -0.0085 -0.3933, 0.0839 -0.0085 -0.3937, 0.0837 -0.0054 -0.3937, 0.0837 -0.0054 -0.3933, 0.0827 -0.0012 -0.3937, 0.0827 -0.0012 -0.3933, 0.081 0.0018 -0.3937, 0.081 0.0018 -0.3933, 0.0787 0.0044 -0.3937, 0.0787 0.0044 -0.3933, 0.0759 0.0063 -0.3937, 0.0759 0.0063 -0.3933, 0.073 0.0073 -0.3937, 0.073 0.0073 -0.3933, 0.07 -0.0239 -0.3933, 0.07 -0.0239 -0.3937, 0.0737 -0.0235 -0.3937, 0.0737 -0.0235 -0.3933, 0.0765 -0.0225 -0.3937, 0.0765 -0.0225 -0.3933, 0.079 -0.0208 -0.3937, 0.079 -0.0208 -0.3933, 0.0808 -0.0189 -0.3937, 0.0808 -0.0189 -0.3933, 0.0824 -0.0161 -0.3937, 0.0824 -0.0161 -0.3933, 0.0835 -0.0128 -0.3937, 0.0835 -0.0128 -0.3933, 0.0606 -0.0218 -0.3937, 0.0606 -0.0218 -0.3933, 0.0648 -0.0233 -0.3937, 0.0648 -0.0233 -0.3933, 0.0925 -0.0234 -0.3933, 0.0925 -0.0278 -0.3933, 0.0925 -0.0234 -0.3937, 0.0925 -0.0278 -0.3937, 0.1127 -0.0278 -0.3933, 0.1127 -0.0278 -0.3937, 0.1127 0.0116 -0.3933, 0.1127 0.0116 -0.3937, 0.1074 0.0116 -0.3933, 0.1074 0.0116 -0.3937, 0.1074 -0.0234 -0.3933, 0.1074 -0.0234 -0.3937, 0.1074 -0.0234 -0.3937
            ]
        }
        coordIndex [
            0,1,2,-1,2,1,3,-1,1,4,3,-1,3,4,5,-1,4,6,5,-1,5,6,7,-1,6,8,7,-1,7,8,9,-1,8,10,9,-1,9,10,11,-1,10,12,11,-1,11,12,13,-1,12,14,13,-1,13,14,15,-1,14,0,15,-1,15,0,2,-1,16,8,17,-1,17,8,6,-1,18,14,16,-1,16,14,12,-1,16,12,8,-1,8,12,10,-1,18,19,14,-1,14,19,20,-1,14,20,0,-1,0,20,21,-1,0,21,22,-1,22,23,0,-1,0,23,17,-1,0,17,1,-1,1,17,6,-1,1,6,4,-1,16,17,24,-1,24,17,25,-1,18,16,26,-1,26,16,24,-1,18,26,27,-1,18,27,19,-1,19,27,28,-1,19,28,20,-1,21,20,29,-1,29,20,28,-1,21,29,30,-1,21,30,22,-1,22,30,31,-1,22,31,23,-1,17,23,25,-1,25,23,31,-1,32,33,34,-1,34,33,35,-1,33,36,35,-1,35,36,37,-1,36,38,37,-1,37,38,39,-1,40,41,42,-1,40,42,43,-1,43,42,44,-1,43,44,45,-1,45,44,46,-1,45,46,47,-1,47,46,48,-1,47,48,49,-1,49,48,50,-1,49,50,51,-1,51,50,52,-1,51,52,53,-1,53,52,54,-1,53,54,55,-1,55,54,39,-1,55,39,38,-1,32,34,56,-1,32,56,57,-1,57,56,58,-1,57,58,59,-1,59,58,60,-1,59,60,61,-1,61,60,62,-1,61,62,63,-1,63,62,64,-1,63,64,65,-1,65,64,66,-1,65,66,67,-1,67,66,41,-1,67,41,40,-1,45,47,68,-1,68,47,49,-1,68,49,69,-1,69,49,51,-1,69,51,70,-1,70,51,53,-1,70,53,71,-1,71,53,55,-1,71,55,72,-1,72,55,38,-1,72,38,73,-1,73,38,36,-1,73,36,74,-1,74,36,33,-1,74,33,75,-1,75,33,32,-1,75,32,76,-1,76,32,57,-1,76,57,77,-1,77,57,59,-1,77,59,78,-1,78,59,61,-1,78,61,79,-1,79,61,63,-1,79,63,80,-1,80,63,65,-1,80,65,81,-1,81,65,67,-1,81,67,82,-1,82,67,40,-1,82,40,83,-1,83,40,43,-1,83,43,84,-1,84,43,45,-1,84,45,68,-1,72,73,85,-1,85,73,86,-1,72,85,87,-1,72,87,71,-1,71,87,88,-1,71,88,70,-1,70,88,89,-1,70,89,69,-1,69,89,90,-1,69,90,68,-1,68,90,91,-1,68,91,84,-1,84,91,92,-1,84,92,83,-1,83,92,93,-1,83,93,82,-1,82,93,94,-1,82,94,81,-1,81,94,95,-1,81,95,80,-1,80,95,96,-1,80,96,79,-1,79,96,97,-1,79,97,78,-1,78,97,98,-1,78,98,77,-1,77,98,99,-1,77,99,76,-1,76,99,100,-1,76,100,75,-1,74,75,101,-1,101,75,100,-1,73,74,86,-1,86,74,101,-1,102,103,104,-1,104,103,105,-1,103,106,105,-1,105,106,107,-1,106,108,107,-1,107,108,109,-1,108,110,109,-1,109,110,111,-1,110,112,111,-1,111,112,113,-1,112,114,113,-1,113,114,115,-1,114,116,115,-1,115,116,117,-1,116,118,117,-1,117,118,119,-1,118,120,119,-1,119,120,121,-1,120,122,121,-1,121,122,123,-1,122,124,123,-1,123,124,125,-1,124,102,125,-1,125,102,104,-1,106,103,102,-1,102,124,106,-1,106,124,122,-1,106,122,108,-1,112,110,114,-1,114,110,108,-1,114,108,116,-1,116,108,122,-1,116,122,118,-1,118,122,120,-1,126,127,128,-1,128,127,129,-1,129,127,130,-1,131,132,133,-1,131,133,134,-1,134,133,135,-1,134,135,130,-1,130,135,136,-1,130,136,129,-1,132,131,137,-1,137,131,138,-1,137,138,139,-1,139,138,140,-1,139,140,141,-1,141,140,142,-1,141,142,143,-1,143,142,144,-1,143,144,145,-1,145,144,146,-1,145,146,147,-1,147,146,148,-1,147,148,149,-1,149,148,150,-1,149,150,151,-1,152,153,154,-1,152,154,155,-1,155,154,156,-1,155,156,157,-1,157,156,158,-1,157,158,159,-1,159,158,160,-1,159,160,161,-1,161,160,162,-1,161,162,163,-1,163,162,164,-1,163,164,165,-1,165,164,151,-1,165,151,150,-1,166,167,168,-1,166,168,169,-1,169,168,153,-1,169,153,152,-1,166,170,167,-1,167,170,171,-1,172,173,174,-1,172,174,175,-1,175,174,171,-1,175,171,170,-1,176,177,178,-1,176,178,179,-1,179,178,180,-1,179,180,181,-1,181,180,182,-1,181,182,183,-1,183,182,184,-1,183,184,185,-1,185,184,186,-1,185,186,187,-1,187,186,188,-1,187,188,189,-1,189,188,173,-1,189,173,172,-1,190,191,192,-1,190,192,193,-1,193,192,194,-1,193,194,195,-1,195,194,196,-1,195,196,197,-1,197,196,198,-1,197,198,199,-1,199,198,200,-1,199,200,201,-1,201,200,202,-1,201,202,203,-1,203,202,177,-1,203,177,176,-1,126,128,204,-1,126,204,205,-1,205,204,206,-1,205,206,207,-1,207,206,191,-1,207,191,190,-1,193,131,190,-1,190,131,134,-1,190,134,207,-1,207,134,130,-1,207,130,205,-1,205,130,127,-1,205,127,126,-1,170,166,175,-1,175,166,169,-1,175,169,172,-1,172,169,152,-1,172,152,189,-1,189,152,155,-1,189,155,187,-1,187,155,157,-1,187,157,185,-1,185,157,159,-1,185,159,183,-1,183,159,161,-1,183,161,181,-1,181,161,163,-1,181,163,179,-1,179,163,165,-1,179,165,176,-1,176,165,150,-1,176,150,203,-1,203,150,148,-1,203,148,201,-1,201,148,146,-1,201,146,199,-1,199,146,144,-1,199,144,197,-1,197,144,142,-1,197,142,195,-1,195,142,140,-1,195,140,193,-1,193,140,138,-1,193,138,131,-1,208,209,210,-1,210,209,211,-1,209,212,211,-1,211,212,213,-1,212,214,213,-1,213,214,215,-1,214,216,215,-1,215,216,217,-1,216,218,217,-1,217,218,219,-1,218,208,219,-1,219,208,210,-1,216,214,218,-1,218,214,212,-1,218,212,208,-1,208,212,209,-1,
        ]
    }
}
Shape{
    appearance Appearance {
        material  Material 	{
            diffuseColor 0.25098039215686274 0.25098039215686274 0.25098039215686274
            specularColor 0.12549019607843137 0.12549019607843137 0.12549019607843137
            ambientIntensity 0.2
            transparency 0
            shininess 0.5
        }
    }
    geometry IndexedFaceSet {
        ccw TRUE
        solid FALSE
        coord DEF co Coordinate {
            point [
                -0.022 -0.0124 -0.3937, -0.0352 -0.0124 -0.3937, -0.0279 0.004 -0.3937, -0.0293 0.004 -0.3937, -0.0283 0.0054 -0.3937, -0.0289 0.0054 -0.3937, -0.0285 0.0068 -0.3937, -0.0286 0.0068 -0.3937, 0.0181 0.0073 -0.3937, 0.0181 -0.0234 -0.3937, 0.0123 0.0073 -0.3937, 0.0125 -0.0234 -0.3937, 0.0084 -0.0231 -0.3937, -0.003 -0.0077 -0.3937, -0.0027 -0.0038 -0.3937, -0.0018 -0.0007 -0.3937, 0.0077 0.0068 -0.3937, 0.0051 -0.022 -0.3937, 0.0024 -0.0204 -0.3937, 0.0002 -0.0182 -0.3937, -0.0015 -0.0155 -0.3937, -0.0026 -0.0118 -0.3937, -0.0004 0.0018 -0.3937, 0.0015 0.0038 -0.3937, 0.0044 0.0057 -0.3937, 0.5282 -0.0 -0.0197, 0.5282 0.0 0.0, 0.5238 0.0436 -0.0197, 0.5238 0.0436 0.0, 0.5107 0.0853 -0.0197, 0.5107 0.0853 0.0, 0.4894 0.1236 -0.0197, 0.4894 0.1236 0.0, 0.4609 0.1569 -0.0197, 0.4609 0.1569 0.0, 0.4263 0.1837 -0.0197, 0.4263 0.1837 0.0, 0.387 0.2029 -0.0197, 0.387 0.2029 0.0, 0.3446 0.2139 -0.0197, 0.3446 0.2139 0.0, 0.3009 0.2161 -0.0197, 0.3009 0.2161 0.0, 0.2576 0.2095 -0.0197, 0.2576 0.2095 0.0, 0.2165 0.1943 -0.0197, 0.2165 0.1943 0.0, 0.1793 0.1711 -0.0197, 0.1793 0.1711 0.0, 0.1476 0.141 -0.0197, 0.1476 0.141 0.0, 0.1226 0.105 -0.0197, 0.1226 0.105 0.0, 0.1053 0.0648 -0.0197, 0.1053 0.0648 0.0, 0.0965 0.0219 -0.0197, 0.0965 0.0219 0.0, 0.0965 -0.0219 -0.0197, 0.0965 -0.0219 0.0, 0.1053 -0.0648 -0.0197, 0.1053 -0.0648 0.0, 0.1226 -0.105 -0.0197, 0.1226 -0.105 0.0, 0.1476 -0.141 -0.0197, 0.1476 -0.141 0.0, 0.1793 -0.1711 -0.0197, 0.1793 -0.1711 0.0, 0.2165 -0.1943 -0.0197, 0.2165 -0.1943 0.0, 0.2576 -0.2095 -0.0197, 0.2576 -0.2095 0.0, 0.3009 -0.2161 -0.0197, 0.3009 -0.2161 0.0, 0.3446 -0.2139 -0.0197, 0.3446 -0.2139 0.0, 0.387 -0.2029 -0.0197, 0.387 -0.2029 0.0, 0.4263 -0.1837 -0.0197, 0.4263 -0.1837 0.0, 0.4609 -0.1569 -0.0197, 0.4609 -0.1569 0.0, 0.4894 -0.1236 -0.0197, 0.4894 -0.1236 0.0, 0.5107 -0.0853 -0.0197, 0.5107 -0.0853 0.0, 0.5238 -0.0436 -0.0197, 0.5238 -0.0436 0.0, 0.4159 -0.0978 -0.0197, 0.437 -0.0688 -0.0197, 0.4502 -0.0355 -0.0197, 0.4547 0.0 -0.0197, 0.4502 0.0355 -0.0197, 0.437 0.0688 -0.0197, 0.2851 -0.1403 -0.0197, 0.3208 -0.1426 -0.0197, 0.356 -0.1359 -0.0197, 0.3884 -0.1206 -0.0197, 0.179 -0.0526 -0.0197, 0.1963 -0.084 -0.0197, 0.2208 -0.1101 -0.0197, 0.251 -0.1293 -0.0197, 0.1963 0.084 -0.0197, 0.179 0.0526 -0.0197, 0.1701 0.0179 -0.0197, 0.1701 -0.0179 -0.0197, 0.3208 0.1426 -0.0197, 0.2851 0.1403 -0.0197, 0.251 0.1293 -0.0197, 0.2208 0.1101 -0.0197, 0.4159 0.0978 -0.0197, 0.3884 0.1206 -0.0197, 0.356 0.1359 -0.0197, -0.3194 -0.0 -0.0197, -0.3194 0.0 0.0, -0.3238 0.0362 -0.0197, -0.3238 0.0362 0.0, -0.3367 0.0703 -0.0197, -0.3367 0.0703 0.0, -0.3574 0.1004 -0.0197, -0.3574 0.1004 0.0, -0.3848 0.1246 -0.0197, -0.3848 0.1246 0.0, -0.4171 0.1415 -0.0197, -0.4171 0.1415 0.0, -0.4525 0.1502 -0.0197, -0.4525 0.1502 0.0, -0.489 0.1502 -0.0197, -0.489 0.1502 0.0, -0.5244 0.1415 -0.0197, -0.5244 0.1415 0.0, -0.5567 0.1246 -0.0197, -0.5567 0.1246 0.0, -0.584 0.1004 -0.0197, -0.584 0.1004 0.0, -0.6047 0.0703 -0.0197, -0.6047 0.0703 0.0, -0.6177 0.0362 -0.0197, -0.6177 0.0362 0.0, -0.6221 0.0 -0.0197, -0.6221 0.0 0.0, -0.6177 -0.0362 -0.0197, -0.6177 -0.0362 0.0, -0.6047 -0.0703 -0.0197, -0.6047 -0.0703 0.0, -0.584 -0.1004 -0.0197, -0.584 -0.1004 0.0, -0.5567 -0.1246 -0.0197, -0.5567 -0.1246 0.0, -0.5244 -0.1415 -0.0197, -0.5244 -0.1415 0.0, -0.489 -0.1502 -0.0197, -0.489 -0.1502 0.0, -0.4525 -0.1502 -0.0197, -0.4525 -0.1502 0.0, -0.4171 -0.1415 -0.0197, -0.4171 -0.1415 0.0, -0.3848 -0.1246 -0.0197, -0.3848 -0.1246 0.0, -0.3574 -0.1004 -0.0197, -0.3574 -0.1004 0.0, -0.3367 -0.0703 -0.0197, -0.3367 -0.0703 0.0, -0.3238 -0.0362 -0.0197, -0.3238 -0.0362 0.0, -0.4416 0.1086 -0.0197, -0.4707 0.1124 -0.0197, -0.4998 0.1086 -0.0197, -0.5269 0.0974 -0.0197, -0.5502 0.0795 -0.0197, -0.5681 0.0562 -0.0197, -0.5793 0.0291 -0.0197, -0.5832 0.0 -0.0197, -0.5793 -0.0291 -0.0197, -0.5681 -0.0562 -0.0197, -0.5502 -0.0795 -0.0197, -0.5269 -0.0974 -0.0197, -0.4998 -0.1086 -0.0197, -0.4707 -0.1124 -0.0197, -0.4416 -0.1086 -0.0197, -0.4145 -0.0974 -0.0197, -0.3912 -0.0795 -0.0197, -0.3733 -0.0562 -0.0197, -0.3621 -0.0291 -0.0197, -0.3583 0.0 -0.0197, -0.3621 0.0291 -0.0197, -0.3733 0.0562 -0.0197, -0.3912 0.0795 -0.0197, -0.4145 0.0974 -0.0197, -0.3583 -0.0 -0.1378, -0.3621 0.0291 -0.1378, -0.3733 0.0562 -0.1378, -0.3912 0.0795 -0.1378, -0.4145 0.0974 -0.1378, -0.4416 0.1086 -0.1378, -0.4707 0.1124 -0.1378, -0.4998 0.1086 -0.1378, -0.5269 0.0974 -0.1378, -0.5502 0.0795 -0.1378, -0.5681 0.0562 -0.1378, -0.5793 0.0291 -0.1378, -0.5832 0.0 -0.1378, -0.5793 -0.0291 -0.1378, -0.5681 -0.0562 -0.1378, -0.5502 -0.0795 -0.1378, -0.5269 -0.0974 -0.1378, -0.4998 -0.1086 -0.1378, -0.4707 -0.1124 -0.1378, -0.4416 -0.1086 -0.1378, -0.4145 -0.0974 -0.1378, -0.3912 -0.0795 -0.1378, -0.3733 -0.0562 -0.1378, -0.3621 -0.0291 -0.1378, -0.4707 0.0 -0.1378, 0.4547 -0.0 -0.1378, 0.4502 0.0355 -0.1378, 0.437 0.0688 -0.1378, 0.4159 0.0978 -0.1378, 0.3884 0.1206 -0.1378, 0.356 0.1359 -0.1378, 0.3208 0.1426 -0.1378, 0.2851 0.1403 -0.1378, 0.251 0.1293 -0.1378, 0.2208 0.1101 -0.1378, 0.1963 0.084 -0.1378, 0.179 0.0526 -0.1378, 0.1701 0.0179 -0.1378, 0.1701 -0.0179 -0.1378, 0.179 -0.0526 -0.1378, 0.1963 -0.084 -0.1378, 0.2208 -0.1101 -0.1378, 0.251 -0.1293 -0.1378, 0.2851 -0.1403 -0.1378, 0.3208 -0.1426 -0.1378, 0.356 -0.1359 -0.1378, 0.3884 -0.1206 -0.1378, 0.4159 -0.0978 -0.1378, 0.437 -0.0688 -0.1378, 0.4502 -0.0355 -0.1378, 0.3118 0.0 -0.1378, 0.3118 0.0 -0.1378
            ]
        }
        coordIndex [
            0,1,2,-1,2,1,3,-1,2,3,4,-1,4,3,5,-1,4,5,6,-1,6,5,7,-1,8,9,10,-1,10,9,11,-1,10,11,12,-1,13,14,10,-1,10,14,15,-1,10,15,16,-1,12,17,10,-1,10,17,18,-1,10,18,19,-1,19,20,10,-1,10,20,21,-1,10,21,13,-1,22,23,15,-1,15,23,24,-1,15,24,16,-1,25,26,27,-1,27,26,28,-1,27,28,29,-1,29,28,30,-1,29,30,31,-1,31,30,32,-1,31,32,33,-1,33,32,34,-1,33,34,35,-1,35,34,36,-1,35,36,37,-1,37,36,38,-1,37,38,39,-1,39,38,40,-1,39,40,41,-1,41,40,42,-1,41,42,43,-1,43,42,44,-1,43,44,45,-1,45,44,46,-1,45,46,47,-1,47,46,48,-1,47,48,49,-1,49,48,50,-1,49,50,51,-1,51,50,52,-1,51,52,53,-1,53,52,54,-1,53,54,55,-1,55,54,56,-1,55,56,57,-1,57,56,58,-1,57,58,59,-1,59,58,60,-1,59,60,61,-1,61,60,62,-1,61,62,63,-1,63,62,64,-1,63,64,65,-1,65,64,66,-1,65,66,67,-1,67,66,68,-1,67,68,69,-1,69,68,70,-1,69,70,71,-1,71,70,72,-1,71,72,73,-1,73,72,74,-1,73,74,75,-1,75,74,76,-1,75,76,77,-1,77,76,78,-1,77,78,79,-1,79,78,80,-1,79,80,81,-1,81,80,82,-1,81,82,83,-1,83,82,84,-1,83,84,85,-1,85,84,86,-1,85,86,25,-1,25,86,26,-1,87,81,88,-1,88,81,83,-1,88,83,89,-1,89,83,85,-1,89,85,90,-1,90,85,25,-1,90,25,91,-1,91,25,27,-1,91,27,92,-1,93,71,94,-1,94,71,73,-1,94,73,95,-1,95,73,75,-1,95,75,96,-1,96,75,77,-1,96,77,87,-1,87,77,79,-1,87,79,81,-1,97,61,98,-1,98,61,63,-1,98,63,99,-1,99,63,65,-1,99,65,100,-1,100,65,67,-1,100,67,93,-1,93,67,69,-1,93,69,71,-1,101,51,102,-1,102,51,53,-1,102,53,103,-1,103,53,55,-1,103,55,104,-1,104,55,57,-1,104,57,97,-1,97,57,59,-1,97,59,61,-1,105,41,106,-1,106,41,43,-1,106,43,107,-1,107,43,45,-1,107,45,108,-1,108,45,47,-1,108,47,101,-1,101,47,49,-1,101,49,51,-1,27,29,92,-1,92,29,31,-1,92,31,109,-1,109,31,33,-1,109,33,110,-1,110,33,35,-1,110,35,111,-1,111,35,37,-1,111,37,105,-1,105,37,39,-1,105,39,41,-1,112,113,114,-1,114,113,115,-1,114,115,116,-1,116,115,117,-1,116,117,118,-1,118,117,119,-1,118,119,120,-1,120,119,121,-1,120,121,122,-1,122,121,123,-1,122,123,124,-1,124,123,125,-1,124,125,126,-1,126,125,127,-1,126,127,128,-1,128,127,129,-1,128,129,130,-1,130,129,131,-1,130,131,132,-1,132,131,133,-1,132,133,134,-1,134,133,135,-1,134,135,136,-1,136,135,137,-1,136,137,138,-1,138,137,139,-1,138,139,140,-1,140,139,141,-1,140,141,142,-1,142,141,143,-1,142,143,144,-1,144,143,145,-1,144,145,146,-1,146,145,147,-1,146,147,148,-1,148,147,149,-1,148,149,150,-1,150,149,151,-1,150,151,152,-1,152,151,153,-1,152,153,154,-1,154,153,155,-1,154,155,156,-1,156,155,157,-1,156,157,158,-1,158,157,159,-1,158,159,160,-1,160,159,161,-1,160,161,162,-1,162,161,163,-1,162,163,112,-1,112,163,113,-1,164,124,165,-1,165,124,126,-1,165,126,166,-1,166,126,128,-1,166,128,167,-1,167,128,130,-1,167,130,168,-1,168,130,132,-1,168,132,169,-1,169,132,134,-1,169,134,170,-1,170,134,136,-1,170,136,171,-1,171,136,138,-1,171,138,172,-1,172,138,140,-1,172,140,173,-1,173,140,142,-1,173,142,174,-1,174,142,144,-1,174,144,175,-1,175,144,146,-1,175,146,176,-1,176,146,148,-1,176,148,177,-1,148,150,177,-1,177,150,152,-1,177,152,178,-1,178,152,154,-1,178,154,179,-1,179,154,156,-1,179,156,180,-1,180,156,158,-1,180,158,181,-1,181,158,160,-1,181,160,182,-1,182,160,162,-1,182,162,183,-1,183,162,112,-1,183,112,184,-1,184,112,114,-1,184,114,185,-1,185,114,116,-1,185,116,186,-1,186,116,118,-1,186,118,187,-1,187,118,120,-1,187,120,164,-1,164,120,122,-1,164,122,124,-1,188,183,189,-1,189,183,184,-1,189,184,190,-1,190,184,185,-1,190,185,191,-1,191,185,186,-1,191,186,192,-1,192,186,187,-1,192,187,193,-1,193,187,164,-1,193,164,194,-1,194,164,165,-1,194,165,195,-1,195,165,166,-1,195,166,196,-1,196,166,167,-1,196,167,197,-1,197,167,168,-1,197,168,198,-1,198,168,169,-1,198,169,199,-1,199,169,170,-1,199,170,200,-1,200,170,171,-1,200,171,201,-1,201,171,172,-1,201,172,202,-1,202,172,173,-1,202,173,203,-1,203,173,174,-1,203,174,204,-1,204,174,175,-1,204,175,205,-1,205,175,176,-1,205,176,206,-1,206,176,177,-1,206,177,207,-1,207,177,178,-1,207,178,208,-1,208,178,179,-1,208,179,209,-1,209,179,180,-1,209,180,210,-1,210,180,181,-1,210,181,211,-1,211,181,182,-1,211,182,188,-1,188,182,183,-1,210,211,212,-1,212,211,188,-1,212,188,189,-1,207,208,212,-1,212,208,209,-1,212,209,210,-1,204,205,212,-1,212,205,206,-1,212,206,207,-1,201,202,212,-1,212,202,203,-1,212,203,204,-1,198,199,212,-1,212,199,200,-1,212,200,201,-1,195,196,212,-1,212,196,197,-1,212,197,198,-1,192,193,212,-1,212,193,194,-1,212,194,195,-1,189,190,212,-1,212,190,191,-1,212,191,192,-1,213,90,214,-1,214,90,91,-1,214,91,215,-1,215,91,92,-1,215,92,216,-1,216,92,109,-1,216,109,217,-1,217,109,110,-1,217,110,218,-1,218,110,111,-1,218,111,219,-1,219,111,105,-1,219,105,220,-1,220,105,106,-1,220,106,221,-1,221,106,107,-1,221,107,222,-1,222,107,108,-1,222,108,223,-1,223,108,101,-1,223,101,224,-1,224,101,102,-1,224,102,225,-1,225,102,103,-1,225,103,226,-1,226,103,104,-1,226,104,227,-1,227,104,97,-1,227,97,228,-1,228,97,98,-1,228,98,229,-1,229,98,99,-1,229,99,230,-1,230,99,100,-1,230,100,231,-1,231,100,93,-1,231,93,232,-1,232,93,94,-1,232,94,233,-1,233,94,95,-1,233,95,234,-1,234,95,96,-1,234,96,235,-1,235,96,87,-1,235,87,236,-1,236,87,88,-1,236,88,237,-1,237,88,89,-1,237,89,213,-1,213,89,90,-1,213,214,238,-1,235,236,238,-1,238,236,237,-1,238,237,213,-1,232,233,238,-1,238,233,234,-1,238,234,235,-1,229,230,238,-1,238,230,231,-1,238,231,232,-1,226,227,238,-1,238,227,228,-1,238,228,229,-1,223,224,238,-1,238,224,225,-1,238,225,226,-1,220,221,238,-1,238,221,222,-1,238,222,223,-1,217,218,238,-1,238,218,219,-1,238,219,220,-1,214,215,238,-1,238,215,216,-1,238,216,217,-1,
        ]
    }
}
Shape{
    appearance Appearance {
        material  Material 	{
            diffuseColor 0.996078431372549 0.8705882352941177 0.7607843137254902
            specularColor 0.4980392156862745 0.43529411764705883 0.3803921568627451
            ambientIntensity 0.2
            transparency 0
            shininess 0.5
        }
    }
    geometry IndexedFaceSet {
        ccw TRUE
        solid FALSE
        coord DEF co Coordinate {
            point [
                -0.5229 0.0861 -0.0197, -0.5346 0.0925 -0.0197, -0.5335 0.0787 -0.0197, -0.5453 0.0842 -0.0197, -0.543 0.07 -0.0197, -0.5549 0.0746 -0.0197, -0.5514 0.0602 -0.0197, -0.5633 0.0639 -0.0197, -0.5584 0.0494 -0.0197, -0.5703 0.0523 -0.0197, -0.564 0.0378 -0.0197, -0.5759 0.0399 -0.0197, -0.5681 0.0255 -0.0197, -0.5799 0.0269 -0.0197, -0.5705 0.0129 -0.0197, -0.5824 0.0136 -0.0197, -0.5714 0.0 -0.0197, -0.5832 0.0 -0.0197, -0.5705 -0.0129 -0.0197, -0.5824 -0.0136 -0.0197, -0.5681 -0.0255 -0.0197, -0.5799 -0.0269 -0.0197, -0.564 -0.0378 -0.0197, -0.5759 -0.0399 -0.0197, -0.5584 -0.0494 -0.0197, -0.5703 -0.0523 -0.0197, -0.5514 -0.0602 -0.0197, -0.5633 -0.0639 -0.0197, -0.543 -0.07 -0.0197, -0.5549 -0.0746 -0.0197, -0.5335 -0.0787 -0.0197, -0.5453 -0.0842 -0.0197, -0.5229 -0.0861 -0.0197, -0.5346 -0.0925 -0.0197, -0.523 -0.0996 -0.0197, -0.5115 -0.092 -0.0197, -0.5106 -0.1051 -0.0197, -0.4994 -0.0965 -0.0197, -0.4976 -0.1092 -0.0197, -0.4868 -0.0993 -0.0197, -0.4843 -0.1116 -0.0197, -0.4739 -0.1006 -0.0197, -0.4707 -0.1124 -0.0197, -0.4611 -0.1002 -0.0197, -0.4572 -0.1116 -0.0197, -0.4483 -0.0981 -0.0197, -0.4438 -0.1092 -0.0197, -0.436 -0.0944 -0.0197, -0.4308 -0.1051 -0.0197, -0.4242 -0.0892 -0.0197, -0.4185 -0.0996 -0.0197, -0.4131 -0.0825 -0.0197, -0.4068 -0.0925 -0.0197, -0.4031 -0.0745 -0.0197, -0.3962 -0.0842 -0.0197, -0.3941 -0.0652 -0.0197, -0.3866 -0.0746 -0.0197, -0.3864 -0.0549 -0.0197, -0.3782 -0.0639 -0.0197, -0.3801 -0.0437 -0.0197, -0.3712 -0.0523 -0.0197, -0.3752 -0.0317 -0.0197, -0.3656 -0.0399 -0.0197, -0.3719 -0.0192 -0.0197, -0.3615 -0.0269 -0.0197, -0.3703 -0.0064 -0.0197, -0.3591 -0.0136 -0.0197, -0.3701 0.0 -0.0197, -0.3583 0.0 -0.0197, -0.3703 0.0064 -0.0197, -0.3591 0.0136 -0.0197, -0.3719 0.0192 -0.0197, -0.3615 0.0269 -0.0197, -0.3752 0.0317 -0.0197, -0.3656 0.0399 -0.0197, -0.3801 0.0437 -0.0197, -0.3712 0.0523 -0.0197, -0.3864 0.0549 -0.0197, -0.3782 0.0639 -0.0197, -0.3941 0.0652 -0.0197, -0.3866 0.0746 -0.0197, -0.4031 0.0745 -0.0197, -0.3962 0.0842 -0.0197, -0.4131 0.0825 -0.0197, -0.4068 0.0925 -0.0197, -0.4242 0.0892 -0.0197, -0.4185 0.0996 -0.0197, -0.436 0.0944 -0.0197, -0.4308 0.1051 -0.0197, -0.4483 0.0981 -0.0197, -0.4438 0.1092 -0.0197, -0.4611 0.1002 -0.0197, -0.4572 0.1116 -0.0197, -0.4739 0.1006 -0.0197, -0.4707 0.1124 -0.0197, -0.4868 0.0993 -0.0197, -0.4843 0.1116 -0.0197, -0.4994 0.0965 -0.0197, -0.4976 0.1092 -0.0197, -0.5115 0.092 -0.0197, -0.5106 0.1051 -0.0197, -0.523 0.0996 -0.0197, -0.5229 -0.0861 -0.1378, -0.5346 -0.0925 -0.1378, -0.5335 -0.0787 -0.1378, -0.5453 -0.0842 -0.1378, -0.543 -0.07 -0.1378, -0.5549 -0.0746 -0.1378, -0.5514 -0.0602 -0.1378, -0.5633 -0.0639 -0.1378, -0.5584 -0.0494 -0.1378, -0.5703 -0.0523 -0.1378, -0.564 -0.0378 -0.1378, -0.5759 -0.0399 -0.1378, -0.5681 -0.0255 -0.1378, -0.5799 -0.0269 -0.1378, -0.5705 -0.0129 -0.1378, -0.5824 -0.0136 -0.1378, -0.5714 0.0 -0.1378, -0.5832 0.0 -0.1378, -0.5705 0.0129 -0.1378, -0.5824 0.0136 -0.1378, -0.5681 0.0255 -0.1378, -0.5799 0.0269 -0.1378, -0.564 0.0378 -0.1378, -0.5759 0.0399 -0.1378, -0.5584 0.0494 -0.1378, -0.5703 0.0523 -0.1378, -0.5514 0.0602 -0.1378, -0.5633 0.0639 -0.1378, -0.543 0.07 -0.1378, -0.5549 0.0746 -0.1378, -0.5335 0.0787 -0.1378, -0.5453 0.0842 -0.1378, -0.5229 0.0861 -0.1378, -0.5346 0.0925 -0.1378, -0.523 0.0996 -0.1378, -0.5115 0.092 -0.1378, -0.5106 0.1051 -0.1378, -0.4994 0.0965 -0.1378, -0.4976 0.1092 -0.1378, -0.4868 0.0993 -0.1378, -0.4843 0.1116 -0.1378, -0.4739 0.1006 -0.1378, -0.4707 0.1124 -0.1378, -0.4611 0.1002 -0.1378, -0.4572 0.1116 -0.1378, -0.4483 0.0981 -0.1378, -0.4438 0.1092 -0.1378, -0.436 0.0944 -0.1378, -0.4308 0.1051 -0.1378, -0.4242 0.0892 -0.1378, -0.4185 0.0996 -0.1378, -0.4131 0.0825 -0.1378, -0.4068 0.0925 -0.1378, -0.4031 0.0745 -0.1378, -0.3962 0.0842 -0.1378, -0.3941 0.0652 -0.1378, -0.3866 0.0746 -0.1378, -0.3864 0.0549 -0.1378, -0.3782 0.0639 -0.1378, -0.3801 0.0437 -0.1378, -0.3712 0.0523 -0.1378, -0.3752 0.0317 -0.1378, -0.3656 0.0399 -0.1378, -0.3719 0.0192 -0.1378, -0.3615 0.0269 -0.1378, -0.3703 0.0064 -0.1378, -0.3591 0.0136 -0.1378, -0.3701 0.0 -0.1378, -0.3583 0.0 -0.1378, -0.3703 -0.0064 -0.1378, -0.3591 -0.0136 -0.1378, -0.3719 -0.0192 -0.1378, -0.3615 -0.0269 -0.1378, -0.3752 -0.0317 -0.1378, -0.3656 -0.0399 -0.1378, -0.3801 -0.0437 -0.1378, -0.3712 -0.0523 -0.1378, -0.3864 -0.0549 -0.1378, -0.3782 -0.0639 -0.1378, -0.3941 -0.0652 -0.1378, -0.3866 -0.0746 -0.1378, -0.4031 -0.0745 -0.1378, -0.3962 -0.0842 -0.1378, -0.4131 -0.0825 -0.1378, -0.4068 -0.0925 -0.1378, -0.4242 -0.0892 -0.1378, -0.4185 -0.0996 -0.1378, -0.436 -0.0944 -0.1378, -0.4308 -0.1051 -0.1378, -0.4483 -0.0981 -0.1378, -0.4438 -0.1092 -0.1378, -0.4611 -0.1002 -0.1378, -0.4572 -0.1116 -0.1378, -0.4739 -0.1006 -0.1378, -0.4707 -0.1124 -0.1378, -0.4868 -0.0993 -0.1378, -0.4843 -0.1116 -0.1378, -0.4994 -0.0965 -0.1378, -0.4976 -0.1092 -0.1378, -0.5115 -0.092 -0.1378, -0.5106 -0.1051 -0.1378, -0.523 -0.0996 -0.1378, 0.3036 0.1308 -0.0197, 0.2946 0.1418 -0.0197, 0.2873 0.1287 -0.0197, 0.2776 0.1387 -0.0197, 0.2713 0.1246 -0.0197, 0.2612 0.1336 -0.0197, 0.256 0.1186 -0.0197, 0.2454 0.1265 -0.0197, 0.2416 0.1106 -0.0197, 0.2307 0.1176 -0.0197, 0.2283 0.101 -0.0197, 0.2171 0.1069 -0.0197, 0.2163 0.0897 -0.0197, 0.2049 0.0947 -0.0197, 0.2058 0.077 -0.0197, 0.1943 0.0811 -0.0197, 0.197 0.0631 -0.0197, 0.1853 0.0664 -0.0197, 0.19 0.0482 -0.0197, 0.1783 0.0507 -0.0197, 0.1849 0.0326 -0.0197, 0.1731 0.0342 -0.0197, 0.1818 0.0164 -0.0197, 0.17 0.0172 -0.0197, 0.1808 0.0 -0.0197, 0.169 0.0 -0.0197, 0.1818 -0.0164 -0.0197, 0.17 -0.0172 -0.0197, 0.1849 -0.0326 -0.0197, 0.1731 -0.0342 -0.0197, 0.19 -0.0482 -0.0197, 0.1783 -0.0507 -0.0197, 0.197 -0.0631 -0.0197, 0.1853 -0.0664 -0.0197, 0.2058 -0.077 -0.0197, 0.1943 -0.0811 -0.0197, 0.2163 -0.0897 -0.0197, 0.2049 -0.0947 -0.0197, 0.2283 -0.101 -0.0197, 0.2171 -0.1069 -0.0197, 0.2416 -0.1106 -0.0197, 0.2307 -0.1176 -0.0197, 0.256 -0.1186 -0.0197, 0.2454 -0.1265 -0.0197, 0.2713 -0.1246 -0.0197, 0.2612 -0.1336 -0.0197, 0.2873 -0.1287 -0.0197, 0.2776 -0.1387 -0.0197, 0.3036 -0.1308 -0.0197, 0.2946 -0.1418 -0.0197, 0.32 -0.1308 -0.0197, 0.3118 -0.1428 -0.0197, 0.329 -0.1418 -0.0197, 0.3364 -0.1287 -0.0197, 0.346 -0.1387 -0.0197, 0.3523 -0.1246 -0.0197, 0.3625 -0.1336 -0.0197, 0.3676 -0.1186 -0.0197, 0.3782 -0.1265 -0.0197, 0.382 -0.1106 -0.0197, 0.393 -0.1176 -0.0197, 0.3953 -0.101 -0.0197, 0.4065 -0.1069 -0.0197, 0.4073 -0.0897 -0.0197, 0.4187 -0.0947 -0.0197, 0.4178 -0.077 -0.0197, 0.4294 -0.0811 -0.0197, 0.4266 -0.0631 -0.0197, 0.4383 -0.0664 -0.0197, 0.4336 -0.0482 -0.0197, 0.4454 -0.0507 -0.0197, 0.4387 -0.0326 -0.0197, 0.4505 -0.0342 -0.0197, 0.4418 -0.0164 -0.0197, 0.4536 -0.0172 -0.0197, 0.4429 0.0 -0.0197, 0.4547 0.0 -0.0197, 0.4418 0.0164 -0.0197, 0.4536 0.0172 -0.0197, 0.4387 0.0326 -0.0197, 0.4505 0.0342 -0.0197, 0.4336 0.0482 -0.0197, 0.4454 0.0507 -0.0197, 0.4266 0.0631 -0.0197, 0.4383 0.0664 -0.0197, 0.4178 0.077 -0.0197, 0.4294 0.0811 -0.0197, 0.4073 0.0897 -0.0197, 0.4187 0.0947 -0.0197, 0.3953 0.101 -0.0197, 0.4065 0.1069 -0.0197, 0.382 0.1106 -0.0197, 0.393 0.1176 -0.0197, 0.3676 0.1186 -0.0197, 0.3782 0.1265 -0.0197, 0.3523 0.1246 -0.0197, 0.3625 0.1336 -0.0197, 0.3364 0.1287 -0.0197, 0.346 0.1387 -0.0197, 0.32 0.1308 -0.0197, 0.329 0.1418 -0.0197, 0.3118 0.1428 -0.0197, 0.3036 0.1308 -0.1378, 0.3118 0.1428 -0.1378, 0.32 0.1308 -0.1378, 0.329 0.1418 -0.1378, 0.3364 0.1287 -0.1378, 0.346 0.1387 -0.1378, 0.3523 0.1246 -0.1378, 0.3625 0.1336 -0.1378, 0.3676 0.1186 -0.1378, 0.3782 0.1265 -0.1378, 0.382 0.1106 -0.1378, 0.393 0.1176 -0.1378, 0.3953 0.101 -0.1378, 0.4065 0.1069 -0.1378, 0.4073 0.0897 -0.1378, 0.4187 0.0947 -0.1378, 0.4178 0.077 -0.1378, 0.4294 0.0811 -0.1378, 0.4266 0.0631 -0.1378, 0.4383 0.0664 -0.1378, 0.4336 0.0482 -0.1378, 0.4454 0.0507 -0.1378, 0.4387 0.0326 -0.1378, 0.4505 0.0342 -0.1378, 0.4418 0.0164 -0.1378, 0.4536 0.0172 -0.1378, 0.4429 0.0 -0.1378, 0.4547 0.0 -0.1378, 0.4418 -0.0164 -0.1378, 0.4536 -0.0172 -0.1378, 0.4387 -0.0326 -0.1378, 0.4505 -0.0342 -0.1378, 0.4336 -0.0482 -0.1378, 0.4454 -0.0507 -0.1378, 0.4266 -0.0631 -0.1378, 0.4383 -0.0664 -0.1378, 0.4178 -0.077 -0.1378, 0.4294 -0.0811 -0.1378, 0.4073 -0.0897 -0.1378, 0.4187 -0.0947 -0.1378, 0.3953 -0.101 -0.1378, 0.4065 -0.1069 -0.1378, 0.382 -0.1106 -0.1378, 0.393 -0.1176 -0.1378, 0.3676 -0.1186 -0.1378, 0.3782 -0.1265 -0.1378, 0.3523 -0.1246 -0.1378, 0.3625 -0.1336 -0.1378, 0.3364 -0.1287 -0.1378, 0.346 -0.1387 -0.1378, 0.32 -0.1308 -0.1378, 0.329 -0.1418 -0.1378, 0.3118 -0.1428 -0.1378, 0.3036 -0.1308 -0.1378, 0.2946 -0.1418 -0.1378, 0.2873 -0.1287 -0.1378, 0.2776 -0.1387 -0.1378, 0.2713 -0.1246 -0.1378, 0.2612 -0.1336 -0.1378, 0.256 -0.1186 -0.1378, 0.2454 -0.1265 -0.1378, 0.2416 -0.1106 -0.1378, 0.2307 -0.1176 -0.1378, 0.2283 -0.101 -0.1378, 0.2171 -0.1069 -0.1378, 0.2163 -0.0897 -0.1378, 0.2049 -0.0947 -0.1378, 0.2058 -0.077 -0.1378, 0.1943 -0.0811 -0.1378, 0.197 -0.0631 -0.1378, 0.1853 -0.0664 -0.1378, 0.19 -0.0482 -0.1378, 0.1783 -0.0507 -0.1378, 0.1849 -0.0326 -0.1378, 0.1731 -0.0342 -0.1378, 0.1818 -0.0164 -0.1378, 0.17 -0.0172 -0.1378, 0.1808 0.0 -0.1378, 0.169 0.0 -0.1378, 0.1818 0.0164 -0.1378, 0.17 0.0172 -0.1378, 0.1849 0.0326 -0.1378, 0.1731 0.0342 -0.1378, 0.19 0.0482 -0.1378, 0.1783 0.0507 -0.1378, 0.197 0.0631 -0.1378, 0.1853 0.0664 -0.1378, 0.2058 0.077 -0.1378, 0.1943 0.0811 -0.1378, 0.2163 0.0897 -0.1378, 0.2049 0.0947 -0.1378, 0.2283 0.101 -0.1378, 0.2171 0.1069 -0.1378, 0.2416 0.1106 -0.1378, 0.2307 0.1176 -0.1378, 0.256 0.1186 -0.1378, 0.2454 0.1265 -0.1378, 0.2713 0.1246 -0.1378, 0.2612 0.1336 -0.1378, 0.2873 0.1287 -0.1378, 0.2776 0.1387 -0.1378, 0.2946 0.1418 -0.1378, -0.5009 -0.0048 -0.0591, -0.5175 -0.012 -0.0591, -0.4997 -0.0094 -0.0591, -0.5157 -0.0178 -0.0591, -0.4979 -0.0139 -0.0591, -0.5131 -0.0233 -0.0591, -0.4954 -0.0179 -0.0591, -0.5098 -0.0284 -0.0591, -0.4923 -0.0216 -0.0591, -0.4979 0.0139 -0.0591, -0.5157 0.0178 -0.0591, -0.4997 0.0094 -0.0591, -0.5175 0.012 -0.0591, -0.5009 0.0048 -0.0591, -0.5187 0.0061 -0.0591, -0.5012 0.0 -0.0591, -0.5191 0.0 -0.0591, -0.5187 -0.0061 -0.0591, -0.4435 -0.0139 -0.0591, -0.4258 -0.0178 -0.0591, -0.4417 -0.0094 -0.0591, -0.4239 -0.012 -0.0591, -0.4406 -0.0048 -0.0591, -0.4228 -0.0061 -0.0591, -0.4402 0.0 -0.0591, -0.4224 0.0 -0.0591, -0.4406 0.0048 -0.0591, -0.4228 0.0061 -0.0591, -0.4417 0.0094 -0.0591, -0.4569 -0.0272 -0.0591, -0.4448 -0.0408 -0.0591, -0.4528 -0.0247 -0.0591, -0.4399 -0.0372 -0.0591, -0.4491 -0.0216 -0.0591, -0.4355 -0.0331 -0.0591, -0.446 -0.0179 -0.0591, -0.4316 -0.0284 -0.0591, -0.4284 -0.0233 -0.0591, -0.506 -0.0331 -0.0591, -0.5015 -0.0372 -0.0591, -0.4887 -0.0247 -0.0591, -0.4966 -0.0408 -0.0591, -0.4846 -0.0272 -0.0591, -0.4913 -0.0437 -0.0591, -0.4802 -0.029 -0.0591, -0.4857 -0.046 -0.0591, -0.4755 -0.0301 -0.0591, -0.4846 0.0272 -0.0591, -0.4966 0.0408 -0.0591, -0.4887 0.0247 -0.0591, -0.5015 0.0372 -0.0591, -0.4923 0.0216 -0.0591, -0.506 0.0331 -0.0591, -0.4954 0.0179 -0.0591, -0.5098 0.0284 -0.0591, -0.5131 0.0233 -0.0591, -0.4239 0.012 -0.0591, -0.4258 0.0178 -0.0591, -0.4435 0.0139 -0.0591, -0.4284 0.0233 -0.0591, -0.446 0.0179 -0.0591, -0.4316 0.0284 -0.0591, -0.4491 0.0216 -0.0591, -0.4355 0.0331 -0.0591, -0.4528 0.0247 -0.0591, -0.4798 -0.0475 -0.0591, -0.4738 -0.0482 -0.0591, -0.4707 -0.0305 -0.0591, -0.4677 -0.0482 -0.0591, -0.466 -0.0301 -0.0591, -0.4617 -0.0475 -0.0591, -0.4613 -0.029 -0.0591, -0.4558 -0.046 -0.0591, -0.4501 -0.0437 -0.0591, -0.4399 0.0372 -0.0591, -0.4448 0.0408 -0.0591, -0.4569 0.0272 -0.0591, -0.4501 0.0437 -0.0591, -0.4613 0.029 -0.0591, -0.4558 0.046 -0.0591, -0.466 0.0301 -0.0591, -0.4617 0.0475 -0.0591, -0.4677 0.0482 -0.0591, -0.4707 0.0305 -0.0591, -0.4738 0.0482 -0.0591, -0.4755 0.0301 -0.0591, -0.4798 0.0475 -0.0591, -0.4802 0.029 -0.0591, -0.4857 0.046 -0.0591, -0.4913 0.0437 -0.0591, -0.4997 -0.0094 -0.1378, -0.5175 -0.012 -0.1378, -0.5009 -0.0048 -0.1378, -0.5187 -0.0061 -0.1378, -0.5012 0.0 -0.1378, -0.5191 0.0 -0.1378, -0.5009 0.0048 -0.1378, -0.5187 0.0061 -0.1378, -0.4997 0.0094 -0.1378, -0.4887 -0.0247 -0.1378, -0.5015 -0.0372 -0.1378, -0.4923 -0.0216 -0.1378, -0.506 -0.0331 -0.1378, -0.4954 -0.0179 -0.1378, -0.5098 -0.0284 -0.1378, -0.4979 -0.0139 -0.1378, -0.5131 -0.0233 -0.1378, -0.5157 -0.0178 -0.1378, -0.4435 0.0139 -0.1378, -0.4258 0.0178 -0.1378, -0.4417 0.0094 -0.1378, -0.4239 0.012 -0.1378, -0.4406 0.0048 -0.1378, -0.4228 0.0061 -0.1378, -0.4402 0.0 -0.1378, -0.4224 0.0 -0.1378, -0.4406 -0.0048 -0.1378, -0.4228 -0.0061 -0.1378, -0.4417 -0.0094 -0.1378, -0.4239 -0.012 -0.1378, -0.4258 -0.0178 -0.1378, -0.4435 -0.0139 -0.1378, -0.4284 -0.0233 -0.1378, -0.446 -0.0179 -0.1378, -0.4316 -0.0284 -0.1378, -0.4491 -0.0216 -0.1378, -0.4355 -0.0331 -0.1378, -0.4528 -0.0247 -0.1378, -0.4707 -0.0305 -0.1378, -0.4738 -0.0482 -0.1378, -0.4755 -0.0301 -0.1378, -0.4798 -0.0475 -0.1378, -0.4802 -0.029 -0.1378, -0.4857 -0.046 -0.1378, -0.4846 -0.0272 -0.1378, -0.4913 -0.0437 -0.1378, -0.4966 -0.0408 -0.1378, -0.4399 -0.0372 -0.1378, -0.4448 -0.0408 -0.1378, -0.4569 -0.0272 -0.1378, -0.4501 -0.0437 -0.1378, -0.4613 -0.029 -0.1378, -0.4558 -0.046 -0.1378, -0.466 -0.0301 -0.1378, -0.4617 -0.0475 -0.1378, -0.4677 -0.0482 -0.1378, -0.5175 0.012 -0.1378, -0.5157 0.0178 -0.1378, -0.4979 0.0139 -0.1378, -0.5131 0.0233 -0.1378, -0.4954 0.0179 -0.1378, -0.5098 0.0284 -0.1378, -0.4923 0.0216 -0.1378, -0.506 0.0331 -0.1378, -0.4887 0.0247 -0.1378, -0.4569 0.0272 -0.1378, -0.4448 0.0408 -0.1378, -0.4528 0.0247 -0.1378, -0.4399 0.0372 -0.1378, -0.4491 0.0216 -0.1378, -0.4355 0.0331 -0.1378, -0.446 0.0179 -0.1378, -0.4316 0.0284 -0.1378, -0.4284 0.0233 -0.1378, -0.4755 0.0301 -0.1378, -0.4738 0.0482 -0.1378, -0.4707 0.0305 -0.1378, -0.4677 0.0482 -0.1378, -0.466 0.0301 -0.1378, -0.4617 0.0475 -0.1378, -0.4613 0.029 -0.1378, -0.4558 0.046 -0.1378, -0.4501 0.0437 -0.1378, -0.5015 0.0372 -0.1378, -0.4966 0.0408 -0.1378, -0.4846 0.0272 -0.1378, -0.4913 0.0437 -0.1378, -0.4802 0.029 -0.1378, -0.4857 0.046 -0.1378, -0.4798 0.0475 -0.1378, 0.3697 -0.0036 -0.0591, 0.3555 0.0 -0.0591, 0.3551 -0.0062 -0.0591, 0.2995 -0.0419 -0.0591, 0.2994 -0.0567 -0.0591, 0.3056 -0.0432 -0.0591, 0.3065 -0.0578 -0.0591, 0.3118 -0.0437 -0.0591, 0.3136 -0.058 -0.0591, 0.318 -0.0432 -0.0591, 0.3207 -0.0573 -0.0591, 0.3241 -0.0419 -0.0591, 0.3277 -0.0558 -0.0591, 0.33 -0.0397 -0.0591, 0.3344 -0.0534 -0.0591, 0.3354 -0.0367 -0.0591, 0.3408 -0.0503 -0.0591, 0.3468 -0.0463 -0.0591, 0.3404 -0.033 -0.0591, 0.3522 -0.0417 -0.0591, 0.3448 -0.0286 -0.0591, 0.357 -0.0364 -0.0591, 0.3486 -0.0236 -0.0591, 0.3612 -0.0305 -0.0591, 0.3515 -0.0181 -0.0591, 0.3645 -0.0243 -0.0591, 0.3537 -0.0123 -0.0591, 0.3671 -0.0176 -0.0591, 0.3689 -0.0107 -0.0591, 0.2721 -0.0181 -0.0591, 0.2607 -0.0275 -0.0591, 0.2751 -0.0236 -0.0591, 0.2645 -0.0335 -0.0591, 0.2788 -0.0286 -0.0591, 0.2689 -0.0391 -0.0591, 0.2832 -0.033 -0.0591, 0.2741 -0.0441 -0.0591, 0.2882 -0.0367 -0.0591, 0.2798 -0.0484 -0.0591, 0.2937 -0.0397 -0.0591, 0.286 -0.0519 -0.0591, 0.2925 -0.0547 -0.0591, 0.3698 0.0 -0.0591, 0.3697 0.0036 -0.0591, 0.3551 0.0062 -0.0591, 0.3689 0.0107 -0.0591, 0.3537 0.0123 -0.0591, 0.3671 0.0176 -0.0591, 0.3515 0.0181 -0.0591, 0.3645 0.0243 -0.0591, 0.3486 0.0236 -0.0591, 0.3612 0.0305 -0.0591, 0.3448 0.0286 -0.0591, 0.357 0.0364 -0.0591, 0.3404 0.033 -0.0591, 0.2751 0.0236 -0.0591, 0.2607 0.0275 -0.0591, 0.2721 0.0181 -0.0591, 0.2577 0.021 -0.0591, 0.2699 0.0123 -0.0591, 0.2555 0.0142 -0.0591, 0.2686 0.0062 -0.0591, 0.2542 0.0071 -0.0591, 0.2681 0.0 -0.0591, 0.2538 0.0 -0.0591, 0.2686 -0.0062 -0.0591, 0.2542 -0.0071 -0.0591, 0.2699 -0.0123 -0.0591, 0.2555 -0.0142 -0.0591, 0.2577 -0.021 -0.0591, 0.3056 0.0432 -0.0591, 0.2994 0.0567 -0.0591, 0.2995 0.0419 -0.0591, 0.2925 0.0547 -0.0591, 0.2937 0.0397 -0.0591, 0.286 0.0519 -0.0591, 0.2882 0.0367 -0.0591, 0.2798 0.0484 -0.0591, 0.2832 0.033 -0.0591, 0.2741 0.0441 -0.0591, 0.2788 0.0286 -0.0591, 0.2689 0.0391 -0.0591, 0.2645 0.0335 -0.0591, 0.3522 0.0417 -0.0591, 0.3468 0.0463 -0.0591, 0.3354 0.0367 -0.0591, 0.3408 0.0503 -0.0591, 0.33 0.0397 -0.0591, 0.3344 0.0534 -0.0591, 0.3241 0.0419 -0.0591, 0.3277 0.0558 -0.0591, 0.318 0.0432 -0.0591, 0.3207 0.0573 -0.0591, 0.3118 0.0437 -0.0591, 0.3136 0.058 -0.0591, 0.3065 0.0578 -0.0591, 0.3056 -0.0432 -0.1378, 0.2994 -0.0567 -0.1378, 0.2995 -0.0419 -0.1378, 0.2925 -0.0547 -0.1378, 0.2937 -0.0397 -0.1378, 0.286 -0.0519 -0.1378, 0.2882 -0.0367 -0.1378, 0.2798 -0.0484 -0.1378, 0.2832 -0.033 -0.1378, 0.2741 -0.0441 -0.1378, 0.2788 -0.0286 -0.1378, 0.2689 -0.0391 -0.1378, 0.2751 -0.0236 -0.1378, 0.3697 0.0036 -0.1378, 0.3555 0.0 -0.1378, 0.3551 0.0062 -0.1378, 0.3404 -0.033 -0.1378, 0.3468 -0.0463 -0.1378, 0.3354 -0.0367 -0.1378, 0.3408 -0.0503 -0.1378, 0.33 -0.0397 -0.1378, 0.3344 -0.0534 -0.1378, 0.3241 -0.0419 -0.1378, 0.3277 -0.0558 -0.1378, 0.318 -0.0432 -0.1378, 0.3207 -0.0573 -0.1378, 0.3118 -0.0437 -0.1378, 0.3136 -0.058 -0.1378, 0.3065 -0.0578 -0.1378, 0.3698 0.0 -0.1378, 0.3697 -0.0036 -0.1378, 0.3551 -0.0062 -0.1378, 0.3689 -0.0107 -0.1378, 0.3537 -0.0123 -0.1378, 0.3671 -0.0176 -0.1378, 0.3515 -0.0181 -0.1378, 0.3645 -0.0243 -0.1378, 0.3486 -0.0236 -0.1378, 0.3612 -0.0305 -0.1378, 0.3448 -0.0286 -0.1378, 0.357 -0.0364 -0.1378, 0.3522 -0.0417 -0.1378, 0.2645 -0.0335 -0.1378, 0.2607 -0.0275 -0.1378, 0.2721 -0.0181 -0.1378, 0.2577 -0.021 -0.1378, 0.2699 -0.0123 -0.1378, 0.2555 -0.0142 -0.1378, 0.2686 -0.0062 -0.1378, 0.2542 -0.0071 -0.1378, 0.2681 0.0 -0.1378, 0.2538 0.0 -0.1378, 0.2686 0.0062 -0.1378, 0.2542 0.0071 -0.1378, 0.2699 0.0123 -0.1378, 0.2555 0.0142 -0.1378, 0.2721 0.0181 -0.1378, 0.3354 0.0367 -0.1378, 0.3468 0.0463 -0.1378, 0.3404 0.033 -0.1378, 0.3522 0.0417 -0.1378, 0.3448 0.0286 -0.1378, 0.357 0.0364 -0.1378, 0.3486 0.0236 -0.1378, 0.3612 0.0305 -0.1378, 0.3515 0.0181 -0.1378, 0.3645 0.0243 -0.1378, 0.3537 0.0123 -0.1378, 0.3671 0.0176 -0.1378, 0.3689 0.0107 -0.1378, 0.2995 0.0419 -0.1378, 0.2994 0.0567 -0.1378, 0.3056 0.0432 -0.1378, 0.3065 0.0578 -0.1378, 0.3118 0.0437 -0.1378, 0.3136 0.058 -0.1378, 0.318 0.0432 -0.1378, 0.3207 0.0573 -0.1378, 0.3241 0.0419 -0.1378, 0.3277 0.0558 -0.1378, 0.33 0.0397 -0.1378, 0.3344 0.0534 -0.1378, 0.3408 0.0503 -0.1378, 0.2577 0.021 -0.1378, 0.2607 0.0275 -0.1378, 0.2751 0.0236 -0.1378, 0.2645 0.0335 -0.1378, 0.2788 0.0286 -0.1378, 0.2689 0.0391 -0.1378, 0.2832 0.033 -0.1378, 0.2741 0.0441 -0.1378, 0.2882 0.0367 -0.1378, 0.2798 0.0484 -0.1378, 0.2937 0.0397 -0.1378, 0.286 0.0519 -0.1378, 0.2925 0.0547 -0.1378, 0.2925 0.0547 -0.1378
            ]
        }
        coordIndex [
            0,1,2,-1,2,1,3,-1,2,3,4,-1,4,3,5,-1,4,5,6,-1,6,5,7,-1,6,7,8,-1,8,7,9,-1,8,9,10,-1,10,9,11,-1,10,11,12,-1,12,11,13,-1,12,13,14,-1,14,13,15,-1,14,15,16,-1,16,15,17,-1,16,17,18,-1,18,17,19,-1,18,19,20,-1,20,19,21,-1,20,21,22,-1,22,21,23,-1,22,23,24,-1,24,23,25,-1,24,25,26,-1,26,25,27,-1,26,27,28,-1,28,27,29,-1,28,29,30,-1,30,29,31,-1,30,31,32,-1,31,33,32,-1,32,33,34,-1,32,34,35,-1,35,34,36,-1,35,36,37,-1,37,36,38,-1,37,38,39,-1,39,38,40,-1,39,40,41,-1,41,40,42,-1,41,42,43,-1,43,42,44,-1,43,44,45,-1,45,44,46,-1,45,46,47,-1,47,46,48,-1,47,48,49,-1,49,48,50,-1,49,50,51,-1,51,50,52,-1,51,52,53,-1,53,52,54,-1,53,54,55,-1,55,54,56,-1,55,56,57,-1,57,56,58,-1,57,58,59,-1,59,58,60,-1,59,60,61,-1,61,60,62,-1,61,62,63,-1,63,62,64,-1,63,64,65,-1,65,64,66,-1,65,66,67,-1,67,66,68,-1,67,68,69,-1,69,68,70,-1,69,70,71,-1,71,70,72,-1,71,72,73,-1,73,72,74,-1,73,74,75,-1,75,74,76,-1,75,76,77,-1,77,76,78,-1,77,78,79,-1,79,78,80,-1,79,80,81,-1,81,80,82,-1,81,82,83,-1,83,82,84,-1,83,84,85,-1,85,84,86,-1,85,86,87,-1,87,86,88,-1,87,88,89,-1,89,88,90,-1,89,90,91,-1,91,90,92,-1,91,92,93,-1,93,92,94,-1,93,94,95,-1,95,94,96,-1,95,96,97,-1,97,96,98,-1,97,98,99,-1,99,98,100,-1,99,100,0,-1,0,100,101,-1,0,101,1,-1,102,103,104,-1,104,103,105,-1,104,105,106,-1,106,105,107,-1,106,107,108,-1,108,107,109,-1,108,109,110,-1,110,109,111,-1,110,111,112,-1,112,111,113,-1,112,113,114,-1,114,113,115,-1,114,115,116,-1,116,115,117,-1,116,117,118,-1,118,117,119,-1,118,119,120,-1,120,119,121,-1,120,121,122,-1,122,121,123,-1,122,123,124,-1,124,123,125,-1,124,125,126,-1,126,125,127,-1,126,127,128,-1,128,127,129,-1,128,129,130,-1,130,129,131,-1,130,131,132,-1,132,131,133,-1,132,133,134,-1,133,135,134,-1,134,135,136,-1,134,136,137,-1,137,136,138,-1,137,138,139,-1,139,138,140,-1,139,140,141,-1,141,140,142,-1,141,142,143,-1,143,142,144,-1,143,144,145,-1,145,144,146,-1,145,146,147,-1,147,146,148,-1,147,148,149,-1,149,148,150,-1,149,150,151,-1,151,150,152,-1,151,152,153,-1,153,152,154,-1,153,154,155,-1,155,154,156,-1,155,156,157,-1,157,156,158,-1,157,158,159,-1,159,158,160,-1,159,160,161,-1,161,160,162,-1,161,162,163,-1,163,162,164,-1,163,164,165,-1,165,164,166,-1,165,166,167,-1,167,166,168,-1,167,168,169,-1,169,168,170,-1,169,170,171,-1,171,170,172,-1,171,172,173,-1,173,172,174,-1,173,174,175,-1,175,174,176,-1,175,176,177,-1,177,176,178,-1,177,178,179,-1,179,178,180,-1,179,180,181,-1,181,180,182,-1,181,182,183,-1,183,182,184,-1,183,184,185,-1,185,184,186,-1,185,186,187,-1,187,186,188,-1,187,188,189,-1,189,188,190,-1,189,190,191,-1,191,190,192,-1,191,192,193,-1,193,192,194,-1,193,194,195,-1,195,194,196,-1,195,196,197,-1,197,196,198,-1,197,198,199,-1,199,198,200,-1,199,200,201,-1,201,200,202,-1,201,202,102,-1,102,202,203,-1,102,203,103,-1,119,15,121,-1,121,15,13,-1,121,13,123,-1,123,13,11,-1,123,11,125,-1,125,11,9,-1,125,9,127,-1,127,9,7,-1,127,7,129,-1,129,7,5,-1,129,5,131,-1,131,5,3,-1,131,3,133,-1,133,3,1,-1,133,1,135,-1,135,1,101,-1,135,101,136,-1,136,101,100,-1,136,100,138,-1,138,100,98,-1,138,98,140,-1,140,98,96,-1,140,96,142,-1,142,96,94,-1,142,94,144,-1,144,94,92,-1,144,92,146,-1,146,92,90,-1,146,90,148,-1,148,90,88,-1,148,88,150,-1,150,88,86,-1,150,86,152,-1,152,86,84,-1,152,84,154,-1,154,84,82,-1,154,82,156,-1,156,82,80,-1,156,80,158,-1,158,80,78,-1,158,78,160,-1,160,78,76,-1,160,76,162,-1,162,76,74,-1,162,74,164,-1,164,74,72,-1,164,72,166,-1,166,72,70,-1,166,70,168,-1,168,70,68,-1,168,68,170,-1,170,68,66,-1,170,66,172,-1,172,66,64,-1,172,64,174,-1,174,64,62,-1,174,62,176,-1,176,62,60,-1,176,60,178,-1,178,60,58,-1,178,58,180,-1,180,58,56,-1,180,56,182,-1,182,56,54,-1,182,54,184,-1,184,54,52,-1,184,52,186,-1,186,52,50,-1,186,50,188,-1,188,50,48,-1,188,48,190,-1,190,48,46,-1,190,46,192,-1,192,46,44,-1,192,44,194,-1,194,44,42,-1,194,42,196,-1,196,42,40,-1,196,40,198,-1,198,40,38,-1,198,38,200,-1,200,38,36,-1,200,36,202,-1,202,36,34,-1,202,34,203,-1,203,34,33,-1,203,33,103,-1,103,33,31,-1,103,31,105,-1,105,31,29,-1,105,29,107,-1,107,29,27,-1,107,27,109,-1,109,27,25,-1,109,25,111,-1,111,25,23,-1,111,23,113,-1,113,23,21,-1,113,21,115,-1,115,21,19,-1,115,19,117,-1,117,19,17,-1,117,17,119,-1,119,17,15,-1,16,118,14,-1,14,118,120,-1,14,120,12,-1,12,120,122,-1,12,122,10,-1,10,122,124,-1,10,124,8,-1,8,124,126,-1,8,126,6,-1,6,126,128,-1,6,128,4,-1,4,128,130,-1,4,130,2,-1,2,130,132,-1,2,132,0,-1,0,132,134,-1,0,134,99,-1,99,134,137,-1,99,137,97,-1,97,137,139,-1,97,139,95,-1,95,139,141,-1,95,141,93,-1,93,141,143,-1,93,143,91,-1,91,143,145,-1,91,145,89,-1,89,145,147,-1,89,147,87,-1,87,147,149,-1,87,149,85,-1,85,149,151,-1,85,151,83,-1,83,151,153,-1,83,153,81,-1,81,153,155,-1,81,155,79,-1,79,155,157,-1,79,157,77,-1,77,157,159,-1,77,159,75,-1,75,159,161,-1,75,161,73,-1,73,161,163,-1,73,163,71,-1,71,163,165,-1,71,165,69,-1,69,165,167,-1,69,167,67,-1,67,167,169,-1,67,169,65,-1,65,169,171,-1,65,171,63,-1,63,171,173,-1,63,173,61,-1,61,173,175,-1,61,175,59,-1,59,175,177,-1,59,177,57,-1,57,177,179,-1,57,179,55,-1,55,179,181,-1,55,181,53,-1,53,181,183,-1,53,183,51,-1,51,183,185,-1,51,185,49,-1,49,185,187,-1,49,187,47,-1,47,187,189,-1,47,189,45,-1,45,189,191,-1,45,191,43,-1,43,191,193,-1,43,193,41,-1,41,193,195,-1,41,195,39,-1,39,195,197,-1,39,197,37,-1,37,197,199,-1,37,199,35,-1,35,199,201,-1,35,201,32,-1,32,201,102,-1,32,102,30,-1,30,102,104,-1,30,104,28,-1,28,104,106,-1,28,106,26,-1,26,106,108,-1,26,108,24,-1,24,108,110,-1,24,110,22,-1,22,110,112,-1,22,112,20,-1,20,112,114,-1,20,114,18,-1,18,114,116,-1,18,116,16,-1,16,116,118,-1,204,205,206,-1,206,205,207,-1,206,207,208,-1,208,207,209,-1,208,209,210,-1,210,209,211,-1,210,211,212,-1,212,211,213,-1,212,213,214,-1,214,213,215,-1,214,215,216,-1,216,215,217,-1,216,217,218,-1,218,217,219,-1,218,219,220,-1,220,219,221,-1,220,221,222,-1,222,221,223,-1,222,223,224,-1,224,223,225,-1,224,225,226,-1,226,225,227,-1,226,227,228,-1,228,227,229,-1,228,229,230,-1,230,229,231,-1,230,231,232,-1,232,231,233,-1,232,233,234,-1,234,233,235,-1,234,235,236,-1,236,235,237,-1,236,237,238,-1,238,237,239,-1,238,239,240,-1,240,239,241,-1,240,241,242,-1,242,241,243,-1,242,243,244,-1,244,243,245,-1,244,245,246,-1,246,245,247,-1,246,247,248,-1,248,247,249,-1,248,249,250,-1,250,249,251,-1,250,251,252,-1,252,251,253,-1,252,253,254,-1,253,255,254,-1,254,255,256,-1,254,256,257,-1,257,256,258,-1,257,258,259,-1,259,258,260,-1,259,260,261,-1,261,260,262,-1,261,262,263,-1,263,262,264,-1,263,264,265,-1,265,264,266,-1,265,266,267,-1,267,266,268,-1,267,268,269,-1,269,268,270,-1,269,270,271,-1,271,270,272,-1,271,272,273,-1,273,272,274,-1,273,274,275,-1,275,274,276,-1,275,276,277,-1,277,276,278,-1,277,278,279,-1,279,278,280,-1,279,280,281,-1,281,280,282,-1,281,282,283,-1,283,282,284,-1,283,284,285,-1,285,284,286,-1,285,286,287,-1,287,286,288,-1,287,288,289,-1,289,288,290,-1,289,290,291,-1,291,290,292,-1,291,292,293,-1,293,292,294,-1,293,294,295,-1,295,294,296,-1,295,296,297,-1,297,296,298,-1,297,298,299,-1,299,298,300,-1,299,300,301,-1,301,300,302,-1,301,302,303,-1,303,302,304,-1,303,304,204,-1,204,304,305,-1,204,305,205,-1,306,307,308,-1,308,307,309,-1,308,309,310,-1,310,309,311,-1,310,311,312,-1,312,311,313,-1,312,313,314,-1,314,313,315,-1,314,315,316,-1,316,315,317,-1,316,317,318,-1,318,317,319,-1,318,319,320,-1,320,319,321,-1,320,321,322,-1,322,321,323,-1,322,323,324,-1,324,323,325,-1,324,325,326,-1,326,325,327,-1,326,327,328,-1,328,327,329,-1,328,329,330,-1,330,329,331,-1,330,331,332,-1,332,331,333,-1,332,333,334,-1,334,333,335,-1,334,335,336,-1,336,335,337,-1,336,337,338,-1,338,337,339,-1,338,339,340,-1,340,339,341,-1,340,341,342,-1,342,341,343,-1,342,343,344,-1,344,343,345,-1,344,345,346,-1,346,345,347,-1,346,347,348,-1,348,347,349,-1,348,349,350,-1,350,349,351,-1,350,351,352,-1,352,351,353,-1,352,353,354,-1,354,353,355,-1,354,355,356,-1,355,357,356,-1,356,357,358,-1,356,358,359,-1,359,358,360,-1,359,360,361,-1,361,360,362,-1,361,362,363,-1,363,362,364,-1,363,364,365,-1,365,364,366,-1,365,366,367,-1,367,366,368,-1,367,368,369,-1,369,368,370,-1,369,370,371,-1,371,370,372,-1,371,372,373,-1,373,372,374,-1,373,374,375,-1,375,374,376,-1,375,376,377,-1,377,376,378,-1,377,378,379,-1,379,378,380,-1,379,380,381,-1,381,380,382,-1,381,382,383,-1,383,382,384,-1,383,384,385,-1,385,384,386,-1,385,386,387,-1,387,386,388,-1,387,388,389,-1,389,388,390,-1,389,390,391,-1,391,390,392,-1,391,392,393,-1,393,392,394,-1,393,394,395,-1,395,394,396,-1,395,396,397,-1,397,396,398,-1,397,398,399,-1,399,398,400,-1,399,400,401,-1,401,400,402,-1,401,402,403,-1,403,402,404,-1,403,404,405,-1,405,404,406,-1,405,406,306,-1,306,406,407,-1,306,407,307,-1,384,227,386,-1,386,227,225,-1,386,225,388,-1,388,225,223,-1,388,223,390,-1,390,223,221,-1,390,221,392,-1,392,221,219,-1,392,219,394,-1,394,219,217,-1,394,217,396,-1,396,217,215,-1,396,215,398,-1,398,215,213,-1,398,213,400,-1,400,213,211,-1,400,211,402,-1,402,211,209,-1,402,209,404,-1,404,209,207,-1,404,207,406,-1,406,207,205,-1,406,205,407,-1,407,205,305,-1,407,305,307,-1,307,305,304,-1,307,304,309,-1,309,304,302,-1,309,302,311,-1,311,302,300,-1,311,300,313,-1,313,300,298,-1,313,298,315,-1,315,298,296,-1,315,296,317,-1,317,296,294,-1,317,294,319,-1,319,294,292,-1,319,292,321,-1,321,292,290,-1,321,290,323,-1,323,290,288,-1,323,288,325,-1,325,288,286,-1,325,286,327,-1,327,286,284,-1,327,284,329,-1,329,284,282,-1,329,282,331,-1,331,282,280,-1,331,280,333,-1,333,280,278,-1,333,278,335,-1,335,278,276,-1,335,276,337,-1,337,276,274,-1,337,274,339,-1,339,274,272,-1,339,272,341,-1,341,272,270,-1,341,270,343,-1,343,270,268,-1,343,268,345,-1,345,268,266,-1,345,266,347,-1,347,266,264,-1,347,264,349,-1,349,264,262,-1,349,262,351,-1,351,262,260,-1,351,260,353,-1,353,260,258,-1,353,258,355,-1,355,258,256,-1,355,256,357,-1,357,256,255,-1,357,255,358,-1,358,255,253,-1,358,253,360,-1,360,253,251,-1,360,251,362,-1,362,251,249,-1,362,249,364,-1,364,249,247,-1,364,247,366,-1,366,247,245,-1,366,245,368,-1,368,245,243,-1,368,243,370,-1,370,243,241,-1,370,241,372,-1,372,241,239,-1,372,239,374,-1,374,239,237,-1,374,237,376,-1,376,237,235,-1,376,235,378,-1,378,235,233,-1,378,233,380,-1,380,233,231,-1,380,231,382,-1,382,231,229,-1,382,229,384,-1,384,229,227,-1,228,383,226,-1,226,383,385,-1,226,385,224,-1,224,385,387,-1,224,387,222,-1,222,387,389,-1,222,389,220,-1,220,389,391,-1,220,391,218,-1,218,391,393,-1,218,393,216,-1,216,393,395,-1,216,395,214,-1,214,395,397,-1,214,397,212,-1,212,397,399,-1,212,399,210,-1,210,399,401,-1,210,401,208,-1,208,401,403,-1,208,403,206,-1,206,403,405,-1,206,405,204,-1,204,405,306,-1,204,306,303,-1,303,306,308,-1,303,308,301,-1,301,308,310,-1,301,310,299,-1,299,310,312,-1,299,312,297,-1,297,312,314,-1,297,314,295,-1,295,314,316,-1,295,316,293,-1,293,316,318,-1,293,318,291,-1,291,318,320,-1,291,320,289,-1,289,320,322,-1,289,322,287,-1,287,322,324,-1,287,324,285,-1,285,324,326,-1,285,326,283,-1,283,326,328,-1,283,328,281,-1,281,328,330,-1,281,330,279,-1,279,330,332,-1,279,332,277,-1,277,332,334,-1,277,334,275,-1,275,334,336,-1,275,336,273,-1,273,336,338,-1,273,338,271,-1,271,338,340,-1,271,340,269,-1,269,340,342,-1,269,342,267,-1,267,342,344,-1,267,344,265,-1,265,344,346,-1,265,346,263,-1,263,346,348,-1,263,348,261,-1,261,348,350,-1,261,350,259,-1,259,350,352,-1,259,352,257,-1,257,352,354,-1,257,354,254,-1,254,354,356,-1,254,356,252,-1,252,356,359,-1,252,359,250,-1,250,359,361,-1,250,361,248,-1,248,361,363,-1,248,363,246,-1,246,363,365,-1,246,365,244,-1,244,365,367,-1,244,367,242,-1,242,367,369,-1,242,369,240,-1,240,369,371,-1,240,371,238,-1,238,371,373,-1,238,373,236,-1,236,373,375,-1,236,375,234,-1,234,375,377,-1,234,377,232,-1,232,377,379,-1,232,379,230,-1,230,379,381,-1,230,381,228,-1,228,381,383,-1,408,409,410,-1,410,409,411,-1,410,411,412,-1,412,411,413,-1,412,413,414,-1,414,413,415,-1,414,415,416,-1,417,418,419,-1,419,418,420,-1,419,420,421,-1,421,420,422,-1,421,422,423,-1,423,422,424,-1,423,424,408,-1,408,424,425,-1,408,425,409,-1,426,427,428,-1,428,427,429,-1,428,429,430,-1,430,429,431,-1,430,431,432,-1,432,431,433,-1,432,433,434,-1,434,433,435,-1,434,435,436,-1,437,438,439,-1,439,438,440,-1,439,440,441,-1,441,440,442,-1,441,442,443,-1,443,442,444,-1,443,444,426,-1,426,444,445,-1,426,445,427,-1,415,446,416,-1,416,446,447,-1,416,447,448,-1,448,447,449,-1,448,449,450,-1,450,449,451,-1,450,451,452,-1,452,451,453,-1,452,453,454,-1,455,456,457,-1,457,456,458,-1,457,458,459,-1,459,458,460,-1,459,460,461,-1,461,460,462,-1,461,462,417,-1,417,462,463,-1,417,463,418,-1,435,464,436,-1,436,464,465,-1,436,465,466,-1,466,465,467,-1,466,467,468,-1,468,467,469,-1,468,469,470,-1,470,469,471,-1,470,471,472,-1,453,473,454,-1,454,473,474,-1,454,474,475,-1,475,474,476,-1,475,476,477,-1,477,476,478,-1,477,478,479,-1,479,478,480,-1,479,480,437,-1,437,480,481,-1,437,481,438,-1,471,482,472,-1,472,482,483,-1,472,483,484,-1,484,483,485,-1,484,485,486,-1,486,485,487,-1,486,487,488,-1,487,489,488,-1,488,489,490,-1,488,490,491,-1,491,490,492,-1,491,492,493,-1,493,492,494,-1,493,494,495,-1,495,494,496,-1,495,496,455,-1,455,496,497,-1,455,497,456,-1,498,499,500,-1,500,499,501,-1,500,501,502,-1,502,501,503,-1,502,503,504,-1,504,503,505,-1,504,505,506,-1,507,508,509,-1,509,508,510,-1,509,510,511,-1,511,510,512,-1,511,512,513,-1,513,512,514,-1,513,514,498,-1,498,514,515,-1,498,515,499,-1,516,517,518,-1,518,517,519,-1,518,519,520,-1,520,519,521,-1,520,521,522,-1,522,521,523,-1,522,523,524,-1,524,523,525,-1,524,525,526,-1,525,527,526,-1,526,527,528,-1,526,528,529,-1,529,528,530,-1,529,530,531,-1,531,530,532,-1,531,532,533,-1,533,532,534,-1,533,534,535,-1,536,537,538,-1,538,537,539,-1,538,539,540,-1,540,539,541,-1,540,541,542,-1,542,541,543,-1,542,543,507,-1,507,543,544,-1,507,544,508,-1,534,545,535,-1,535,545,546,-1,535,546,547,-1,547,546,548,-1,547,548,549,-1,549,548,550,-1,549,550,551,-1,551,550,552,-1,551,552,536,-1,536,552,553,-1,536,553,537,-1,505,554,506,-1,506,554,555,-1,506,555,556,-1,556,555,557,-1,556,557,558,-1,558,557,559,-1,558,559,560,-1,560,559,561,-1,560,561,562,-1,563,564,565,-1,565,564,566,-1,565,566,567,-1,567,566,568,-1,567,568,569,-1,569,568,570,-1,569,570,516,-1,516,570,571,-1,516,571,517,-1,572,573,574,-1,574,573,575,-1,574,575,576,-1,576,575,577,-1,576,577,578,-1,578,577,579,-1,578,579,563,-1,563,579,580,-1,563,580,564,-1,561,581,562,-1,562,581,582,-1,562,582,583,-1,583,582,584,-1,583,584,585,-1,585,584,586,-1,585,586,572,-1,572,586,587,-1,572,587,573,-1,503,422,505,-1,505,422,420,-1,505,420,554,-1,554,420,418,-1,554,418,555,-1,555,418,463,-1,555,463,557,-1,557,463,462,-1,557,462,559,-1,559,462,460,-1,559,460,561,-1,561,460,458,-1,561,458,581,-1,581,458,456,-1,581,456,582,-1,582,456,497,-1,582,497,584,-1,584,497,496,-1,584,496,586,-1,586,496,494,-1,586,494,587,-1,587,494,492,-1,587,492,573,-1,573,492,490,-1,573,490,575,-1,575,490,489,-1,575,489,577,-1,577,489,487,-1,577,487,579,-1,579,487,485,-1,579,485,580,-1,580,485,483,-1,580,483,564,-1,564,483,482,-1,564,482,566,-1,566,482,471,-1,566,471,568,-1,568,471,469,-1,568,469,570,-1,570,469,467,-1,570,467,571,-1,571,467,465,-1,571,465,517,-1,517,465,464,-1,517,464,519,-1,519,464,435,-1,519,435,521,-1,521,435,433,-1,521,433,523,-1,523,433,431,-1,523,431,525,-1,525,431,429,-1,525,429,527,-1,527,429,427,-1,527,427,528,-1,528,427,445,-1,528,445,530,-1,530,445,444,-1,530,444,532,-1,532,444,442,-1,532,442,534,-1,534,442,440,-1,534,440,545,-1,545,440,438,-1,545,438,546,-1,546,438,481,-1,546,481,548,-1,548,481,480,-1,548,480,550,-1,550,480,478,-1,550,478,552,-1,552,478,476,-1,552,476,553,-1,553,476,474,-1,553,474,537,-1,537,474,473,-1,537,473,539,-1,539,473,453,-1,539,453,541,-1,541,453,451,-1,541,451,543,-1,543,451,449,-1,543,449,544,-1,544,449,447,-1,544,447,508,-1,508,447,446,-1,508,446,510,-1,510,446,415,-1,510,415,512,-1,512,415,413,-1,512,413,514,-1,514,413,411,-1,514,411,515,-1,515,411,409,-1,515,409,499,-1,499,409,425,-1,499,425,501,-1,501,425,424,-1,501,424,503,-1,503,424,422,-1,423,502,421,-1,421,502,504,-1,421,504,419,-1,419,504,506,-1,419,506,417,-1,417,506,556,-1,417,556,461,-1,461,556,558,-1,461,558,459,-1,459,558,560,-1,459,560,457,-1,457,560,562,-1,457,562,455,-1,455,562,583,-1,455,583,495,-1,495,583,585,-1,495,585,493,-1,493,585,572,-1,493,572,491,-1,491,572,574,-1,491,574,488,-1,488,574,576,-1,488,576,486,-1,486,576,578,-1,486,578,484,-1,484,578,563,-1,484,563,472,-1,472,563,565,-1,472,565,470,-1,470,565,567,-1,470,567,468,-1,468,567,569,-1,468,569,466,-1,466,569,516,-1,466,516,436,-1,436,516,518,-1,436,518,434,-1,434,518,520,-1,434,520,432,-1,432,520,522,-1,432,522,430,-1,430,522,524,-1,430,524,428,-1,428,524,526,-1,428,526,426,-1,426,526,529,-1,426,529,443,-1,443,529,531,-1,443,531,441,-1,441,531,533,-1,441,533,439,-1,439,533,535,-1,439,535,437,-1,437,535,547,-1,437,547,479,-1,479,547,549,-1,479,549,477,-1,477,549,551,-1,477,551,475,-1,475,551,536,-1,475,536,454,-1,454,536,538,-1,454,538,452,-1,452,538,540,-1,452,540,450,-1,450,540,542,-1,450,542,448,-1,448,542,507,-1,448,507,416,-1,416,507,509,-1,416,509,414,-1,414,509,511,-1,414,511,412,-1,412,511,513,-1,412,513,410,-1,410,513,498,-1,410,498,408,-1,408,498,500,-1,408,500,423,-1,423,500,502,-1,588,589,590,-1,591,592,593,-1,593,592,594,-1,593,594,595,-1,595,594,596,-1,595,596,597,-1,597,596,598,-1,597,598,599,-1,599,598,600,-1,599,600,601,-1,601,600,602,-1,601,602,603,-1,602,604,603,-1,603,604,605,-1,603,605,606,-1,606,605,607,-1,606,607,608,-1,608,607,609,-1,608,609,610,-1,610,609,611,-1,610,611,612,-1,612,611,613,-1,612,613,614,-1,614,613,615,-1,614,615,590,-1,590,615,616,-1,590,616,588,-1,617,618,619,-1,619,618,620,-1,619,620,621,-1,621,620,622,-1,621,622,623,-1,623,622,624,-1,623,624,625,-1,625,624,626,-1,625,626,627,-1,627,626,628,-1,627,628,591,-1,591,628,629,-1,591,629,592,-1,588,630,589,-1,589,630,631,-1,589,631,632,-1,632,631,633,-1,632,633,634,-1,634,633,635,-1,634,635,636,-1,636,635,637,-1,636,637,638,-1,638,637,639,-1,638,639,640,-1,640,639,641,-1,640,641,642,-1,643,644,645,-1,645,644,646,-1,645,646,647,-1,647,646,648,-1,647,648,649,-1,649,648,650,-1,649,650,651,-1,651,650,652,-1,651,652,653,-1,653,652,654,-1,653,654,655,-1,655,654,656,-1,655,656,617,-1,617,656,657,-1,617,657,618,-1,658,659,660,-1,660,659,661,-1,660,661,662,-1,662,661,663,-1,662,663,664,-1,664,663,665,-1,664,665,666,-1,666,665,667,-1,666,667,668,-1,668,667,669,-1,668,669,643,-1,643,669,670,-1,643,670,644,-1,641,671,642,-1,642,671,672,-1,642,672,673,-1,673,672,674,-1,673,674,675,-1,675,674,676,-1,675,676,677,-1,677,676,678,-1,677,678,679,-1,679,678,680,-1,679,680,681,-1,681,680,682,-1,681,682,658,-1,658,682,683,-1,658,683,659,-1,684,685,686,-1,686,685,687,-1,686,687,688,-1,688,687,689,-1,688,689,690,-1,690,689,691,-1,690,691,692,-1,692,691,693,-1,692,693,694,-1,694,693,695,-1,694,695,696,-1,697,698,699,-1,700,701,702,-1,702,701,703,-1,702,703,704,-1,704,703,705,-1,704,705,706,-1,706,705,707,-1,706,707,708,-1,708,707,709,-1,708,709,710,-1,710,709,711,-1,710,711,684,-1,684,711,712,-1,684,712,685,-1,697,713,698,-1,698,713,714,-1,698,714,715,-1,715,714,716,-1,715,716,717,-1,717,716,718,-1,717,718,719,-1,719,718,720,-1,719,720,721,-1,721,720,722,-1,721,722,723,-1,723,722,724,-1,723,724,700,-1,700,724,725,-1,700,725,701,-1,695,726,696,-1,696,726,727,-1,696,727,728,-1,728,727,729,-1,728,729,730,-1,730,729,731,-1,730,731,732,-1,732,731,733,-1,732,733,734,-1,734,733,735,-1,734,735,736,-1,736,735,737,-1,736,737,738,-1,738,737,739,-1,738,739,740,-1,741,742,743,-1,743,742,744,-1,743,744,745,-1,745,744,746,-1,745,746,747,-1,747,746,748,-1,747,748,749,-1,749,748,750,-1,749,750,751,-1,751,750,752,-1,751,752,699,-1,699,752,753,-1,699,753,697,-1,754,755,756,-1,756,755,757,-1,756,757,758,-1,758,757,759,-1,758,759,760,-1,760,759,761,-1,760,761,762,-1,762,761,763,-1,762,763,764,-1,764,763,765,-1,764,765,741,-1,741,765,766,-1,741,766,742,-1,739,767,740,-1,740,767,768,-1,740,768,769,-1,769,768,770,-1,769,770,771,-1,771,770,772,-1,771,772,773,-1,773,772,774,-1,773,774,775,-1,775,774,776,-1,775,776,777,-1,777,776,778,-1,777,778,754,-1,754,778,779,-1,754,779,755,-1,631,630,713,-1,713,630,714,-1,630,588,714,-1,714,588,616,-1,714,616,716,-1,716,616,615,-1,716,615,718,-1,718,615,613,-1,718,613,720,-1,720,613,611,-1,720,611,722,-1,722,611,609,-1,722,609,724,-1,724,609,607,-1,724,607,725,-1,725,607,605,-1,725,605,701,-1,701,605,604,-1,701,604,703,-1,703,604,602,-1,703,602,705,-1,705,602,600,-1,705,600,707,-1,707,600,598,-1,707,598,709,-1,709,598,596,-1,709,596,711,-1,711,596,594,-1,711,594,712,-1,712,594,592,-1,712,592,685,-1,685,592,629,-1,685,629,687,-1,687,629,628,-1,687,628,689,-1,689,628,626,-1,689,626,691,-1,691,626,624,-1,691,624,693,-1,693,624,622,-1,693,622,695,-1,695,622,620,-1,695,620,726,-1,726,620,618,-1,726,618,727,-1,727,618,657,-1,727,657,729,-1,729,657,656,-1,729,656,731,-1,731,656,654,-1,731,654,733,-1,733,654,652,-1,733,652,735,-1,735,652,650,-1,735,650,737,-1,737,650,648,-1,737,648,739,-1,739,648,646,-1,739,646,767,-1,767,646,644,-1,767,644,768,-1,768,644,670,-1,768,670,770,-1,770,670,669,-1,770,669,772,-1,772,669,667,-1,772,667,774,-1,774,667,665,-1,774,665,776,-1,776,665,663,-1,776,663,778,-1,778,663,661,-1,778,661,779,-1,779,661,659,-1,779,659,755,-1,755,659,683,-1,755,683,757,-1,757,683,682,-1,757,682,759,-1,759,682,680,-1,759,680,761,-1,761,680,678,-1,761,678,763,-1,763,678,676,-1,763,676,765,-1,765,676,674,-1,765,674,766,-1,766,674,672,-1,766,672,742,-1,742,672,671,-1,742,671,744,-1,744,671,641,-1,744,641,746,-1,746,641,639,-1,746,639,748,-1,748,639,637,-1,748,637,750,-1,750,637,635,-1,750,635,752,-1,752,635,633,-1,752,633,753,-1,753,633,631,-1,753,631,697,-1,697,631,713,-1,651,734,649,-1,649,734,736,-1,649,736,647,-1,647,736,738,-1,647,738,645,-1,645,738,740,-1,645,740,643,-1,643,740,769,-1,643,769,668,-1,668,769,771,-1,668,771,666,-1,666,771,773,-1,666,773,664,-1,664,773,775,-1,664,775,662,-1,662,775,777,-1,662,777,660,-1,660,777,754,-1,660,754,658,-1,658,754,756,-1,658,756,681,-1,681,756,758,-1,681,758,679,-1,679,758,760,-1,679,760,677,-1,677,760,762,-1,677,762,675,-1,675,762,764,-1,675,764,673,-1,673,764,741,-1,673,741,642,-1,642,741,743,-1,642,743,640,-1,640,743,745,-1,640,745,638,-1,638,745,747,-1,638,747,636,-1,636,747,749,-1,636,749,634,-1,634,749,751,-1,634,751,632,-1,632,751,699,-1,632,699,589,-1,589,699,698,-1,589,698,590,-1,590,698,715,-1,590,715,614,-1,614,715,717,-1,614,717,612,-1,612,717,719,-1,612,719,610,-1,610,719,721,-1,610,721,608,-1,608,721,723,-1,608,723,606,-1,606,723,700,-1,606,700,603,-1,603,700,702,-1,603,702,601,-1,601,702,704,-1,601,704,599,-1,599,704,706,-1,599,706,597,-1,597,706,708,-1,597,708,595,-1,595,708,710,-1,595,710,593,-1,593,710,684,-1,593,684,591,-1,591,684,686,-1,591,686,627,-1,627,686,688,-1,627,688,625,-1,625,688,690,-1,625,690,623,-1,623,690,692,-1,623,692,621,-1,621,692,694,-1,621,694,619,-1,619,694,696,-1,619,696,617,-1,617,696,728,-1,617,728,655,-1,655,728,730,-1,655,730,653,-1,653,730,732,-1,653,732,651,-1,651,732,734,-1,
        ]
    }
}
Shape{
    appearance Appearance {
        material  Material 	{
            diffuseColor 0.796078431372549 0.8235294117647058 0.9372549019607843
            specularColor 0.396078431372549 0.4117647058823529 0.4666666666666667
            ambientIntensity 0.2
            transparency 0
            shininess 0.5
        }
    }
    geometry IndexedFaceSet {
        ccw TRUE
        solid FALSE
        coord DEF co Coordinate {
            point [
                0.4665 0.0 -0.0197, 0.4654 0.0183 -0.0201, 0.4654 0.0183 -0.0197, 0.4622 0.0363 -0.0201, 0.4622 0.0363 -0.0197, 0.4568 0.0539 -0.0201, 0.4568 0.0539 -0.0197, 0.4494 0.0706 -0.0201, 0.4494 0.0706 -0.0197, 0.4401 0.0864 -0.0201, 0.4401 0.0864 -0.0197, 0.429 0.101 -0.0201, 0.429 0.101 -0.0197, 0.4162 0.1141 -0.0201, 0.4162 0.1141 -0.0197, 0.402 0.1257 -0.0201, 0.402 0.1257 -0.0197, 0.3865 0.1355 -0.0201, 0.3865 0.1355 -0.0197, 0.3699 0.1433 -0.0201, 0.3699 0.1433 -0.0197, 0.3526 0.1492 -0.0201, 0.3526 0.1492 -0.0197, 0.3347 0.153 -0.0201, 0.3347 0.153 -0.0197, 0.3164 0.1546 -0.0201, 0.3164 0.1546 -0.0197, 0.2981 0.1541 -0.0201, 0.2981 0.1541 -0.0197, 0.28 0.1514 -0.0201, 0.28 0.1514 -0.0197, 0.2623 0.1465 -0.0201, 0.2623 0.1465 -0.0197, 0.2453 0.1396 -0.0201, 0.2453 0.1396 -0.0197, 0.2292 0.1308 -0.0201, 0.2292 0.1308 -0.0197, 0.2144 0.1201 -0.0201, 0.2144 0.1201 -0.0197, 0.2008 0.1077 -0.0201, 0.2008 0.1077 -0.0197, 0.1889 0.0939 -0.0201, 0.1889 0.0939 -0.0197, 0.1786 0.0787 -0.0201, 0.1786 0.0787 -0.0197, 0.1703 0.0624 -0.0201, 0.1703 0.0624 -0.0197, 0.1639 0.0452 -0.0201, 0.1639 0.0452 -0.0197, 0.1596 0.0274 -0.0201, 0.1596 0.0274 -0.0197, 0.1574 0.0092 -0.0201, 0.1574 0.0092 -0.0197, 0.1574 -0.0092 -0.0201, 0.1574 -0.0092 -0.0197, 0.1596 -0.0274 -0.0201, 0.1596 -0.0274 -0.0197, 0.1639 -0.0452 -0.0201, 0.1639 -0.0452 -0.0197, 0.1703 -0.0624 -0.0201, 0.1703 -0.0624 -0.0197, 0.1786 -0.0787 -0.0201, 0.1786 -0.0787 -0.0197, 0.1889 -0.0939 -0.0201, 0.1889 -0.0939 -0.0197, 0.2008 -0.1077 -0.0201, 0.2008 -0.1077 -0.0197, 0.2144 -0.1201 -0.0201, 0.2144 -0.1201 -0.0197, 0.2292 -0.1308 -0.0201, 0.2292 -0.1308 -0.0197, 0.2453 -0.1396 -0.0201, 0.2453 -0.1396 -0.0197, 0.2623 -0.1465 -0.0201, 0.2623 -0.1465 -0.0197, 0.28 -0.1514 -0.0201, 0.28 -0.1514 -0.0197, 0.2981 -0.1541 -0.0201, 0.2981 -0.1541 -0.0197, 0.3164 -0.1546 -0.0201, 0.3164 -0.1546 -0.0197, 0.3347 -0.153 -0.0201, 0.3347 -0.153 -0.0197, 0.3526 -0.1492 -0.0201, 0.3526 -0.1492 -0.0197, 0.3699 -0.1433 -0.0201, 0.3699 -0.1433 -0.0197, 0.3865 -0.1355 -0.0201, 0.3865 -0.1355 -0.0197, 0.402 -0.1257 -0.0201, 0.402 -0.1257 -0.0197, 0.4162 -0.1141 -0.0201, 0.4162 -0.1141 -0.0197, 0.429 -0.101 -0.0201, 0.429 -0.101 -0.0197, 0.4401 -0.0864 -0.0201, 0.4401 -0.0864 -0.0197, 0.4494 -0.0706 -0.0201, 0.4494 -0.0706 -0.0197, 0.4568 -0.0539 -0.0201, 0.4568 -0.0539 -0.0197, 0.4622 -0.0363 -0.0201, 0.4622 -0.0363 -0.0197, 0.4654 -0.0183 -0.0201, 0.4654 -0.0183 -0.0197, 0.4665 0.0 -0.0201, 0.3118 0.0 -0.0201, 0.3118 0.0 -0.0197, -0.3424 0.0 -0.0197, -0.3433 0.0152 -0.0201, -0.3433 0.0152 -0.0197, -0.346 0.0301 -0.0201, -0.346 0.0301 -0.0197, -0.3504 0.0447 -0.0201, -0.3504 0.0447 -0.0197, -0.3566 0.0586 -0.0201, -0.3566 0.0586 -0.0197, -0.3643 0.0717 -0.0201, -0.3643 0.0717 -0.0197, -0.3735 0.0838 -0.0201, -0.3735 0.0838 -0.0197, -0.3841 0.0947 -0.0201, -0.3841 0.0947 -0.0197, -0.3959 0.1042 -0.0201, -0.3959 0.1042 -0.0197, -0.4088 0.1124 -0.0201, -0.4088 0.1124 -0.0197, -0.4225 0.1189 -0.0201, -0.4225 0.1189 -0.0197, -0.4369 0.1238 -0.0201, -0.4369 0.1238 -0.0197, -0.4518 0.1269 -0.0201, -0.4518 0.1269 -0.0197, -0.4669 0.1283 -0.0201, -0.4669 0.1283 -0.0197, -0.4821 0.1278 -0.0201, -0.4821 0.1278 -0.0197, -0.4972 0.1256 -0.0201, -0.4972 0.1256 -0.0197, -0.5118 0.1215 -0.0201, -0.5118 0.1215 -0.0197, -0.5259 0.1158 -0.0201, -0.5259 0.1158 -0.0197, -0.5392 0.1085 -0.0201, -0.5392 0.1085 -0.0197, -0.5516 0.0996 -0.0201, -0.5516 0.0996 -0.0197, -0.5628 0.0894 -0.0201, -0.5628 0.0894 -0.0197, -0.5727 0.0779 -0.0201, -0.5727 0.0779 -0.0197, -0.5812 0.0652 -0.0201, -0.5812 0.0652 -0.0197, -0.5881 0.0517 -0.0201, -0.5881 0.0517 -0.0197, -0.5934 0.0375 -0.0201, -0.5934 0.0375 -0.0197, -0.597 0.0227 -0.0201, -0.597 0.0227 -0.0197, -0.5988 0.0076 -0.0201, -0.5988 0.0076 -0.0197, -0.5988 -0.0076 -0.0201, -0.5988 -0.0076 -0.0197, -0.597 -0.0227 -0.0201, -0.597 -0.0227 -0.0197, -0.5934 -0.0375 -0.0201, -0.5934 -0.0375 -0.0197, -0.5881 -0.0517 -0.0201, -0.5881 -0.0517 -0.0197, -0.5812 -0.0652 -0.0201, -0.5812 -0.0652 -0.0197, -0.5727 -0.0779 -0.0201, -0.5727 -0.0779 -0.0197, -0.5628 -0.0894 -0.0201, -0.5628 -0.0894 -0.0197, -0.5516 -0.0996 -0.0201, -0.5516 -0.0996 -0.0197, -0.5392 -0.1085 -0.0201, -0.5392 -0.1085 -0.0197, -0.5259 -0.1158 -0.0201, -0.5259 -0.1158 -0.0197, -0.5118 -0.1215 -0.0201, -0.5118 -0.1215 -0.0197, -0.4972 -0.1256 -0.0201, -0.4972 -0.1256 -0.0197, -0.4821 -0.1278 -0.0201, -0.4821 -0.1278 -0.0197, -0.4669 -0.1283 -0.0201, -0.4669 -0.1283 -0.0197, -0.4518 -0.1269 -0.0201, -0.4518 -0.1269 -0.0197, -0.4369 -0.1238 -0.0201, -0.4369 -0.1238 -0.0197, -0.4225 -0.1189 -0.0201, -0.4225 -0.1189 -0.0197, -0.4088 -0.1124 -0.0201, -0.4088 -0.1124 -0.0197, -0.3959 -0.1042 -0.0201, -0.3959 -0.1042 -0.0197, -0.3841 -0.0947 -0.0201, -0.3841 -0.0947 -0.0197, -0.3735 -0.0838 -0.0201, -0.3735 -0.0838 -0.0197, -0.3643 -0.0717 -0.0201, -0.3643 -0.0717 -0.0197, -0.3566 -0.0586 -0.0201, -0.3566 -0.0586 -0.0197, -0.3504 -0.0447 -0.0201, -0.3504 -0.0447 -0.0197, -0.346 -0.0301 -0.0201, -0.346 -0.0301 -0.0197, -0.3433 -0.0152 -0.0201, -0.3433 -0.0152 -0.0197, -0.3424 0.0 -0.0201, -0.4707 0.0 -0.0201, -0.4707 0.0 -0.0197, -0.4707 0.0 -0.0197
            ]
        }
        coordIndex [
            0,1,2,-1,2,1,3,-1,2,3,4,-1,4,3,5,-1,4,5,6,-1,6,5,7,-1,6,7,8,-1,8,7,9,-1,8,9,10,-1,10,9,11,-1,10,11,12,-1,12,11,13,-1,12,13,14,-1,14,13,15,-1,14,15,16,-1,16,15,17,-1,16,17,18,-1,18,17,19,-1,18,19,20,-1,20,19,21,-1,20,21,22,-1,22,21,23,-1,22,23,24,-1,24,23,25,-1,24,25,26,-1,26,25,27,-1,26,27,28,-1,28,27,29,-1,28,29,30,-1,30,29,31,-1,30,31,32,-1,32,31,33,-1,32,33,34,-1,34,33,35,-1,34,35,36,-1,36,35,37,-1,36,37,38,-1,38,37,39,-1,38,39,40,-1,40,39,41,-1,40,41,42,-1,42,41,43,-1,42,43,44,-1,44,43,45,-1,44,45,46,-1,46,45,47,-1,46,47,48,-1,48,47,49,-1,48,49,50,-1,50,49,51,-1,50,51,52,-1,52,51,53,-1,52,53,54,-1,54,53,55,-1,54,55,56,-1,56,55,57,-1,56,57,58,-1,58,57,59,-1,58,59,60,-1,60,59,61,-1,60,61,62,-1,62,61,63,-1,62,63,64,-1,64,63,65,-1,64,65,66,-1,66,65,67,-1,66,67,68,-1,68,67,69,-1,68,69,70,-1,70,69,71,-1,70,71,72,-1,72,71,73,-1,72,73,74,-1,74,73,75,-1,74,75,76,-1,76,75,77,-1,76,77,78,-1,78,77,79,-1,78,79,80,-1,80,79,81,-1,80,81,82,-1,82,81,83,-1,82,83,84,-1,84,83,85,-1,84,85,86,-1,86,85,87,-1,86,87,88,-1,88,87,89,-1,88,89,90,-1,90,89,91,-1,90,91,92,-1,92,91,93,-1,92,93,94,-1,94,93,95,-1,94,95,96,-1,96,95,97,-1,96,97,98,-1,98,97,99,-1,98,99,100,-1,100,99,101,-1,100,101,102,-1,102,101,103,-1,102,103,104,-1,104,103,105,-1,104,105,0,-1,0,105,1,-1,105,103,106,-1,105,106,1,-1,7,5,106,-1,106,5,3,-1,106,3,1,-1,13,11,106,-1,106,11,9,-1,106,9,7,-1,19,17,106,-1,106,17,15,-1,106,15,13,-1,25,23,106,-1,106,23,21,-1,106,21,19,-1,31,29,106,-1,106,29,27,-1,106,27,25,-1,37,35,106,-1,106,35,33,-1,106,33,31,-1,43,41,106,-1,106,41,39,-1,106,39,37,-1,49,47,106,-1,106,47,45,-1,106,45,43,-1,55,53,106,-1,106,53,51,-1,106,51,49,-1,61,59,106,-1,106,59,57,-1,106,57,55,-1,67,65,106,-1,106,65,63,-1,106,63,61,-1,73,71,106,-1,106,71,69,-1,106,69,67,-1,79,77,106,-1,106,77,75,-1,106,75,73,-1,85,83,106,-1,106,83,81,-1,106,81,79,-1,91,89,106,-1,106,89,87,-1,106,87,85,-1,97,95,106,-1,106,95,93,-1,106,93,91,-1,103,101,106,-1,106,101,99,-1,106,99,97,-1,0,2,107,-1,0,107,104,-1,98,100,107,-1,107,100,102,-1,107,102,104,-1,92,94,107,-1,107,94,96,-1,107,96,98,-1,86,88,107,-1,107,88,90,-1,107,90,92,-1,80,82,107,-1,107,82,84,-1,107,84,86,-1,74,76,107,-1,107,76,78,-1,107,78,80,-1,68,70,107,-1,107,70,72,-1,107,72,74,-1,62,64,107,-1,107,64,66,-1,107,66,68,-1,56,58,107,-1,107,58,60,-1,107,60,62,-1,50,52,107,-1,107,52,54,-1,107,54,56,-1,44,46,107,-1,107,46,48,-1,107,48,50,-1,38,40,107,-1,107,40,42,-1,107,42,44,-1,32,34,107,-1,107,34,36,-1,107,36,38,-1,26,28,107,-1,107,28,30,-1,107,30,32,-1,20,22,107,-1,107,22,24,-1,107,24,26,-1,14,16,107,-1,107,16,18,-1,107,18,20,-1,8,10,107,-1,107,10,12,-1,107,12,14,-1,2,4,107,-1,107,4,6,-1,107,6,8,-1,108,109,110,-1,110,109,111,-1,110,111,112,-1,112,111,113,-1,112,113,114,-1,114,113,115,-1,114,115,116,-1,116,115,117,-1,116,117,118,-1,118,117,119,-1,118,119,120,-1,120,119,121,-1,120,121,122,-1,122,121,123,-1,122,123,124,-1,124,123,125,-1,124,125,126,-1,126,125,127,-1,126,127,128,-1,128,127,129,-1,128,129,130,-1,130,129,131,-1,130,131,132,-1,132,131,133,-1,132,133,134,-1,134,133,135,-1,134,135,136,-1,136,135,137,-1,136,137,138,-1,138,137,139,-1,138,139,140,-1,140,139,141,-1,140,141,142,-1,142,141,143,-1,142,143,144,-1,144,143,145,-1,144,145,146,-1,146,145,147,-1,146,147,148,-1,148,147,149,-1,148,149,150,-1,150,149,151,-1,150,151,152,-1,152,151,153,-1,152,153,154,-1,154,153,155,-1,154,155,156,-1,156,155,157,-1,156,157,158,-1,158,157,159,-1,158,159,160,-1,160,159,161,-1,160,161,162,-1,162,161,163,-1,162,163,164,-1,164,163,165,-1,164,165,166,-1,166,165,167,-1,166,167,168,-1,168,167,169,-1,168,169,170,-1,170,169,171,-1,170,171,172,-1,172,171,173,-1,172,173,174,-1,174,173,175,-1,174,175,176,-1,176,175,177,-1,176,177,178,-1,178,177,179,-1,178,179,180,-1,180,179,181,-1,180,181,182,-1,182,181,183,-1,182,183,184,-1,184,183,185,-1,184,185,186,-1,186,185,187,-1,186,187,188,-1,188,187,189,-1,188,189,190,-1,190,189,191,-1,190,191,192,-1,192,191,193,-1,192,193,194,-1,194,193,195,-1,194,195,196,-1,196,195,197,-1,196,197,198,-1,198,197,199,-1,198,199,200,-1,200,199,201,-1,200,201,202,-1,202,201,203,-1,202,203,204,-1,204,203,205,-1,204,205,206,-1,206,205,207,-1,206,207,208,-1,208,207,209,-1,208,209,210,-1,210,209,211,-1,210,211,212,-1,212,211,213,-1,212,213,108,-1,108,213,109,-1,213,211,214,-1,213,214,109,-1,115,113,214,-1,214,113,111,-1,214,111,109,-1,121,119,214,-1,214,119,117,-1,214,117,115,-1,127,125,214,-1,214,125,123,-1,214,123,121,-1,133,131,214,-1,214,131,129,-1,214,129,127,-1,139,137,214,-1,214,137,135,-1,214,135,133,-1,145,143,214,-1,214,143,141,-1,214,141,139,-1,151,149,214,-1,214,149,147,-1,214,147,145,-1,157,155,214,-1,214,155,153,-1,214,153,151,-1,163,161,214,-1,214,161,159,-1,214,159,157,-1,169,167,214,-1,214,167,165,-1,214,165,163,-1,175,173,214,-1,214,173,171,-1,214,171,169,-1,181,179,214,-1,214,179,177,-1,214,177,175,-1,187,185,214,-1,214,185,183,-1,214,183,181,-1,193,191,214,-1,214,191,189,-1,214,189,187,-1,199,197,214,-1,214,197,195,-1,214,195,193,-1,205,203,214,-1,214,203,201,-1,214,201,199,-1,211,209,214,-1,214,209,207,-1,214,207,205,-1,108,110,215,-1,108,215,212,-1,206,208,215,-1,215,208,210,-1,215,210,212,-1,200,202,215,-1,215,202,204,-1,215,204,206,-1,194,196,215,-1,215,196,198,-1,215,198,200,-1,188,190,215,-1,215,190,192,-1,215,192,194,-1,182,184,215,-1,215,184,186,-1,215,186,188,-1,176,178,215,-1,215,178,180,-1,215,180,182,-1,170,172,215,-1,215,172,174,-1,215,174,176,-1,164,166,215,-1,215,166,168,-1,215,168,170,-1,158,160,215,-1,215,160,162,-1,215,162,164,-1,152,154,215,-1,215,154,156,-1,215,156,158,-1,146,148,215,-1,215,148,150,-1,215,150,152,-1,140,142,215,-1,215,142,144,-1,215,144,146,-1,134,136,215,-1,215,136,138,-1,215,138,140,-1,128,130,215,-1,215,130,132,-1,215,132,134,-1,122,124,215,-1,215,124,126,-1,215,126,128,-1,116,118,215,-1,215,118,120,-1,215,120,122,-1,110,112,215,-1,215,112,114,-1,215,114,116,-1,
        ]
    }
}