#VRML V2.0 utf8
# 3D model generated by easyeda2kicad.py (https://github.com/uPesy/easyeda2kicad.py)

Shape{
    appearance Appearance {
        material  Material 	{
            diffuseColor 0.7529411764705882 0.7529411764705882 0.7529411764705882
            specularColor 0.3764705882352941 0.3764705882352941 0.3764705882352941
            ambientIntensity 0.2
            transparency 0
            shininess 0.5
        }
    }
    geometry IndexedFaceSet {
        ccw TRUE
        solid FALSE
        coord DEF co Coordinate {
            point [
                -0.5906 -0.0984 -0.0118, -0.5906 -0.0621 -0.0118, -0.0696 -0.0621 -0.0118, 0.0529 -0.0621 -0.0118, 0.0576 -0.0627 -0.0118, -0.0696 -0.1969 -0.0118, 0.0608 -0.0628 -0.0118, 0.0678 -0.0621 -0.0118, 0.5512 -0.1969 -0.0118, 0.5867 -0.1746 -0.0118, 0.582 -0.182 -0.0118, 0.5757 -0.1883 -0.0118, 0.5683 -0.193 -0.0118, 0.5906 -0.1575 -0.0118, 0.5896 -0.1662 -0.0118, 0.0283 -0.0552 -0.0118, 0.0053 -0.0613 -0.0118, 0.0283 -0.0423 -0.0118, 0.0053 0.0568 -0.0118, 0.0409 -0.0604 -0.0118, -0.0552 0.0438 -0.0118, -0.0105 0.0438 -0.0118, -0.0105 0.0049 -0.0118, -0.0523 0.0049 -0.0118, -0.0523 -0.008 -0.0118, 0.1709 0.0568 -0.0118, -0.0696 0.1969 -0.0118, 0.1868 0.0568 -0.0118, 0.5512 0.1969 -0.0118, 0.1868 -0.0613 -0.0118, 0.5599 0.1959 -0.0118, 0.5683 0.193 -0.0118, 0.0964 -0.0513 -0.0118, 0.1052 -0.0419 -0.0118, 0.1263 -0.0613 -0.0118, -0.0105 -0.008 -0.0118, -0.0105 -0.0484 -0.0118, -0.0581 -0.0484 -0.0118, -0.0581 -0.0613 -0.0118, 0.11 0.0257 -0.0118, 0.1031 0.0367 -0.0118, 0.1263 -0.0484 -0.0118, 0.0676 0.0439 -0.0118, 0.0765 0.0408 -0.0118, 0.0305 -0.0434 -0.0118, 0.0847 0.0353 -0.0118, 0.0918 0.0274 -0.0118, 0.1004 -0.0035 -0.0118, 0.0992 -0.0163 -0.0118, 0.096 -0.0265 -0.0118, 0.0697 -0.0486 -0.0118, 0.0587 -0.0498 -0.0118, 0.0783 -0.0454 -0.0118, 0.0855 -0.0405 -0.0118, 0.0911 -0.0347 -0.0118, 0.043 -0.0481 -0.0118, -0.0552 0.0568 -0.0118, 0.0283 0.0377 -0.0118, 0.0417 0.0434 -0.0118, 0.056 0.0452 -0.0118, 0.0967 0.0183 -0.0118, 0.0998 0.0056 -0.0118, 0.5757 0.1883 -0.0118, 0.582 0.182 -0.0118, 0.5867 0.1746 -0.0118, 0.0754 -0.0613 -0.0118, 0.0868 -0.0573 -0.0118, 0.5896 0.1662 -0.0118, 0.5906 0.1575 -0.0118, 0.5906 -0.0621 -0.0118, 0.1115 -0.0307 -0.0118, 0.1151 -0.0182 -0.0118, 0.1709 -0.0484 -0.0118, 0.1162 -0.0045 -0.0118, 0.1145 0.0123 -0.0118, 0.0561 0.0582 -0.0118, 0.042 0.0572 -0.0118, 0.0283 0.0535 -0.0118, 0.5599 -0.1959 -0.0118, 0.0924 0.047 -0.0118, 0.0812 0.0534 -0.0118, 0.068 0.0572 -0.0118, -0.1848 -0.0613 -0.0118, -0.1703 -0.029 -0.0118, -0.1635 -0.0395 -0.0118, -0.1538 -0.0488 -0.0118, -0.1415 -0.056 -0.0118, -0.1278 -0.0601 -0.0118, -0.1132 -0.0613 -0.0118, -0.0811 -0.0613 -0.0118, -0.0811 0.0568 -0.0118, -0.1145 0.0568 -0.0118, -0.1315 0.0549 -0.0118, -0.5896 0.1662 -0.0118, -0.5867 0.1746 -0.0118, -0.2453 0.0568 -0.0118, -0.1453 0.0501 -0.0118, -0.1582 0.0415 -0.0118, -0.2295 0.0568 -0.0118, -0.1583 0.0414 -0.0118, -0.1667 0.0321 -0.0118, -0.1722 0.022 -0.0118, -0.2741 -0.0613 -0.0118, -0.2914 -0.0613 -0.0118, -0.5906 0.1575 -0.0118, -0.2021 -0.0613 -0.0118, -0.2134 -0.0282 -0.0118, -0.2622 -0.0282 -0.0118, -0.1753 0.0103 -0.0118, -0.1762 -0.0008 -0.0118, -0.1745 -0.0166 -0.0118, -0.5512 0.1969 -0.0118, -0.5599 0.1959 -0.0118, -0.5683 0.193 -0.0118, -0.582 0.182 -0.0118, -0.5757 0.1883 -0.0118, -0.4921 -0.1969 -0.0118, -0.4921 -0.1969 -0.0118
            ]
        }
        coordIndex [
            0,1,2,-1,3,4,5,-1,4,6,5,-1,5,6,7,-1,5,7,8,-1,9,10,11,-1,12,13,11,-1,11,13,14,-1,11,14,9,-1,15,16,17,-1,17,16,18,-1,15,19,16,-1,16,19,3,-1,16,3,2,-1,20,21,22,-1,23,24,2,-1,25,26,27,-1,27,26,28,-1,27,28,29,-1,29,28,30,-1,29,30,31,-1,32,33,34,-1,35,36,24,-1,24,36,37,-1,24,37,2,-1,2,37,38,-1,2,38,16,-1,39,40,25,-1,34,33,41,-1,42,43,44,-1,44,43,45,-1,44,45,46,-1,47,48,44,-1,44,48,49,-1,50,51,52,-1,52,51,53,-1,49,54,44,-1,44,54,53,-1,44,53,55,-1,55,53,51,-1,22,23,20,-1,20,23,2,-1,20,2,56,-1,56,2,26,-1,56,26,18,-1,18,26,57,-1,18,57,17,-1,17,57,58,-1,17,58,44,-1,44,58,59,-1,44,59,42,-1,46,60,44,-1,44,60,61,-1,44,61,47,-1,31,62,29,-1,29,62,63,-1,29,63,64,-1,7,65,34,-1,34,65,66,-1,34,66,32,-1,64,67,29,-1,29,67,68,-1,29,68,69,-1,33,70,41,-1,41,70,71,-1,41,71,72,-1,72,71,73,-1,72,73,25,-1,25,73,74,-1,25,74,39,-1,75,76,26,-1,26,76,77,-1,26,77,57,-1,34,29,7,-1,7,29,69,-1,7,69,8,-1,8,69,13,-1,8,13,78,-1,78,13,12,-1,40,79,25,-1,25,79,80,-1,25,80,26,-1,26,80,81,-1,26,81,75,-1,82,83,84,-1,84,85,82,-1,82,85,86,-1,82,86,87,-1,88,89,2,-1,2,89,90,-1,2,90,26,-1,26,90,91,-1,26,91,92,-1,93,94,95,-1,96,97,98,-1,97,99,98,-1,98,99,100,-1,98,100,101,-1,102,2,103,-1,103,2,1,-1,103,1,95,-1,95,1,104,-1,95,104,93,-1,87,88,82,-1,82,88,2,-1,82,2,105,-1,105,2,102,-1,105,102,106,-1,106,102,107,-1,101,108,98,-1,98,108,109,-1,98,109,82,-1,82,109,110,-1,82,110,83,-1,92,96,26,-1,26,96,98,-1,26,98,111,-1,111,98,95,-1,111,95,112,-1,112,95,113,-1,94,114,95,-1,95,114,115,-1,95,115,113,-1,3,5,2,-1,2,5,116,-1,2,116,0,-1,
        ]
    }
}
Shape{
    appearance Appearance {
        material  Material 	{
            diffuseColor 0.25098039215686274 0.25098039215686274 0.25098039215686274
            specularColor 0.12549019607843137 0.12549019607843137 0.12549019607843137
            ambientIntensity 0.2
            transparency 0
            shininess 0.5
        }
    }
    geometry IndexedFaceSet {
        ccw TRUE
        solid FALSE
        coord DEF co Coordinate {
            point [
                0.8858 -0.4921 0.1969, 0.8858 -0.4921 0.0, 0.8858 -0.1457 0.0, 0.8858 -0.1457 0.0669, 0.8858 -0.0512 0.0669, 0.8858 0.4921 0.1969, 0.8858 0.1457 0.0, 0.8858 0.4921 0.0, 0.8858 0.1457 0.0669, 0.8858 0.0512 0.0669, 0.8858 0.0512 0.0, 0.8858 -0.0512 0.0, 0.7362 0.4921 0.0, -0.5394 0.4921 0.0669, -0.5394 0.4921 0.0, -0.6417 0.4921 0.0, -0.7362 0.4921 0.0, -0.8858 0.4921 0.0, -0.7362 0.4921 0.0669, -0.8858 0.4921 0.1969, -0.6417 0.4921 0.0669, 0.6417 0.4921 0.0, 0.5394 0.4921 0.0, 0.6417 0.4921 0.0669, 0.5394 0.4921 0.0669, 0.7362 0.4921 0.0669, 0.4449 0.4921 0.0669, 0.248 0.4921 0.0669, 0.248 0.4921 0.0, 0.1457 0.4921 0.0, 0.1457 0.4921 0.0669, 0.0512 0.4921 0.0669, 0.3425 0.4921 0.0669, 0.3425 0.4921 0.0, 0.4449 0.4921 0.0, -0.1457 0.4921 0.0669, -0.1457 0.4921 0.0, -0.248 0.4921 0.0, -0.248 0.4921 0.0669, -0.3425 0.4921 0.0669, -0.0512 0.4921 0.0669, -0.0512 0.4921 0.0, 0.0512 0.4921 0.0, -0.4449 0.4921 0.0669, -0.4449 0.4921 0.0, -0.3425 0.4921 0.0, -0.8858 -0.1457 0.0, -0.8858 -0.4921 0.0, -0.8858 -0.1457 0.0669, -0.8858 -0.4921 0.1969, -0.8858 -0.0512 0.0669, -0.8858 0.1457 0.0, -0.8858 0.1457 0.0669, -0.8858 0.0512 0.0669, -0.8858 0.0512 0.0, -0.8858 -0.0512 0.0, -0.7362 -0.4921 0.0, 0.5394 -0.4921 0.0669, 0.5394 -0.4921 0.0, 0.6417 -0.4921 0.0, 0.7362 -0.4921 0.0, 0.7362 -0.4921 0.0669, 0.6417 -0.4921 0.0669, -0.6417 -0.4921 0.0, -0.5394 -0.4921 0.0, -0.6417 -0.4921 0.0669, -0.5394 -0.4921 0.0669, -0.7362 -0.4921 0.0669, -0.4449 -0.4921 0.0669, -0.248 -0.4921 0.0669, -0.248 -0.4921 0.0, -0.1457 -0.4921 0.0, -0.1457 -0.4921 0.0669, -0.0512 -0.4921 0.0669, -0.3425 -0.4921 0.0669, -0.3425 -0.4921 0.0, -0.4449 -0.4921 0.0, 0.1457 -0.4921 0.0669, 0.1457 -0.4921 0.0, 0.248 -0.4921 0.0, 0.248 -0.4921 0.0669, 0.3425 -0.4921 0.0669, 0.0512 -0.4921 0.0669, 0.0512 -0.4921 0.0, -0.0512 -0.4921 0.0, 0.4449 -0.4921 0.0669, 0.4449 -0.4921 0.0, 0.3425 -0.4921 0.0, -0.7271 -0.3642 0.1969, -0.7387 -0.3594 0.1969, -0.6808 -0.3518 0.1969, -0.6732 -0.3419 0.1969, -0.6685 -0.3304 0.1969, -0.7486 -0.2841 0.1969, -0.7387 -0.2765 0.1969, -0.7271 -0.2717 0.1969, -0.6908 -0.3594 0.1969, -0.7023 -0.3642 0.1969, -0.7147 -0.3659 0.1969, -0.7486 -0.3518 0.1969, -0.7562 -0.3419 0.1969, -0.761 -0.3304 0.1969, -0.7626 -0.318 0.1969, -0.761 -0.3056 0.1969, -0.7562 -0.294 0.1969, -0.7147 -0.2701 0.1969, -0.7023 -0.2717 0.1969, -0.6908 -0.2765 0.1969, -0.6808 -0.2841 0.1969, -0.6732 -0.294 0.1969, -0.6685 -0.3056 0.1969, -0.6668 -0.318 0.1969, 0.6417 -0.3346 0.0, -0.7362 0.3346 0.0, 0.4449 -0.3346 0.0, -0.5394 0.3346 0.0, -0.6417 0.3346 0.0, -0.4921 -0.1969 0.0, 0.5512 -0.1969 0.0, 0.248 -0.3346 0.0, 0.3425 -0.3346 0.0, 0.7362 -0.3346 0.0, 0.7283 -0.1457 0.0, 0.5394 -0.3346 0.0, -0.4449 0.3346 0.0, -0.3425 0.3346 0.0, 0.5599 -0.1959 0.0, 0.0512 -0.3346 0.0, -0.5757 0.1883 0.0, -0.5683 0.193 0.0, -0.5599 0.1959 0.0, -0.582 0.182 0.0, -0.5867 0.1746 0.0, -0.5896 0.1662 0.0, -0.5906 0.1575 0.0, -0.5512 0.1969 0.0, 0.5512 0.1969 0.0, 0.5599 0.1959 0.0, -0.248 0.3346 0.0, -0.0512 -0.3346 0.0, -0.1457 -0.3346 0.0, 0.5683 -0.193 0.0, 0.5757 -0.1883 0.0, 0.582 -0.182 0.0, 0.5867 -0.1746 0.0, 0.1457 -0.3346 0.0, -0.0512 0.3346 0.0, 0.0512 0.3346 0.0, 0.1457 0.3346 0.0, -0.3425 -0.3346 0.0, -0.1457 0.3346 0.0, -0.4449 -0.3346 0.0, -0.5394 -0.3346 0.0, -0.6417 -0.3346 0.0, 0.3425 0.3346 0.0, 0.4449 0.3346 0.0, -0.7283 -0.0512 0.0, -0.7283 -0.1457 0.0, -0.5906 -0.0984 0.0, -0.248 -0.3346 0.0, -0.7283 0.0512 0.0, -0.7283 0.1457 0.0, -0.7362 -0.3346 0.0, 0.7283 0.0512 0.0, 0.7283 -0.0512 0.0, 0.5394 0.3346 0.0, 0.6417 0.3346 0.0, 0.5906 0.1575 0.0, 0.5896 0.1662 0.0, 0.7283 0.1457 0.0, 0.5867 0.1746 0.0, 0.582 0.182 0.0, 0.5757 0.1883 0.0, 0.5683 0.193 0.0, 0.7362 0.3346 0.0, 0.5896 -0.1662 0.0, 0.5906 -0.1575 0.0, 0.248 0.3346 0.0, 0.248 0.3346 0.0
            ]
        }
        coordIndex [
            0,1,2,-1,2,3,0,-1,0,3,4,-1,0,4,5,-1,6,7,8,-1,8,7,5,-1,8,5,9,-1,9,5,4,-1,9,4,10,-1,10,4,11,-1,5,7,12,-1,13,14,15,-1,16,17,18,-1,18,17,19,-1,18,19,20,-1,21,22,23,-1,23,22,24,-1,12,25,5,-1,5,25,23,-1,5,23,19,-1,19,23,24,-1,19,24,26,-1,27,28,29,-1,30,31,19,-1,29,30,27,-1,27,30,19,-1,27,19,32,-1,32,19,26,-1,32,26,33,-1,33,26,34,-1,35,36,37,-1,38,39,19,-1,37,38,35,-1,35,38,19,-1,35,19,40,-1,40,19,31,-1,40,31,41,-1,41,31,42,-1,15,20,13,-1,13,20,19,-1,13,19,43,-1,43,19,39,-1,43,39,44,-1,44,39,45,-1,46,47,48,-1,48,47,49,-1,48,49,50,-1,17,51,19,-1,19,51,52,-1,19,52,53,-1,54,55,53,-1,53,55,50,-1,53,50,19,-1,19,50,49,-1,49,47,56,-1,57,58,59,-1,60,1,61,-1,61,1,0,-1,61,0,62,-1,63,64,65,-1,65,64,66,-1,56,67,49,-1,49,67,65,-1,49,65,0,-1,0,65,66,-1,0,66,68,-1,69,70,71,-1,72,73,0,-1,71,72,69,-1,69,72,0,-1,69,0,74,-1,74,0,68,-1,74,68,75,-1,75,68,76,-1,77,78,79,-1,80,81,0,-1,79,80,77,-1,77,80,0,-1,77,0,82,-1,82,0,73,-1,82,73,83,-1,83,73,84,-1,59,62,57,-1,57,62,0,-1,57,0,85,-1,85,0,81,-1,85,81,86,-1,86,81,87,-1,88,89,49,-1,90,0,91,-1,91,0,92,-1,93,94,19,-1,19,94,95,-1,90,96,0,-1,0,96,97,-1,0,97,49,-1,49,97,98,-1,49,98,88,-1,89,99,49,-1,49,99,100,-1,49,100,101,-1,101,102,49,-1,49,102,103,-1,49,103,19,-1,19,103,104,-1,19,104,93,-1,95,105,19,-1,19,105,106,-1,19,106,5,-1,5,106,107,-1,5,107,108,-1,108,109,5,-1,5,109,110,-1,5,110,0,-1,0,110,111,-1,0,111,92,-1,112,59,58,-1,17,16,51,-1,51,16,113,-1,114,86,87,-1,14,115,15,-1,15,115,116,-1,117,118,119,-1,119,118,120,-1,1,60,2,-1,2,60,121,-1,2,121,122,-1,122,121,112,-1,122,112,123,-1,123,112,58,-1,44,45,124,-1,124,45,125,-1,126,123,118,-1,118,123,114,-1,118,114,120,-1,120,114,87,-1,127,83,84,-1,128,113,129,-1,129,113,116,-1,129,116,130,-1,128,131,113,-1,113,131,132,-1,113,132,51,-1,51,132,133,-1,51,133,134,-1,130,116,135,-1,135,116,115,-1,135,115,136,-1,136,115,124,-1,136,124,137,-1,137,124,125,-1,137,125,138,-1,139,140,117,-1,126,141,123,-1,123,141,142,-1,123,142,122,-1,122,142,143,-1,122,143,144,-1,84,139,127,-1,127,139,117,-1,127,117,145,-1,145,117,119,-1,145,119,78,-1,78,119,79,-1,146,41,42,-1,147,148,137,-1,149,75,76,-1,42,147,146,-1,146,147,137,-1,146,137,150,-1,150,137,138,-1,150,138,36,-1,36,138,37,-1,151,152,117,-1,64,63,152,-1,152,63,153,-1,33,34,154,-1,154,34,155,-1,156,134,157,-1,157,134,158,-1,76,151,149,-1,149,151,117,-1,149,117,159,-1,159,117,140,-1,159,140,70,-1,70,140,71,-1,55,54,156,-1,156,54,160,-1,156,160,134,-1,134,160,161,-1,134,161,51,-1,56,47,162,-1,162,47,46,-1,162,46,153,-1,153,46,157,-1,153,157,152,-1,152,157,158,-1,152,158,117,-1,10,11,163,-1,163,11,164,-1,22,21,165,-1,165,21,166,-1,167,168,169,-1,169,168,170,-1,169,170,171,-1,165,172,173,-1,12,7,174,-1,174,7,6,-1,174,6,166,-1,166,6,169,-1,166,169,165,-1,165,169,171,-1,165,171,172,-1,144,175,122,-1,122,175,176,-1,122,176,164,-1,164,176,167,-1,164,167,163,-1,163,167,169,-1,29,28,148,-1,148,28,177,-1,148,177,137,-1,137,177,154,-1,137,154,173,-1,173,154,155,-1,173,155,165,-1,
        ]
    }
}
Shape{
    appearance Appearance {
        material  Material 	{
            diffuseColor 0.7529411764705882 0.7529411764705882 0.7529411764705882
            specularColor 0.3764705882352941 0.3764705882352941 0.3764705882352941
            ambientIntensity 0.2
            transparency 0
            shininess 0.5
        }
    }
    geometry IndexedFaceSet {
        ccw TRUE
        solid FALSE
        coord DEF co Coordinate {
            point [
                -0.6668 -0.318 0.1929, -0.6668 -0.318 0.1969, -0.6685 -0.3056 0.1929, -0.6685 -0.3056 0.1969, -0.6732 -0.294 0.1929, -0.6732 -0.294 0.1969, -0.6808 -0.2841 0.1929, -0.6808 -0.2841 0.1969, -0.6908 -0.2765 0.1929, -0.6908 -0.2765 0.1969, -0.7023 -0.2717 0.1929, -0.7023 -0.2717 0.1969, -0.7147 -0.2701 0.1929, -0.7147 -0.2701 0.1969, -0.7271 -0.2717 0.1929, -0.7271 -0.2717 0.1969, -0.7387 -0.2765 0.1929, -0.7387 -0.2765 0.1969, -0.7486 -0.2841 0.1929, -0.7486 -0.2841 0.1969, -0.7562 -0.294 0.1929, -0.7562 -0.294 0.1969, -0.761 -0.3056 0.1929, -0.761 -0.3056 0.1969, -0.7626 -0.318 0.1929, -0.7626 -0.318 0.1969, -0.761 -0.3304 0.1929, -0.761 -0.3304 0.1969, -0.7562 -0.3419 0.1929, -0.7562 -0.3419 0.1969, -0.7486 -0.3518 0.1929, -0.7486 -0.3518 0.1969, -0.7387 -0.3594 0.1929, -0.7387 -0.3594 0.1969, -0.7271 -0.3642 0.1929, -0.7271 -0.3642 0.1969, -0.7147 -0.3659 0.1929, -0.7147 -0.3659 0.1969, -0.7023 -0.3642 0.1929, -0.7023 -0.3642 0.1969, -0.6908 -0.3594 0.1929, -0.6908 -0.3594 0.1969, -0.6808 -0.3518 0.1929, -0.6808 -0.3518 0.1969, -0.6732 -0.3419 0.1929, -0.6732 -0.3419 0.1969, -0.6685 -0.3304 0.1929, -0.6685 -0.3304 0.1969, -0.7147 -0.318 0.1929, -0.1457 -0.4961 0.0669, -0.0512 -0.4961 0.0669, -0.1457 -0.4921 0.0669, -0.0512 -0.4921 0.0669, -0.0512 -0.4921 0.0, -0.0512 -0.4961 -0.0118, -0.0512 -0.3346 0.0, -0.0512 -0.3346 -0.0118, -0.1457 -0.3346 -0.0118, -0.1457 -0.3346 0.0, -0.1457 -0.4921 0.0, -0.1457 -0.4961 -0.0118, -0.3425 -0.4921 0.0669, -0.3425 -0.4961 0.0669, -0.248 -0.4921 0.0669, -0.248 -0.4961 0.0669, -0.248 -0.4921 0.0, -0.248 -0.4961 -0.0118, -0.248 -0.3346 0.0, -0.248 -0.3346 -0.0118, -0.3425 -0.3346 -0.0118, -0.3425 -0.3346 0.0, -0.3425 -0.4921 0.0, -0.3425 -0.4961 -0.0118, 0.0512 -0.4961 0.0669, 0.1457 -0.4961 0.0669, 0.0512 -0.4921 0.0669, 0.1457 -0.4921 0.0669, 0.1457 -0.3346 -0.0118, 0.0512 -0.3346 -0.0118, 0.1457 -0.3346 0.0, 0.0512 -0.3346 0.0, 0.0512 -0.4921 0.0, 0.0512 -0.4961 -0.0118, 0.1457 -0.4921 0.0, 0.1457 -0.4961 -0.0118, -0.5394 -0.4921 0.0669, -0.5394 -0.4961 0.0669, -0.4449 -0.4921 0.0669, -0.4449 -0.4961 0.0669, -0.4449 -0.4921 0.0, -0.4449 -0.4961 -0.0118, -0.4449 -0.3346 0.0, -0.4449 -0.3346 -0.0118, -0.5394 -0.3346 -0.0118, -0.5394 -0.3346 0.0, -0.5394 -0.4921 0.0, -0.5394 -0.4961 -0.0118, -0.7362 -0.4921 0.0669, -0.7362 -0.4961 0.0669, -0.6417 -0.4921 0.0669, -0.6417 -0.4961 0.0669, -0.6417 -0.4921 0.0, -0.6417 -0.4961 -0.0118, -0.6417 -0.3346 0.0, -0.6417 -0.3346 -0.0118, -0.7362 -0.3346 -0.0118, -0.7362 -0.3346 0.0, -0.7362 -0.4921 0.0, -0.7362 -0.4961 -0.0118, 0.248 -0.4921 0.0669, 0.248 -0.4961 0.0669, 0.3425 -0.4921 0.0669, 0.3425 -0.4961 0.0669, 0.3425 -0.4921 0.0, 0.3425 -0.4961 -0.0118, 0.3425 -0.3346 0.0, 0.3425 -0.3346 -0.0118, 0.248 -0.3346 -0.0118, 0.248 -0.3346 0.0, 0.248 -0.4921 0.0, 0.248 -0.4961 -0.0118, 0.6417 -0.4921 0.0669, 0.6417 -0.4961 0.0669, 0.7362 -0.4921 0.0669, 0.7362 -0.4961 0.0669, 0.7362 -0.4921 0.0, 0.7362 -0.4961 -0.0118, 0.7362 -0.3346 0.0, 0.7362 -0.3346 -0.0118, 0.6417 -0.3346 -0.0118, 0.6417 -0.3346 0.0, 0.6417 -0.4921 0.0, 0.6417 -0.4961 -0.0118, 0.4449 -0.4921 0.0669, 0.4449 -0.4961 0.0669, 0.5394 -0.4921 0.0669, 0.5394 -0.4961 0.0669, 0.5394 -0.4921 0.0, 0.5394 -0.4961 -0.0118, 0.5394 -0.3346 0.0, 0.5394 -0.3346 -0.0118, 0.4449 -0.3346 -0.0118, 0.4449 -0.3346 0.0, 0.4449 -0.4921 0.0, 0.4449 -0.4961 -0.0118, 0.1457 0.4961 0.0669, 0.0512 0.4961 0.0669, 0.1457 0.4921 0.0669, 0.0512 0.4921 0.0669, 0.1457 0.3346 0.0, 0.1457 0.3346 -0.0118, 0.1457 0.4921 0.0, 0.1457 0.4961 -0.0118, 0.0512 0.4921 0.0, 0.0512 0.4961 -0.0118, 0.0512 0.3346 0.0, 0.0512 0.3346 -0.0118, 0.3425 0.4921 0.0669, 0.3425 0.4961 0.0669, 0.248 0.4921 0.0669, 0.248 0.4961 0.0669, 0.248 0.3346 -0.0118, 0.3425 0.3346 -0.0118, 0.248 0.3346 0.0, 0.3425 0.3346 0.0, 0.3425 0.4921 0.0, 0.3425 0.4961 -0.0118, 0.248 0.4921 0.0, 0.248 0.4961 -0.0118, -0.0512 0.4961 0.0669, -0.1457 0.4961 0.0669, -0.0512 0.4921 0.0669, -0.1457 0.4921 0.0669, -0.1457 0.3346 -0.0118, -0.0512 0.3346 -0.0118, -0.1457 0.3346 0.0, -0.0512 0.3346 0.0, -0.0512 0.4921 0.0, -0.0512 0.4961 -0.0118, -0.1457 0.4921 0.0, -0.1457 0.4961 -0.0118, -0.248 0.4921 0.0669, -0.248 0.4961 0.0669, -0.3425 0.4921 0.0669, -0.3425 0.4961 0.0669, -0.3425 0.4921 0.0, -0.3425 0.4961 -0.0118, -0.3425 0.3346 0.0, -0.3425 0.3346 -0.0118, -0.248 0.3346 -0.0118, -0.248 0.3346 0.0, -0.248 0.4921 0.0, -0.248 0.4961 -0.0118, 0.5394 0.4921 0.0669, 0.5394 0.4961 0.0669, 0.4449 0.4921 0.0669, 0.4449 0.4961 0.0669, 0.4449 0.3346 -0.0118, 0.5394 0.3346 -0.0118, 0.4449 0.3346 0.0, 0.5394 0.3346 0.0, 0.5394 0.4921 0.0, 0.5394 0.4961 -0.0118, 0.4449 0.4921 0.0, 0.4449 0.4961 -0.0118, 0.7362 0.4921 0.0669, 0.7362 0.4961 0.0669, 0.6417 0.4921 0.0669, 0.6417 0.4961 0.0669, 0.6417 0.3346 -0.0118, 0.7362 0.3346 -0.0118, 0.6417 0.3346 0.0, 0.7362 0.3346 0.0, 0.7362 0.4921 0.0, 0.7362 0.4961 -0.0118, 0.6417 0.4921 0.0, 0.6417 0.4961 -0.0118, -0.6417 0.4921 0.0669, -0.6417 0.4961 0.0669, -0.7362 0.4921 0.0669, -0.7362 0.4961 0.0669, -0.7362 0.4921 0.0, -0.7362 0.4961 -0.0118, -0.7362 0.3346 0.0, -0.7362 0.3346 -0.0118, -0.6417 0.3346 -0.0118, -0.6417 0.3346 0.0, -0.6417 0.4921 0.0, -0.6417 0.4961 -0.0118, -0.4449 0.4921 0.0669, -0.4449 0.4961 0.0669, -0.5394 0.4921 0.0669, -0.5394 0.4961 0.0669, -0.5394 0.4921 0.0, -0.5394 0.4961 -0.0118, -0.5394 0.3346 0.0, -0.5394 0.3346 -0.0118, -0.4449 0.3346 -0.0118, -0.4449 0.3346 0.0, -0.4449 0.4921 0.0, -0.4449 0.4961 -0.0118, -0.8898 0.1457 0.0669, -0.8898 0.0512 0.0669, -0.8858 0.1457 0.0669, -0.8858 0.0512 0.0669, -0.8858 0.0512 0.0, -0.8898 0.0512 -0.0118, -0.7283 0.0512 0.0, -0.7283 0.0512 -0.0118, -0.7283 0.1457 -0.0118, -0.7283 0.1457 0.0, -0.8858 0.1457 0.0, -0.8898 0.1457 -0.0118, -0.8858 -0.0512 0.0669, -0.8898 -0.0512 0.0669, -0.8858 -0.1457 0.0669, -0.8898 -0.1457 0.0669, -0.7283 -0.1457 -0.0118, -0.7283 -0.0512 -0.0118, -0.7283 -0.1457 0.0, -0.7283 -0.0512 0.0, -0.8858 -0.0512 0.0, -0.8898 -0.0512 -0.0118, -0.8858 -0.1457 0.0, -0.8898 -0.1457 -0.0118, 0.8858 0.0512 0.0669, 0.8898 0.0512 0.0669, 0.8858 0.1457 0.0669, 0.8898 0.1457 0.0669, 0.7283 0.1457 -0.0118, 0.7283 0.0512 -0.0118, 0.7283 0.1457 0.0, 0.7283 0.0512 0.0, 0.8858 0.0512 0.0, 0.8898 0.0512 -0.0118, 0.8858 0.1457 0.0, 0.8898 0.1457 -0.0118, 0.8858 -0.1457 0.0669, 0.8898 -0.1457 0.0669, 0.8858 -0.0512 0.0669, 0.8898 -0.0512 0.0669, 0.8858 -0.0512 0.0, 0.8898 -0.0512 -0.0118, 0.7283 -0.0512 0.0, 0.7283 -0.0512 -0.0118, 0.7283 -0.1457 -0.0118, 0.7283 -0.1457 0.0, 0.8858 -0.1457 0.0, 0.8898 -0.1457 -0.0118, -0.4921 -0.1969 -0.0118, 0.5512 -0.1969 -0.0118, -0.4921 -0.1969 0.0, 0.5512 -0.1969 0.0, 0.5599 -0.1959 -0.0118, 0.5599 -0.1959 0.0, 0.5683 -0.193 -0.0118, 0.5683 -0.193 0.0, 0.5757 -0.1883 -0.0118, 0.5757 -0.1883 0.0, 0.582 -0.182 -0.0118, 0.582 -0.182 0.0, 0.5867 -0.1746 -0.0118, 0.5867 -0.1746 0.0, 0.5896 -0.1662 -0.0118, 0.5896 -0.1662 0.0, 0.5906 -0.1575 -0.0118, 0.5906 -0.1575 0.0, 0.5906 0.1575 -0.0118, 0.5906 0.1575 0.0, 0.5896 0.1662 -0.0118, 0.5896 0.1662 0.0, 0.5867 0.1746 -0.0118, 0.5867 0.1746 0.0, 0.582 0.182 -0.0118, 0.582 0.182 0.0, 0.5757 0.1883 -0.0118, 0.5757 0.1883 0.0, 0.5683 0.193 -0.0118, 0.5683 0.193 0.0, 0.5599 0.1959 -0.0118, 0.5599 0.1959 0.0, 0.5512 0.1969 -0.0118, 0.5512 0.1969 0.0, -0.5512 0.1969 -0.0118, -0.5512 0.1969 0.0, -0.5599 0.1959 -0.0118, -0.5599 0.1959 0.0, -0.5683 0.193 -0.0118, -0.5683 0.193 0.0, -0.5757 0.1883 -0.0118, -0.5757 0.1883 0.0, -0.582 0.182 -0.0118, -0.582 0.182 0.0, -0.5867 0.1746 -0.0118, -0.5867 0.1746 0.0, -0.5896 0.1662 -0.0118, -0.5896 0.1662 0.0, -0.5906 0.1575 -0.0118, -0.5906 0.1575 0.0, -0.5906 -0.0984 -0.0118, -0.5906 -0.0984 0.0, -0.5906 -0.0984 0.0
            ]
        }
        coordIndex [
            0,1,2,-1,2,1,3,-1,2,3,4,-1,4,3,5,-1,4,5,6,-1,6,5,7,-1,6,7,8,-1,8,7,9,-1,8,9,10,-1,10,9,11,-1,10,11,12,-1,12,11,13,-1,12,13,14,-1,14,13,15,-1,14,15,16,-1,16,15,17,-1,16,17,18,-1,18,17,19,-1,18,19,20,-1,20,19,21,-1,20,21,22,-1,22,21,23,-1,22,23,24,-1,24,23,25,-1,24,25,26,-1,26,25,27,-1,26,27,28,-1,28,27,29,-1,28,29,30,-1,30,29,31,-1,30,31,32,-1,32,31,33,-1,32,33,34,-1,34,33,35,-1,34,35,36,-1,36,35,37,-1,36,37,38,-1,38,37,39,-1,38,39,40,-1,40,39,41,-1,40,41,42,-1,42,41,43,-1,42,43,44,-1,44,43,45,-1,44,45,46,-1,46,45,47,-1,46,47,0,-1,0,47,1,-1,44,46,48,-1,48,46,0,-1,48,0,2,-1,38,40,48,-1,48,40,42,-1,48,42,44,-1,32,34,48,-1,48,34,36,-1,48,36,38,-1,26,28,48,-1,48,28,30,-1,48,30,32,-1,20,22,48,-1,48,22,24,-1,48,24,26,-1,14,16,48,-1,48,16,18,-1,48,18,20,-1,8,10,48,-1,48,10,12,-1,48,12,14,-1,2,4,48,-1,48,4,6,-1,48,6,8,-1,49,50,51,-1,51,50,52,-1,52,50,53,-1,53,50,54,-1,53,54,55,-1,55,54,56,-1,56,57,55,-1,55,57,58,-1,58,57,59,-1,59,57,60,-1,59,60,51,-1,51,60,49,-1,54,50,60,-1,60,50,49,-1,60,57,54,-1,54,57,56,-1,61,62,63,-1,63,62,64,-1,63,64,65,-1,65,64,66,-1,65,66,67,-1,67,66,68,-1,68,69,67,-1,67,69,70,-1,70,69,71,-1,71,69,72,-1,71,72,61,-1,61,72,62,-1,66,64,72,-1,72,64,62,-1,69,68,72,-1,72,68,66,-1,73,74,75,-1,75,74,76,-1,77,78,79,-1,79,78,80,-1,80,78,81,-1,81,78,82,-1,81,82,75,-1,75,82,73,-1,76,74,83,-1,83,74,84,-1,83,84,79,-1,79,84,77,-1,84,74,82,-1,82,74,73,-1,84,82,77,-1,77,82,78,-1,85,86,87,-1,87,86,88,-1,87,88,89,-1,89,88,90,-1,89,90,91,-1,91,90,92,-1,92,93,91,-1,91,93,94,-1,94,93,95,-1,95,93,96,-1,95,96,85,-1,85,96,86,-1,90,88,96,-1,96,88,86,-1,93,92,96,-1,96,92,90,-1,97,98,99,-1,99,98,100,-1,99,100,101,-1,101,100,102,-1,101,102,103,-1,103,102,104,-1,104,105,103,-1,103,105,106,-1,106,105,107,-1,107,105,108,-1,107,108,97,-1,97,108,98,-1,102,100,108,-1,108,100,98,-1,105,104,108,-1,108,104,102,-1,109,110,111,-1,111,110,112,-1,111,112,113,-1,113,112,114,-1,113,114,115,-1,115,114,116,-1,116,117,115,-1,115,117,118,-1,118,117,119,-1,119,117,120,-1,119,120,109,-1,109,120,110,-1,114,112,120,-1,120,112,110,-1,120,117,114,-1,114,117,116,-1,121,122,123,-1,123,122,124,-1,123,124,125,-1,125,124,126,-1,125,126,127,-1,127,126,128,-1,128,129,127,-1,127,129,130,-1,130,129,131,-1,131,129,132,-1,131,132,121,-1,121,132,122,-1,126,124,132,-1,132,124,122,-1,132,129,126,-1,126,129,128,-1,133,134,135,-1,135,134,136,-1,135,136,137,-1,137,136,138,-1,137,138,139,-1,139,138,140,-1,140,141,139,-1,139,141,142,-1,142,141,143,-1,143,141,144,-1,143,144,133,-1,133,144,134,-1,138,136,144,-1,144,136,134,-1,144,141,138,-1,138,141,140,-1,145,146,147,-1,147,146,148,-1,149,150,151,-1,151,150,152,-1,151,152,147,-1,147,152,145,-1,148,146,153,-1,153,146,154,-1,153,154,155,-1,155,154,156,-1,156,150,155,-1,155,150,149,-1,154,146,152,-1,152,146,145,-1,156,154,150,-1,150,154,152,-1,157,158,159,-1,159,158,160,-1,161,162,163,-1,163,162,164,-1,164,162,165,-1,165,162,166,-1,165,166,157,-1,157,166,158,-1,159,160,167,-1,167,160,168,-1,167,168,163,-1,163,168,161,-1,168,160,166,-1,166,160,158,-1,168,166,161,-1,161,166,162,-1,169,170,171,-1,171,170,172,-1,173,174,175,-1,175,174,176,-1,176,174,177,-1,177,174,178,-1,177,178,171,-1,171,178,169,-1,172,170,179,-1,179,170,180,-1,179,180,175,-1,175,180,173,-1,180,170,178,-1,178,170,169,-1,180,178,173,-1,173,178,174,-1,181,182,183,-1,183,182,184,-1,183,184,185,-1,185,184,186,-1,185,186,187,-1,187,186,188,-1,188,189,187,-1,187,189,190,-1,190,189,191,-1,191,189,192,-1,191,192,181,-1,181,192,182,-1,186,184,192,-1,192,184,182,-1,192,189,186,-1,186,189,188,-1,193,194,195,-1,195,194,196,-1,197,198,199,-1,199,198,200,-1,200,198,201,-1,201,198,202,-1,201,202,193,-1,193,202,194,-1,195,196,203,-1,203,196,204,-1,203,204,199,-1,199,204,197,-1,204,196,202,-1,202,196,194,-1,204,202,197,-1,197,202,198,-1,205,206,207,-1,207,206,208,-1,209,210,211,-1,211,210,212,-1,212,210,213,-1,213,210,214,-1,213,214,205,-1,205,214,206,-1,207,208,215,-1,215,208,216,-1,215,216,211,-1,211,216,209,-1,216,208,214,-1,214,208,206,-1,216,214,209,-1,209,214,210,-1,217,218,219,-1,219,218,220,-1,219,220,221,-1,221,220,222,-1,221,222,223,-1,223,222,224,-1,224,225,223,-1,223,225,226,-1,226,225,227,-1,227,225,228,-1,227,228,217,-1,217,228,218,-1,222,220,228,-1,228,220,218,-1,228,225,222,-1,222,225,224,-1,229,230,231,-1,231,230,232,-1,231,232,233,-1,233,232,234,-1,233,234,235,-1,235,234,236,-1,236,237,235,-1,235,237,238,-1,238,237,239,-1,239,237,240,-1,239,240,229,-1,229,240,230,-1,234,232,240,-1,240,232,230,-1,240,237,234,-1,234,237,236,-1,241,242,243,-1,243,242,244,-1,244,242,245,-1,245,242,246,-1,245,246,247,-1,247,246,248,-1,248,249,247,-1,247,249,250,-1,250,249,251,-1,251,249,252,-1,251,252,243,-1,243,252,241,-1,246,242,252,-1,252,242,241,-1,249,248,252,-1,252,248,246,-1,253,254,255,-1,255,254,256,-1,257,258,259,-1,259,258,260,-1,260,258,261,-1,261,258,262,-1,261,262,253,-1,253,262,254,-1,255,256,263,-1,263,256,264,-1,263,264,259,-1,259,264,257,-1,264,256,262,-1,262,256,254,-1,264,262,257,-1,257,262,258,-1,265,266,267,-1,267,266,268,-1,269,270,271,-1,271,270,272,-1,272,270,273,-1,273,270,274,-1,273,274,265,-1,265,274,266,-1,267,268,275,-1,275,268,276,-1,275,276,271,-1,271,276,269,-1,276,268,274,-1,274,268,266,-1,276,274,269,-1,269,274,270,-1,277,278,279,-1,279,278,280,-1,279,280,281,-1,281,280,282,-1,281,282,283,-1,283,282,284,-1,284,285,283,-1,283,285,286,-1,286,285,287,-1,287,285,288,-1,287,288,277,-1,277,288,278,-1,282,280,288,-1,288,280,278,-1,288,285,282,-1,282,285,284,-1,289,290,291,-1,291,290,292,-1,292,290,293,-1,292,293,294,-1,294,293,295,-1,294,295,296,-1,296,295,297,-1,296,297,298,-1,298,297,299,-1,298,299,300,-1,300,299,301,-1,300,301,302,-1,302,301,303,-1,302,303,304,-1,304,303,305,-1,304,305,306,-1,305,307,306,-1,306,307,308,-1,308,307,309,-1,308,309,310,-1,310,309,311,-1,310,311,312,-1,312,311,313,-1,312,313,314,-1,314,313,315,-1,314,315,316,-1,316,315,317,-1,316,317,318,-1,318,317,319,-1,318,319,320,-1,320,319,321,-1,320,321,322,-1,321,323,322,-1,322,323,324,-1,324,323,325,-1,324,325,326,-1,326,325,327,-1,326,327,328,-1,328,327,329,-1,328,329,330,-1,330,329,331,-1,330,331,332,-1,332,331,333,-1,332,333,334,-1,334,333,335,-1,334,335,336,-1,336,335,337,-1,336,337,338,-1,337,339,338,-1,338,339,340,-1,339,289,340,-1,340,289,291,-1,
        ]
    }
}
Shape{
    appearance Appearance {
        material  Material 	{
            diffuseColor 0.0 0.0 0.0
            specularColor 0.0 0.0 0.0
            ambientIntensity 0.2
            transparency 0
            shininess 0.5
        }
    }
    geometry IndexedFaceSet {
        ccw TRUE
        solid FALSE
        coord DEF co Coordinate {
            point [
                -0.2174 -0.0152 -0.0079, -0.2134 -0.0282 -0.0079, -0.2569 -0.0152 -0.0079, -0.2622 -0.0282 -0.0079, -0.235 0.0341 -0.0079, -0.2295 0.0568 -0.0079, -0.1848 -0.0613 -0.0079, -0.2021 -0.0613 -0.0079, -0.2361 0.0382 -0.0079, -0.2369 0.0424 -0.0079, -0.2453 0.0568 -0.0079, -0.2373 0.0424 -0.0079, -0.238 0.0382 -0.0079, -0.2391 0.0341 -0.0079, -0.2914 -0.0613 -0.0079, -0.2741 -0.0613 -0.0079, -0.2622 -0.0282 -0.0118, -0.2741 -0.0613 -0.0118, -0.2134 -0.0282 -0.0118, -0.2021 -0.0613 -0.0118, -0.1848 -0.0613 -0.0118, -0.2295 0.0568 -0.0118, -0.2453 0.0568 -0.0118, -0.2914 -0.0613 -0.0118, -0.2391 0.0341 -0.0118, -0.238 0.0382 -0.0118, -0.2373 0.0424 -0.0118, -0.2369 0.0424 -0.0118, -0.2361 0.0382 -0.0118, -0.235 0.0341 -0.0118, -0.2174 -0.0152 -0.0118, -0.2569 -0.0152 -0.0118, -0.1145 0.0568 -0.0079, -0.1145 0.0568 -0.0118, -0.0811 0.0568 -0.0079, -0.0811 0.0568 -0.0118, -0.1315 0.0549 -0.0079, -0.1315 0.0549 -0.0118, -0.1453 0.0501 -0.0079, -0.1453 0.0501 -0.0118, -0.1582 0.0415 -0.0079, -0.1582 0.0415 -0.0118, -0.1583 0.0414 -0.0079, -0.1583 0.0414 -0.0118, -0.1667 0.0321 -0.0079, -0.1667 0.0321 -0.0118, -0.1722 0.022 -0.0079, -0.1722 0.022 -0.0118, -0.1753 0.0103 -0.0079, -0.1753 0.0103 -0.0118, -0.1762 -0.0008 -0.0079, -0.1762 -0.0008 -0.0118, -0.1745 -0.0166 -0.0079, -0.1745 -0.0166 -0.0118, -0.1703 -0.029 -0.0079, -0.1703 -0.029 -0.0118, -0.1635 -0.0395 -0.0079, -0.1635 -0.0395 -0.0118, -0.1538 -0.0488 -0.0079, -0.1538 -0.0488 -0.0118, -0.1415 -0.056 -0.0079, -0.1415 -0.056 -0.0118, -0.1278 -0.0601 -0.0079, -0.1278 -0.0601 -0.0118, -0.1132 -0.0613 -0.0079, -0.1132 -0.0613 -0.0118, -0.0811 -0.0613 -0.0079, -0.0811 -0.0613 -0.0118, -0.1525 0.0272 -0.0079, -0.1467 0.0333 -0.0079, -0.1381 0.0389 -0.0079, -0.1284 0.0423 -0.0079, -0.1144 0.0438 -0.0079, -0.097 0.0438 -0.0079, -0.097 -0.0484 -0.0079, -0.1137 -0.0484 -0.0079, -0.1262 -0.0472 -0.0079, -0.1361 -0.0441 -0.0079, -0.1442 -0.0393 -0.0079, -0.1508 -0.0328 -0.0079, -0.1558 -0.0246 -0.0079, -0.1593 -0.0135 -0.0079, -0.1603 -0.0011 -0.0079, -0.1593 0.0106 -0.0079, -0.1566 0.02 -0.0079, -0.1137 -0.0484 -0.0118, -0.097 -0.0484 -0.0118, -0.1262 -0.0472 -0.0118, -0.1361 -0.0441 -0.0118, -0.1442 -0.0393 -0.0118, -0.1508 -0.0328 -0.0118, -0.1558 -0.0246 -0.0118, -0.1593 -0.0135 -0.0118, -0.1603 -0.0011 -0.0118, -0.1593 0.0106 -0.0118, -0.1566 0.02 -0.0118, -0.1525 0.0272 -0.0118, -0.1467 0.0333 -0.0118, -0.1381 0.0389 -0.0118, -0.1284 0.0423 -0.0118, -0.1144 0.0438 -0.0118, -0.097 0.0438 -0.0118, 0.0053 0.0568 -0.0079, 0.0053 0.0568 -0.0118, 0.0053 -0.0613 -0.0079, 0.0053 -0.0613 -0.0118, -0.0552 0.0568 -0.0079, -0.0552 0.0568 -0.0118, -0.0552 0.0438 -0.0079, -0.0552 0.0438 -0.0118, -0.0105 0.0438 -0.0079, -0.0105 0.0438 -0.0118, -0.0105 0.0049 -0.0079, -0.0105 0.0049 -0.0118, -0.0523 0.0049 -0.0079, -0.0523 0.0049 -0.0118, -0.0523 -0.008 -0.0079, -0.0523 -0.008 -0.0118, -0.0105 -0.008 -0.0079, -0.0105 -0.008 -0.0118, -0.0105 -0.0484 -0.0079, -0.0105 -0.0484 -0.0118, -0.0581 -0.0484 -0.0079, -0.0581 -0.0484 -0.0118, -0.0581 -0.0613 -0.0079, -0.0581 -0.0613 -0.0118, 0.0678 -0.0621 -0.0118, 0.0608 -0.0628 -0.0118, 0.0608 -0.0628 -0.0079, 0.0754 -0.0613 -0.0118, 0.0754 -0.0613 -0.0079, 0.0868 -0.0573 -0.0079, 0.0868 -0.0573 -0.0118, 0.0964 -0.0513 -0.0079, 0.0964 -0.0513 -0.0118, 0.1052 -0.0419 -0.0079, 0.1052 -0.0419 -0.0118, 0.1115 -0.0307 -0.0079, 0.1115 -0.0307 -0.0118, 0.1151 -0.0182 -0.0079, 0.1151 -0.0182 -0.0118, 0.1162 -0.0045 -0.0079, 0.1162 -0.0045 -0.0118, 0.1145 0.0123 -0.0079, 0.1145 0.0123 -0.0118, 0.11 0.0257 -0.0079, 0.11 0.0257 -0.0118, 0.1031 0.0367 -0.0079, 0.1031 0.0367 -0.0118, 0.0924 0.047 -0.0079, 0.0924 0.047 -0.0118, 0.0812 0.0534 -0.0079, 0.0812 0.0534 -0.0118, 0.068 0.0572 -0.0079, 0.068 0.0572 -0.0118, 0.0561 0.0582 -0.0079, 0.0561 0.0582 -0.0118, 0.042 0.0572 -0.0079, 0.042 0.0572 -0.0118, 0.0283 0.0535 -0.0079, 0.0283 0.0535 -0.0118, 0.0283 0.0377 -0.0079, 0.0283 0.0377 -0.0118, 0.0417 0.0434 -0.0079, 0.0417 0.0434 -0.0118, 0.056 0.0452 -0.0079, 0.056 0.0452 -0.0118, 0.0676 0.0439 -0.0079, 0.0676 0.0439 -0.0118, 0.0765 0.0408 -0.0079, 0.0765 0.0408 -0.0118, 0.0847 0.0353 -0.0079, 0.0847 0.0353 -0.0118, 0.0918 0.0274 -0.0079, 0.0918 0.0274 -0.0118, 0.0967 0.0183 -0.0079, 0.0967 0.0183 -0.0118, 0.0998 0.0056 -0.0079, 0.0998 0.0056 -0.0118, 0.1004 -0.0035 -0.0079, 0.1004 -0.0035 -0.0118, 0.0992 -0.0163 -0.0079, 0.0992 -0.0163 -0.0118, 0.096 -0.0265 -0.0079, 0.096 -0.0265 -0.0118, 0.0911 -0.0347 -0.0079, 0.0911 -0.0347 -0.0118, 0.0855 -0.0405 -0.0079, 0.0855 -0.0405 -0.0118, 0.0783 -0.0454 -0.0079, 0.0783 -0.0454 -0.0118, 0.0697 -0.0486 -0.0079, 0.0697 -0.0486 -0.0118, 0.0587 -0.0498 -0.0079, 0.0587 -0.0498 -0.0118, 0.043 -0.0481 -0.0079, 0.043 -0.0481 -0.0118, 0.0305 -0.0434 -0.0079, 0.0305 -0.0434 -0.0118, 0.0283 -0.0423 -0.0079, 0.0283 -0.0423 -0.0118, 0.0283 -0.0552 -0.0079, 0.0283 -0.0552 -0.0118, 0.0409 -0.0604 -0.0118, 0.0409 -0.0604 -0.0079, 0.0529 -0.0621 -0.0118, 0.0576 -0.0627 -0.0079, 0.0576 -0.0627 -0.0118, 0.1868 0.0568 -0.0079, 0.1868 0.0568 -0.0118, 0.1868 -0.0613 -0.0079, 0.1868 -0.0613 -0.0118, 0.1709 0.0568 -0.0079, 0.1709 0.0568 -0.0118, 0.1709 -0.0484 -0.0079, 0.1709 -0.0484 -0.0118, 0.1263 -0.0484 -0.0079, 0.1263 -0.0484 -0.0118, 0.1263 -0.0613 -0.0079, 0.1263 -0.0613 -0.0118, 0.1263 -0.0613 -0.0118
            ]
        }
        coordIndex [
            0,1,2,-1,2,1,3,-1,4,5,0,-1,0,5,6,-1,0,6,1,-1,1,6,7,-1,4,8,5,-1,5,8,9,-1,5,9,10,-1,10,9,11,-1,10,11,12,-1,12,13,10,-1,10,13,2,-1,10,2,14,-1,14,2,3,-1,14,3,15,-1,3,16,15,-1,15,16,17,-1,1,18,3,-1,3,18,16,-1,7,19,1,-1,1,19,18,-1,6,20,7,-1,7,20,19,-1,5,21,6,-1,6,21,20,-1,10,22,5,-1,5,22,21,-1,14,23,10,-1,10,23,22,-1,14,15,23,-1,23,15,17,-1,24,13,12,-1,24,12,25,-1,25,12,11,-1,25,11,26,-1,9,27,11,-1,11,27,26,-1,27,9,8,-1,27,8,28,-1,28,8,4,-1,28,4,29,-1,0,30,4,-1,4,30,29,-1,2,31,0,-1,0,31,30,-1,24,31,13,-1,13,31,2,-1,32,33,34,-1,34,33,35,-1,33,32,36,-1,33,36,37,-1,37,36,38,-1,37,38,39,-1,39,38,40,-1,39,40,41,-1,41,40,42,-1,41,42,43,-1,43,42,44,-1,43,44,45,-1,45,44,46,-1,45,46,47,-1,47,46,48,-1,47,48,49,-1,49,48,50,-1,49,50,51,-1,51,50,52,-1,51,52,53,-1,53,52,54,-1,53,54,55,-1,55,54,56,-1,55,56,57,-1,57,56,58,-1,57,58,59,-1,59,58,60,-1,59,60,61,-1,61,60,62,-1,61,62,63,-1,63,62,64,-1,63,64,65,-1,66,67,64,-1,64,67,65,-1,66,34,67,-1,67,34,35,-1,46,44,68,-1,68,44,42,-1,68,42,69,-1,69,42,40,-1,69,40,70,-1,70,40,38,-1,70,38,71,-1,71,38,36,-1,71,36,72,-1,72,36,32,-1,72,32,73,-1,73,32,34,-1,73,34,74,-1,74,34,66,-1,74,66,75,-1,75,66,64,-1,75,64,76,-1,76,64,62,-1,76,62,77,-1,77,62,60,-1,77,60,78,-1,78,60,58,-1,78,58,79,-1,79,58,56,-1,79,56,80,-1,80,56,54,-1,80,54,81,-1,81,54,52,-1,81,52,82,-1,82,52,50,-1,82,50,83,-1,83,50,48,-1,83,48,84,-1,84,48,46,-1,84,46,68,-1,75,85,74,-1,74,85,86,-1,85,75,76,-1,85,76,87,-1,87,76,77,-1,87,77,88,-1,88,77,78,-1,88,78,89,-1,89,78,79,-1,89,79,90,-1,90,79,80,-1,90,80,91,-1,91,80,81,-1,91,81,92,-1,92,81,82,-1,92,82,93,-1,93,82,83,-1,93,83,94,-1,94,83,84,-1,94,84,95,-1,95,84,68,-1,95,68,96,-1,96,68,69,-1,96,69,97,-1,97,69,70,-1,97,70,98,-1,98,70,71,-1,98,71,99,-1,99,71,72,-1,99,72,100,-1,73,101,72,-1,72,101,100,-1,86,101,74,-1,74,101,73,-1,102,103,104,-1,104,103,105,-1,106,107,102,-1,102,107,103,-1,108,109,106,-1,106,109,107,-1,110,111,108,-1,108,111,109,-1,112,113,110,-1,110,113,111,-1,114,115,112,-1,112,115,113,-1,116,117,114,-1,114,117,115,-1,118,119,116,-1,116,119,117,-1,120,121,118,-1,118,121,119,-1,122,123,120,-1,120,123,121,-1,124,125,122,-1,122,125,123,-1,124,104,125,-1,125,104,105,-1,104,124,122,-1,122,120,104,-1,104,120,118,-1,104,118,102,-1,108,106,110,-1,110,106,102,-1,110,102,112,-1,112,102,118,-1,112,118,114,-1,114,118,116,-1,126,127,128,-1,126,128,129,-1,128,130,129,-1,129,130,131,-1,129,131,132,-1,132,131,133,-1,132,133,134,-1,134,133,135,-1,134,135,136,-1,136,135,137,-1,136,137,138,-1,138,137,139,-1,138,139,140,-1,140,139,141,-1,140,141,142,-1,142,141,143,-1,142,143,144,-1,144,143,145,-1,144,145,146,-1,146,145,147,-1,146,147,148,-1,148,147,149,-1,148,149,150,-1,150,149,151,-1,150,151,152,-1,152,151,153,-1,152,153,154,-1,154,153,155,-1,154,155,156,-1,156,155,157,-1,156,157,158,-1,158,157,159,-1,158,159,160,-1,161,162,159,-1,159,162,160,-1,162,161,163,-1,162,163,164,-1,164,163,165,-1,164,165,166,-1,166,165,167,-1,166,167,168,-1,168,167,169,-1,168,169,170,-1,170,169,171,-1,170,171,172,-1,172,171,173,-1,172,173,174,-1,174,173,175,-1,174,175,176,-1,176,175,177,-1,176,177,178,-1,178,177,179,-1,178,179,180,-1,180,179,181,-1,180,181,182,-1,182,181,183,-1,182,183,184,-1,184,183,185,-1,184,185,186,-1,186,185,187,-1,186,187,188,-1,188,187,189,-1,188,189,190,-1,190,189,191,-1,190,191,192,-1,192,191,193,-1,192,193,194,-1,194,193,195,-1,194,195,196,-1,196,195,197,-1,196,197,198,-1,198,197,199,-1,198,199,200,-1,201,202,199,-1,199,202,200,-1,203,202,204,-1,204,202,201,-1,203,204,205,-1,205,204,206,-1,205,206,207,-1,207,206,128,-1,207,128,127,-1,191,128,193,-1,193,128,206,-1,193,206,195,-1,195,206,204,-1,195,204,197,-1,197,204,201,-1,197,201,199,-1,161,159,163,-1,163,159,157,-1,163,157,165,-1,165,157,155,-1,165,155,167,-1,167,155,153,-1,167,153,169,-1,169,153,151,-1,169,151,171,-1,171,151,149,-1,171,149,173,-1,173,149,147,-1,173,147,175,-1,175,147,145,-1,175,145,177,-1,177,145,143,-1,177,143,179,-1,179,143,141,-1,179,141,181,-1,181,141,139,-1,181,139,183,-1,183,139,137,-1,183,137,185,-1,185,137,135,-1,185,135,187,-1,187,135,133,-1,187,133,189,-1,189,133,131,-1,189,131,191,-1,191,131,130,-1,191,130,128,-1,208,209,210,-1,210,209,211,-1,212,213,208,-1,208,213,209,-1,214,215,212,-1,212,215,213,-1,216,217,214,-1,214,217,215,-1,218,219,216,-1,216,219,217,-1,218,210,219,-1,219,210,211,-1,212,208,214,-1,214,208,210,-1,214,210,216,-1,216,210,218,-1,
        ]
    }
}
Shape{
    appearance Appearance {
        material  Material 	{
            diffuseColor 0.7529411764705882 0.7529411764705882 0.7529411764705882
            specularColor 0.3764705882352941 0.3764705882352941 0.3764705882352941
            ambientIntensity 0.2
            transparency 0
            shininess 0.5
        }
    }
    geometry IndexedFaceSet {
        ccw TRUE
        solid FALSE
        coord DEF co Coordinate {
            point [
                -0.2174 -0.0152 -0.0118, -0.2569 -0.0152 -0.0118, -0.235 0.0341 -0.0118, -0.2391 0.0341 -0.0118, -0.2361 0.0382 -0.0118, -0.238 0.0382 -0.0118, -0.2369 0.0424 -0.0118, -0.2373 0.0424 -0.0118, -0.097 0.0438 -0.0118, -0.097 -0.0484 -0.0118, -0.1144 0.0438 -0.0118, -0.1137 -0.0484 -0.0118, -0.1262 -0.0472 -0.0118, -0.1603 -0.0011 -0.0118, -0.1593 0.0106 -0.0118, -0.1566 0.02 -0.0118, -0.1284 0.0423 -0.0118, -0.1361 -0.0441 -0.0118, -0.1442 -0.0393 -0.0118, -0.1508 -0.0328 -0.0118, -0.1558 -0.0246 -0.0118, -0.1593 -0.0135 -0.0118, -0.1525 0.0272 -0.0118, -0.1467 0.0333 -0.0118, -0.1381 0.0389 -0.0118, -0.1381 0.0389 -0.0118
            ]
        }
        coordIndex [
            0,1,2,-1,2,1,3,-1,2,3,4,-1,4,3,5,-1,4,5,6,-1,6,5,7,-1,8,9,10,-1,10,9,11,-1,10,11,12,-1,13,14,10,-1,10,14,15,-1,10,15,16,-1,12,17,10,-1,10,17,18,-1,10,18,19,-1,19,20,10,-1,10,20,21,-1,10,21,13,-1,22,23,15,-1,15,23,24,-1,15,24,16,-1,
        ]
    }
}